<?xml version="1.0" encoding="utf-8"?>
<!-- Generator: Adobe Illustrator 16.0.0, SVG Export Plug-In . SVG Version: 6.00 Build 0)  -->
<!DOCTYPE svg PUBLIC "-//W3C//DTD SVG 1.1//EN" "http://www.w3.org/Graphics/SVG/1.1/DTD/svg11.dtd">
<svg version="1.1" xmlns="http://www.w3.org/2000/svg" xmlns:xlink="http://www.w3.org/1999/xlink" x="0px" y="0px"
	 width="1300.9px" height="693.6px" viewBox="0 0 1300.9 693.6" enable-background="new 0 0 1300.9 693.6" xml:space="preserve">
<g id="Layer_2" display="none">
	<path display="inline" fill="#FFFFFF" d="M402.7,69.1c0,0,38.1-120.6,224.4-144.8c0,0,191.5-24.8,276.3,125.7
		c0,0,69.8,142.5-62.3,237.6c0,0-127.3,103.6-303,31.3c0,0-78.2,57.5-185.5,110.6c0,0-7-3.5-2-7.2c0,0,110.7-95.5,112.9-148.8
		C463.4,273.6,360.6,197.1,402.7,69.1z"/>
</g>
<g id="Layer_1">
	<g>
		<path fill="#525FAB" d="M845,349.8c-0.5,1.4-1,2.7-1.5,4.1c-2.5,6.2-5.3,12.2-8.7,18c-3.2,5.9-7.1,11.4-11,16.8
			c-8.2,10.6-17.7,20.4-28.2,29c-21,17.3-45.9,30-72.2,38.1c-13.2,4-26.8,6.9-40.5,8.6c-3.4,0.4-6.9,0.9-10.3,1.1
			c-3.4,0.2-6.7,0.6-10.4,0.6l-5.4,0.2l-1.3,0l-0.3,0l-0.1,0c0,0-0.1,0-0.1,0l-3.3,0c-3.5-0.1-7,0-10.4-0.1l-10.4-0.6
			c-3.5-0.3-6.9-0.7-10.4-1.1c-3.5-0.3-6.9-0.9-10.3-1.4c-1.7-0.3-3.4-0.5-5.2-0.8l-5.1-1.1c-13.6-2.8-27.1-6.6-40.1-11.8l-0.3-0.1
			c-2.1-0.8-4.7-0.5-6.5,1.1l-16.9,14.1c-2.8,2.4-5.7,4.6-8.6,6.9l-8.7,6.8c-2.9,2.2-5.8,4.6-8.8,6.6l-8.9,6.4l-9,6.4l-9.3,6.1
			l-9.3,6l-2.3,1.5L470,512l-1.1,0.7l-4.8,2.8l-9.5,5.7l-9.6,5.5c-3.2,1.8-6.4,3.7-9.7,5.4l-8.5,4.5l12.7-12
			c2.5-2.3,4.9-4.8,7.3-7.2l7.3-7.3c1.2-1.2,2.4-2.4,3.6-3.7l3.5-3.8l7-7.6l3.5-3.8c1.2-1.3,2.2-2.6,3.3-3.9l6.6-7.8l3.3-3.9l0.8-1
			l0.9-1.1l1.6-2c2.2-2.7,4.3-5.5,6.4-8.3c2.1-2.8,4.1-5.8,6-8.9c1.9-3.1,3.6-6.4,5.1-9.8c1.5-3.4,2.7-7.2,3.4-11
			c0.2-1,0.4-1.9,0.5-3l0.2-3.3c0-0.3,0-0.5,0-0.7l0-0.6l0-1.3l0-0.6l0-0.3v0l0-0.4l0-0.1l0-0.2l-0.2-1.6c-0.2-1.4-0.8-2.7-1.9-3.7
			l-0.3-0.3c-6.2-5.9-12-12.1-17.4-18.7c-5.4-6.6-10.1-13.6-14.3-20.9c-2.1-3.6-4-7.4-5.9-11.1l-2.5-5.7c-0.8-1.9-1.5-3.9-2.3-5.8
			c-0.5-1.2-0.9-2.5-1.3-3.7c-0.7,0.2-1.4,0.4-2.1,0.6c-2.7,0.8-5.9,1.3-8.3,2c-1,0.3-4.2,0.9-6.9,1.3c0.7,2.1,1.4,4.1,2.3,6.1
			c3.4,8.8,7.9,17.1,12.9,24.9c5.1,7.8,10.7,15.2,17,22c5.7,6.2,11.8,12,18.2,17.3l0.1,0.7l0,0.6c0,0.2,0,0.4,0,0.6
			c0,0.6,0,1.2,0,1.8c0,0.6-0.1,1.4-0.2,2.1c-0.4,2.9-1,5.8-2.1,8.7c-1,2.9-2.3,5.8-3.8,8.7c-1.5,2.8-3.1,5.7-4.9,8.5
			c-1.8,2.8-3.7,5.6-5.6,8.3l-1.5,2.1l-0.7,0.9l-0.8,1l-3.1,4.1l-6.2,8.2c-1,1.4-2,2.8-3.1,4.1l-3.2,3.9l-6.5,7.7l-3.3,3.9
			c-1.1,1.3-2.3,2.5-3.5,3.7l-6.9,7.5c-2.3,2.5-4.6,5-7.1,7.3l-7.3,7.2l-7.3,7.1l-3.7,3.5c-1.2,1.2-2.4,2.4-3.7,3.4
			c-1.3,1.1-2.5,2.3-3.8,3.3l-3.9,2.9l-0.1,0.1c-1.1,0.9-1.5,2.4-0.9,3.8c0.7,1.5,2.6,2.1,4.1,1.4l10-4.9c3.3-1.6,6.7-3.2,10-5
			l9.9-5.1c3.3-1.7,6.6-3.4,9.9-5.2l9.8-5.2l9.7-5.4l4.9-2.7l0.6-0.3l0.7-0.4l1.2-0.7l2.4-1.4l9.6-5.6l9.6-5.6l9.5-6l9.5-6
			c3.2-2,6.2-4.1,9.3-6.2l9.2-6.3c3.1-2.1,6.2-4.2,9.2-6.4l14.6-10.8c12.4,5.5,25.2,10,38.4,13.3c14.4,3.6,29.1,6.1,43.9,7.1
			c3.7,0.3,7.4,0.3,11.1,0.5l2.8,0.1l0.7,0l0.9,0l1.4,0l5.4,0c3.5,0,7.4-0.2,11.2-0.4c3.8-0.1,7.5-0.6,11.2-0.9
			c14.8-1.5,29.6-4.2,44-8.2c14.4-4,28.5-9.5,41.9-16.2c13.4-6.8,26.4-14.7,38.2-24.2c11.8-9.5,22.6-20.4,31.9-32.6
			c8.5-11.3,15.6-23.8,21-37C855.7,360.3,849.5,355.8,845,349.8z"/>
		<path fill="#525FAB" d="M810.7,206.8l1.7,1.9l3.5,3.9c1,1.1,1.8,2.2,2.7,3.3c1.1-5.8,2.2-10.5,3.1-15.3c0.1-0.3,0.1-0.5,0.2-0.8
			c-1.5-1.4-3-2.7-4.5-4c-11.3-9.7-23.6-18.1-36.5-25.1c-12.9-6.9-26.5-12.6-40.3-17.1c-13.8-4.5-28-7.8-42.3-9.9
			c-3.6-0.5-7.2-1-10.7-1.4c-3.6-0.4-7.2-0.7-10.8-1l-10.8-0.6l-10.8-0.2h0c-8.8,0.1-17.8,0.4-26.6,1.3c-8.9,0.7-17.7,2.1-26.4,3.7
			c-4.4,0.9-8.8,1.7-13.1,2.9c-2.2,0.5-4.3,1-6.5,1.6l-6.4,1.8c-2.2,0.6-4.3,1.3-6.4,2c-2.1,0.7-4.3,1.3-6.4,2.1
			c-4.2,1.6-8.4,3-12.6,4.9c-4.2,1.7-8.2,3.6-12.3,5.5c-2,1-4,2-6,3.1l-3,1.6c-1,0.5-2,1.1-3,1.7l-5.9,3.4l-5.7,3.6
			c-1.9,1.2-3.8,2.5-5.6,3.8c-1.9,1.3-3.8,2.6-5.5,4l-5.4,4.2c-1.8,1.5-3.5,3-5.2,4.4c-1.8,1.5-3.4,3-5.1,4.6
			c-1.6,1.6-3.4,3.1-4.9,4.8l-4.8,5l-4.5,5.2c-1.5,1.7-2.9,3.6-4.3,5.4c-1.4,1.8-2.9,3.7-4.1,5.6c-5.4,7.6-10,15.7-13.8,24.3
			c-2,4.2-3.6,8.7-5.2,13.1l-1.5,4.8c0.4,0,0.9,0.2,1.4,0.4c1.1,0.4,2.9,1,4.2,1.6c1.2,0.6,7.9,3.4,10.6,4.8l0.1-0.3l1.6-6l1.9-5.9
			c0.6-2,1.5-3.9,2.2-5.9c3.1-7.7,6.7-15.4,11.2-22.5c1-1.8,2.2-3.6,3.4-5.4c1.2-1.8,2.3-3.6,3.6-5.3l3.8-5.1l4-5
			c5.6-6.5,11.4-12.8,17.9-18.5c6.4-5.7,13.2-11.2,20.4-16c0.9-0.6,1.8-1.3,2.7-1.9l2.8-1.7c1.8-1.1,3.7-2.4,5.5-3.5l5.7-3.3
			c1.9-1.1,3.9-2,5.8-3.1c3.9-2.1,7.9-3.8,11.9-5.6c2-0.9,4.1-1.7,6.1-2.5c2-0.8,4.1-1.7,6.1-2.4l6.2-2.2c2.1-0.7,4.2-1.3,6.3-1.9
			c4.2-1.4,8.5-2.3,12.8-3.4c2.1-0.5,4.3-0.9,6.5-1.4c2.2-0.4,4.3-0.9,6.5-1.2l6.5-1c2.2-0.4,4.4-0.5,6.6-0.8
			c8.8-1.1,17.6-1.3,26.4-1.5l10.7,0.3l10.7,0.7c3.6,0.4,7.1,0.8,10.7,1.3c3.5,0.6,7.1,1.1,10.6,1.7c14,2.7,27.8,6.6,41,11.9
			c13.2,5.3,25.9,11.9,37.6,19.6c11.8,7.8,22.6,16.8,32.3,26.8L810.7,206.8z"/>
		<path fill="#525FAB" d="M849.8,280.3c0.3,1.6,0.7,3.3,0.9,4.9l0.7,5l0.3,2.5l0.2,2.4l0.4,4.8c0,0.3,0,0.6,0,0.9c0,0,0.1,0,0.1,0
			c0-0.2,0-0.3,0.1-0.5c0.7-6.4,1.7-13.7,2.9-22c1.2-8.3,2.5-16.7,3.9-25.2c0.1-0.7,0.2-1.3,0.3-2c-1.8-3.9-3.7-7.7-5.8-11.4
			c-0.3,1.5-0.7,3-1,4.5c-1.7,7.9-3.4,15.8-5.1,23.7c-0.2,0.7-0.3,1.5-0.5,2.2c0.5,1.7,1,3.5,1.4,5.2
			C849.2,277,849.5,278.7,849.8,280.3z"/>
		<g>
			<path d="M418.8,279.4c4.2-1,8.5-1.7,12.7-1.9c2-0.1,3.3,0.9,4,3.1c0.5,1.2,0.8,2.2,1.1,3.1c0.2,0.9,0.4,1.9,0.7,3
				c0.2,1.3,0.1,2.2-0.1,2.6c-0.3,0.5-0.9,0.8-2,1c-2.1,0.3-4.4,0.6-6.8,1c-2.4,0.4-4.8,0.8-7.4,1.3c-0.5,2.3-1,4.7-1.5,7.2
				c-0.5,2.5-1.1,5.2-1.7,7.9c1.2-0.2,2.3-0.4,3.5-0.5c1.1-0.1,2.3-0.2,3.5-0.2c1-0.1,1.9,0.1,2.5,0.4c0.6,0.3,1.1,1,1.6,2.1
				c0.5,1.1,0.9,2.2,1.2,3.2c0.3,1,0.5,2.1,0.8,3.2c0.3,1.3,0.3,2.1,0.1,2.6c-0.3,0.4-0.9,0.8-1.9,1.1c-2.3,0.6-4.7,1.2-7.1,1.8
				c-2.4,0.6-4.8,1.2-7,1.9c-0.3,1.8-0.6,3.5-0.9,5.2c-0.3,1.7-0.6,3.3-0.9,4.9c1.8-0.5,3.6-0.9,5.3-1.1c1.7-0.3,3.6-0.5,5.5-0.7
				c1-0.1,1.9,0,2.5,0.4c0.6,0.4,1.2,1.1,1.6,2.1c0.5,1.2,0.9,2.3,1.2,3.3c0.3,1,0.6,2.1,0.9,3.2c0.2,1.2,0.3,2.1,0.1,2.5
				c-0.2,0.5-0.9,0.8-1.9,1.1c-2.6,0.7-5.2,1.5-7.9,2.3s-5.3,1.5-7.7,2.2c-1.6,0.6-2.9,0.8-3.7,0.4c-0.8-0.3-1.6-0.8-2.2-1.4
				c-0.7-0.7-1.3-1.4-1.9-2.1c-0.6-0.7-1.3-1.6-2.1-2.7c-0.7-0.9-1.2-1.9-1.5-3c-0.3-1.2-0.4-2.5-0.3-4.1l7-53.2
				C410.9,281.6,414.6,280.5,418.8,279.4z"/>
			<path d="M454.6,346.5c-2.7,0.8-5.3,1.5-7.7,2.3c-1.8,0.7-3.1,0.9-3.9,0.5c-0.8-0.4-1.5-0.9-2-1.4c-0.7-0.7-1.3-1.4-1.8-2.1
				c-0.5-0.7-1.3-1.6-2.2-2.7c-0.7-0.9-1.2-1.8-1.5-2.9c-0.3-1.1-0.4-2.3-0.2-3.8c0.2-2.3,0.4-4.9,0.8-7.9c0.3-3,0.7-6.1,1.2-9.5
				c0.5-3.3,1-6.8,1.5-10.4c0.6-3.6,1.1-7,1.7-10.5c0.6-3.4,1.2-6.7,1.8-9.8c0.6-3.1,1.1-5.9,1.7-8.4c0.4-1.3,0.8-2.2,1.4-2.4
				c0.6-0.3,1.4-0.2,2.4,0.2c1.1,0.4,2.3,0.9,3.6,1.6c1.3,0.7,2.4,1.5,3.4,2.3c1,0.9,1.6,1.6,1.8,2.3c0.2,0.7,0.2,1.7-0.1,2.9
				c-0.7,3-1.4,6.4-2.1,10.1c-0.7,3.7-1.5,7.6-2.2,11.7c-0.7,4.1-1.5,8.2-2.2,12.3c-0.7,4.2-1.4,8.2-2,12.1c1.8-0.4,3.5-0.8,5.1-1
				c1.6-0.2,3.4-0.5,5.2-0.6c1-0.1,1.9,0,2.5,0.3c0.6,0.3,1.2,1.1,1.7,2.2c0.5,1,0.9,2.1,1.2,3.2c0.3,1.1,0.6,2.2,0.8,3.2
				c0.3,1.3,0.4,2.1,0.3,2.6c-0.1,0.4-0.8,0.8-2,1.2C460,345,457.3,345.7,454.6,346.5z"/>
			<path d="M492,328.9c-1,6.4-1.8,12.7-2.6,19c-0.5,2-1.1,3.3-1.8,3.9c-0.8,0.6-2.2,0.6-4.2,0c-2.1-0.9-4.1-1.7-6.2-2.5
				c-2-0.8-3.8-1.8-5.2-3.1c-1.5-1.3-2.6-2.9-3.2-4.9c-0.7-2-0.7-4.5-0.1-7.7c0.9-2.8,1.7-7.4,2.5-13.7c0.8-6.3,1.6-13.4,2.3-21.4
				c0.7-7.9,1.5-16.1,2.2-24.5c0.7-8.4,1.5-16.2,2.2-23.3c0.7-7.1,1.4-13,2.1-17.8c0.7-4.7,1.4-7.3,2.1-7.8
				c4.2-2.9,8.9-5.9,14.2-8.8c5.3-3,10.6-5.2,15.8-6.7c5.3-1.5,10.3-2.1,15-1.6c4.7,0.5,8.7,2.8,11.9,6.8c2.6,3.6,5,7.5,7.3,11.8
				c2.3,4.3,4.1,9.6,5.4,15.8c1.3,6.3,1.1,11.9-0.6,16.8c-1.8,5-4.1,9.7-7.1,14.1c-2.5,3.7-5.5,7.3-9.1,10.9
				c-3.6,3.6-7.6,6.9-11.9,10c-4.3,3.1-8.8,6-13.5,8.6c-4.7,2.6-9.5,4.8-14.3,6.6C494,316,493,322.5,492,328.9z M514.5,268.9
				c4-3.4,7.2-6.9,9.7-10.5c2.5-3.6,4.3-7,5.3-10.3c1-3.3,1.2-6.1,0.5-8.3c-0.2-1.2-1-2.1-2.4-2.8c-1.3-0.6-3.1-0.9-5.2-0.8
				c-2.1,0.1-4.4,0.5-7.1,1.3c-2.6,0.8-5.3,2-8,3.6c-1.2,5.5-2.4,11.3-3.5,17.4c-1.1,6.1-2.3,12.5-3.5,19.2
				C505.8,275.2,510.5,272.3,514.5,268.9z"/>
			<path d="M555,306.3c-0.1-9.1,0.5-18.9,1.7-29.3c1.2-10.4,2.9-20.9,5.1-31.7c2.1-10.7,4.3-20.8,6.5-30.3c0.6-2.7,1.5-4.3,2.7-4.9
				c1.2-0.6,2.9-0.3,5.1,0.6c2.1,0.9,4.1,2,6.1,3.3c2,1.4,3.9,2.9,5.7,4.6c3.9,3.9,5.2,8.8,3.9,14.7c-1.2,5.3-2.6,11.2-4,17.7
				c-1.4,6.5-2.7,13.1-4,19.8c-1.2,6.7-2.3,13.3-3.1,19.8c-0.9,6.5-1.4,12.4-1.7,17.6c-0.2,5.2-0.1,9.6,0.6,13.1
				c0.6,3.5,1.8,5.6,3.5,6.3c2.2,0.9,4.3-0.5,6.3-4.1c2-3.6,3.9-8.6,5.7-15c1.8-6.4,3.5-13.8,5.1-22.2c1.6-8.4,3.1-17,4.4-25.7
				c1.3-8.7,2.5-17.2,3.6-25.5c1-8.3,1.9-15.5,2.7-21.6c0.1-2.7,0.9-4.3,2.3-5c1.4-0.6,3.2-0.6,5.2,0.2c2.1,0.7,4.3,1.9,6.6,3.4
				c2.3,1.5,4.5,3,6.4,4.5c2.1,1.7,3.3,3.2,3.7,4.6c0.4,1.4,0.4,3.3,0,5.9c-1.7,15-3.5,28.9-5.3,41.8c-1.8,12.9-4,24.4-6.3,34.7
				c-2.4,10.2-5.1,19-8.1,26.2c-3,7.2-6.5,12.6-10.4,16c-2.8,2.1-5.7,3.5-8.6,4.3c-2.9,0.8-6.2,1-9.8,0.6c-7.4-0.7-13.4-3.1-18-7
				c-2-1.7-3.8-3.7-5.5-6.1c-1.7-2.3-3.2-5.2-4.4-8.7C556.3,323.1,555.1,315.5,555,306.3z"/>
			<path d="M694.2,249.4c2-13.1,4-24.8,5.8-35.2c0.5-2.7,1.3-4.4,2.5-5.1c1.2-0.7,2.9-0.6,5.1,0.1c2.2,0.7,4,1.5,5.5,2.2
				c1.5,0.7,3.5,2.1,6.1,4.2c2.1,1.7,3.3,3.5,3.7,5.2c0.4,1.8,0.3,4-0.2,6.5c-1.4,7.5-2.8,16.2-4.3,26.2c-1.5,10-3,20.3-4.5,31
				c-1.5,10.7-2.9,21.3-4.3,31.7c-1.4,10.5-2.7,20-3.8,28.4c-0.4,4.7-2.8,6.3-7.2,4.8c-2-0.6-3.9-1.3-5.8-2.1
				c-1.9-0.8-3.8-1.7-5.8-2.7c-3.6-2.1-6.1-5.8-7.5-11c-1.1-3.7-2.2-7.9-3.4-12.7c-1.2-4.8-2.3-9.9-3.4-15.4
				c-1.1-5.5-2.2-11.1-3.3-16.8c-1.1-5.8-2.1-11.5-3.1-17.3c-1,6.9-2,13.8-3,20.9c-1,7.1-2,13.8-2.9,20.3
				c-0.9,6.5-1.8,12.6-2.6,18.4c-0.8,5.8-1.5,10.9-1.9,15.3c-0.2,2.1-0.8,3.4-1.6,4c-0.8,0.5-2.2,0.4-4.3-0.5c-2-0.7-3.9-1.5-6-2.3
				c-2-0.8-3.9-2.1-5.6-3.8c-1.7-1.4-2.9-2.9-3.4-4.7c-0.5-1.8-0.7-4.3-0.3-7.4c0.3-3.2,0.7-7.6,1.3-13.2c0.6-5.6,1.3-11.9,2.1-18.9
				c0.8-7,1.7-14.4,2.8-22.2c1-7.8,2.1-15.5,3.1-23.2c1-7.7,2.1-14.9,3.2-21.8c1.1-6.9,2.1-12.9,3.1-18c0.6-2.8,1.6-4.6,3-5.3
				c1.3-0.7,3.1-0.7,5.2,0c2.6,1,5.1,2,7.6,3.1c2.5,1.1,5.1,2.5,7.8,4.2c2.2,1.2,3.8,2.8,4.7,4.7c0.9,1.9,1.6,4.7,2.1,8.4
				c0.4,2.8,0.8,6.5,1.5,11.1c0.6,4.6,1.3,9.6,2.1,15.1c0.8,5.5,1.6,11.2,2.5,17.1c0.9,5.9,1.7,11.7,2.6,17.2
				C690.4,276.1,692.1,262.5,694.2,249.4z"/>
			<path d="M793,232.5c-3.4,0.4-6.8,0.9-10.4,1.4c-1.5,8.7-3,17.9-4.6,27.5c-1.6,9.6-3.2,19.4-4.8,29.3c-1.6,9.9-3.1,19.7-4.5,29.4
				c-1.4,9.7-2.7,18.9-3.8,27.6c-0.1,1.7-0.5,2.9-1.1,3.5c-0.6,0.6-1.5,0.9-2.5,0.7c-1-0.1-2.3-0.5-3.7-1.1c-1.4-0.6-3-1.3-4.7-2
				c-3.4-1.5-6.1-3.3-8.1-5.5c-2-2.2-2.6-5.6-1.8-10.3c0.4-5.6,1-12.5,1.8-20.4c0.8-8,1.8-16.3,2.9-24.8c1.1-8.6,2.3-17.2,3.6-25.8
				c1.3-8.6,2.5-16.4,3.8-23.4c-2.1,0.5-4.1,0.9-6.2,1.3c-2,0.4-3.7,0.8-5.1,1.3c-1.8,0.6-3.3,0.7-4.5,0.3c-1.2-0.4-2.4-1.7-3.8-3.8
				c-1.5-2.1-2.8-4.7-4-7.9c-1.2-3.2-2.1-5.8-2.9-7.9c-0.7-2.2-0.8-3.7-0.4-4.4c0.5-0.7,1.4-1.3,2.8-1.8c4.2-1.1,8.9-2.1,14.3-3.1
				c5.3-1,10.8-1.8,16.3-2.6c5.5-0.7,10.9-1.3,16.3-1.8c5.3-0.5,10.1-0.9,14.3-1.1c2.1,0,3.6,0.3,4.7,0.8c1,0.6,1.9,1.4,2.7,2.7
				c1.5,2.2,2.7,4.6,3.8,7.2c1,2.6,1.9,5.1,2.5,7.5c0.5,2.3,0.6,3.9,0.2,4.7c-0.4,0.8-1.7,1.3-3.9,1.6
				C799.5,231.7,796.4,232.1,793,232.5z"/>
			<path d="M805.6,329.1c0.9-2.3,2-4.1,3.4-5.6c1.4-1.5,3.1-2.5,5.2-2.9c2-0.5,4.3-0.2,6.9,0.9c2.2,0.9,4,2.1,5.3,3.8
				c1.3,1.7,2.4,3.4,3,5.3c0.7,1.9,1,3.8,1.1,5.8c0.1,2-0.1,3.7-0.5,5.2c-0.3,1.1-0.7,2.4-1.4,3.9c-0.7,1.5-1.5,3-2.6,4.3
				c-1,1.3-2.3,2.5-3.8,3.4c-1.5,0.9-3.1,1.4-5,1.4c-3.8,0.1-7-1.4-9.7-4.7c-2.6-3.3-3.8-7.8-3.6-13.7
				C804.2,333.8,804.7,331.4,805.6,329.1z M850.7,213.2c0.5,1.8,0.4,4-0.2,6.5c-1.7,7.5-3.4,15.2-5.2,23.1
				c-1.7,7.9-3.4,15.8-5.1,23.7c-1.6,7.9-3.2,15.7-4.7,23.3c-1.5,7.6-2.8,14.8-3.9,21.5c-0.4,2.5-1,4-1.8,4.5
				c-0.9,0.5-2.2,0.5-4-0.1c-4.2-1.1-8-2.9-11.4-5.5c-1.8-1.4-3-2.9-3.6-4.6c-0.6-1.7-0.6-4.2-0.1-7.4c0.7-6.4,1.7-13.7,2.9-22
				c1.2-8.3,2.5-16.7,3.9-25.2c1.3-8.5,2.8-16.8,4.2-24.9c1.5-8.1,2.8-15.2,4-21.3c0.6-2.8,1.4-4.6,2.5-5.2c1-0.7,2.7-0.5,5,0.5
				c2.1,0.7,4.4,1.8,6.9,3.2c2.5,1.4,4.8,3,6.7,4.7C849,209.7,850.2,211.4,850.7,213.2z"/>
			<path d="M854.7,329.1c0.9-2.3,2-4.1,3.4-5.6c1.4-1.5,3.1-2.5,5.1-2.9c2-0.5,4.3-0.2,6.9,0.9c2.2,0.9,4,2.1,5.3,3.8
				c1.3,1.7,2.4,3.4,3,5.3c0.7,1.9,1,3.8,1.1,5.8c0.1,2-0.1,3.7-0.5,5.2c-0.2,1.1-0.7,2.4-1.4,3.9c-0.7,1.5-1.5,3-2.6,4.3
				c-1.1,1.3-2.3,2.5-3.8,3.4c-1.5,0.9-3.1,1.4-5,1.4c-3.8,0.1-7-1.4-9.7-4.7c-2.6-3.3-3.8-7.8-3.6-13.7
				C853.4,333.8,853.9,331.4,854.7,329.1z M899.8,213.2c0.5,1.8,0.4,4-0.2,6.5c-1.7,7.5-3.4,15.2-5.2,23.1
				c-1.7,7.9-3.4,15.8-5.1,23.7c-1.7,7.9-3.2,15.7-4.7,23.3c-1.5,7.6-2.8,14.8-3.9,21.5c-0.4,2.5-1,4-1.8,4.5
				c-0.9,0.5-2.2,0.5-4-0.1c-4.2-1.1-8-2.9-11.4-5.5c-1.8-1.4-3-2.9-3.6-4.6c-0.6-1.7-0.6-4.2-0.1-7.4c0.7-6.4,1.7-13.7,3-22
				c1.2-8.3,2.5-16.7,3.9-25.2c1.4-8.5,2.8-16.8,4.2-24.9c1.5-8.1,2.8-15.2,4.1-21.3c0.6-2.8,1.4-4.6,2.5-5.2c1-0.7,2.7-0.5,5.1,0.5
				c2.1,0.7,4.4,1.8,6.9,3.2c2.5,1.4,4.8,3,6.7,4.7C898.1,209.7,899.3,211.4,899.8,213.2z"/>
		</g>
		<g>
			<path fill="#525FAB" d="M529.9,394.9c-0.9,0.7-1.6,1-2.2,1c-0.4,0-0.8-0.3-1-0.8c-1.2,0.7-2.4,1-3.7,1c-2.2,0-3.9-0.8-5.4-2.5
				c-1.4-1.6-2.1-3.5-2.1-5.7c0-2.2,0.7-4.2,2.2-6c1.5-1.9,3.4-2.8,5.6-2.8c0.9,0,1.7,0.2,2.5,0.5v-3.6c0-0.6,0-1.6-0.1-2.8
				c0-0.6,0-1.2-0.1-1.7c0-0.5,0-0.9,0-1.2c0-1.1,0.6-1.7,1.7-1.7c0.9,0,1.5,0.5,1.8,1.5c0.1,0.4,0.2,1.3,0.2,2.6
				c0,1.8,0,3.7,0.1,5.5c0,1.8,0,3.7,0,5.5c0,2.2,0.1,4.2,0.2,6.1C529.7,391.8,529.8,393.4,529.9,394.9z M526.2,391.1
				c-0.1-0.8-0.1-1.8-0.1-3c0-1.2,0-2.5,0-4c-0.9-0.8-1.8-1.2-2.6-1.2c-1.1,0-2,0.6-2.8,1.7c-0.7,1-1.1,2.1-1.1,3.2
				c0,1.2,0.3,2.2,0.9,3.1c0.7,1,1.6,1.5,2.7,1.5C524.2,392.4,525.3,392,526.2,391.1z"/>
			<path fill="#525FAB" d="M537.1,367.7c0.3,0.6,0.3,1.8,0,3.6c-0.3,1.9-0.8,2.9-1.3,3.3c-0.2,0.1-0.4,0.2-0.7,0.2
				c-0.2,0-0.5,0-0.7,0c-0.2,0-0.4-0.1-0.6-0.3c-0.2-0.1-0.4-0.3-0.5-0.5c-0.2-0.3-0.2-1.2-0.1-2.7c0.1-1.2,0.3-2.2,0.5-2.8
				c0.2-0.7,0.5-1.1,0.9-1.4c0.4-0.2,0.9-0.3,1.3-0.2C536.5,367,536.9,367.2,537.1,367.7z"/>
			<path fill="#525FAB" d="M546.2,381.2c0.2,0.9,0.1,2.1-0.1,3.6c0,0.9-0.1,1.6-0.1,2.2s0,1-0.1,1.3c0,1.1,0,2-0.1,2.6
				c0,0.6,0,0.9,0,1c0,0.7-0.1,1.3-0.1,1.9c-0.1,0.6-0.1,1.2-0.2,1.7c-0.8,0.3-1.4,0.5-1.8,0.5c-0.9,0-1.4-0.6-1.4-1.7v-3.2
				c0.1-1.5,0.2-4,0.2-7.5c0-2.8,0.7-4.2,2.1-4.2C545.6,379.5,546.2,380.1,546.2,381.2z M546.4,375.7c0,0.5-0.2,1-0.6,1.5
				c-0.4,0.4-0.8,0.6-1.4,0.6c-0.6,0-1.1-0.2-1.5-0.6c-0.4-0.4-0.6-0.9-0.6-1.5c0-0.3,0-0.5,0.1-0.8c0.1-0.2,0.2-0.5,0.4-0.7
				c0.2-0.2,0.4-0.3,0.6-0.4c0.2-0.1,0.5-0.2,0.7-0.2c0.3,0,0.6,0.1,0.8,0.2c0.3,0.1,0.5,0.2,0.7,0.4c0.2,0.2,0.4,0.4,0.5,0.6
				C546.3,375.1,546.4,375.4,546.4,375.7z"/>
			<path fill="#525FAB" d="M562.2,387.4c0,0.4,0,0.8,0,1.4s-0.1,1.2-0.1,2c-0.1,1.5-0.2,2.7-0.2,3.4c0,0.3,0,0.5-0.1,0.7
				c-0.1,0.2-0.2,0.4-0.4,0.6c-0.2,0.2-0.3,0.3-0.6,0.4c-0.2,0.1-0.5,0.2-0.7,0.2c-1.3,0-1.9-1-1.9-3c0-0.3,0-0.7,0-1.2
				c0-0.5,0.1-1,0.1-1.7c0-0.7,0.1-1.2,0.1-1.7c0-0.5,0-0.9,0-1.2c0-3.1-0.9-4.6-2.7-4.6c-1.4,0-2.5,0.7-3.3,2v8.5
				c0,1.9-0.6,2.9-1.9,2.9c-1.2,0-1.8-0.7-1.8-2.2v-6.5c0-1.6,0.1-4,0.1-7.3c0.9-0.6,1.7-0.9,2.2-0.9c0.5,0,0.9,0.3,1.1,0.8
				c1.1-0.7,2.3-1,3.6-1c2.2,0,3.9,0.9,5,2.6C561.8,383.1,562.2,385,562.2,387.4z"/>
			<path fill="#525FAB" d="M578.3,374.4c0,1.5-0.6,2.2-1.9,2.2c-0.8,0-1.3-0.4-1.6-1.1c-0.1-0.3-0.1-0.7-0.2-1
				c-0.1-0.3-0.1-0.6-0.2-1c-0.2-0.7-0.5-1.1-1.1-1.1c-1.3,0-2.2,1.3-2.8,3.9c-0.4,1.7-0.6,3.4-0.6,5.3c0.7,0,1.3,0,1.9-0.1
				c0.6,0,1.2,0,1.8,0c1.5,0,2.2,0.6,2.2,1.8c0,1.3-1.2,1.9-3.5,1.9c-0.1,0-0.3,0-0.5,0c-0.2,0-0.4,0-0.7,0c-0.5,0-0.9-0.1-1.2-0.1
				c0.3,2.2,0.6,5.5,0.9,9.9c-1,0.7-1.8,1-2.3,1c-0.9,0-1.4-1-1.4-2.9c-0.1-0.3-0.1-0.9-0.2-1.6c-0.1-0.7-0.2-1.6-0.3-2.6
				c-0.1-1-0.2-2.3-0.4-3.7l-1.3,0c-0.6-0.9-0.9-1.5-0.9-2.1c0-0.9,0.7-1.3,2.1-1.3c0-3.3,0.4-5.9,1.1-7.8c1.3-3.6,3.3-5.4,5.9-5.4
				c1.5,0,2.8,0.6,3.7,1.7C577.8,371.5,578.3,372.9,578.3,374.4z"/>
			<path fill="#525FAB" d="M591.6,387.4c0,2.4-0.6,4.3-1.7,6c-1.3,1.8-3,2.8-5.3,2.8c-2.1,0-3.8-0.8-5.1-2.4
				c-1.2-1.5-1.8-3.3-1.8-5.5c0-2.4,0.6-4.5,1.8-6.2c1.3-2,3.1-3,5.4-3c2.1,0,3.8,0.9,5.1,2.7C591.1,383.3,591.6,385.2,591.6,387.4z
				 M588,387.4c0-1.1-0.2-2.1-0.7-3c-0.6-1.1-1.4-1.7-2.4-1.7c-2.3,0-3.5,1.8-3.5,5.3c0,2.9,1.1,4.4,3.4,4.4c1.1,0,1.9-0.6,2.5-1.8
				C587.7,389.7,588,388.6,588,387.4z"/>
			<path fill="#525FAB" d="M607.3,386.7c0,0.5-0.2,1-0.5,1.3c-0.3,0.3-0.7,0.5-1.3,0.5c-0.9,0-1.5-0.5-1.8-1.4
				c-0.1-0.4-0.2-0.9-0.2-1.3c-0.1-0.4-0.2-0.9-0.3-1.3c-0.3-1-0.8-1.4-1.5-1.4c-1,0-1.9,0.5-2.9,1.4c-0.9,0.9-1.4,1.9-1.4,2.8v8.1
				c-0.9,0.6-1.6,0.8-2.2,0.8c-0.8,0-1.2-0.6-1.2-1.8c0-0.2,0-0.5,0-0.8c0-0.3,0-0.6,0-1c0-0.4,0-1.4,0-3c0-1.6,0-3.9,0-6.7
				c0-2.4,0.6-3.6,1.9-3.6c1,0,1.6,0.5,1.7,1.6c1.3-1,2.6-1.5,4-1.5c1.9,0,3.3,0.8,4.4,2.3C606.8,383,607.3,384.6,607.3,386.7z"/>
			<path fill="#525FAB" d="M628.7,387.6c0,0.4,0,0.8,0,1.4c0,0.6-0.1,1.2-0.1,2c-0.1,0.8-0.1,1.4-0.1,2c0,0.6,0,1,0,1.4
				c0,0.5-0.2,0.9-0.5,1.3c-0.3,0.3-0.8,0.5-1.3,0.5c-1.3,0-1.9-1-1.9-3c0-0.4,0-0.8,0-1.4c0-0.6,0.1-1.2,0.1-2
				c0.1-0.8,0.1-1.4,0.1-2c0-0.6,0-1,0-1.4c0-2.4-0.7-3.6-2-3.6c-1.1,0-2,0.7-2.5,2.1c0.1,0.4,0.1,0.8,0.1,1.2c0,0.4,0,0.9,0,1.3
				c0,0.8-0.1,1.9-0.2,3.4c-0.1,0.8-0.1,1.4-0.1,2c0,0.6,0,1,0,1.4c0,0.3,0,0.5-0.1,0.7c-0.1,0.2-0.2,0.4-0.4,0.6
				c-0.2,0.2-0.4,0.3-0.6,0.4c-0.2,0.1-0.5,0.1-0.7,0.1c-1.3,0-1.9-1-1.9-3c0-0.4,0-0.8,0-1.4c0-0.6,0.1-1.2,0.1-2
				c0.1-0.8,0.1-1.4,0.1-2c0-0.6,0-1,0-1.4c0-2.4-0.7-3.6-2-3.6c-1,0-1.8,0.6-2.4,1.9v8.8c0,1.8-0.6,2.8-1.9,2.8
				c-1.2,0-1.8-0.7-1.8-2.2v-6.5c0-0.8,0-1.8,0.1-3c0-1.2,0-2.6,0-4.3c0.9-0.6,1.7-0.9,2.3-0.9c0.4,0,0.8,0.2,1,0.6
				c0.9-0.5,1.8-0.8,2.8-0.8c1.7,0,3.1,0.6,4.1,1.9c1.2-1.2,2.5-1.8,4-1.8C626.8,379.2,628.7,382,628.7,387.6z"/>
			<path fill="#525FAB" d="M645.9,394.4c-0.8,1-1.5,1.4-2.2,1.4c-0.4,0-0.8-0.4-1.1-1.3c-1.6,1-3.2,1.5-4.9,1.5
				c-2.2,0-3.9-0.8-5.2-2.5c-1.2-1.5-1.8-3.4-1.8-5.7c0-2.3,0.9-4.4,2.7-6.1c1.8-1.8,3.8-2.7,6.2-2.7c1,0,2,0.2,2.9,0.6
				c0.4-0.5,0.8-0.8,1.5-0.8c1.3,0,1.9,1.1,1.9,3.4c0,1,0,2.4-0.1,4.3c-0.1,1.9-0.1,3.3-0.1,4.2c0,0.6,0,1.2,0.1,1.8
				C645.8,393.3,645.8,393.8,645.9,394.4z M642.2,384l-1.2-0.6c-0.5-0.2-1-0.3-1.4-0.3c-1.3,0-2.4,0.5-3.4,1.6c-1,1-1.5,2.2-1.5,3.6
				c0,1,0.2,1.9,0.7,2.7c0.5,0.9,1.3,1.4,2.3,1.4c1.5,0,3-0.7,4.4-2.1c0-0.7,0-1.6,0.1-2.6S642.2,385.4,642.2,384z"/>
			<path fill="#525FAB" d="M662.4,391.4c0,0.3-0.1,0.6-0.3,0.9c-0.7,1.1-1.7,2-3.1,2.7c-1.4,0.7-2.7,1.1-4,1.1c-2,0-3.7-0.8-5-2.3
				c-1.3-1.4-1.9-3.2-1.9-5.2c0-1.8,0.5-3.6,1.6-5.2c1.1-1.6,2.5-2.8,4.2-3.6c1-0.5,2-0.7,3-0.7c1.2,0,2.2,0.4,3,1.2
				c0.9,0.8,1.4,1.8,1.6,3c-0.7,1.1-1.4,1.6-2,1.6c-0.4,0-0.8-0.3-1.3-1c-0.5-0.7-0.9-1.1-1.3-1.1c-1.1,0-2.2,0.6-3.3,1.8
				c-1.1,1.2-1.6,2.3-1.6,3.5c0,2.7,1,4.1,3,4.1c0.8,0,1.8-0.5,3.1-1.4c1.3-0.9,2.1-1.4,2.4-1.4c0.5,0,1,0.2,1.4,0.6
				C662.2,390.4,662.4,390.9,662.4,391.4z"/>
			<path fill="#525FAB" d="M668.3,381.2c0.2,0.9,0.1,2.1-0.1,3.6c0,0.9-0.1,1.6-0.1,2.2c0,0.6,0,1-0.1,1.3c0,1.1,0,2-0.1,2.6
				c0,0.6,0,0.9,0,1c0,0.7-0.1,1.3-0.1,1.9c-0.1,0.6-0.1,1.2-0.2,1.7c-0.8,0.3-1.4,0.5-1.8,0.5c-0.9,0-1.4-0.6-1.4-1.7v-3.2
				c0.1-1.5,0.2-4,0.2-7.5c0-2.8,0.7-4.2,2.1-4.2C667.7,379.5,668.3,380.1,668.3,381.2z M668.5,375.7c0,0.5-0.2,1-0.6,1.5
				c-0.4,0.4-0.8,0.6-1.4,0.6c-0.6,0-1.1-0.2-1.5-0.6c-0.4-0.4-0.6-0.9-0.6-1.5c0-0.3,0-0.5,0.1-0.8c0.1-0.2,0.2-0.5,0.4-0.7
				c0.2-0.2,0.4-0.3,0.6-0.4c0.2-0.1,0.5-0.2,0.7-0.2c0.3,0,0.6,0.1,0.8,0.2c0.3,0.1,0.5,0.2,0.7,0.4c0.2,0.2,0.4,0.4,0.5,0.6
				C668.5,375.1,668.5,375.4,668.5,375.7z"/>
			<path fill="#525FAB" d="M683.8,387.4c0,2.4-0.6,4.3-1.7,6c-1.3,1.8-3,2.8-5.3,2.8c-2.1,0-3.8-0.8-5.1-2.4
				c-1.2-1.5-1.8-3.3-1.8-5.5c0-2.4,0.6-4.5,1.8-6.2c1.3-2,3.1-3,5.4-3c2.1,0,3.8,0.9,5.1,2.7C683.2,383.3,683.8,385.2,683.8,387.4z
				 M680.1,387.4c0-1.1-0.2-2.1-0.7-3c-0.6-1.1-1.4-1.7-2.4-1.7c-2.3,0-3.5,1.8-3.5,5.3c0,2.9,1.1,4.4,3.4,4.4
				c1.1,0,1.9-0.6,2.5-1.8C679.9,389.7,680.1,388.6,680.1,387.4z M682.3,372.1c0,0.7-0.6,1.7-1.9,3.1c-1.2,1.4-2.2,2.1-2.8,2.1
				c-0.2,0-0.5,0-0.7-0.1s-0.4-0.2-0.6-0.4c-0.2-0.2-0.3-0.3-0.4-0.5c-0.1-0.2-0.2-0.4-0.2-0.7c0-0.4,0.4-1.2,1.3-2.4
				c0.7-1,1.4-1.7,1.9-2.2c0.5-0.5,1-0.7,1.4-0.7c0.5,0,0.9,0.2,1.3,0.5C682.1,371.2,682.3,371.6,682.3,372.1z"/>
			<path fill="#525FAB" d="M706.5,391.5c-0.2,3-0.5,5.6-1.1,7.8c-1.1,3.2-2.9,4.8-5.3,4.8c-1.7,0-3.1-0.8-4-2.4
				c-0.8-1.4-1.2-3-1.2-4.8c0.8-0.6,1.6-0.9,2.2-0.9c0.5,0,0.9,0.3,1.1,0.8c0.1,0.3,0.1,0.5,0.2,0.7s0.1,0.5,0.2,0.7
				c0.3,1.6,0.9,2.3,1.5,2.3c1.8,0,2.7-2.7,2.7-8c0-0.6,0-1.3,0-2.1c0-0.9-0.1-1.9-0.1-3c-0.1-1.2-0.1-2.2-0.1-3c0-0.9,0-1.6,0-2.2
				c0-1.7,0.6-2.6,1.9-2.6c1.2,0,1.8,0.8,1.8,2.3c0,0.5,0,1.2,0,2c0,0.8,0.1,1.7,0.1,2.8c0.1,1.1,0.1,2,0.1,2.8
				C706.5,390.3,706.5,391,706.5,391.5z M706.3,375.7c0,0.5-0.2,1-0.6,1.4c-0.4,0.4-0.9,0.6-1.4,0.6c-0.3,0-0.6-0.1-0.8-0.2
				c-0.2-0.1-0.5-0.3-0.7-0.5c-0.2-0.2-0.3-0.4-0.4-0.7c-0.1-0.3-0.2-0.5-0.2-0.8c0-0.5,0.2-1,0.5-1.3c0.4-0.3,0.8-0.5,1.3-0.5
				c0.3,0,0.6,0.1,0.9,0.2c0.3,0.1,0.5,0.2,0.7,0.4c0.2,0.2,0.4,0.4,0.5,0.7C706.3,375.2,706.3,375.4,706.3,375.7z"/>
			<path fill="#525FAB" d="M722.9,394.4c0,0.5-0.2,0.9-0.5,1.2c-0.3,0.3-0.7,0.5-1.2,0.5c-1,0-1.6-0.5-1.8-1.6c-1.2,1-2.5,1.6-4,1.6
				c-4.5,0-6.8-4.3-6.8-12.8c0-2.9,0.7-4.3,2.2-4.3c0.5,0,1,0.2,1.4,0.5c0.4,0.3,0.6,0.8,0.6,1.3c0,0.5,0,1.3-0.1,2.3
				c-0.1,1-0.1,1.8-0.1,2.3c0,4.6,1,7,2.9,7c1,0,1.9-0.6,2.6-1.7c0.6-1,1-2,1.1-3.1c0-0.3,0-0.8,0.1-1.4c0-0.6,0-1.4,0-2.4
				c0-1.6,0.1-2.9,0.3-3.8c0.7-0.4,1.4-0.6,1.9-0.6c0.9,0,1.3,0.8,1.3,2.3c0,0.2,0,0.4,0,0.6c0,0.3,0,0.5,0,0.9v6.9
				c0,0.2,0,0.5,0,0.9c0,0.4,0,0.8,0,1.3c0,0.5,0,0.9,0,1.3C722.9,393.9,722.9,394.2,722.9,394.4z"/>
			<path fill="#525FAB" d="M739,380.6c0,0.1,0,0.2,0,0.3s0,0.2,0,0.2c-1.1,5.1-2.8,9.8-5.1,13.9c-0.4,0.8-1,1.1-1.7,1.1
				c-1,0-2-1.1-2.8-3.4c-0.6-1.3-1.2-3-2-5s-1.6-4.3-2.5-7.1c0.8-1,1.5-1.5,2.1-1.5c0.4,0,0.8,0.3,1.1,0.8c0,0.1,0.2,0.4,0.4,1
				c0.2,0.6,0.6,1.5,1.1,2.6c0.3,0.7,0.6,1.5,1.1,2.5c0.4,1,0.9,2.2,1.5,3.5c0.7-1.8,1.2-3.4,1.7-4.8c0.5-1.4,0.9-2.6,1.2-3.7
				c0.5-1.6,1.2-2.3,2.1-2.3c0.2,0,0.5,0,0.7,0.1c0.2,0.1,0.4,0.2,0.6,0.4c0.2,0.2,0.3,0.3,0.4,0.5C738.9,380.1,739,380.3,739,380.6
				z"/>
			<path fill="#525FAB" d="M755,392.1c0,0.4-0.2,0.8-0.5,1.2c-0.7,0.8-1.6,1.5-3,2.1c-1.3,0.5-2.5,0.8-3.6,0.8
				c-2.2,0-4.1-0.8-5.7-2.5c-1.6-1.6-2.4-3.5-2.4-5.7c0-2.2,0.8-4.2,2.3-6c1.6-1.9,3.5-2.8,5.6-2.8c1.6,0,3.1,0.8,4.4,2.3
				c1.3,1.5,2,3.1,2,4.7c0,0.9-0.5,1.4-1.6,1.8c-1.1,0.3-3.3,0.5-6.5,0.5c-0.8,0-1.6,0-2.4-0.1c0.2,1.1,0.6,2,1.5,2.8
				c0.8,0.8,1.7,1.1,2.8,1.1c0.7,0,1.7-0.3,2.8-1c1.2-0.7,1.9-1,2.3-1c0.2,0,0.5,0,0.7,0.1c0.2,0.1,0.4,0.2,0.6,0.4
				c0.2,0.2,0.3,0.3,0.4,0.6C755,391.6,755,391.8,755,392.1z M749.9,384.6c-0.6-1.1-1.4-1.7-2.3-1.7c-1,0-1.9,0.7-2.9,2
				c0.4,0,1,0,1.8-0.1C747.4,384.8,748.5,384.7,749.9,384.6z"/>
			<path fill="#525FAB" d="M770.4,387.4c0,0.4,0,0.8,0,1.4c0,0.6-0.1,1.2-0.1,2c-0.1,1.5-0.2,2.7-0.2,3.4c0,0.3,0,0.5-0.1,0.7
				c-0.1,0.2-0.2,0.4-0.4,0.6c-0.2,0.2-0.3,0.3-0.6,0.4c-0.2,0.1-0.5,0.2-0.7,0.2c-1.3,0-1.9-1-1.9-3c0-0.3,0-0.7,0-1.2
				c0-0.5,0.1-1,0.1-1.7c0.1-0.7,0.1-1.2,0.1-1.7c0-0.5,0-0.9,0-1.2c0-3.1-0.9-4.6-2.7-4.6c-1.4,0-2.5,0.7-3.3,2v8.5
				c0,1.9-0.6,2.9-1.9,2.9c-1.2,0-1.8-0.7-1.8-2.2v-6.5c0-1.6,0.1-4,0.1-7.3c0.9-0.6,1.7-0.9,2.2-0.9c0.5,0,0.9,0.3,1.1,0.8
				c1.1-0.7,2.3-1,3.6-1c2.2,0,3.9,0.9,5,2.6C770,383.1,770.4,385,770.4,387.4z"/>
			<path fill="#525FAB" d="M776.7,381.2c0.2,0.9,0.1,2.1-0.1,3.6c0,0.9,0,1.6-0.1,2.2c0,0.6,0,1-0.1,1.3c0,1.1,0,2-0.1,2.6
				c0,0.6,0,0.9,0,1c0,0.7-0.1,1.3-0.1,1.9c-0.1,0.6-0.1,1.2-0.2,1.7c-0.8,0.3-1.4,0.5-1.8,0.5c-0.9,0-1.4-0.6-1.4-1.7v-3.2
				c0.1-1.5,0.2-4,0.2-7.5c0-2.8,0.7-4.2,2.1-4.2C776.1,379.5,776.7,380.1,776.7,381.2z M776.9,375.7c0,0.5-0.2,1-0.6,1.5
				c-0.4,0.4-0.8,0.6-1.4,0.6c-0.6,0-1.1-0.2-1.5-0.6c-0.4-0.4-0.6-0.9-0.6-1.5c0-0.3,0-0.5,0.1-0.8c0.1-0.2,0.2-0.5,0.4-0.7
				c0.2-0.2,0.4-0.3,0.6-0.4s0.5-0.2,0.7-0.2c0.3,0,0.6,0.1,0.8,0.2c0.3,0.1,0.5,0.2,0.7,0.4c0.2,0.2,0.4,0.4,0.5,0.6
				C776.9,375.1,776.9,375.4,776.9,375.7z"/>
			<path fill="#525FAB" d="M783.3,389.6c0,1,0,2-0.1,2.9c-0.1,0.9-0.1,1.8-0.2,2.7c-0.8,0.6-1.5,0.9-2.1,0.9c-0.9,0-1.3-0.8-1.3-2.4
				v-1.2c0-0.3,0-0.5,0-0.7c0-0.2,0-0.4,0-0.5c0-2.3-0.1-5.7-0.2-10.2c-0.1-2.3-0.1-4.3-0.1-6c0-1.7,0-3.1,0-4.3
				c0-1.4,0.6-2.1,1.8-2.1c1.3,0,1.9,1.1,1.9,3.2c0,0.1,0,0.3,0,0.4c0,0.2,0,0.4,0,0.6c0,0.2,0,0.4,0,0.5c0,0.1,0,0.2,0,0.3
				c0,0.9,0,2,0,3.3c0,1.3,0.1,2.9,0.1,4.6c0.1,1.8,0.1,3.3,0.2,4.6C783.3,387.7,783.3,388.8,783.3,389.6z"/>
			<path fill="#525FAB" d="M596.7,434c-0.9,0.7-1.6,1-2.2,1c-0.4,0-0.8-0.3-1-0.8c-1.2,0.7-2.4,1-3.7,1c-2.2,0-3.9-0.8-5.3-2.5
				c-1.4-1.6-2.1-3.5-2.1-5.7c0-2.2,0.7-4.2,2.2-6c1.5-1.9,3.4-2.8,5.6-2.8c0.9,0,1.7,0.2,2.5,0.5v-3.6c0-0.6,0-1.6-0.1-2.8
				c0-0.6,0-1.2-0.1-1.7c0-0.5,0-0.9,0-1.2c0-1.1,0.6-1.7,1.7-1.7c0.9,0,1.5,0.5,1.8,1.5c0.1,0.4,0.2,1.3,0.2,2.6
				c0,1.8,0,3.7,0.1,5.5c0,1.8,0,3.7,0,5.5c0,2.2,0.1,4.2,0.2,6.1C596.4,430.9,596.5,432.5,596.7,434z M592.9,430.3
				c-0.1-0.8-0.1-1.8-0.1-3c0-1.2,0-2.5,0-4c-0.9-0.8-1.8-1.2-2.6-1.2c-1.1,0-2,0.6-2.8,1.7c-0.7,1-1.1,2.1-1.1,3.2
				c0,1.2,0.3,2.2,0.9,3.1c0.7,1,1.6,1.5,2.7,1.5C591,431.6,592,431.1,592.9,430.3z"/>
			<path fill="#525FAB" d="M613.9,431.2c0,0.4-0.2,0.8-0.5,1.2c-0.6,0.8-1.6,1.5-3,2.1c-1.3,0.5-2.5,0.8-3.6,0.8
				c-2.2,0-4.1-0.8-5.7-2.5c-1.6-1.6-2.4-3.5-2.4-5.8c0-2.2,0.8-4.2,2.3-6c1.6-1.9,3.5-2.8,5.6-2.8c1.6,0,3.1,0.8,4.4,2.3
				c1.3,1.5,2,3.1,2,4.7c0,0.9-0.5,1.4-1.6,1.8c-1.1,0.3-3.3,0.5-6.5,0.5c-0.8,0-1.6,0-2.4-0.1c0.2,1.1,0.6,2,1.5,2.8
				c0.8,0.8,1.7,1.1,2.8,1.1c0.7,0,1.7-0.3,2.8-1c1.2-0.7,1.9-1,2.3-1c0.2,0,0.5,0,0.7,0.1c0.2,0.1,0.4,0.2,0.6,0.4
				c0.2,0.2,0.3,0.4,0.4,0.6C613.9,430.7,613.9,431,613.9,431.2z M608.8,423.7c-0.6-1.1-1.4-1.7-2.3-1.7c-1,0-1.9,0.7-2.9,2
				c0.4,0,1,0,1.8-0.1C606.3,424,607.4,423.9,608.8,423.7z"/>
			<path fill="#525FAB" d="M643.5,426.9c0,0.6,0,1.1,0,1.5c0,0.4,0,0.8,0,1c0,2.9-0.1,4.7-0.4,5.5c-0.4,1-1,1.6-2,1.6
				c-0.6,0-1-0.2-1.3-0.6c-0.3-0.4-0.4-0.8-0.4-1.4c-1.1,0.5-2.4,0.8-3.7,0.8c-3.5,0-6.2-1.5-8.2-4.5c-1.7-2.6-2.6-5.7-2.6-9.4
				c0-3.3,0.8-6.3,2.3-8.9c1.9-3.1,4.3-4.6,7.4-4.6c2.8,0,5.3,1.5,7.4,4.4c-0.5,1.4-1.2,2.1-2,2.1c-0.1,0-0.8-0.5-2.1-1.4
				c-1.3-1-2.4-1.4-3.2-1.4c-2,0-3.6,1.2-4.7,3.6c-0.9,1.9-1.4,4-1.4,6.2c0,2.6,0.5,4.8,1.5,6.7c1.3,2.3,3.1,3.4,5.5,3.4
				c1.9,0,3.2-0.9,3.9-2.6v-5.7c-0.4,0-1.1,0-2,0.1c-0.9,0.1-1.5,0.1-2,0.1c-0.9,0-1.9-0.2-2.8-0.5c-0.4-0.7-0.6-1.3-0.6-1.9
				c0-0.7,0.3-1.1,1-1.2c0.2,0,0.8-0.1,1.9-0.1c0.3,0,0.7,0,1.2,0c0.5,0,1-0.1,1.7-0.1c0.6-0.1,1.2-0.1,1.7-0.1c0.5,0,0.9,0,1.2,0
				c1.2,0,2,0.6,2.3,1.8c0.2,0.7,0.3,1.7,0.3,3.2V426.9z"/>
			<path fill="#525FAB" d="M659.2,425.8c0,0.5-0.2,1-0.5,1.3c-0.3,0.3-0.7,0.5-1.3,0.5c-0.9,0-1.5-0.5-1.8-1.4
				c-0.1-0.4-0.2-0.9-0.2-1.3c-0.1-0.4-0.2-0.9-0.3-1.3c-0.3-1-0.8-1.4-1.5-1.4c-1,0-1.9,0.5-2.9,1.4c-0.9,0.9-1.4,1.9-1.4,2.8v8.1
				c-0.9,0.6-1.6,0.8-2.2,0.8c-0.8,0-1.2-0.6-1.2-1.8c0-0.2,0-0.5,0-0.8c0-0.3,0-0.6,0-1c0-0.4,0-1.4,0-3c0-1.6,0-3.8,0-6.7
				c0-2.4,0.6-3.6,1.9-3.6c1,0,1.6,0.5,1.7,1.6c1.3-1,2.7-1.5,4-1.5c1.9,0,3.3,0.8,4.4,2.3C658.8,422.1,659.2,423.8,659.2,425.8z"/>
			<path fill="#525FAB" d="M675.3,433.6c-0.8,1-1.5,1.5-2.2,1.5c-0.4,0-0.8-0.4-1.1-1.3c-1.6,1-3.2,1.5-4.9,1.5
				c-2.2,0-3.9-0.8-5.2-2.5c-1.2-1.5-1.8-3.4-1.8-5.7c0-2.3,0.9-4.4,2.7-6.1c1.8-1.8,3.8-2.7,6.2-2.7c1,0,2,0.2,2.9,0.6
				c0.4-0.5,0.8-0.8,1.5-0.8c1.3,0,1.9,1.1,1.9,3.4c0,1,0,2.4-0.1,4.3c-0.1,1.9-0.1,3.3-0.1,4.2c0,0.6,0,1.2,0.1,1.8
				C675.1,432.4,675.2,433,675.3,433.6z M670.5,414.6c0,0.5-0.2,1-0.6,1.3c-0.4,0.4-0.8,0.5-1.4,0.5s-1.1-0.3-1.6-0.8
				c-0.2-0.2-0.5-0.5-0.8-0.9c-0.3-0.4-0.6-0.8-1-1.3c-0.9-1.2-1.4-1.9-1.4-2.2c0-0.5,0.2-0.9,0.6-1.2c0.4-0.3,0.8-0.5,1.4-0.5
				c0.7,0,1.7,0.7,2.9,2.1C669.8,413,670.5,414,670.5,414.6z M671.5,423.1l-1.2-0.6c-0.5-0.2-1-0.3-1.4-0.3c-1.3,0-2.4,0.5-3.4,1.6
				c-1,1-1.5,2.2-1.5,3.6c0,1,0.2,1.9,0.7,2.7c0.5,0.9,1.3,1.4,2.3,1.4c1.5,0,3-0.7,4.4-2.1c0-0.7,0-1.6,0.1-2.6
				C671.5,425.7,671.5,424.5,671.5,423.1z"/>
			<path fill="#525FAB" d="M693.1,430.5c0,0.3-0.1,0.6-0.3,0.9c-0.7,1.1-1.7,2-3.1,2.7c-1.4,0.7-2.7,1.1-4.1,1.1c-2,0-3.7-0.8-5-2.3
				c-1.3-1.4-1.9-3.2-1.9-5.2c0-1.8,0.5-3.6,1.6-5.2c1.1-1.6,2.5-2.8,4.2-3.6c1-0.5,2-0.7,3-0.7c1.2,0,2.2,0.4,3,1.2
				c0.9,0.8,1.4,1.8,1.6,3c-0.7,1.1-1.4,1.6-2,1.6c-0.4,0-0.8-0.3-1.3-1c-0.5-0.7-0.9-1-1.3-1c-1.1,0-2.2,0.6-3.3,1.8
				c-1.1,1.2-1.6,2.3-1.6,3.5c0,2.7,1,4.1,3,4.1c0.8,0,1.8-0.5,3.1-1.4c1.3-0.9,2.1-1.4,2.4-1.4c0.5,0,1,0.2,1.4,0.6
				C692.9,429.5,693.1,430,693.1,430.5z"/>
			<path fill="#525FAB" d="M699,420.4c0.2,0.9,0.1,2.1-0.1,3.6c0,0.9-0.1,1.6-0.1,2.2c0,0.6,0,1-0.1,1.3c0,1.1,0,2-0.1,2.6
				s0,0.9,0,1c0,0.7-0.1,1.3-0.1,1.9c-0.1,0.6-0.1,1.2-0.2,1.7c-0.8,0.3-1.4,0.5-1.8,0.5c-0.9,0-1.4-0.6-1.4-1.7v-3.2
				c0.1-1.5,0.2-4,0.2-7.5c0-2.8,0.7-4.2,2.1-4.2C698.4,418.7,699,419.2,699,420.4z M699.2,414.8c0,0.5-0.2,1-0.6,1.5
				c-0.4,0.4-0.8,0.6-1.4,0.6c-0.6,0-1.1-0.2-1.5-0.6c-0.4-0.4-0.6-0.9-0.6-1.5c0-0.3,0-0.5,0.1-0.8c0.1-0.2,0.2-0.5,0.4-0.6
				c0.2-0.2,0.4-0.3,0.6-0.4c0.2-0.1,0.5-0.2,0.7-0.2c0.3,0,0.6,0.1,0.8,0.2s0.5,0.2,0.7,0.4c0.2,0.2,0.4,0.4,0.5,0.6
				C699.1,414.2,699.2,414.5,699.2,414.8z"/>
			<path fill="#525FAB" d="M716.5,433.6c-0.8,1-1.5,1.5-2.2,1.5c-0.4,0-0.8-0.4-1.1-1.3c-1.6,1-3.2,1.5-4.9,1.5
				c-2.2,0-3.9-0.8-5.2-2.5c-1.2-1.5-1.8-3.4-1.8-5.7c0-2.3,0.9-4.4,2.7-6.1c1.8-1.8,3.8-2.7,6.2-2.7c1,0,2,0.2,2.9,0.6
				c0.4-0.5,0.8-0.8,1.5-0.8c1.3,0,1.9,1.1,1.9,3.4c0,1,0,2.4-0.1,4.3c-0.1,1.9-0.1,3.3-0.1,4.2c0,0.6,0,1.2,0.1,1.8
				C716.3,432.4,716.4,433,716.5,433.6z M712.7,423.1l-1.2-0.6c-0.5-0.2-1-0.3-1.4-0.3c-1.3,0-2.4,0.5-3.4,1.6c-1,1-1.5,2.2-1.5,3.6
				c0,1,0.2,1.9,0.7,2.7c0.5,0.9,1.3,1.4,2.3,1.4c1.5,0,3-0.7,4.4-2.1c0-0.7,0-1.6,0.1-2.6C712.7,425.7,712.7,424.5,712.7,423.1z"/>
		</g>
	</g>
</g>
</svg>
