<?xml version="1.0" encoding="utf-8"?>
<!-- Generator: Adobe Illustrator 16.0.0, SVG Export Plug-In . SVG Version: 6.00 Build 0)  -->
<!DOCTYPE svg PUBLIC "-//W3C//DTD SVG 1.1//EN" "http://www.w3.org/Graphics/SVG/1.1/DTD/svg11.dtd">
<svg version="1.1" id="Layer_1" xmlns="http://www.w3.org/2000/svg" xmlns:xlink="http://www.w3.org/1999/xlink" x="0px" y="0px"
	 width="409.278px" height="86px" viewBox="0 0 409.278 86" enable-background="new 0 0 409.278 86" xml:space="preserve">
<g>
	<path fill="#669900" d="M5.047,46.111c0-0.031-0.024-0.326-0.07-0.879c-0.045-0.553-0.098-1.289-0.159-2.211
		c-0.062-0.92-0.133-1.98-0.217-3.178c-0.084-1.195-0.168-2.452-0.252-3.768c-0.084-1.314-0.167-2.654-0.251-4.021
		c-0.083-1.364-0.156-2.67-0.217-3.918c-0.061-1.246-0.11-2.396-0.147-3.442c-0.039-1.044-0.058-1.909-0.058-2.599
		c0-1.021,0.125-1.811,0.372-2.362c0.248-0.553,0.55-0.957,0.902-1.218c0.354-0.26,0.722-0.41,1.105-0.452
		c0.386-0.041,0.723-0.062,1.011-0.062c0.62,0,1.127,0.084,1.521,0.25c0.394,0.17,0.703,0.416,0.929,0.742
		c0.227,0.325,0.381,0.727,0.465,1.191c0.084,0.473,0.126,0.999,0.126,1.583l1.105,29.869l16.37-31.429
		c0.118-0.4,0.319-0.787,0.604-1.153c0.284-0.37,0.629-0.691,1.031-0.97c0.402-0.274,0.846-0.492,1.332-0.651
		c0.486-0.159,0.989-0.238,1.51-0.238c0.603,0,1.076,0.265,1.42,0.791c0.345,0.527,0.516,1.22,0.516,2.072
		c0,0.604-0.158,1.407-0.477,2.412c-0.318,1.005-0.742,2.135-1.269,3.391c-0.527,1.257-1.144,2.605-1.848,4.046
		c-0.702,1.438-1.436,2.904-2.196,4.396c-0.763,1.489-1.534,2.968-2.312,4.434c-0.778,1.466-1.52,2.843-2.223,4.132
		c-0.201,0.385-0.352,0.787-0.451,1.205c-0.102,0.42-0.151,0.838-0.151,1.258c0,0.637,0.125,1.256,0.377,1.857
		c0.251,0.604,0.641,1.141,1.168,1.604c0.527,0.473,1.197,0.846,2.01,1.119s1.779,0.414,2.901,0.414
		c0.268,0,0.565-0.061,0.892-0.178c0.327-0.113,0.666-0.271,1.017-0.465c0.353-0.191,0.712-0.414,1.08-0.664
		c0.37-0.252,0.729-0.504,1.081-0.754c0.804-0.604,1.633-1.291,2.487-2.062l-0.578,5.223c-1.391,1.133-2.775,2.033-4.158,2.707
		c-1.381,0.678-2.675,1.018-3.881,1.018c-1.139,0-2.147-0.157-3.026-0.469c-0.88-0.311-1.629-0.748-2.248-1.315
		c-0.619-0.568-1.089-1.257-1.406-2.062c-0.319-0.807-0.478-1.699-0.478-2.688c0-0.503,0.049-1.05,0.15-1.636
		c-0.991,2.312-1.918,4.24-2.783,5.791c-0.864,1.552-1.699,2.787-2.505,3.72c-0.807,0.932-1.587,1.592-2.343,1.981
		c-0.756,0.396-1.502,0.59-2.241,0.59c-1.006,0-1.825-0.168-2.462-0.506c-0.637-0.342-1.144-0.812-1.52-1.408
		c-0.377-0.604-0.653-1.312-0.829-2.146c-0.176-0.826-0.302-1.725-0.377-2.688c-0.075-0.961-0.13-1.971-0.163-3.021
		C5.2,48.246,5.138,47.186,5.047,46.111z"/>
	<path fill="#669900" d="M41.596,58.242c-1.564,0-2.932-0.287-4.105-0.867c-1.172-0.58-2.149-1.357-2.932-2.338
		c-0.782-0.98-1.368-2.115-1.76-3.4c-0.39-1.287-0.586-2.641-0.586-4.055c0-0.924,0.175-2.025,0.524-3.311
		c0.349-1.281,0.712-2.417,1.088-3.412c0.374-0.989,0.845-1.936,1.41-2.838c0.566-0.899,1.229-1.692,1.987-2.38
		c0.758-0.686,1.607-1.23,2.548-1.637c0.941-0.404,1.987-0.607,3.136-0.607c0.939,0,1.811,0.15,2.615,0.452
		c0.805,0.3,1.506,0.724,2.101,1.269c0.595,0.541,1.06,1.199,1.396,1.969c0.335,0.77,0.504,1.632,0.504,2.582
		c0,1.018-0.34,2.156-1.021,3.416c-0.681,1.264-1.473,2.346-2.379,3.242c-0.906,0.898-1.984,1.699-3.234,2.404
		s-2.604,1.256-4.066,1.646c0.252,0.441,0.501,0.811,0.745,1.104c0.242,0.299,0.491,0.522,0.743,0.688s0.518,0.279,0.794,0.349
		c0.276,0.062,0.576,0.1,0.895,0.1c1.006,0,2.064-0.197,3.179-0.592c1.113-0.395,2.197-0.885,3.253-1.475
		c1.055-0.591,2.051-1.229,2.988-1.931c0.938-0.692,1.733-1.354,2.387-1.979l3.24,3.291c-1.473,1.567-3.039,2.957-4.697,4.166
		c-0.72,0.52-1.495,1.022-2.323,1.526c-0.83,0.496-1.7,0.94-2.612,1.328c-0.913,0.39-1.859,0.698-2.838,0.935
		C43.594,58.125,42.601,58.242,41.596,58.242z M38.242,46.279c0.604,0,1.265-0.15,1.979-0.453c0.714-0.307,1.378-0.69,1.991-1.168
		c0.614-0.475,1.215-1.113,1.803-1.914c0.589-0.803,0.883-1.468,0.883-1.99c0-0.736-0.138-1.342-0.416-1.817
		c-0.277-0.476-0.619-0.712-1.021-0.712c-0.723,0-1.34,0.13-1.854,0.395c-0.513,0.264-0.94,0.602-1.286,1.02
		c-0.345,0.417-0.622,0.893-0.831,1.425c-0.211,0.532-0.455,1.192-0.732,1.978c-0.277,0.785-0.433,1.434-0.466,1.939
		C38.259,45.486,38.242,45.918,38.242,46.279z"/>
	<path fill="#669900" d="M54.99,81.266c-0.721-0.188-1.387-0.481-1.998-0.877c-0.61-0.396-1.104-0.943-1.481-1.646
		c-0.377-0.705-0.607-1.521-0.69-2.464c-0.135-1.758,0.352-3.625,1.456-5.6c0.637-1.106,1.077-1.879,1.32-2.313
		c0.241-0.435,0.635-1.05,1.18-1.847c0.544-0.793,1.102-1.512,1.671-2.146c1.172-1.318,2.139-2.383,2.901-3.18
		c0.762-0.797,1.671-1.652,2.725-2.572l0.502-2.982c-1.875,1.771-3.7,2.656-5.475,2.656c-1.307,0-2.509-0.396-3.605-1.184
		c-1.098-0.785-1.922-1.766-2.475-2.938c-1.004-2.098-1.03-4.541-0.075-7.338c0.871-2.61,1.75-4.77,2.638-6.467
		c0.888-1.699,2.034-3.18,3.441-4.436c2.043-1.826,4.027-2.739,5.953-2.739c0.871,0,1.508,0.246,1.909,0.736
		c0.051,0.052,0.125,0.147,0.227,0.293c0.101,0.146,0.172,0.231,0.213,0.269c0.043,0.031,0.113,0.102,0.214,0.2
		c0.102,0.103,0.192,0.167,0.276,0.191c0.084,0.022,0.193,0.062,0.327,0.112c0.133,0.051,0.285,0.084,0.453,0.102
		c0.168,0.02,0.362,0.025,0.581,0.025l1.107-0.025c0.753,0,1.271,0.229,1.557,0.684c0.102,0.187,0.21,0.428,0.327,0.729
		c0.2,0.521,0.226,2.245,0.075,5.169c-0.051,0.908-0.265,2.031-0.641,3.372c-0.376,1.343-0.623,2.827-0.742,4.466
		c-0.115,1.637-0.301,3.767-0.552,6.387c0.485-0.282,1.006-0.635,1.558-1.053c1.976-1.481,4.212-4.25,6.707-8.291l1.632,5.574
		c-0.468,0.932-1.297,2-2.485,3.215c-1.206,1.193-2.228,2.117-3.065,2.769c-0.151,0.104-0.267,0.176-0.352,0.229
		c-1.608,1.035-2.771,1.801-3.491,2.285c-0.453,0.303-0.762,0.848-0.93,1.635c-0.167,0.785-0.353,2.262-0.552,4.424
		c-0.083,0.623-0.144,1.104-0.184,1.438c-0.098,0.768-0.192,1.516-0.286,2.25c-0.094,0.732-0.262,1.57-0.505,2.5
		c-0.242,0.934-0.523,1.781-0.842,2.562c-0.319,0.778-0.732,1.559-1.242,2.334c-0.512,0.778-1.085,1.438-1.721,1.977
		c-0.637,0.529-1.399,0.967-2.287,1.305c-0.888,0.334-1.858,0.502-2.914,0.502C56.497,81.555,55.709,81.455,54.99,81.266z
		 M58.639,68.707c-1.138,1.852-2.043,3.73-2.712,5.641c-0.553,1.59-0.269,2.387,0.854,2.387c0.402,0,0.758-0.051,1.068-0.146
		c0.309-0.104,0.598-0.278,0.866-0.541c0.268-0.26,0.502-0.541,0.704-0.842c0.199-0.306,0.414-0.731,0.64-1.31
		c0.227-0.565,0.431-1.127,0.616-1.672c0.184-0.543,0.401-1.271,0.652-2.172c0.15-0.486,0.262-1.021,0.332-1.602
		c0.07-0.58,0.158-1.297,0.263-2.146c0.104-0.854,0.171-1.396,0.198-1.627C60.938,65.514,59.776,66.857,58.639,68.707z
		 M57.132,52.414c0.401,0.703,0.929,1.059,1.582,1.059c1.139,0,2.084-0.914,2.839-2.738c0.586-1.438,0.912-2.889,0.979-4.344
		l1.884-8.366c-1.943,0-3.65,1.308-5.125,3.918c-1.591,2.78-2.462,4.665-2.612,5.653C56.36,49.719,56.513,51.328,57.132,52.414z"/>
	<path fill="#669900" d="M84.901,58.242c-1.564,0-2.932-0.287-4.105-0.867c-1.172-0.58-2.149-1.357-2.931-2.338
		c-0.783-0.98-1.369-2.115-1.76-3.4c-0.392-1.287-0.586-2.641-0.586-4.055c0-0.924,0.174-2.025,0.523-3.311
		c0.351-1.279,0.713-2.417,1.088-3.412c0.374-0.989,0.845-1.936,1.411-2.838c0.566-0.899,1.229-1.692,1.986-2.38
		c0.758-0.686,1.607-1.23,2.549-1.637c0.94-0.404,1.986-0.607,3.136-0.607c0.938,0,1.81,0.15,2.614,0.452
		c0.805,0.3,1.505,0.724,2.101,1.269c0.596,0.541,1.06,1.199,1.396,1.969c0.335,0.77,0.503,1.632,0.503,2.582
		c0,1.018-0.339,2.156-1.019,3.416c-0.682,1.264-1.473,2.346-2.38,3.242c-0.906,0.898-1.984,1.699-3.234,2.404
		c-1.251,0.705-2.605,1.256-4.065,1.646c0.251,0.441,0.5,0.811,0.743,1.104c0.244,0.299,0.492,0.522,0.744,0.688
		c0.252,0.166,0.518,0.279,0.794,0.349c0.276,0.062,0.576,0.1,0.895,0.1c1.006,0,2.064-0.197,3.179-0.592
		c1.115-0.395,2.197-0.885,3.253-1.475c1.056-0.591,2.052-1.229,2.989-1.931c0.938-0.692,1.732-1.354,2.387-1.979l3.24,3.291
		c-1.474,1.567-3.04,2.957-4.697,4.166c-0.721,0.52-1.495,1.022-2.323,1.526c-0.83,0.496-1.7,0.94-2.612,1.328
		c-0.913,0.39-1.86,0.698-2.839,0.935C86.899,58.125,85.908,58.242,84.901,58.242z M81.548,46.279c0.604,0,1.266-0.15,1.979-0.453
		c0.714-0.307,1.379-0.69,1.991-1.168c0.614-0.475,1.215-1.113,1.804-1.914c0.588-0.803,0.882-1.468,0.882-1.99
		c0-0.736-0.138-1.342-0.416-1.817c-0.277-0.476-0.618-0.712-1.021-0.712c-0.723,0-1.341,0.13-1.854,0.395
		c-0.514,0.264-0.941,0.602-1.285,1.02c-0.345,0.417-0.623,0.893-0.833,1.425c-0.211,0.532-0.453,1.192-0.731,1.978
		c-0.277,0.785-0.434,1.434-0.466,1.939C81.564,45.484,81.548,45.918,81.548,46.279z"/>
	<path fill="#669900" d="M116.289,52.617c-1.609,0.939-3.043,1.758-4.301,2.461c-1.258,0.705-2.378,1.289-3.358,1.758
		c-0.98,0.471-1.854,0.822-2.615,1.057c-0.764,0.234-1.455,0.354-2.076,0.354c-1.266,0-2.381-0.386-3.348-1.154
		c-0.966-0.771-1.774-1.879-2.424-3.325c-0.65-1.449-1.138-3.203-1.461-5.265c-0.326-2.062-0.487-4.379-0.487-6.957
		c0-1.006,0.041-2.078,0.124-3.217c0.084-1.14,0.199-2.27,0.35-3.392c-0.506-0.074-0.897-0.146-1.176-0.209
		c-0.279-0.063-0.574-0.131-0.886-0.196c-0.312-0.064-0.709-0.134-1.188-0.21c-0.481-0.073-1.176-0.167-2.086-0.276
		c-0.404-0.059-0.716-0.164-0.937-0.322c-0.218-0.159-0.378-0.346-0.48-0.561c-0.101-0.215-0.159-0.438-0.177-0.672
		c-0.016-0.23-0.024-0.434-0.024-0.601c0-0.265,0.164-0.466,0.491-0.604c0.328-0.14,0.75-0.244,1.264-0.312
		c0.514-0.069,1.076-0.109,1.691-0.118c0.615-0.008,1.204-0.004,1.768,0.015c0.564,0.016,1.068,0.027,1.515,0.036
		c0.447,0.011,0.754-0.004,0.922-0.036c0.452-2.256,1.023-4.438,1.717-6.553c0.695-2.109,1.472-3.988,2.334-5.635
		c0.859-1.645,1.8-2.964,2.82-3.958c1.021-0.994,2.09-1.491,3.21-1.491c0.72,0,1.378,0.202,1.973,0.604
		c0.596,0.399,1.102,0.938,1.521,1.605c0.418,0.668,0.74,1.452,0.967,2.348c0.226,0.895,0.34,1.828,0.34,2.797
		c0,0.804-0.117,1.65-0.353,2.543c-0.234,0.895-0.552,1.805-0.954,2.729c-0.402,0.926-0.876,1.865-1.421,2.814
		c-0.544,0.951-1.117,1.892-1.721,2.826c0.15-0.058,0.403-0.066,0.756-0.033c0.35,0.035,0.758,0.058,1.218,0.07
		c0.461,0.016,0.959,0.026,1.495,0.043c0.536,0.012,1.054,0.026,1.558,0.043c0.502,0.018,0.972,0.033,1.406,0.051
		c0.436,0.017,0.795,0.033,1.08,0.049c0.335,0.02,0.578,0.205,0.729,0.56c0.151,0.355,0.226,0.802,0.226,1.341
		c0,0.627-0.168,1.137-0.502,1.53c-0.336,0.392-0.705,0.589-1.107,0.589h-9.656c-0.488,0.67-0.98,1.327-1.477,1.971
		c-0.496,0.646-0.954,1.229-1.375,1.746c-0.066,1.039-0.126,2.062-0.176,3.066c-0.017,0.436-0.033,0.883-0.05,1.344
		c-0.017,0.461-0.034,0.918-0.051,1.368c-0.016,0.453-0.029,0.888-0.037,1.308c-0.009,0.418-0.013,0.806-0.013,1.156
		c0,0.903,0.084,1.666,0.253,2.284c0.168,0.619,0.411,1.125,0.73,1.519c0.32,0.396,0.71,0.683,1.173,0.854
		c0.462,0.177,0.979,0.265,1.552,0.265c0.351,0,0.79-0.084,1.318-0.252c0.529-0.166,1.107-0.396,1.736-0.688
		c0.629-0.295,1.29-0.642,1.985-1.043c0.695-0.396,1.383-0.843,2.062-1.315c0.68-0.479,1.329-0.979,1.949-1.509
		c0.621-0.523,1.183-1.062,1.685-1.621L116.289,52.617L116.289,52.617z M108.25,20.807c0-0.184-0.013-0.387-0.038-0.612
		s-0.08-0.438-0.163-0.638c-0.085-0.2-0.214-0.367-0.391-0.5c-0.177-0.133-0.425-0.2-0.744-0.2c-0.438,0-0.879,0.382-1.324,1.147
		c-0.446,0.765-0.875,1.742-1.286,2.932c-0.412,1.188-0.799,2.497-1.16,3.926c-0.362,1.43-0.693,2.82-0.996,4.165
		c0.251,0.024,0.504,0.048,0.757,0.065c0.252,0.02,0.512,0.039,0.78,0.063c0.506-0.844,1.03-1.758,1.577-2.741
		c0.547-0.983,1.038-1.953,1.475-2.903c0.438-0.95,0.8-1.841,1.085-2.668C108.107,22.016,108.25,21.336,108.25,20.807z"/>
	<path fill="#669900" d="M140.729,52.018c-0.386,0.543-0.9,1.178-1.545,1.904c-0.646,0.729-1.369,1.426-2.173,2.082
		c-0.804,0.662-1.668,1.223-2.587,1.68c-0.922,0.457-1.844,0.688-2.764,0.688c-1.113,0-2.041-0.354-2.784-1.058
		c-0.742-0.707-1.383-1.729-1.923-3.069c-0.406,0.463-0.904,0.938-1.495,1.418s-1.236,0.914-1.937,1.303
		c-0.701,0.396-1.431,0.711-2.19,0.961c-0.76,0.246-1.521,0.371-2.278,0.371c-0.805,0-1.588-0.164-2.35-0.489
		c-0.762-0.328-1.437-0.808-2.021-1.425c-0.587-0.612-1.056-1.364-1.407-2.256c-0.351-0.887-0.527-1.887-0.527-3.002
		c0-1.254,0.176-2.537,0.529-3.854c0.354-1.314,0.901-2.744,1.645-4.279c0.74-1.533,1.535-2.861,2.387-3.979
		c0.852-1.118,1.781-2.094,2.792-2.928c1.011-0.836,2.077-1.5,3.197-1.992c1.12-0.49,2.263-0.737,3.425-0.737
		c0.387,0,0.69,0.078,0.91,0.229c0.218,0.151,0.399,0.324,0.542,0.521c0.143,0.194,0.282,0.385,0.416,0.571
		c0.136,0.186,0.304,0.32,0.507,0.406c0.201,0.084,0.407,0.139,0.619,0.164c0.21,0.023,0.425,0.036,0.645,0.036
		c0.185,0,0.374-0.002,0.567-0.012c0.194-0.011,0.384-0.015,0.569-0.015c0.252,0,0.489,0.025,0.707,0.078
		c0.22,0.051,0.413,0.16,0.581,0.33s0.298,0.405,0.39,0.709c0.093,0.308,0.139,0.722,0.139,1.246c0,0.801-0.083,1.688-0.251,2.663
		c-0.168,0.978-0.359,1.978-0.575,3c-0.217,1.022-0.463,2.19-0.739,3.5c-0.276,1.312-0.414,2.416-0.414,3.312
		c0,0.77,0.07,1.369,0.213,1.803c0.142,0.433,0.447,0.646,0.917,0.646c0.352,0,0.72-0.086,1.105-0.263
		c0.384-0.176,0.773-0.401,1.168-0.688c0.393-0.278,0.786-0.604,1.181-0.956c0.394-0.355,0.767-0.729,1.118-1.105
		c0.819-0.896,1.648-1.908,2.486-3.037L140.729,52.018z M119.179,50.051c0,0.434,0.029,0.854,0.088,1.258
		c0.058,0.402,0.164,0.771,0.314,1.09c0.15,0.316,0.353,0.574,0.604,0.777c0.253,0.193,0.571,0.295,0.956,0.295
		c0.621,0,1.183-0.27,1.686-0.811c0.504-0.539,0.94-1.188,1.309-1.947c0.37-0.758,0.667-1.543,0.894-2.354
		c0.227-0.812,0.374-1.482,0.44-2.021l1.874-8.166c-0.687,0-1.356,0.17-2.011,0.511c-0.652,0.341-1.268,0.801-1.846,1.381
		c-0.577,0.581-1.109,1.246-1.595,1.993c-0.485,0.747-0.963,1.667-1.432,2.763c-0.469,1.099-0.8,2.06-0.992,2.888
		C119.273,48.539,119.179,49.318,119.179,50.051z"/>
	<path fill="#669900" d="M138.722,52.994c0-0.738,0.042-1.596,0.126-2.576c0.083-0.979,0.196-2.014,0.338-3.104
		c0.144-1.088,0.311-2.197,0.504-3.328c0.192-1.13,0.438-2.336,0.74-3.617c0.303-1.281,0.562-2.349,0.779-3.203
		c0.218-0.854,0.436-1.558,0.653-2.108c0.135-0.369,0.268-0.662,0.401-0.88c0.134-0.219,0.289-0.391,0.465-0.516
		s0.394-0.209,0.653-0.25c0.259-0.043,0.582-0.062,0.967-0.062c0.437,0,0.774,0.021,1.018,0.062c0.244,0.041,0.423,0.143,0.54,0.301
		c0.117,0.158,0.188,0.391,0.214,0.689c0.024,0.303,0.036,0.712,0.036,1.232c0,0.619-0.041,1.498-0.124,2.637
		c-0.084,1.139-0.109,2.135-0.075,2.989h0.275c0.335-0.671,0.754-1.55,1.256-2.638c0.503-1.09,1.03-1.994,1.583-2.713
		c0.552-0.722,1.181-1.326,1.884-1.822c0.704-0.492,1.516-0.74,2.437-0.74c0.319,0,0.629,0.055,0.93,0.164
		c0.302,0.107,0.565,0.264,0.791,0.465c0.227,0.2,0.406,0.447,0.541,0.741c0.134,0.292,0.201,0.624,0.201,0.991
		c0,0.285-0.043,0.684-0.127,1.192c-0.083,0.513-0.218,1.179-0.401,1.998c-0.184,0.82-0.318,1.494-0.402,2.021
		c-0.083,0.529-0.125,0.969-0.125,1.318c0,0.604,0.059,1.106,0.176,1.508c0.116,0.401,0.271,0.728,0.465,0.969
		c0.192,0.242,0.411,0.414,0.653,0.517c0.242,0.104,0.498,0.147,0.766,0.147c0.754,0,1.533-0.166,2.336-0.502
		c0.804-0.334,1.541-0.711,2.211-1.129c0.788-0.485,1.558-1.039,2.312-1.658l-0.378,5.879c-0.435,0.281-0.929,0.603-1.481,0.953
		c-0.553,0.354-1.144,0.687-1.771,0.99c-0.628,0.312-1.28,0.569-1.959,0.778c-0.678,0.209-1.369,0.312-2.073,0.312
		c-1.255,0-2.269-0.256-3.038-0.771c-0.771-0.51-1.382-1.18-1.834-2.008c-0.452-0.83-0.787-1.759-1.005-2.791
		c-0.218-1.025-0.394-2.069-0.528-3.125h-0.401l-4.496,12.539c-0.234,0.647-0.456,1.188-0.666,1.618
		c-0.209,0.427-0.423,0.771-0.641,1.041c-0.218,0.271-0.452,0.455-0.703,0.562c-0.251,0.108-0.527,0.162-0.829,0.162
		c-0.687,0-1.239-0.146-1.658-0.438c-0.418-0.293-0.741-0.688-0.967-1.184c-0.226-0.494-0.377-1.06-0.451-1.687
		C138.759,54.312,138.722,53.664,138.722,52.994z"/>
	<path fill="#669900" d="M175.647,52.893c-0.603,0.558-1.353,1.146-2.249,1.771c-0.896,0.629-1.861,1.207-2.9,1.73
		c-1.038,0.526-2.098,0.971-3.178,1.319c-1.08,0.351-2.105,0.522-3.077,0.522c-0.871,0-1.604-0.118-2.198-0.36
		c-0.595-0.24-1.076-0.582-1.443-1.019c-0.37-0.438-0.633-0.969-0.792-1.596c-0.159-0.631-0.238-1.318-0.238-2.074
		c0-1.055,0.116-2.28,0.352-3.688c0.482-2.908,0.792-4.545,0.931-4.903c0.229-0.716,0.685-2.302,1.37-4.754
		c0.636-1.999,1.027-3.302,1.176-3.907c0.083-0.422,0.313-0.803,0.692-1.143c0.345-0.306,0.735-0.553,1.171-0.748
		c0.437-0.195,0.89-0.34,1.358-0.434c0.47-0.093,0.893-0.139,1.271-0.139c0.692,0,1.161,0.13,1.408,0.389
		c0.246,0.262,0.368,0.607,0.368,1.042c0,0.369-0.084,0.89-0.257,1.562c-0.172,0.675-0.367,1.441-0.588,2.302
		c-0.221,0.86-0.547,1.967-0.977,3.319c-0.433,1.354-0.728,2.506-0.885,3.459c-0.159,0.955-0.358,1.899-0.599,2.847
		c-0.241,0.94-0.361,1.797-0.361,2.567c0,0.752,0.083,1.351,0.25,1.795c0.167,0.438,0.512,0.666,1.03,0.666
		c0.604,0,1.272-0.211,2.01-0.629c0.737-0.42,1.482-0.929,2.236-1.521c0.752-0.595,1.49-1.211,2.211-1.849
		c0.72-0.639,1.355-1.182,1.908-1.633V52.893L175.647,52.893z M164.418,26.531c0-0.387,0.084-0.826,0.252-1.316
		c0.167-0.49,0.44-0.951,0.816-1.383c0.377-0.431,0.879-0.795,1.507-1.09c0.628-0.296,1.411-0.443,2.349-0.443
		c0.587,0,1.14,0.068,1.658,0.201c0.52,0.137,0.972,0.345,1.356,0.623c0.385,0.277,0.69,0.646,0.918,1.104
		c0.226,0.457,0.338,0.999,0.338,1.624c0,0.573-0.091,1.132-0.275,1.672s-0.478,1.022-0.88,1.442
		c-0.402,0.425-0.908,0.769-1.521,1.029c-0.61,0.262-1.343,0.395-2.197,0.395c-1.474,0-2.562-0.352-3.266-1.055
		C164.771,28.631,164.418,27.699,164.418,26.531z"/>
	<path fill="#669900" d="M200.264,52.018c-0.385,0.543-0.9,1.178-1.543,1.904c-0.646,0.729-1.371,1.426-2.176,2.082
		c-0.805,0.662-1.666,1.223-2.586,1.68c-0.922,0.457-1.844,0.688-2.771,0.688c-1.106,0-2.041-0.354-2.776-1.058
		c-0.742-0.707-1.39-1.729-1.929-3.069c-0.401,0.463-0.899,0.938-1.495,1.418c-0.592,0.479-1.237,0.914-1.938,1.303
		c-0.7,0.396-1.431,0.711-2.19,0.961c-0.76,0.246-1.52,0.371-2.278,0.371c-0.804,0-1.587-0.164-2.35-0.489
		c-0.761-0.328-1.436-0.808-2.021-1.425c-0.587-0.612-1.057-1.364-1.408-2.256c-0.351-0.887-0.528-1.887-0.528-3.002
		c0-1.254,0.177-2.537,0.53-3.854c0.354-1.314,0.902-2.744,1.645-4.279c0.741-1.533,1.536-2.861,2.388-3.979
		c0.851-1.117,1.78-2.094,2.792-2.928c1.011-0.836,2.076-1.5,3.196-1.992c1.12-0.49,2.262-0.737,3.421-0.737
		c0.393,0,0.69,0.078,0.91,0.229c0.219,0.151,0.399,0.324,0.545,0.521c0.145,0.194,0.279,0.385,0.416,0.571
		c0.137,0.186,0.307,0.32,0.506,0.406c0.201,0.084,0.406,0.139,0.619,0.164c0.209,0.023,0.424,0.036,0.646,0.036
		c0.186,0,0.373-0.002,0.564-0.012c0.193-0.011,0.385-0.015,0.566-0.015c0.254,0,0.486,0.025,0.704,0.078
		c0.226,0.051,0.414,0.16,0.582,0.33s0.302,0.405,0.396,0.709c0.092,0.308,0.141,0.722,0.141,1.246c0,0.801-0.084,1.688-0.252,2.663
		c-0.168,0.978-0.359,1.978-0.576,3c-0.215,1.022-0.463,2.19-0.734,3.5c-0.277,1.312-0.416,2.416-0.416,3.312
		c0,0.77,0.068,1.369,0.213,1.803c0.144,0.433,0.448,0.646,0.918,0.646c0.354,0,0.717-0.086,1.104-0.263
		c0.383-0.176,0.771-0.401,1.168-0.688c0.396-0.278,0.787-0.604,1.183-0.956c0.396-0.355,0.768-0.729,1.114-1.105
		c0.822-0.896,1.649-1.908,2.488-3.037L200.264,52.018z M178.712,50.051c0,0.434,0.029,0.854,0.088,1.258
		c0.059,0.402,0.164,0.771,0.314,1.09c0.151,0.316,0.353,0.574,0.604,0.777c0.252,0.193,0.57,0.295,0.956,0.295
		c0.62,0,1.183-0.27,1.686-0.811c0.503-0.539,0.94-1.188,1.309-1.947c0.369-0.758,0.667-1.543,0.893-2.354
		c0.228-0.812,0.374-1.482,0.44-2.021l1.875-8.166c-0.688,0-1.355,0.17-2.011,0.511c-0.652,0.341-1.269,0.801-1.846,1.381
		c-0.578,0.581-1.109,1.246-1.595,1.993c-0.486,0.747-0.964,1.667-1.432,2.763c-0.47,1.099-0.801,2.06-0.993,2.888
		C178.81,48.539,178.712,49.318,178.712,50.051z"/>
	<path fill="#669900" d="M198.256,52.994c0-1.104,0.062-2.381,0.201-3.832c0.135-1.447,0.301-3.039,0.502-4.771
		c0.203-1.729,0.426-3.292,0.68-4.687c0.248-1.39,0.492-2.58,0.727-3.564c0.186-0.771,0.541-1.416,1.068-1.936
		s1.244-0.778,2.148-0.778c0.896,0,1.524,0.276,1.883,0.829c0.352,0.554,0.527,1.289,0.527,2.212c0,0.251-0.023,0.589-0.074,1.018
		c-0.051,0.427-0.113,0.896-0.189,1.406c-0.076,0.51-0.158,1.039-0.24,1.583c-0.084,0.545-0.162,1.164-0.236,1.857
		c-0.076,0.694-0.141,1.215-0.188,1.56c-0.051,0.344-0.076,0.573-0.076,0.688h0.502c0.104-0.183,0.262-0.479,0.479-0.892
		c0.222-0.412,0.474-1,0.757-1.771c0.28-0.77,0.592-1.453,0.92-2.047c0.321-0.594,0.629-1.164,0.914-1.707
		c0.28-0.545,0.545-1.025,0.774-1.444c0.232-0.421,0.41-0.729,0.525-0.931c0.537-0.903,1.148-1.522,1.834-1.857
		c0.688-0.336,1.447-0.503,2.285-0.503c0.84,0,1.504,0.354,1.996,1.056c0.496,0.702,0.744,1.676,0.744,2.914
		c0,0.184-0.039,0.494-0.115,0.93c-0.074,0.437-0.17,0.955-0.289,1.559c-0.113,0.604-0.246,1.381-0.389,2.336
		c-0.146,0.953-0.271,1.807-0.389,2.562c-0.119,0.752-0.22,1.498-0.289,2.231c-0.076,0.734-0.113,1.414-0.113,2.034
		c0,1.034,0.131,1.892,0.391,2.562c0.26,0.674,0.664,1.008,1.221,1.008c0.199,0,0.482-0.076,0.854-0.229
		c0.551-0.201,0.901-0.377,1.055-0.524c0.736-0.57,1.121-0.847,1.154-0.828c0.051,0.019,0.61-0.315,1.687-1.006
		c1.336-0.854,2.938-1.9,4.795-3.142l-0.021,5.625l-1.256,0.955c-0.104,0.086-0.892,0.521-2.361,1.307
		c-2.127,1.142-3.459,1.824-3.993,2.062c-1.308,0.593-2.115,0.927-2.438,1.011c-0.84,0.27-1.717,0.396-2.639,0.396
		s-1.693-0.664-2.324-1.996c-0.627-1.33-0.938-3.271-0.938-5.838c0-1.004,0.063-2.094,0.201-3.252
		c0.133-1.166,0.301-2.416,0.502-3.758h-0.397l-6.582,13.062c-0.354,0.703-0.729,1.177-1.135,1.406
		c-0.416,0.252-0.898,0.375-1.457,0.375c-0.687,0-1.234-0.146-1.652-0.438c-0.42-0.293-0.742-0.688-0.973-1.182
		c-0.226-0.496-0.375-1.059-0.447-1.686C198.295,54.312,198.256,53.664,198.256,52.994z"/>
	<path fill="#669900" d="M237.895,52.893c-0.602,0.558-1.352,1.146-2.246,1.771c-0.896,0.629-1.863,1.207-2.902,1.73
		c-1.039,0.526-2.098,0.971-3.178,1.319c-1.082,0.351-2.105,0.522-3.078,0.522c-0.869,0-1.602-0.118-2.197-0.36
		c-0.594-0.24-1.069-0.582-1.438-1.019c-0.369-0.438-0.638-0.969-0.793-1.596c-0.158-0.631-0.233-1.318-0.233-2.074
		c0-1.055,0.112-2.28,0.354-3.688c0.48-2.908,0.791-4.545,0.934-4.903c0.227-0.716,0.682-2.302,1.368-4.754
		c0.636-1.999,1.026-3.302,1.177-3.907c0.08-0.422,0.312-0.803,0.69-1.143c0.346-0.306,0.735-0.553,1.172-0.748
		s0.89-0.34,1.354-0.434c0.471-0.093,0.894-0.139,1.271-0.139c0.688,0,1.155,0.13,1.403,0.389c0.246,0.262,0.371,0.607,0.371,1.042
		c0,0.369-0.088,0.89-0.26,1.562c-0.17,0.675-0.367,1.441-0.59,2.302c-0.219,0.86-0.545,1.967-0.977,3.319
		c-0.434,1.354-0.729,2.506-0.887,3.459c-0.158,0.955-0.355,1.899-0.603,2.847c-0.237,0.94-0.356,1.797-0.356,2.567
		c0,0.752,0.084,1.351,0.25,1.795c0.17,0.438,0.514,0.666,1.031,0.666c0.602,0,1.271-0.211,2.008-0.629
		c0.733-0.42,1.479-0.929,2.231-1.521c0.754-0.595,1.492-1.211,2.211-1.849c0.726-0.639,1.354-1.182,1.908-1.633v5.103
		L237.895,52.893L237.895,52.893z M226.667,26.531c0-0.387,0.084-0.826,0.252-1.316c0.168-0.49,0.438-0.951,0.814-1.383
		c0.377-0.431,0.879-0.795,1.51-1.09c0.627-0.296,1.408-0.443,2.348-0.443c0.586,0,1.146,0.068,1.658,0.201
		c0.521,0.137,0.978,0.345,1.355,0.623c0.387,0.277,0.689,0.646,0.918,1.104c0.227,0.457,0.338,0.999,0.338,1.624
		c0,0.573-0.092,1.132-0.275,1.672c-0.186,0.541-0.479,1.022-0.879,1.442c-0.396,0.425-0.908,0.769-1.521,1.029
		c-0.608,0.262-1.345,0.395-2.197,0.395c-1.475,0-2.562-0.352-3.266-1.055C227.02,28.631,226.667,27.699,226.667,26.531z"/>
	<path fill="#669900" d="M235.415,48.764c0.938-0.812,1.697-1.49,2.285-2.031c0.586-0.541,1.174-1.172,1.76-1.893
		c0.584-0.721,1.051-1.311,1.396-1.766c0.342-0.457,0.748-0.998,1.217-1.625c0.471-0.625,1.039-1.393,1.711-2.298
		c0.67-0.903,1.539-2.036,2.609-3.391c0.219-0.308,0.461-0.603,0.729-0.89c0.271-0.287,0.565-0.545,0.896-0.773
		c0.322-0.229,0.688-0.414,1.079-0.559c0.396-0.144,0.835-0.217,1.315-0.217c0.805,0,1.426,0.088,1.86,0.266
		c0.437,0.181,0.752,0.396,0.953,0.647c0.202,0.255,0.317,0.521,0.354,0.802c0.026,0.277,0.049,0.521,0.049,0.724
		c0,0.405-0.158,0.854-0.479,1.346c-0.315,0.491-0.668,0.965-1.053,1.421c-0.388,0.458-0.753,0.877-1.095,1.258
		c-0.342,0.381-0.541,0.666-0.592,0.851c0,0.524,0.031,1.004,0.109,1.435c0.076,0.434,0.186,0.855,0.312,1.271
		c0.129,0.414,0.262,0.854,0.396,1.32c0.14,0.465,0.271,1.004,0.396,1.609c0.125,0.606,0.146,1.451,0.051,2.516
		c-0.092,1.066-0.139,2.145-0.139,3.229c0.604-0.406,1.252-0.771,1.944-1.104c0.694-0.332,1.42-0.673,2.172-1.031
		c0.757-0.354,1.528-0.748,2.326-1.18c0.795-0.434,1.597-0.951,2.396-1.562l0.024,5.688c-1.037,0.771-2.237,1.5-3.604,2.18
		c-1.367,0.681-2.799,1.272-4.309,1.793c-1.506,0.517-3.021,0.925-4.555,1.224c-1.534,0.3-2.984,0.449-4.357,0.449
		c-0.99,0-1.91-0.089-2.766-0.265c-0.854-0.181-1.604-0.453-2.248-0.83c-0.645-0.375-1.168-0.869-1.568-1.479
		c-0.402-0.605-0.646-1.347-0.729-2.211c-0.234,0.057-0.467,0.084-0.688,0.104c-0.229,0.017-0.449,0.021-0.666,0.021
		c-0.271,0-0.521-0.008-0.76-0.021c-0.229-0.021-0.438-0.078-0.604-0.19c-0.168-0.107-0.301-0.287-0.398-0.531
		c-0.104-0.244-0.148-0.598-0.148-1.055c0-0.406,0.103-0.783,0.303-1.129c0.199-0.351,0.437-0.656,0.701-0.929
		c0.271-0.271,0.537-0.508,0.806-0.711C235.079,49.043,235.278,48.881,235.415,48.764z M238.549,52.014
		c0.201,0,0.424,0.127,0.666,0.381c0.242,0.252,0.52,0.533,0.842,0.838c0.316,0.308,0.684,0.582,1.104,0.838
		c0.42,0.257,0.896,0.384,1.438,0.384c0.647,0,1.188-0.111,1.614-0.332c0.431-0.222,0.771-0.513,1.021-0.873
		c0.252-0.365,0.434-0.787,0.523-1.271c0.104-0.48,0.15-0.982,0.15-1.515c0-0.455-0.029-0.92-0.087-1.396
		c-0.062-0.477-0.051-1.062,0.023-1.767c0.075-0.702,0.059-1.241-0.05-1.625c-0.108-0.382-0.205-0.708-0.289-0.979L238.549,52.014z"
		/>
	<path fill="#669900" d="M268.241,53.684c0-0.217,0.016-0.529,0.051-0.934c0.033-0.402,0.084-0.865,0.148-1.391
		c0.068-0.521,0.143-1.07,0.229-1.65c0.084-0.58,0.168-1.154,0.25-1.729c0.188-1.347,0.41-2.791,0.685-4.338h-0.379
		c-0.197,0.252-0.435,0.633-0.688,1.137c-0.263,0.507-0.623,1.248-1.095,2.226c-0.469,0.979-1.065,2.246-1.797,3.808
		c-0.729,1.561-1.672,3.465-2.826,5.729c-0.334,0.666-0.724,1.113-1.168,1.354c-0.442,0.234-0.937,0.354-1.469,0.354
		c-0.688,0-1.24-0.144-1.658-0.426c-0.418-0.283-0.741-0.666-0.967-1.146c-0.229-0.479-0.378-1.022-0.453-1.635
		c-0.073-0.604-0.108-1.24-0.108-1.894c0-0.688,0.041-1.508,0.125-2.449c0.082-0.944,0.188-1.938,0.323-2.983
		c0.138-1.045,0.33-2.235,0.593-3.58c0.26-1.338,0.483-2.508,0.678-3.504c0.191-0.998,0.391-1.91,0.592-2.739
		c0.201-0.827,0.387-1.504,0.555-2.027c0.166-0.542,0.326-0.973,0.479-1.294c0.146-0.322,0.32-0.57,0.519-0.748
		c0.188-0.178,0.422-0.297,0.688-0.355c0.268-0.058,0.605-0.09,1.027-0.09c0.639,0,1.137,0.021,1.492,0.065
		c0.357,0.042,0.627,0.142,0.805,0.304s0.279,0.395,0.312,0.697c0.031,0.305,0.051,0.719,0.051,1.241
		c0,0.289-0.014,0.618-0.039,0.989c-0.021,0.373-0.062,0.77-0.107,1.19c-0.031,0.425-0.086,0.854-0.149,1.292
		c-0.117,0.848-0.187,1.285-0.198,1.319c-0.234,1.147-0.48,2.435-0.73,3.854l0.275,0.305c0.031-0.051,0.258-0.5,0.666-1.344
		c0.408-0.847,0.854-1.683,1.33-2.512c0.479-0.826,0.992-1.691,1.547-2.598c0.553-0.904,1.076-1.703,1.578-2.396
		c0.485-0.693,1.004-1.268,1.549-1.726c0.543-0.455,1.191-0.685,1.945-0.685c0.703,0,1.311,0.207,1.812,0.621
		c0.502,0.416,0.752,1.002,0.752,1.764c0,0.658-0.043,1.283-0.125,1.876c-0.104,0.761-0.201,1.335-0.303,1.724
		c-0.117,0.439-0.252,0.98-0.402,1.623c-0.115,0.559-0.326,1.359-0.627,2.408c-0.051,0.168-0.103,0.417-0.15,0.734
		c-0.016,0.104-0.025,0.17-0.025,0.205l0.277,0.305c0.033-0.053,0.268-0.493,0.701-1.332c0.436-0.838,0.912-1.67,1.422-2.498
		c0.512-0.827,1.055-1.698,1.631-2.611c0.58-0.914,1.121-1.716,1.623-2.408c0.484-0.676,0.969-1.246,1.455-1.712
		c0.486-0.465,1.08-0.698,1.783-0.698c0.787,0,1.453,0.207,1.998,0.623c0.545,0.414,0.814,1.002,0.814,1.764
		c0,1.167-0.061,2.271-0.179,3.32c-0.119,1.047-0.293,2.205-0.522,3.475c-0.234,1.267-0.41,2.419-0.529,3.458
		c-0.115,1.041-0.176,2.146-0.176,3.312c0,0.911,0.117,1.655,0.352,2.229c0.236,0.571,0.521,0.858,0.855,0.858
		c0.352,0,0.719-0.076,1.104-0.229c0.385-0.152,0.777-0.35,1.18-0.586c0.402-0.233,0.797-0.514,1.186-0.822
		c0.386-0.312,0.755-0.639,1.104-0.976c0.818-0.776,1.631-1.657,2.438-2.64l0.427,5.955c-0.734,0.568-1.471,1.156-2.197,1.769
		c-0.729,0.61-1.496,1.164-2.312,1.659c-0.812,0.494-1.704,0.902-2.677,1.219c-0.976,0.316-2.068,0.478-3.291,0.478
		c-0.604,0-1.107-0.188-1.521-0.576c-0.409-0.39-0.743-0.924-0.991-1.606c-0.252-0.688-0.434-1.502-0.539-2.438
		c-0.108-0.938-0.164-1.953-0.164-3.056c0-1.062,0.039-2.188,0.11-3.385c0.075-1.188,0.185-2.396,0.312-3.611h-0.375l-5.104,12.906
		c-0.438,0.695-0.92,1.168-1.457,1.409c-0.533,0.239-1.148,0.356-1.854,0.356c-0.537,0-0.967-0.143-1.282-0.426
		s-0.562-0.648-0.739-1.1c-0.177-0.449-0.293-0.939-0.354-1.479C268.27,54.705,268.241,54.189,268.241,53.684z"/>
	<path fill="#669900" d="M305.692,38.875c0.486,0.972,0.852,1.996,1.096,3.078c0.24,1.08,0.363,2.297,0.363,3.652
		c0,0.986-0.107,1.981-0.324,2.99c-0.221,1.004-0.531,1.975-0.943,2.912c-0.405,0.938-0.909,1.812-1.506,2.639
		c-0.598,0.82-1.271,1.533-2.035,2.139c-0.764,0.604-1.596,1.079-2.5,1.433c-0.899,0.351-1.86,0.524-2.891,0.524
		c-1.473,0-2.729-0.318-3.777-0.967c-1.049-0.646-1.903-1.484-2.571-2.523c-0.67-1.037-1.162-2.211-1.474-3.518
		c-0.312-1.309-0.467-2.631-0.467-3.971c0-2.209,0.275-4.117,0.83-5.716c0.553-1.602,1.344-2.989,2.375-4.172
		c1.027-1.18,2.287-2.108,3.777-2.787c1.49-0.678,3.164-1.018,5.025-1.018c1.59,0,3.078,0.246,4.471,0.74s2.691,1.156,3.906,1.984
		c1.213,0.83,2.344,1.871,3.391,3.127c1.047,1.256,2.023,2.453,2.926,3.593l-0.477,3.542c-0.451-0.604-1.061-1.257-1.834-1.959
		c-0.77-0.703-1.588-1.48-2.449-2.334c-0.859-0.854-1.713-1.578-2.549-2.172c-0.838-0.596-1.559-1.094-2.16-1.494L305.692,38.875z
		 M297.932,53.42c0.57,0,1.123-0.289,1.658-0.865c0.535-0.578,1.006-1.309,1.408-2.186c0.396-0.883,0.725-1.941,0.965-3.191
		c0.244-1.248,0.365-2.357,0.365-3.328c0-0.771-0.062-1.487-0.183-2.146c-0.11-0.662-0.293-1.233-0.521-1.721
		c-0.235-0.484-0.539-0.87-0.906-1.154c-0.366-0.287-0.811-0.428-1.329-0.428c-0.688,0-1.343,0.292-1.962,0.879
		c-0.618,0.587-1.161,1.336-1.633,2.249c-0.469,0.913-0.836,1.921-1.104,3.028c-0.269,1.104-0.401,2.354-0.401,3.74
		c0,0.703,0.067,1.367,0.203,1.98c0.133,0.621,0.342,1.162,0.627,1.623c0.284,0.461,0.661,0.828,1.131,1.104
		C296.719,53.283,297.276,53.42,297.932,53.42z"/>
	<path fill="#666666" d="M319.495,55.447c0,0.037-0.008,0.137-0.02,0.293c-0.01,0.156-0.045,0.338-0.104,0.541
		c-0.062,0.205-0.15,0.422-0.271,0.652c-0.125,0.229-0.297,0.438-0.521,0.637c-0.227,0.195-0.508,0.354-0.852,0.484
		c-0.342,0.127-0.76,0.188-1.252,0.188c-0.395,0-0.754-0.045-1.074-0.137c-0.32-0.097-0.598-0.234-0.828-0.426
		c-0.229-0.189-0.408-0.438-0.535-0.73c-0.129-0.299-0.188-0.658-0.188-1.076c0-0.354,0.055-0.695,0.168-1.033
		c0.109-0.338,0.281-0.637,0.521-0.898c0.229-0.262,0.537-0.475,0.912-0.629c0.379-0.153,0.815-0.229,1.329-0.229
		c0.894,0,1.562,0.205,2.023,0.61C319.264,54.1,319.495,54.688,319.495,55.447z"/>
	<path fill="#666666" d="M324.598,54.891c0-0.707,0.043-1.521,0.129-2.447c0.086-0.926,0.191-1.94,0.32-3.051
		c0.127-1.104,0.271-2.104,0.434-2.992c0.16-0.887,0.314-1.646,0.465-2.276c0.117-0.492,0.346-0.903,0.682-1.235
		c0.338-0.331,0.795-0.498,1.373-0.498s0.979,0.176,1.203,0.528c0.229,0.354,0.338,0.824,0.338,1.414
		c0,0.158-0.016,0.377-0.047,0.646c-0.033,0.273-0.074,0.572-0.123,0.898c-0.047,0.326-0.098,0.664-0.147,1.014
		c-0.058,0.35-0.104,0.743-0.147,1.188c-0.052,0.442-0.093,0.772-0.119,0.996c-0.031,0.217-0.054,0.362-0.054,0.438h0.32
		c0.062-0.115,0.165-0.311,0.31-0.568c0.141-0.264,0.301-0.639,0.479-1.133c0.184-0.492,0.378-0.93,0.584-1.311
		c0.213-0.379,0.406-0.742,0.59-1.092c0.186-0.35,0.348-0.656,0.498-0.926c0.148-0.268,0.262-0.465,0.336-0.594
		c0.344-0.578,0.73-0.974,1.172-1.187c0.438-0.215,0.926-0.322,1.461-0.322c0.533,0,0.959,0.225,1.275,0.674
		c0.314,0.45,0.475,1.07,0.475,1.861c0,0.119-0.021,0.313-0.07,0.595c-0.051,0.278-0.104,0.61-0.188,0.996
		c-0.074,0.385-0.158,0.881-0.25,1.489c-0.092,0.61-0.176,1.155-0.248,1.64c-0.072,0.479-0.139,0.957-0.188,1.428
		c-0.047,0.475-0.07,0.904-0.07,1.305c0,0.664,0.082,1.207,0.246,1.637c0.168,0.434,0.43,0.646,0.781,0.646
		c0.129,0,0.312-0.049,0.545-0.146c0.354-0.127,0.578-0.236,0.674-0.336c0.473-0.361,0.719-0.539,0.74-0.525
		c0.026,0.01,0.393-0.205,1.069-0.645c0.857-0.547,1.884-1.217,3.066-2.006l-0.019,3.596l-0.807,0.605
		c-0.062,0.057-0.562,0.334-1.508,0.837c-1.355,0.729-2.209,1.169-2.555,1.315c-0.834,0.373-1.354,0.588-1.56,0.641
		c-0.532,0.176-1.099,0.258-1.685,0.258c-0.592,0-1.086-0.426-1.485-1.271c-0.397-0.852-0.604-2.098-0.604-3.729
		c0-0.644,0.043-1.334,0.131-2.076c0.086-0.746,0.191-1.545,0.318-2.396h-0.256l-4.205,8.343c-0.229,0.45-0.469,0.75-0.727,0.897
		c-0.27,0.157-0.576,0.237-0.932,0.237c-0.438,0-0.793-0.094-1.062-0.274c-0.271-0.188-0.476-0.44-0.617-0.759
		c-0.146-0.315-0.241-0.674-0.289-1.071C324.622,55.73,324.598,55.316,324.598,54.891z"/>
	<path fill="#666666" d="M345.549,58.242c-1,0-1.873-0.186-2.623-0.553c-0.748-0.371-1.373-0.871-1.871-1.494
		c-0.502-0.627-0.875-1.354-1.125-2.176c-0.25-0.822-0.375-1.688-0.375-2.586c0-0.599,0.113-1.302,0.336-2.117
		c0.223-0.818,0.455-1.543,0.695-2.178c0.236-0.638,0.539-1.24,0.896-1.812c0.363-0.576,0.785-1.084,1.271-1.521
		c0.484-0.438,1.024-0.788,1.627-1.045c0.604-0.261,1.271-0.39,2.008-0.39c0.604,0,1.154,0.099,1.672,0.289
		c0.518,0.192,0.961,0.461,1.342,0.81c0.383,0.348,0.68,0.768,0.895,1.26c0.213,0.492,0.322,1.043,0.322,1.649
		c0,0.647-0.223,1.375-0.652,2.183c-0.437,0.809-0.94,1.496-1.521,2.067c-0.576,0.576-1.268,1.09-2.062,1.539
		c-0.799,0.449-1.666,0.806-2.6,1.056c0.161,0.278,0.319,0.521,0.477,0.707c0.158,0.188,0.312,0.336,0.479,0.438
		c0.16,0.104,0.33,0.178,0.509,0.219c0.18,0.041,0.364,0.062,0.569,0.062c0.646,0,1.315-0.129,2.028-0.379
		c0.712-0.252,1.404-0.562,2.078-0.938c0.675-0.377,1.312-0.787,1.91-1.229c0.599-0.444,1.104-0.867,1.521-1.268l2.069,2.104
		c-0.94,1.004-1.94,1.894-3.004,2.662c-0.459,0.33-0.955,0.65-1.481,0.978c-0.524,0.317-1.086,0.604-1.668,0.854
		c-0.582,0.246-1.188,0.444-1.812,0.594C346.827,58.168,346.19,58.242,345.549,58.242z M343.409,50.6
		c0.387,0,0.807-0.098,1.264-0.289c0.457-0.19,0.879-0.44,1.271-0.746c0.393-0.305,0.773-0.711,1.15-1.223
		c0.375-0.516,0.564-0.938,0.564-1.271c0-0.473-0.093-0.854-0.271-1.159c-0.183-0.306-0.396-0.457-0.647-0.457
		c-0.466,0-0.857,0.086-1.189,0.254c-0.325,0.168-0.602,0.383-0.821,0.647c-0.22,0.268-0.396,0.571-0.526,0.912
		c-0.138,0.34-0.291,0.762-0.472,1.266c-0.178,0.5-0.272,0.916-0.299,1.236C343.418,50.092,343.409,50.369,343.409,50.6z"/>
	<path fill="#666666" d="M365.602,54.65c-1.027,0.598-1.945,1.123-2.748,1.57c-0.803,0.446-1.52,0.819-2.143,1.125
		c-0.629,0.299-1.188,0.521-1.672,0.674c-0.488,0.146-0.937,0.223-1.326,0.223c-0.812,0-1.523-0.244-2.141-0.736
		c-0.619-0.49-1.14-1.199-1.556-2.127c-0.414-0.926-0.729-2.047-0.938-3.359c-0.207-1.312-0.311-2.797-0.311-4.442
		c0-0.646,0.027-1.324,0.08-2.058c0.053-0.729,0.127-1.449,0.223-2.166c-0.322-0.048-0.576-0.092-0.752-0.134
		c-0.178-0.042-0.367-0.084-0.566-0.125c-0.192-0.041-0.446-0.085-0.758-0.136c-0.307-0.047-0.752-0.104-1.334-0.179
		c-0.258-0.034-0.457-0.103-0.596-0.206c-0.141-0.1-0.242-0.22-0.309-0.354c-0.064-0.138-0.104-0.28-0.113-0.431
		c-0.01-0.147-0.016-0.274-0.016-0.384c0-0.169,0.104-0.297,0.312-0.387c0.212-0.089,0.479-0.155,0.81-0.2
		c0.328-0.044,0.688-0.07,1.082-0.074c0.392-0.007,0.771-0.004,1.127,0.008c0.359,0.012,0.687,0.019,0.972,0.022
		c0.282,0.006,0.479-0.002,0.588-0.022c0.287-1.439,0.653-2.836,1.099-4.187c0.44-1.351,0.938-2.549,1.487-3.601
		c0.551-1.051,1.149-1.896,1.804-2.528c0.651-0.635,1.336-0.952,2.053-0.952c0.459,0,0.881,0.129,1.264,0.387
		c0.381,0.256,0.701,0.599,0.972,1.025s0.479,0.928,0.616,1.498c0.146,0.573,0.225,1.168,0.225,1.788
		c0,0.514-0.076,1.055-0.229,1.626c-0.146,0.57-0.354,1.15-0.612,1.742c-0.257,0.592-0.559,1.191-0.899,1.798
		c-0.351,0.606-0.715,1.209-1.104,1.806c0.103-0.035,0.265-0.042,0.479-0.021c0.226,0.021,0.484,0.039,0.779,0.048
		c0.293,0.008,0.61,0.017,0.952,0.022c0.345,0.008,0.675,0.02,0.996,0.03c0.32,0.011,0.621,0.021,0.897,0.032
		c0.279,0.011,0.509,0.021,0.688,0.031c0.218,0.013,0.366,0.131,0.47,0.356c0.096,0.228,0.144,0.513,0.144,0.857
		c0,0.399-0.106,0.725-0.32,0.977c-0.215,0.25-0.45,0.377-0.707,0.377h-6.17c-0.312,0.429-0.627,0.849-0.94,1.261
		c-0.312,0.412-0.608,0.783-0.881,1.114c-0.041,0.66-0.08,1.312-0.108,1.96c-0.013,0.274-0.021,0.562-0.03,0.854
		c-0.011,0.296-0.021,0.589-0.031,0.878c-0.012,0.288-0.021,0.563-0.021,0.836c-0.006,0.27-0.008,0.51-0.008,0.733
		c0,0.576,0.056,1.062,0.16,1.461c0.104,0.396,0.262,0.724,0.467,0.974c0.205,0.252,0.455,0.438,0.75,0.547
		c0.295,0.11,0.625,0.17,0.99,0.17c0.225,0,0.506-0.056,0.846-0.162c0.336-0.104,0.705-0.254,1.104-0.438
		c0.403-0.188,0.826-0.408,1.271-0.668c0.441-0.256,0.884-0.539,1.314-0.842c0.436-0.311,0.852-0.627,1.243-0.963
		c0.396-0.336,0.757-0.686,1.076-1.035v4.105h0.006v0.002H365.602z M360.467,34.326c0-0.119-0.01-0.248-0.023-0.392
		c-0.018-0.144-0.053-0.28-0.104-0.407c-0.055-0.128-0.139-0.234-0.252-0.32c-0.111-0.084-0.271-0.127-0.479-0.127
		c-0.276,0-0.562,0.244-0.846,0.731c-0.285,0.487-0.562,1.112-0.822,1.874c-0.265,0.758-0.512,1.594-0.737,2.508
		c-0.229,0.914-0.443,1.801-0.642,2.66c0.162,0.018,0.323,0.03,0.481,0.042c0.16,0.013,0.326,0.026,0.498,0.042
		c0.322-0.539,0.66-1.124,1.01-1.751c0.351-0.629,0.662-1.248,0.941-1.856c0.277-0.605,0.512-1.175,0.689-1.703
		C360.375,35.098,360.467,34.664,360.467,34.326z"/>
</g>
</svg>
