<?xml version="1.0" encoding="utf-8"?>
<!-- Generator: Adobe Illustrator 16.0.0, SVG Export Plug-In . SVG Version: 6.00 Build 0)  -->
<!DOCTYPE svg PUBLIC "-//W3C//DTD SVG 1.1//EN" "http://www.w3.org/Graphics/SVG/1.1/DTD/svg11.dtd">
<svg version="1.1" id="Layer_1" xmlns="http://www.w3.org/2000/svg" xmlns:xlink="http://www.w3.org/1999/xlink" x="0px" y="0px"
	 width="103px" height="103px" viewBox="0 0 103 103" enable-background="new 0 0 103 103" xml:space="preserve">
<path d="M61.805,18.866c4.184,0,7.586,3.401,7.586,7.583c0,4.183-3.402,7.584-7.586,7.584c-4.181,0-7.584-3.401-7.584-7.584
	C54.221,22.268,57.624,18.866,61.805,18.866z"/>
<path d="M22.13,51.053c4.183,0,7.585,3.402,7.585,7.583c0,4.183-3.402,7.585-7.585,7.585c-4.182,0-7.584-3.402-7.584-7.585
	C14.546,54.455,17.949,51.053,22.13,51.053z"/>
<path d="M41.92,59.033c-0.428-1.41,0.221-2.913,1.54-3.572l10.091-5.045c0.193-0.096,0.355-0.242,0.475-0.42l7.519-11.273
	c0.069-0.105,0.149-0.211,0.242-0.315c0.046-0.052,0.088-0.107,0.123-0.165c0.799-1.292,2.036-2.266,3.481-2.734
	c3.379-1.101,7.022,0.753,8.121,4.128l7.723,23.89"/>
<path d="M67.057,62.217c-0.01-0.091-0.027-0.184-0.057-0.271l-3.551-10.91c-0.146-0.453-0.539-0.78-1.008-0.844
	c-0.471-0.064-0.935,0.146-1.194,0.539l-2.82,4.231c-0.292,0.437-0.692,0.791-1.163,1.024l-7.646,3.824"/>
<path d="M32.604,72.661c-0.416,0-0.804,0.209-1.03,0.557l-6.302,9.56c-0.562,0.85-1.506,1.356-2.522,1.356
	c-0.179,0-0.358-0.017-0.534-0.047L7.783,81.495c-0.793-0.144-1.485-0.585-1.945-1.246c-0.462-0.663-0.636-1.464-0.492-2.259
	c0.258-1.442,1.504-2.488,2.967-2.488c0.179,0,0.358,0.018,0.539,0.048l11.67,2.095c0.487,0.088,0.979-0.123,1.25-0.535
	l9.558-14.496c0.61-0.926,1.682-1.445,2.792-1.346l59.544,5.362c0.008,0.001,0.015,0.002,0.021,0.002
	c0.015,0.002,0.027,0.003,0.041,0.005c0.022,0.002,0.047,0.006,0.074,0.008l0.062,0.01c0.009,0,0.02,0.003,0.025,0.004l0.115,0.02
	c0.01,0.004,0.02,0.006,0.029,0.008c0.025,0.006,0.051,0.012,0.076,0.018c0.013,0.002,0.022,0.006,0.035,0.009l0.112,0.028
	c0.019,0.006,0.036,0.011,0.06,0.017l0.34,0.13c0.023,0.012,0.048,0.021,0.07,0.031c0.004,0.001,0.02,0.009,0.021,0.012l0.023,0.012
	c0.026,0.013,0.057,0.025,0.084,0.043c0.006,0.004,0.011,0.006,0.018,0.008c0.004,0.004,0.009,0.006,0.016,0.01
	c0.031,0.02,0.064,0.036,0.096,0.057c0.008,0.002,0.017,0.01,0.021,0.01l0.032,0.022c0.023,0.015,0.047,0.027,0.068,0.043
	c0.012,0.011,0.024,0.021,0.037,0.025c0.025,0.021,0.053,0.036,0.08,0.057l0.019,0.017c0.008,0.004,0.014,0.012,0.021,0.016
	c0.027,0.02,0.053,0.042,0.079,0.062c0.011,0.01,0.021,0.019,0.029,0.024c-0.011-0.008-0.021-0.017-0.021-0.017l0,0
	c0.01,0.009,0.017,0.015,0.024,0.021c0.022,0.021,0.049,0.041,0.072,0.061c0.019,0.021,0.034,0.037,0.046,0.047
	c0.023,0.021,0.049,0.045,0.078,0.074l0.027,0.029c0.022,0.021,0.043,0.042,0.062,0.062l0.176,0.212
	c0.022,0.028,0.042,0.059,0.058,0.077l0.023,0.035c0.003,0,0.003,0.002,0.003,0.002c0.021,0.031,0.042,0.062,0.062,0.096
	c0.01,0.013,0.02,0.023,0.023,0.035c0.02,0.031,0.034,0.062,0.055,0.092c0.004,0.009,0.016,0.025,0.021,0.037
	c0.011,0.021,0.021,0.043,0.033,0.064l0.012,0.023c0.009,0.016,0.019,0.031,0.026,0.055l0.031,0.07
	c0.004,0.002,0.014,0.023,0.015,0.027c0.006,0.016,0.01,0.021,0.016,0.035l0.027,0.068c0.004,0.012,0.021,0.046,0.022,0.057
	c0.008,0.022,0.016,0.043,0.016,0.053l0.05,0.148c0.008,0.027,0.017,0.055,0.024,0.092c0.006,0.021,0.01,0.039,0.015,0.058
	c0.007,0.022,0.011,0.046,0.016,0.065l0.003,0.017c0.004,0.018,0.008,0.034,0.01,0.052c0.006,0.027,0.013,0.059,0.018,0.088
	l0.001,0.006l0.005,0.03c0.005,0.037,0.012,0.071,0.014,0.106c0,0.011,0.002,0.021,0.004,0.028c0,0.013,0,0.021,0.002,0.03
	c0.004,0.029,0.006,0.062,0.009,0.093c0,0.023,0,0.05,0.002,0.071c0.002,0.027,0.002,0.059,0.002,0.086
	c0,0.011,0.001,0.021,0.001,0.029l-0.001,0.016c0,0.012,0,0.021,0,0.032c0,0.026-0.002,0.056-0.002,0.069l-0.005,0.092
	c-0.002,0.013-0.004,0.022-0.004,0.035c-0.002,0.015-0.004,0.026-0.004,0.041c-0.004,0.027-0.006,0.058-0.013,0.102l-0.005,0.033
	c0,0.005-0.002,0.008-0.002,0.011c-0.004,0.035-0.011,0.069-0.018,0.104c-0.002,0.017-0.006,0.029-0.008,0.045
	c0,0.002,0,0.002,0,0.002c-0.006,0.031-0.015,0.063-0.021,0.096c-0.007,0.021-0.008,0.031-0.012,0.052
	c-0.01,0.03-0.019,0.063-0.025,0.095c-0.004,0.014-0.009,0.027-0.013,0.045c-0.003,0.004-0.003,0.006-0.003,0.008
	c-0.008,0.027-0.018,0.054-0.025,0.078c-0.004,0.01-0.012,0.031-0.013,0.039l-0.06,0.151c-0.002,0.009-0.007,0.015-0.01,0.022
	l-0.084,0.183c-0.011,0.022-0.021,0.043-0.031,0.063c-0.004,0.004-0.007,0.008-0.007,0.012l0,0l-0.028,0.051
	c-0.013,0.021-0.024,0.046-0.043,0.074l-0.023,0.036c-0.016,0.022-0.029,0.051-0.049,0.075c-0.002,0.004-0.006,0.009-0.008,0.013
	c-0.008,0.013-0.02,0.024-0.025,0.037c-0.018,0.026-0.037,0.054-0.059,0.079c-0.004,0.006-0.01,0.014-0.014,0.02
	s-0.008,0.01-0.012,0.014c-0.018,0.023-0.033,0.049-0.053,0.068c-0.004,0.008-0.01,0.014-0.014,0.018
	c-0.009,0.011-0.018,0.021-0.025,0.027c-0.016,0.021-0.032,0.042-0.059,0.069c-0.005,0.004-0.013,0.011-0.013,0.012
	c-0.013,0.015-0.022,0.024-0.034,0.039c-0.021,0.021-0.042,0.043-0.062,0.065c-0.002,0.002-0.004,0.004-0.006,0.005l-0.035,0.03
	c-0.025,0.027-0.053,0.055-0.075,0.074c-0.001,0.002-0.017,0.016-0.017,0.016c-0.006,0.006-0.015,0.011-0.019,0.015l-0.303,0.235
	c-0.019,0.013-0.034,0.023-0.062,0.041c-0.003,0-0.02,0.012-0.021,0.012l-0.158,0.094c-0.021,0.012-0.038,0.021-0.06,0.029
	c-0.015,0.008-0.028,0.016-0.041,0.023l-0.217,0.099c-0.021,0.008-0.039,0.015-0.059,0.022l-0.034,0.014
	c-0.019,0.006-0.034,0.013-0.052,0.019l-0.1,0.03c-0.017,0.007-0.028,0.011-0.045,0.015c-0.023,0.009-0.047,0.015-0.082,0.022
	c-0.013,0.004-0.025,0.008-0.037,0.012l-0.031,0.004c-0.02,0.008-0.038,0.014-0.059,0.018c-0.013,0.002-0.022,0.004-0.035,0.006
	c-0.006,0.002-0.01,0.002-0.016,0.005c-0.037,0.007-0.072,0.014-0.111,0.02c-0.016,0-0.03,0.005-0.043,0.007
	c-0.033,0.004-0.068,0.01-0.105,0.014c0,0-0.001,0-0.003,0c-0.017,0.002-0.033,0.003-0.052,0.006
	c-0.027,0.003-0.059,0.005-0.086,0.007c-0.014,0-0.024,0.001-0.037,0.002c-0.006,0-0.012,0-0.016,0h-0.035
	c-0.023,0.002-0.051,0.002-0.076,0.002h-60.84v-0.01H32.604z"/>
<line x1="32.292" y1="77.171" x2="97.704" y2="77.171"/>
</svg>
