<?xml version="1.0" encoding="utf-8"?>
<!-- Generator: Adobe Illustrator 16.0.0, SVG Export Plug-In . SVG Version: 6.00 Build 0)  -->
<!DOCTYPE svg PUBLIC "-//W3C//DTD SVG 1.1//EN" "http://www.w3.org/Graphics/SVG/1.1/DTD/svg11.dtd">
<svg version="1.1"
	 id="Layer_1" xmlns:sodipodi="http://sodipodi.sourceforge.net/DTD/sodipodi-0.dtd" xmlns:rdf="http://www.w3.org/1999/02/22-rdf-syntax-ns#" xmlns:dc="http://purl.org/dc/elements/1.1/" xmlns:cc="http://creativecommons.org/ns#" xmlns:svg="http://www.w3.org/2000/svg" xmlns:inkscape="http://www.inkscape.org/namespaces/inkscape"
	 xmlns="http://www.w3.org/2000/svg" xmlns:xlink="http://www.w3.org/1999/xlink" x="0px" y="0px" width="103px" height="103px"
	 viewBox="0 0 103 103" enable-background="new 0 0 103 103" xml:space="preserve">
<path d="M37.475,89.752h45.902c6.336,0,11.477-5.139,11.477-11.475v-3.824c0-0.705-0.57-1.275-1.273-1.277H79.552 M25.999,24.723
	c-0.013,0-6.362,0-6.376,0H8.146v-2.55c0-4.967,3.959-8.926,8.927-8.926h0.915c0.08,0.021,0.158,0.035,0.24,0.04
	c4.398,0.564,7.771,4.312,7.771,8.886v56.104c0,6.336,5.14,11.475,11.476,11.475 M18.229,13.248h49.848
	c4.967,0,8.926,3.958,8.926,8.926v12.835 M79.551,73.176H47.674c-0.703,0.002-1.273,0.572-1.273,1.277v3.824
	c0,4.572-3.373,8.281-7.771,8.846 M78.277,34.924c4.943,0,8.926,3.98,8.926,8.926c0,4.946-3.982,8.925-8.926,8.925
	c-4.945,0-8.926-3.979-8.926-8.925C69.352,38.904,73.332,34.924,78.277,34.924z M84.652,50.165V62.18l-5.816-2.91
	c-0.354-0.17-0.766-0.17-1.117,0l-5.816,2.91V50.193"/>
<line x1="77.404" y1="59.428" x2="77.404" y2="73.176"/>
<line x1="36.079" y1="25.828" x2="67.957" y2="25.828"/>
<line x1="36.079" y1="34.309" x2="59.17" y2="34.309"/>
<line x1="36.079" y1="42.79" x2="59.17" y2="42.79"/>
<line x1="36.079" y1="51.271" x2="59.17" y2="51.271"/>
<line x1="36.079" y1="59.754" x2="59.17" y2="59.754"/>
</svg>
