<?xml version="1.0" encoding="utf-8"?>
<!-- Generator: Adobe Illustrator 16.0.0, SVG Export Plug-In . SVG Version: 6.00 Build 0)  -->
<!DOCTYPE svg PUBLIC "-//W3C//DTD SVG 1.1//EN" "http://www.w3.org/Graphics/SVG/1.1/DTD/svg11.dtd">
<svg version="1.1" id="Layer_1" xmlns="http://www.w3.org/2000/svg" xmlns:xlink="http://www.w3.org/1999/xlink" x="0px" y="0px"
	 width="103px" height="103px" viewBox="0 0 103 103" enable-background="new 0 0 103 103" xml:space="preserve">
<title>20 -Massage Oil- (Outline)</title>
<desc>Created with Sketch.</desc>
<path d="M70.08,30.258h8.562V20.27c0-0.787-0.64-1.427-1.428-1.427h-5.707c-0.787,0-1.428,0.642-1.428,1.427L70.08,30.258
	L70.08,30.258z"/>
<path d="M77.215,33.129v-2.872 M71.508,30.258l0.038,2.909"/>
<path d="M69.446,33.148c-3.782-0.039-7.266,1.453-9.848,4.164c-2.584,2.707-3.908,6.26-3.729,10l2.532,38.773
	c0.109,2.312,1.988,4.102,4.276,4.102h23.36c2.288,0,4.167-1.789,4.275-4.076l2.537-38.823c0.178-3.714-1.147-7.265-3.73-9.976
	c-2.581-2.709-6.068-4.201-9.774-4.162h-9.899V33.148z"/>
<path d="M41.501,78.773H18.72c-2.357,0-4.343-1.846-4.514-4.194l-4.068-55.634c-0.031-0.395,0.105-0.783,0.377-1.074
	c0.271-0.29,0.647-0.456,1.045-0.456H48.66c0.397,0,0.774,0.166,1.045,0.456c0.271,0.291,0.405,0.68,0.377,1.074l-4.069,55.634
	C45.84,76.93,43.858,78.773,41.501,78.773L41.501,78.773z"/>
<path d="M41.533,78.773v9.871c0,2.361-1.921,4.279-4.28,4.279H22.966c-2.359,0-4.279-1.918-4.279-4.279v-9.736"/>
<path d="M26.472,88.645v-3.246c0-1.574,1.279-2.854,2.854-2.854h1.57c1.573,0,2.854,1.28,2.854,2.854v3.246"/>
<path d="M30.108,57.369c-4.801,0-8.564-6.896-8.564-15.696s3.764-15.696,8.564-15.696c4.803,0,8.565,6.896,8.565,15.696
	S34.911,57.369,30.108,57.369"/>
<line x1="22.176" y1="61.386" x2="38.043" y2="61.386"/>
<line x1="22.176" y1="65.727" x2="38.043" y2="65.727"/>
<line x1="18.687" y1="88.645" x2="41.533" y2="88.645"/>
<path d="M65.526,50.802c0.666,4.272,4.05,7.656,8.322,8.321C73.183,54.852,69.801,51.469,65.526,50.802z"/>
<path d="M83.196,50.802c-4.272,0.667-7.655,4.05-8.323,8.321C79.146,58.458,82.528,55.074,83.196,50.802z"/>
<path d="M65.526,65.072c0.666,4.271,4.05,7.654,8.322,8.32C73.183,69.123,69.801,65.736,65.526,65.072z"/>
<path d="M83.196,65.072c-4.272,0.664-7.655,4.051-8.323,8.32C79.146,72.727,82.528,69.344,83.196,65.072z"/>
<line x1="74.362" y1="50.913" x2="74.362" y2="76.137"/>
<line x1="64.493" y1="80.648" x2="84.229" y2="80.648"/>
</svg>
