<?xml version="1.0" encoding="utf-8"?>
<!-- Generator: Adobe Illustrator 16.0.0, SVG Export Plug-In . SVG Version: 6.00 Build 0)  -->
<!DOCTYPE svg PUBLIC "-//W3C//DTD SVG 1.1//EN" "http://www.w3.org/Graphics/SVG/1.1/DTD/svg11.dtd">
<svg version="1.1" id="Layer_1" xmlns="http://www.w3.org/2000/svg" xmlns:xlink="http://www.w3.org/1999/xlink" x="0px" y="0px"
	 width="103px" height="103px" viewBox="0 0 103 103" enable-background="new 0 0 103 103" xml:space="preserve">
<path d="M68.461,7.092l-5.013,8.771c-0.964,1.738-0.972,3.886-0.011,5.728c0.914,1.75,2.506,2.86,4.367,3.049
	c0.43,0.047,0.881,0.045,1.312,0.002c1.86-0.189,3.452-1.301,4.366-3.051c0.961-1.842,0.953-3.988-0.021-5.742L68.461,7.092z"/>
<path d="M68.461,19.853l-1.409,2.424c-0.257,0.453-0.258,1.035,0.007,1.541c0.118,0.229,0.479,0.771,1.205,0.845
	c0.133,0.014,0.271,0.014,0.396,0c0.729-0.072,1.087-0.615,1.204-0.845c0.264-0.506,0.263-1.088-0.005-1.56L68.461,19.853z"/>
<path d="M45.405,95.893c-12.145,0-25.051-4.062-25.051-11.592c0-7.527,12.907-11.594,25.051-11.594
	c12.144,0,25.052,4.064,25.052,11.594S57.549,95.893,45.405,95.893"/>
<path d="M45.405,54.951c-9.125,0-16.006-3.438-16.006-8.003c0-4.563,6.881-8.003,16.006-8.003c9.123,0,16.006,3.439,16.006,8.003
	C61.411,51.513,54.528,54.951,45.405,54.951"/>
<path d="M45.403,72.754c-9.124,0-20.806-4.039-20.806-8.602c0-4.564,11.682-9.203,20.806-9.203s20.81,4.641,20.81,9.203
	C66.213,68.713,54.527,72.754,45.403,72.754z"/>
<path d="M77.991,86.293h3.312c4.412,0,8.004,3.588,8.004,8.002c0,0.881-0.719,1.598-1.603,1.598H45.303"/>
<path d="M54.064,39.948v-4.873c0-3.53,2.871-6.401,6.399-6.401H76.45c3.528,0,6.397,2.871,6.397,6.401v51.364"/>
<line x1="75.645" y1="38.842" x2="82.854" y2="38.842"/>
<line x1="71.802" y1="44.678" x2="82.854" y2="44.678"/>
<line x1="68.461" y1="24.662" x2="68.461" y2="28.674"/>
</svg>
