<?xml version="1.0" encoding="utf-8"?>
<!-- Generator: Adobe Illustrator 16.0.0, SVG Export Plug-In . SVG Version: 6.00 Build 0)  -->
<!DOCTYPE svg PUBLIC "-//W3C//DTD SVG 1.1//EN" "http://www.w3.org/Graphics/SVG/1.1/DTD/svg11.dtd">
<svg version="1.1" id="Layer_1" xmlns="http://www.w3.org/2000/svg" xmlns:xlink="http://www.w3.org/1999/xlink" x="0px" y="0px"
	 width="200px" height="200px" viewBox="0 0 200 200" enable-background="new 0 0 200 200" xml:space="preserve">
<g transform="translate(0,-952.36218)" opacity="0.7">
	<path fill="none" stroke="#999999" stroke-miterlimit="10" d="M89.563,1019.921l-6.088,10.438H69.559
		c-4.336,0-7.827,3.491-7.827,7.828v34.791c0,4.338,3.491,7.828,7.827,7.828h60.882c4.338,0,7.828-3.49,7.828-7.828v-34.792
		c0-4.337-3.49-7.828-7.828-7.828h-13.916l-6.088-10.438L89.563,1019.921L89.563,1019.921z M100,1035.576
		c11.027,0,20.004,8.978,20.004,20.004c0,11.029-8.977,20.005-20.004,20.005c-11.027,0-20.004-8.976-20.004-20.005
		C79.996,1044.554,88.973,1035.576,100,1035.576L100,1035.576z M126.962,1038.185c1.44,0,2.608,1.168,2.608,2.609
		c0,1.441-1.168,2.61-2.608,2.61s-2.608-1.168-2.608-2.61C124.354,1039.354,125.521,1038.185,126.962,1038.185z M100,1039.056
		c-9.147,0-16.525,7.378-16.525,16.524c0,9.147,7.377,16.525,16.525,16.525c9.148,0,16.525-7.377,16.525-16.525
		C116.525,1046.433,109.146,1039.056,100,1039.056L100,1039.056z M100,1046.014c5.283,0,9.566,4.283,9.566,9.566
		c0,5.284-4.283,9.567-9.566,9.567c-5.285,0-9.567-4.283-9.567-9.567S94.715,1046.014,100,1046.014z"/>
</g>
</svg>
