<svg xmlns="http://www.w3.org/2000/svg"><symbol viewBox="0 0 103 103" id="01"><title>01</title> <path d="M61.805,18.866c4.184,0,7.586,3.401,7.586,7.583c0,4.183-3.402,7.584-7.586,7.584c-4.181,0-7.584-3.401-7.584-7.584
	C54.221,22.268,57.624,18.866,61.805,18.866z"/> <path d="M22.13,51.053c4.183,0,7.585,3.402,7.585,7.583c0,4.183-3.402,7.585-7.585,7.585c-4.182,0-7.584-3.402-7.584-7.585
	C14.546,54.455,17.949,51.053,22.13,51.053z"/> <path d="M41.92,59.033c-0.428-1.41,0.221-2.913,1.54-3.572l10.091-5.045c0.193-0.096,0.355-0.242,0.475-0.42l7.519-11.273
	c0.069-0.105,0.149-0.211,0.242-0.315c0.046-0.052,0.088-0.107,0.123-0.165c0.799-1.292,2.036-2.266,3.481-2.734
	c3.379-1.101,7.022,0.753,8.121,4.128l7.723,23.89"/> <path d="M67.057,62.217c-0.01-0.091-0.027-0.184-0.057-0.271l-3.551-10.91c-0.146-0.453-0.539-0.78-1.008-0.844
	c-0.471-0.064-0.935,0.146-1.194,0.539l-2.82,4.231c-0.292,0.437-0.692,0.791-1.163,1.024l-7.646,3.824"/> <path d="M32.604,72.661c-0.416,0-0.804,0.209-1.03,0.557l-6.302,9.56c-0.562,0.85-1.506,1.356-2.522,1.356
	c-0.179,0-0.358-0.017-0.534-0.047L7.783,81.495c-0.793-0.144-1.485-0.585-1.945-1.246c-0.462-0.663-0.636-1.464-0.492-2.259
	c0.258-1.442,1.504-2.488,2.967-2.488c0.179,0,0.358,0.018,0.539,0.048l11.67,2.095c0.487,0.088,0.979-0.123,1.25-0.535
	l9.558-14.496c0.61-0.926,1.682-1.445,2.792-1.346l59.544,5.362c0.008,0.001,0.015,0.002,0.021,0.002
	c0.015,0.002,0.027,0.003,0.041,0.005c0.022,0.002,0.047,0.006,0.074,0.008l0.062,0.01c0.009,0,0.02,0.003,0.025,0.004l0.115,0.02
	c0.01,0.004,0.02,0.006,0.029,0.008c0.025,0.006,0.051,0.012,0.076,0.018c0.013,0.002,0.022,0.006,0.035,0.009l0.112,0.028
	c0.019,0.006,0.036,0.011,0.06,0.017l0.34,0.13c0.023,0.012,0.048,0.021,0.07,0.031c0.004,0.001,0.02,0.009,0.021,0.012l0.023,0.012
	c0.026,0.013,0.057,0.025,0.084,0.043c0.006,0.004,0.011,0.006,0.018,0.008c0.004,0.004,0.009,0.006,0.016,0.01
	c0.031,0.02,0.064,0.036,0.096,0.057c0.008,0.002,0.017,0.01,0.021,0.01l0.032,0.022c0.023,0.015,0.047,0.027,0.068,0.043
	c0.012,0.011,0.024,0.021,0.037,0.025c0.025,0.021,0.053,0.036,0.08,0.057l0.019,0.017c0.008,0.004,0.014,0.012,0.021,0.016
	c0.027,0.02,0.053,0.042,0.079,0.062c0.011,0.01,0.021,0.019,0.029,0.024c-0.011-0.008-0.021-0.017-0.021-0.017l0,0
	c0.01,0.009,0.017,0.015,0.024,0.021c0.022,0.021,0.049,0.041,0.072,0.061c0.019,0.021,0.034,0.037,0.046,0.047
	c0.023,0.021,0.049,0.045,0.078,0.074l0.027,0.029c0.022,0.021,0.043,0.042,0.062,0.062l0.176,0.212
	c0.022,0.028,0.042,0.059,0.058,0.077l0.023,0.035c0.003,0,0.003,0.002,0.003,0.002c0.021,0.031,0.042,0.062,0.062,0.096
	c0.01,0.013,0.02,0.023,0.023,0.035c0.02,0.031,0.034,0.062,0.055,0.092c0.004,0.009,0.016,0.025,0.021,0.037
	c0.011,0.021,0.021,0.043,0.033,0.064l0.012,0.023c0.009,0.016,0.019,0.031,0.026,0.055l0.031,0.07
	c0.004,0.002,0.014,0.023,0.015,0.027c0.006,0.016,0.01,0.021,0.016,0.035l0.027,0.068c0.004,0.012,0.021,0.046,0.022,0.057
	c0.008,0.022,0.016,0.043,0.016,0.053l0.05,0.148c0.008,0.027,0.017,0.055,0.024,0.092c0.006,0.021,0.01,0.039,0.015,0.058
	c0.007,0.022,0.011,0.046,0.016,0.065l0.003,0.017c0.004,0.018,0.008,0.034,0.01,0.052c0.006,0.027,0.013,0.059,0.018,0.088
	l0.001,0.006l0.005,0.03c0.005,0.037,0.012,0.071,0.014,0.106c0,0.011,0.002,0.021,0.004,0.028c0,0.013,0,0.021,0.002,0.03
	c0.004,0.029,0.006,0.062,0.009,0.093c0,0.023,0,0.05,0.002,0.071c0.002,0.027,0.002,0.059,0.002,0.086
	c0,0.011,0.001,0.021,0.001,0.029l-0.001,0.016c0,0.012,0,0.021,0,0.032c0,0.026-0.002,0.056-0.002,0.069l-0.005,0.092
	c-0.002,0.013-0.004,0.022-0.004,0.035c-0.002,0.015-0.004,0.026-0.004,0.041c-0.004,0.027-0.006,0.058-0.013,0.102l-0.005,0.033
	c0,0.005-0.002,0.008-0.002,0.011c-0.004,0.035-0.011,0.069-0.018,0.104c-0.002,0.017-0.006,0.029-0.008,0.045
	c0,0.002,0,0.002,0,0.002c-0.006,0.031-0.015,0.063-0.021,0.096c-0.007,0.021-0.008,0.031-0.012,0.052
	c-0.01,0.03-0.019,0.063-0.025,0.095c-0.004,0.014-0.009,0.027-0.013,0.045c-0.003,0.004-0.003,0.006-0.003,0.008
	c-0.008,0.027-0.018,0.054-0.025,0.078c-0.004,0.01-0.012,0.031-0.013,0.039l-0.06,0.151c-0.002,0.009-0.007,0.015-0.01,0.022
	l-0.084,0.183c-0.011,0.022-0.021,0.043-0.031,0.063c-0.004,0.004-0.007,0.008-0.007,0.012l0,0l-0.028,0.051
	c-0.013,0.021-0.024,0.046-0.043,0.074l-0.023,0.036c-0.016,0.022-0.029,0.051-0.049,0.075c-0.002,0.004-0.006,0.009-0.008,0.013
	c-0.008,0.013-0.02,0.024-0.025,0.037c-0.018,0.026-0.037,0.054-0.059,0.079c-0.004,0.006-0.01,0.014-0.014,0.02
	s-0.008,0.01-0.012,0.014c-0.018,0.023-0.033,0.049-0.053,0.068c-0.004,0.008-0.01,0.014-0.014,0.018
	c-0.009,0.011-0.018,0.021-0.025,0.027c-0.016,0.021-0.032,0.042-0.059,0.069c-0.005,0.004-0.013,0.011-0.013,0.012
	c-0.013,0.015-0.022,0.024-0.034,0.039c-0.021,0.021-0.042,0.043-0.062,0.065c-0.002,0.002-0.004,0.004-0.006,0.005l-0.035,0.03
	c-0.025,0.027-0.053,0.055-0.075,0.074c-0.001,0.002-0.017,0.016-0.017,0.016c-0.006,0.006-0.015,0.011-0.019,0.015l-0.303,0.235
	c-0.019,0.013-0.034,0.023-0.062,0.041c-0.003,0-0.02,0.012-0.021,0.012l-0.158,0.094c-0.021,0.012-0.038,0.021-0.06,0.029
	c-0.015,0.008-0.028,0.016-0.041,0.023l-0.217,0.099c-0.021,0.008-0.039,0.015-0.059,0.022l-0.034,0.014
	c-0.019,0.006-0.034,0.013-0.052,0.019l-0.1,0.03c-0.017,0.007-0.028,0.011-0.045,0.015c-0.023,0.009-0.047,0.015-0.082,0.022
	c-0.013,0.004-0.025,0.008-0.037,0.012l-0.031,0.004c-0.02,0.008-0.038,0.014-0.059,0.018c-0.013,0.002-0.022,0.004-0.035,0.006
	c-0.006,0.002-0.01,0.002-0.016,0.005c-0.037,0.007-0.072,0.014-0.111,0.02c-0.016,0-0.03,0.005-0.043,0.007
	c-0.033,0.004-0.068,0.01-0.105,0.014c0,0-0.001,0-0.003,0c-0.017,0.002-0.033,0.003-0.052,0.006
	c-0.027,0.003-0.059,0.005-0.086,0.007c-0.014,0-0.024,0.001-0.037,0.002c-0.006,0-0.012,0-0.016,0h-0.035
	c-0.023,0.002-0.051,0.002-0.076,0.002h-60.84v-0.01H32.604z"/> <line x1="32.292" y1="77.171" x2="97.704" y2="77.171"/> </symbol><symbol viewBox="0 0 103 103" id="02"><title>02</title> <path d="M37.475,89.752h45.902c6.336,0,11.477-5.139,11.477-11.475v-3.824c0-0.705-0.57-1.275-1.273-1.277H79.552 M25.999,24.723
	c-0.013,0-6.362,0-6.376,0H8.146v-2.55c0-4.967,3.959-8.926,8.927-8.926h0.915c0.08,0.021,0.158,0.035,0.24,0.04
	c4.398,0.564,7.771,4.312,7.771,8.886v56.104c0,6.336,5.14,11.475,11.476,11.475 M18.229,13.248h49.848
	c4.967,0,8.926,3.958,8.926,8.926v12.835 M79.551,73.176H47.674c-0.703,0.002-1.273,0.572-1.273,1.277v3.824
	c0,4.572-3.373,8.281-7.771,8.846 M78.277,34.924c4.943,0,8.926,3.98,8.926,8.926c0,4.946-3.982,8.925-8.926,8.925
	c-4.945,0-8.926-3.979-8.926-8.925C69.352,38.904,73.332,34.924,78.277,34.924z M84.652,50.165V62.18l-5.816-2.91
	c-0.354-0.17-0.766-0.17-1.117,0l-5.816,2.91V50.193"/> <line x1="77.404" y1="59.428" x2="77.404" y2="73.176"/> <line x1="36.079" y1="25.828" x2="67.957" y2="25.828"/> <line x1="36.079" y1="34.309" x2="59.17" y2="34.309"/> <line x1="36.079" y1="42.79" x2="59.17" y2="42.79"/> <line x1="36.079" y1="51.271" x2="59.17" y2="51.271"/> <line x1="36.079" y1="59.754" x2="59.17" y2="59.754"/> </symbol><symbol viewBox="0 0 103 103" id="03"><title>20 -Massage Oil- (Outline)</title><desc>Created with Sketch.</desc>   <path d="M70.08,30.258h8.562V20.27c0-0.787-0.64-1.427-1.428-1.427h-5.707c-0.787,0-1.428,0.642-1.428,1.427L70.08,30.258
	L70.08,30.258z"/> <path d="M77.215,33.129v-2.872 M71.508,30.258l0.038,2.909"/> <path d="M69.446,33.148c-3.782-0.039-7.266,1.453-9.848,4.164c-2.584,2.707-3.908,6.26-3.729,10l2.532,38.773
	c0.109,2.312,1.988,4.102,4.276,4.102h23.36c2.288,0,4.167-1.789,4.275-4.076l2.537-38.823c0.178-3.714-1.147-7.265-3.73-9.976
	c-2.581-2.709-6.068-4.201-9.774-4.162h-9.899V33.148z"/> <path d="M41.501,78.773H18.72c-2.357,0-4.343-1.846-4.514-4.194l-4.068-55.634c-0.031-0.395,0.105-0.783,0.377-1.074
	c0.271-0.29,0.647-0.456,1.045-0.456H48.66c0.397,0,0.774,0.166,1.045,0.456c0.271,0.291,0.405,0.68,0.377,1.074l-4.069,55.634
	C45.84,76.93,43.858,78.773,41.501,78.773L41.501,78.773z"/> <path d="M41.533,78.773v9.871c0,2.361-1.921,4.279-4.28,4.279H22.966c-2.359,0-4.279-1.918-4.279-4.279v-9.736"/> <path d="M26.472,88.645v-3.246c0-1.574,1.279-2.854,2.854-2.854h1.57c1.573,0,2.854,1.28,2.854,2.854v3.246"/> <path d="M30.108,57.369c-4.801,0-8.564-6.896-8.564-15.696s3.764-15.696,8.564-15.696c4.803,0,8.565,6.896,8.565,15.696
	S34.911,57.369,30.108,57.369"/> <line x1="22.176" y1="61.386" x2="38.043" y2="61.386"/> <line x1="22.176" y1="65.727" x2="38.043" y2="65.727"/> <line x1="18.687" y1="88.645" x2="41.533" y2="88.645"/> <path d="M65.526,50.802c0.666,4.272,4.05,7.656,8.322,8.321C73.183,54.852,69.801,51.469,65.526,50.802z"/> <path d="M83.196,50.802c-4.272,0.667-7.655,4.05-8.323,8.321C79.146,58.458,82.528,55.074,83.196,50.802z"/> <path d="M65.526,65.072c0.666,4.271,4.05,7.654,8.322,8.32C73.183,69.123,69.801,65.736,65.526,65.072z"/> <path d="M83.196,65.072c-4.272,0.664-7.655,4.051-8.323,8.32C79.146,72.727,82.528,69.344,83.196,65.072z"/> <line x1="74.362" y1="50.913" x2="74.362" y2="76.137"/> <line x1="64.493" y1="80.648" x2="84.229" y2="80.648"/> </symbol><symbol viewBox="0 0 103 103" id="04"><title>04</title> <path d="M68.461,7.092l-5.013,8.771c-0.964,1.738-0.972,3.886-0.011,5.728c0.914,1.75,2.506,2.86,4.367,3.049
	c0.43,0.047,0.881,0.045,1.312,0.002c1.86-0.189,3.452-1.301,4.366-3.051c0.961-1.842,0.953-3.988-0.021-5.742L68.461,7.092z"/> <path d="M68.461,19.853l-1.409,2.424c-0.257,0.453-0.258,1.035,0.007,1.541c0.118,0.229,0.479,0.771,1.205,0.845
	c0.133,0.014,0.271,0.014,0.396,0c0.729-0.072,1.087-0.615,1.204-0.845c0.264-0.506,0.263-1.088-0.005-1.56L68.461,19.853z"/> <path d="M45.405,95.893c-12.145,0-25.051-4.062-25.051-11.592c0-7.527,12.907-11.594,25.051-11.594
	c12.144,0,25.052,4.064,25.052,11.594S57.549,95.893,45.405,95.893"/> <path d="M45.405,54.951c-9.125,0-16.006-3.438-16.006-8.003c0-4.563,6.881-8.003,16.006-8.003c9.123,0,16.006,3.439,16.006,8.003
	C61.411,51.513,54.528,54.951,45.405,54.951"/> <path d="M45.403,72.754c-9.124,0-20.806-4.039-20.806-8.602c0-4.564,11.682-9.203,20.806-9.203s20.81,4.641,20.81,9.203
	C66.213,68.713,54.527,72.754,45.403,72.754z"/> <path d="M77.991,86.293h3.312c4.412,0,8.004,3.588,8.004,8.002c0,0.881-0.719,1.598-1.603,1.598H45.303"/> <path d="M54.064,39.948v-4.873c0-3.53,2.871-6.401,6.399-6.401H76.45c3.528,0,6.397,2.871,6.397,6.401v51.364"/> <line x1="75.645" y1="38.842" x2="82.854" y2="38.842"/> <line x1="71.802" y1="44.678" x2="82.854" y2="44.678"/> <line x1="68.461" y1="24.662" x2="68.461" y2="28.674"/> </symbol><symbol viewBox="0 0 103 103" id="0lupa"><title>&#x43B;&#x443;&#x43F;&#x430;</title>  <path d="M13.7,41.537C13.7,23.662,28.245,9.12,46.122,9.12c17.876,0,32.421,14.542,32.421,32.417
	c0,17.879-14.545,32.423-32.421,32.423C28.245,73.96,13.7,59.418,13.7,41.537z"/> <line x1="66.504" y1="67.65" x2="90.58" y2="95.88"/> </symbol><symbol viewBox="0 0 200 200" id="camera"><title>camera</title> <g transform="translate(0,-952.36218)" opacity="0.7"> <path fill="none" stroke="#999999" stroke-miterlimit="10" d="M89.563,1019.921l-6.088,10.438H69.559
		c-4.336,0-7.827,3.491-7.827,7.828v34.791c0,4.338,3.491,7.828,7.827,7.828h60.882c4.338,0,7.828-3.49,7.828-7.828v-34.792
		c0-4.337-3.49-7.828-7.828-7.828h-13.916l-6.088-10.438L89.563,1019.921L89.563,1019.921z M100,1035.576
		c11.027,0,20.004,8.978,20.004,20.004c0,11.029-8.977,20.005-20.004,20.005c-11.027,0-20.004-8.976-20.004-20.005
		C79.996,1044.554,88.973,1035.576,100,1035.576L100,1035.576z M126.962,1038.185c1.44,0,2.608,1.168,2.608,2.609
		c0,1.441-1.168,2.61-2.608,2.61s-2.608-1.168-2.608-2.61C124.354,1039.354,125.521,1038.185,126.962,1038.185z M100,1039.056
		c-9.147,0-16.525,7.378-16.525,16.524c0,9.147,7.377,16.525,16.525,16.525c9.148,0,16.525-7.377,16.525-16.525
		C116.525,1046.433,109.146,1039.056,100,1039.056L100,1039.056z M100,1046.014c5.283,0,9.566,4.283,9.566,9.566
		c0,5.284-4.283,9.567-9.566,9.567c-5.285,0-9.567-4.283-9.567-9.567S94.715,1046.014,100,1046.014z"/> </g> </symbol><symbol viewBox="0 0 103 103" id="navicon"><title>navicon</title> <g> <line fill="#231F20" x1="10" y1="32" x2="92" y2="32"/> <line fill="#231F20" x1="10" y1="52" x2="92" y2="52"/> <line fill="#231F20" x1="10" y1="71" x2="92" y2="71"/> </g> </symbol></svg>