<?xml version="1.0" encoding="utf-8"?>
<!-- Generator: Adobe Illustrator 16.0.0, SVG Export Plug-In . SVG Version: 6.00 Build 0)  -->
<!DOCTYPE svg PUBLIC "-//W3C//DTD SVG 1.1//EN" "http://www.w3.org/Graphics/SVG/1.1/DTD/svg11.dtd">
<svg version="1.1" id="Layer_1" xmlns="http://www.w3.org/2000/svg" xmlns:xlink="http://www.w3.org/1999/xlink" x="0px" y="0px"
	 width="135.49px" height="134.993px" viewBox="0 0 135.49 134.993" enable-background="new 0 0 135.49 134.993"
	 xml:space="preserve">
<path fill="#8FC496" d="M115.115,25.113c0,0-1.507-3.653-4.798-2.376c-2.221,0.867-0.853,4.545-0.853,4.545
	s3.935,17.691,2.214,30.664c0.092-1.072-0.135-6.241-1.896-16.562c-3.016-17.659-6.695-26.82-11.502-33.11
	c0,0-3.102-3.855-4.967-3.453c-3.994,0.865-1.441,5.287-1.441,5.287s11.211,26.495,8.521,49.153c0,0,0.402-13.309-3.199-25.016
	C92.662,19.517,90.799,15.812,84.832,7.54c0,0-2.134-2.806-4.251-1.802c-3.332,1.581-1.503,4.613-1.503,4.613
	S93.099,35.614,90.422,57.57c0,0-1.551-12.017-4.678-23.284c-1.95-7.024-5.597-15.83-9.771-21.84c0,0-1.606-2.939-4.156-2.046
	c-3.762,1.316-1.303,5.383-1.303,5.383s0.616,1.263,1.473,3.369c0.449,0.865,0.887,1.735,1.277,2.625
	c0.735,1.535,1.377,3.109,2.014,4.688c0.611,1.586,1.197,3.186,1.707,4.809l0.759,2.439l0.666,2.465
	c0.458,1.639,0.792,3.311,1.164,4.973c0.31,1.674,0.635,3.348,0.851,5.039c0.271,1.684,0.42,3.381,0.604,5.076
	c0.146,1.695,0.246,3.423,0.228,5.162c-0.021,1.734-0.159,3.48-0.496,5.227c-0.354,1.737-0.884,3.506-1.934,5.115
	c-1.005,1.598-2.761,3.021-4.847,3.292c-2.059,0.278-4.098-0.381-5.645-1.726l-0.021-0.021l-0.047-0.046
	c-0.838-0.858-2.365-1.41-3.706-1.375c-1.378,0.009-2.637,0.639-3.562,1.702c-0.939,1.056-1.536,2.509-1.923,4.014
	c-0.379,1.522-0.544,3.132-0.618,4.75c-0.076,1.618,0.002,3.278,0.119,4.896c0.147,1.676,0.281,3.357,0.513,4.984
	c0.178,1.639,0.488,3.277,0.747,4.92c0.33,1.629,0.597,3.274,1.012,4.885l0.588,2.428l0.676,2.4
	c0.462,1.601,0.989,3.182,1.529,4.756c0.56,1.566,1.136,2.76,1.798,4.289c0.021,0.055,0.751,1.291,0.773,1.345
	c1.033,1.584,1.438,2.216,2.845,3.586c0.354,0.339,0.969,0.778,1.342,1.099c0.676,0.459,1.789,1.182,2.531,1.568
	c0,0,4.311,2.218,11.67,2.354c7.697,0.141,13.914-3.072,15.297-3.761c1.379-0.687,21.475-10.226,21.92-55.189
	C121.952,48.585,119.64,34.341,115.115,25.113z"/>
<path fill="#8FC496" d="M22.28,108.883c0,0,1.507,3.654,4.797,2.375c2.221-0.864,0.852-4.545,0.852-4.545
	s-3.934-17.689-2.212-30.664c-0.092,1.072,0.134,6.242,1.896,16.563c3.014,17.66,6.695,26.821,11.502,33.108
	c0,0,3.101,3.857,4.965,3.455c3.995-0.865,1.442-5.29,1.442-5.29s-11.21-26.495-8.52-49.153c0,0-0.404,13.309,3.198,25.02
	c4.531,14.728,6.395,18.434,12.361,26.703c0,0,2.134,2.81,4.251,1.803c3.332-1.578,1.503-4.61,1.503-4.61
	S44.295,98.385,46.97,76.426c0,0,1.551,12.019,4.678,23.283c1.95,7.024,5.597,15.83,9.769,21.844c0,0,1.608,2.938,4.158,2.046
	c3.763-1.315,1.302-5.384,1.302-5.384s-0.616-1.262-1.473-3.368c-0.448-0.865-0.886-1.734-1.277-2.628
	c-0.736-1.534-1.377-3.105-2.013-4.686c-0.612-1.586-1.198-3.186-1.708-4.811l-0.758-2.438l-0.667-2.465
	c-0.458-1.642-0.792-3.312-1.164-4.974c-0.309-1.677-0.635-3.349-0.851-5.039c-0.27-1.683-0.419-3.384-0.602-5.078
	c-0.148-1.692-0.247-3.42-0.228-5.159c0.021-1.734,0.161-3.48,0.497-5.227c0.355-1.739,0.883-3.51,1.933-5.118
	c1.004-1.595,2.76-3.022,4.846-3.292c2.059-0.277,4.098,0.383,5.644,1.728l0.023,0.019l0.046,0.046
	c0.84,0.858,2.365,1.412,3.707,1.375c1.377-0.01,2.637-0.64,3.562-1.7c0.938-1.058,1.535-2.509,1.922-4.015
	c0.379-1.523,0.547-3.131,0.617-4.75c0.077-1.617-0.002-3.278-0.117-4.896c-0.146-1.674-0.28-3.357-0.514-4.983
	c-0.178-1.64-0.488-3.279-0.746-4.921c-0.332-1.629-0.598-3.275-1.013-4.885l-0.589-2.426l-0.676-2.403
	c-0.463-1.599-0.988-3.18-1.528-4.754c-0.562-1.568-1.138-2.761-1.799-4.291c-0.021-0.054-0.752-1.29-0.772-1.344
	c-1.033-1.583-1.439-2.216-2.845-3.584c-0.354-0.339-0.967-0.779-1.34-1.099c-0.677-0.459-1.791-1.182-2.532-1.569
	c0,0-4.31-2.218-11.67-2.353c-7.698-0.142-13.914,3.073-15.298,3.761c-1.377,0.685-21.474,10.226-21.92,55.188
	C15.443,85.411,17.756,99.657,22.28,108.883z"/>
</svg>
