<?xml version="1.0" encoding="utf-8"?>
<!-- Generator: Adobe Illustrator 16.0.0, SVG Export Plug-In . SVG Version: 6.00 Build 0)  -->
<!DOCTYPE svg PUBLIC "-//W3C//DTD SVG 1.1//EN" "http://www.w3.org/Graphics/SVG/1.1/DTD/svg11.dtd">
<svg version="1.1" id="Layer_1" xmlns="http://www.w3.org/2000/svg" xmlns:xlink="http://www.w3.org/1999/xlink" x="0px" y="0px"
	 width="1300px" height="595.3px" viewBox="0 0 1300 595.3" enable-background="new 0 0 1300 595.3" xml:space="preserve">
<g>
	<path fill="#B11F24" d="M505.9,196.1c0.2-0.2,0.3-0.5,0.3-0.8l0-4.6c0-0.6-0.5-1.2-1.2-1.2l0,0l-17.6,0c-0.3,0-0.6,0.1-0.8,0.3
		c-0.2,0.2-0.3,0.5-0.3,0.8l0,4.6c0,0.6,0.5,1.1,1.2,1.1h0l17.6,0C505.4,196.5,505.7,196.4,505.9,196.1z"/>
	<path fill="#B11F24" d="M511.2,215.5l-1.7-4.3c-0.2-0.6-0.9-0.9-1.5-0.6l-16.3,6.6c-0.3,0.1-0.5,0.3-0.6,0.6
		c-0.1,0.3-0.1,0.6,0,0.9l1.7,4.3c0.2,0.4,0.6,0.7,1.1,0.7c0.1,0,0.3,0,0.4-0.1l16.3-6.6c0.3-0.1,0.5-0.3,0.6-0.6
		C511.4,216.1,511.4,215.8,511.2,215.5z"/>
	<path fill="#B11F24" d="M490.8,168.6l16.3,6.7c0.1,0.1,0.3,0.1,0.4,0.1c0.5,0,0.9-0.3,1.1-0.7l1.7-4.3c0.1-0.3,0.1-0.6,0-0.9
		c-0.1-0.3-0.3-0.5-0.6-0.6l-16.3-6.7c-0.6-0.2-1.3,0-1.5,0.6l-1.7,4.3c-0.1,0.3-0.1,0.6,0,0.9C490.3,168.3,490.6,168.5,490.8,168.6
		z"/>
	<path fill="#232622" d="M408,413.4h-7.5v27.9c0,2.2,0,2.2-2.5,2.2c-2.5,0-2.6,0-2.6-2.2v-27.9H388c-2.8,0-2.8-0.1-2.8-2.1
		c0-2.1,0-2.1,2.8-2.1H408c2.7,0,2.8,0.1,2.8,2.1C410.9,413.4,410.8,413.4,408,413.4z"/>
	<path fill="#232622" d="M436.8,409.2c2.8,0,2.8,0.1,2.8,2.1c0,2.1,0,2.1-2.8,2.1h-13.7V424h12.5c2.8,0,2.8,0,2.8,1.9
		c0,1.9,0,1.9-2.8,1.9h-12.5v11.5h14.3c2.8,0,2.9,0,2.9,2.1c0,2.1,0,2.1-2.9,2.1h-16.9c-2.5,0-2.5,0-2.5-2.2v-29.9
		c0-2.2,0-2.2,2.5-2.2H436.8z"/>
	<path fill="#232622" d="M454,434.7c0,0-1.6,6-1.7,6.7c-0.5,2.2-0.6,2.2-3.1,2.2c-2.5,0-2.6-0.1-2.1-2.2c0.6-2.6,7.2-27.9,7.7-30
		c0.5-2.1,0.6-2.2,3.7-2.2c0.3,0,4,0,4.4,0c3,0,3.1,0.1,3.6,2.2c0.5,2.1,7.2,27.6,7.7,30c0.5,2.1,0.3,2.2-2.1,2.2
		c-2.5,0-2.5,0-3.1-2.2c-0.1-0.6-1.8-6.7-1.8-6.7H454z M466.6,430.8l-4.6-18.2h-2.6l-4.6,18.2H466.6z"/>
	<path fill="#232622" d="M498.7,413.4h-7.5v27.9c0,2.2,0,2.2-2.5,2.2c-2.5,0-2.6,0-2.6-2.2v-27.9h-7.5c-2.8,0-2.8-0.1-2.8-2.1
		c0-2.1,0.1-2.1,2.8-2.1h20.1c2.7,0,2.8,0.1,2.8,2.1C501.6,413.4,501.5,413.4,498.7,413.4z"/>
	<path fill="#232622" d="M528.9,441.3c-0.9-1.6-5.4-9-6.9-11.6h-8.1v11.6c0,2.2,0,2.2-2.5,2.2c-2.5,0-2.6,0-2.6-2.2v-29.9
		c0-2.2,0-2.2,2.6-2.2h10.8c8,0,11.2,2.6,11.2,10.3c0,5.9-1.8,8.7-6.4,9.6c0.8,1.5,6.6,10.9,7.5,12.2c1.2,1.8,1,2.2-1.5,2.2
		C530.2,443.5,530.2,443.4,528.9,441.3z M513.8,425.9h8.6c4.1,0,5.6-1.5,5.6-6.4c0-5.1-1.6-6.5-6.4-6.5h-7.7V425.9z"/>
	<path fill="#232622" d="M561.5,409.2c2.8,0,2.8,0.1,2.8,2.1c0,2.1,0,2.1-2.8,2.1h-13.7V424h12.5c2.8,0,2.8,0,2.8,1.9
		c0,1.9,0,1.9-2.8,1.9h-12.5v11.5h14.3c2.8,0,2.9,0,2.9,2.1c0,2.1,0,2.1-2.9,2.1h-16.9c-2.5,0-2.6,0-2.6-2.2v-29.9
		c0-2.2,0-2.2,2.6-2.2H561.5z"/>
	<path fill="#232622" d="M596.9,443.5h-9.3c-2.5,0-2.5,0-2.5-2.2v-29.9c0-2.2,0-2.2,2.5-2.2h9.3c9.9,0,13.2,3.5,13.2,17.2
		C610.1,440,606.8,443.5,596.9,443.5z M590.1,413.4v25.9h6.7c6.7,0,7.9-2.6,7.9-12.9c0-10.3-1.3-12.9-7.9-12.9H590.1z"/>
	<path fill="#232622" d="M638.4,409.2c2.8,0,2.8,0.1,2.8,2.1c0,2.1-0.1,2.1-2.8,2.1h-13.7V424h12.5c2.8,0,2.8,0,2.8,1.9
		c0,1.9-0.1,1.9-2.8,1.9h-12.5v11.5H639c2.8,0,2.9,0,2.9,2.1c0,2.1,0,2.1-2.9,2.1h-16.9c-2.5,0-2.6,0-2.6-2.2v-29.9
		c0-2.2,0.1-2.2,2.6-2.2H638.4z"/>
	<path fill="#B11F24" d="M680,439.3h-13v-27.9c0-2.1-0.1-2.2-2.4-2.2v0H657c-0.5,0-0.6,0-0.6,2.1c0,2.1,0,2.1,2.8,2.1h2.6v27.9
		c0,2.2,0.1,2.2,2.5,2.2H680c2.8,0,2.8,0,2.8-2.1C682.8,439.4,682.8,439.3,680,439.3z"/>
	<path fill="#232622" d="M686.9,422.7c-1.7,1.7-1.9,1.7-2.8,1.3c-0.6-0.3-0.7-0.4-0.7-1.7c0-0.4,0-8.8,0-10.4c0-2.5,0.1-2.6,2.4-2.6
		c2.1,0,2.1,0.1,2.1,2.6c0,0.5,0,7.6,0,7.9C687.8,421.7,687.7,421.9,686.9,422.7z"/>
	<path fill="#232622" d="M728.6,409.2c2.8,0,2.8,0.1,2.8,2.1c0,2.1-0.1,2.1-2.8,2.1h-13.7V424h12.5c2.8,0,2.8,0,2.8,1.9
		c0,1.9,0,1.9-2.8,1.9h-12.5v11.5h14.3c2.8,0,2.9,0,2.9,2.1c0,2.1,0,2.1-2.9,2.1h-16.9c-2.5,0-2.5,0-2.5-2.2v-29.9
		c0-2.2,0-2.2,2.5-2.2H728.6z"/>
	<path fill="#232622" d="M740.1,443c-2.1-0.5-2.2-0.7-1.7-2.6c0.5-2,0.7-2,2.8-1.4c2.3,0.6,5.1,1.1,8.4,1.1c4.2,0,5.4-2,5.4-5.3
		c0-4.3-0.7-5.3-7.6-6.9c-6.6-1.5-9.1-3.6-9.1-9.7c0-6.2,2.6-9.4,10.9-9.4c2.4,0,5.1,0.2,8.3,1c2.4,0.5,2.5,0.6,2,2.6
		c-0.5,2-0.7,2-2.9,1.4c-2.5-0.6-5-0.9-7.8-0.9c-4.1,0-5.3,1.7-5.3,5.1c0,3.9,1,4.9,5.9,6c7.8,1.8,10.7,3.6,10.7,10.6
		c0,6.3-2.5,9.6-10.9,9.6C746.6,444,742.9,443.6,740.1,443z"/>
	<path fill="#232622" d="M790.3,420.5c0,2.2,0,2.2-2.4,2.2c-2.2,0-2.3-0.1-2.4-2.2v-7.1c-0.8-0.4-2.3-0.6-4-0.6
		c-6.8,0-7.8,3.1-7.9,13.6c0,10.4,1.2,13.4,7.9,13.4c2,0,4.6-0.3,7.2-1c2-0.5,2.1-0.5,2.7,1.3c0.6,2.1,0.6,2.2-1.3,2.7
		c-1.9,0.5-5.5,1.2-8.6,1.2c-10,0-13.2-3.9-13.2-17.7c0.1-13.7,3.3-17.7,13.2-17.7c5.6,0,8.7,0.6,8.8,3.3L790.3,420.5z"/>
	<path fill="#232622" d="M819.7,441.3c-0.9-1.6-5.4-9-6.9-11.6h-8.1v11.6c0,2.2-0.1,2.2-2.5,2.2c-2.5,0-2.5,0-2.5-2.2v-29.9
		c0-2.2,0-2.2,2.5-2.2h10.8c8,0,11.2,2.6,11.2,10.3c0,5.9-1.8,8.7-6.4,9.6c0.8,1.5,6.6,10.9,7.5,12.2c1.2,1.8,1,2.2-1.5,2.2
		C821.1,443.5,821,443.4,819.7,441.3z M804.7,425.9h8.6c4.1,0,5.6-1.5,5.6-6.4c0-5.1-1.6-6.5-6.4-6.5h-7.7V425.9z"/>
	<path fill="#232622" d="M838.7,441.3c0,2.2,0,2.2-2.5,2.2c-2.5,0-2.5,0-2.5-2.2v-29.9c0-2.2,0-2.2,2.5-2.2c2.5,0,2.5,0.1,2.5,2.2
		V441.3z"/>
	<path fill="#232622" d="M878.9,441.3c0,2.2,0,2.2-2.6,2.2c-2.6,0-2.6,0-4.4-2.4c-1.7-2.3-14.5-19.6-18.3-24.9v25.1
		c0,2.2,0,2.2-2.5,2.2c-2.5,0-2.6,0-2.6-2.2v-29.9c0-2.2,0-2.2,2.6-2.2c2.7,0,2.7,0.1,4.6,2.6c1.7,2.3,14.6,19.9,18,24.6v-25
		c0-2.2,0-2.2,2.5-2.2c2.5,0,2.6,0.1,2.6,2.2V441.3z"/>
	<path fill="#232622" d="M903.4,430.6v10.7c0,2.2,0,2.2-2.5,2.2c-2.5,0-2.5,0-2.5-2.2v-10.7c0,0-7.7-13.6-10.8-19.2
		c-1.1-2-0.9-2.2,1.8-2.2c2.6,0,2.7,0.1,3.8,2.2c2.3,4.2,7.7,14.2,7.7,14.2h0.2c0,0,5.4-9.9,7.6-14.2c1.2-2.2,1.3-2.2,3.9-2.2
		c2.7,0,2.8,0.2,1.7,2.2C911.1,417,903.4,430.6,903.4,430.6z"/>
	<path fill="#232622" d="M643.3,273.8l-117.8-41.8c-0.5-0.2-1-0.1-1.4,0.2c-0.4,0.3-0.7,0.8-0.7,1.3l0.1,65c0,0.6,0.4,1.2,0.9,1.4
		l117.7,52.2c0.2,0.1,0.4,0.1,0.6,0.1c0.3,0,0.6-0.1,0.8-0.3c0.4-0.3,0.7-0.8,0.7-1.3v-75.4C644.3,274.6,643.9,274,643.3,273.8z"/>
	<path fill="#232622" d="M775.4,210.9l-245.9-59.6c-0.8-0.2-1.7,0.3-1.9,1.1l-2.3,9.3c-0.1,0.4,0,0.8,0.2,1.2c0.2,0.4,0.6,0.6,1,0.7
		l245.9,59.6c0.1,0,0.2,0,0.4,0c0.3,0,0.6-0.1,0.8-0.2c0.4-0.2,0.6-0.6,0.7-1l2.3-9.3C776.7,212,776.2,211.1,775.4,210.9z"/>
	<path fill="#232622" d="M774.4,228.4c-0.4-0.3-1-0.4-1.4-0.2l-121.2,45.6c-0.6,0.2-1,0.8-1,1.5l0,75.8c0,0.5,0.3,1,0.7,1.3
		c0.3,0.2,0.6,0.3,0.9,0.3c0.2,0,0.4,0,0.6-0.1l120.8-51.7c0.6-0.2,0.9-0.8,0.9-1.4l0.4-69.7C775,229.1,774.8,228.7,774.4,228.4z
		 M765.7,294.3c-0.2,1.7-1.7,2.9-3.3,2.9c-0.2,0-0.3,0-0.5,0l-23.6-3.4c-1-0.1-1.9-0.7-2.4-1.6c-0.5-0.9-0.6-1.9-0.2-2.9l11.5-30.2
		l-5.5-1.4c-1.8-0.4-2.9-2.3-2.5-4.1c0.4-1.8,2.3-2.9,4.1-2.5l9.2,2.3c1.8,0.4,2.9,2.2,2.5,4c0,0.2-0.1,0.4-0.2,0.5
		c-0.4,1.1-8,21.1-11.3,29.8l19.4,2.8C764.7,290.7,765.9,292.4,765.7,294.3z"/>
	<polyline fill="#B11F24" points="647.4,267.6 534,227.5 647,199.9 	"/>
	<polyline fill="#971B21" points="647,199.9 761.7,226.1 647.4,267.6 	"/>
	<rect x="521" y="377.2" fill="#B11F24" width="257.9" height="2.8"/>
</g>
</svg>
