<?xml version="1.0" encoding="utf-8"?>
<!-- Generator: Adobe Illustrator 16.0.0, SVG Export Plug-In . SVG Version: 6.00 Build 0)  -->
<!DOCTYPE svg PUBLIC "-//W3C//DTD SVG 1.1//EN" "http://www.w3.org/Graphics/SVG/1.1/DTD/svg11.dtd">
<svg version="1.1" id="Layer_1" xmlns="http://www.w3.org/2000/svg" xmlns:xlink="http://www.w3.org/1999/xlink" x="0px" y="0px"
	 width="250px" height="231.167px" viewBox="0 0 250 231.167" enable-background="new 0 0 250 231.167" xml:space="preserve">
<g id="Diseño_de_web" display="none">
	<g display="inline">
		<path d="M398.424,379.046h92.285c0.779,0,1.301-0.521,1.301-1.299v-58.492c0-0.779-0.521-1.299-1.301-1.299h-92.285
			c-0.779,0-1.299,0.52-1.299,1.299v58.492C397.125,378.527,397.645,379.046,398.424,379.046z M399.723,320.556h89.688v55.891
			h-89.688V320.556L399.723,320.556z"/>
		<path d="M510.727,382.425h-12.479v-67.85c0-2.339-2.078-4.418-4.42-4.418H466.24c0.008-0.066,0.033-0.121,0.033-0.193v-42.961
			c0-2.603-2.08-4.678-4.682-4.678H318.098c-2.602,0-4.682,2.075-4.682,4.678v56.412h-22.875c-2.081,0-3.9,1.819-3.9,3.896v60.053
			c0,2.08,1.819,3.896,3.9,3.896h34.834c0.195,0,0.371-0.028,0.529-0.092c0.479,0.222,1.006,0.355,1.549,0.355h14.299
			c2.078,0,3.9-1.82,3.9-3.9v-4.938v-15.461c0.17,0.073,0.357,0.12,0.574,0.12h26.721l-1.559,15.078l-6.5,4.685
			c-0.262,0.261-0.521,0.521-0.521,1.037c0,0.262,0,1.303,0.779,2.078c0.262,0.521,1.039,0.78,2.34,0.78h18.506
			c0.908,0.166,1.512,0.261,1.512,0.261h113.861c0,0,11.959-1.816,11.959-4.421v-1.561
			C513.586,383.726,512.287,382.425,510.727,382.425z M495.391,314.576v67.85h-36.916c-0.26,0-0.777,0.263-1.039,0.521
			c-0.26,0.26-0.26,0.52-0.26,0.779c0,0,0,0.262-0.262,0.262h-24.695c0,0-0.262,0-0.262-0.262s0-0.779-0.26-1.039
			c-0.262-0.262-0.52-0.521-1.039-0.521h-37.174v-67.59c0-1.039,0.781-1.818,1.816-1.818h98.268
			C494.609,312.757,495.391,313.537,495.391,314.576z M345.348,351.298c-0.562-1.289-1.861-2.146-3.596-2.146h-6.238v-3.898h55.373
			v5.98h-45.158C345.588,351.232,345.469,351.267,345.348,351.298z M390.887,314.576v28.076h-55.373v-15.338
			c0-2.078-1.818-3.898-3.9-3.898h-7.018v-49.912h130.76v36.654h-60.051C392.965,310.158,390.887,312.238,390.887,314.576z
			 M316.016,267.003c0-1.039,1.041-2.08,2.082-2.08h143.496c1.039,0,2.08,1.041,2.08,2.08v42.961c0,0.072,0.025,0.127,0.033,0.193
			h-6.047c0.01-0.066,0.033-0.121,0.033-0.193v-37.762c0-0.779-0.52-1.302-1.301-1.302h-133.1c-0.777,0-1.301,0.521-1.301,1.302
			v51.213h-5.979v-56.412H316.016z M289.24,387.365v-60.051c0-0.779,0.52-1.299,1.301-1.299h41.072c0.779,0,1.301,0.52,1.301,1.299
			v21.836h-1.82v-18.195c0-0.779-0.52-1.301-1.299-1.301h-37.436c-0.779,0-1.299,0.521-1.299,1.301v51.471
			c0,0.781,0.52,1.302,1.299,1.302h31.195v3.897c0,0.359,0.068,0.705,0.172,1.041H290.54
			C289.76,388.666,289.24,388.146,289.24,387.365z M323.557,353.05v3.641v24.438H293.66v-48.873h34.834v16.896h-1.041
			C325.377,349.15,323.557,350.97,323.557,353.05z M341.752,388.666h-14.299c-0.777,0-1.299-0.521-1.299-1.301v-3.641h16.639v3.641
			C343.053,388.146,342.533,388.666,341.752,388.666z M343.053,381.126h-16.639V357.73h16.639V381.126z M343.312,355.39h-16.641
			v-2.6c0-0.566,0.262-1.041,1.039-1.041h14.299c0.779,0,1.303,0.52,1.303,1.301V355.39z M346.227,364.75
			c-0.215,0-0.402,0.047-0.574,0.121v-8.18v-2.873c0.027,0,0.051,0.014,0.076,0.014h45.158v10.933
			c-0.031-0.002-0.057-0.015-0.086-0.015H346.227L346.227,364.75z M367.748,388.666l5.979-4.42c0.262-0.26,0.521-0.521,0.521-1.039
			l1.562-15.858h14.99c0.029,0,0.055-0.013,0.086-0.015v15.092h-12.48c-1.559,0-2.857,1.302-2.857,2.859v1.562
			c0,0.663,0.783,1.274,1.943,1.819H367.748z M511.246,386.326h-0.26c-1.82,0.779-8.318,2.34-9.357,2.34H388.023
			c-1.039,0-7.537-1.561-9.617-2.34v-1.041c0,0,0-0.26,0.262-0.26h51.211c0.521,1.041,1.562,1.561,2.6,1.561h24.697
			c1.039,0,2.08-0.78,2.602-1.561h51.213c0,0,0.258,0,0.258,0.26L511.246,386.326L511.246,386.326z"/>
		<circle cx="311.076" cy="327.834" r="0.78"/>
		<circle cx="311.076" cy="386.325" r="1.56"/>
		<circle cx="334.734" cy="386.325" r="1.56"/>
	</g>
</g>
<g id="Gráfica_impresa" display="none">
	<g display="inline">
		<rect x="416.906" y="316.562" width="44.553" height="2.604"/>
		<rect x="416.906" y="323.285" width="44.553" height="2.603"/>
		<rect x="416.906" y="330.005" width="44.553" height="2.604"/>
		<rect x="416.906" y="336.726" width="44.553" height="2.602"/>
		<rect x="416.906" y="343.445" width="44.553" height="2.602"/>
		<rect x="416.906" y="350.166" width="44.553" height="2.604"/>
		<rect x="416.906" y="356.886" width="44.553" height="2.602"/>
		<rect x="415.932" y="363.607" width="38.971" height="2.604"/>
		<g>
			<path d="M417.02,311.544h44.439V276.24H417.02V311.544z M419.619,278.843h39.238v30.102h-39.238V278.843z"/>
			<path d="M444.705,241.24h-72.346c-1.354,0-2.656,0.229-3.873,0.645v-0.864h2.119v-4.996h-28.6v4.996h2.117v1.177
				c-2.58,1.484-12.961,8.068-16.369,19.623c-2.238,7.602-0.963,15.727,3.809,24.146c1.18,2.086-2.111,9.435-4.826,13.98l-0.15,0.25
				l0.002,82.719c-0.006,0.117-0.137,2.91,2.129,5.305c2.072,2.197,5.398,3.309,9.879,3.309h35.424
				c4.748,0,8.184-1.154,10.195-3.436c0.924-1.039,1.389-2.145,1.619-3.061h75.508c6.656,0,12.074-5.416,12.074-12.072v-103.02
				L444.705,241.24z M446.992,246.893h0.002l20.838,20.767h-8.072h-1.252h-0.688c-0.191,0-0.373-0.047-0.564-0.057
				c-3.893-0.201-7.215-2.45-8.947-5.703c-0.219-0.406-0.428-0.814-0.586-1.248c-0.156-0.404-0.285-0.824-0.389-1.249
				c-0.203-0.827-0.34-1.676-0.34-2.563L446.992,246.893L446.992,246.893z M444.885,260.112c0.215,0.794,0.627,1.787,0.627,1.787
				c0.596,1.437,1.453,2.722,2.482,3.851h-62.123c-0.186-1.578-0.51-3.133-0.982-4.66c-0.104-0.332-0.215-0.653-0.328-0.978H444.885
				z M372.359,243.74c0,0,69.123,0,70.119,0c1,0,2.02,0.754,2.02,2.02c0,1.268,0,1.73,0,1.73v9.346c0,0.229,0.023,0.451,0.035,0.679
				h-61.055c-3.232-6.796-8.762-11.325-12.295-13.692C371.568,243.769,371.961,243.74,372.359,243.74z M328.703,300.779
				c1.465-2.492,6.828-12.098,4.701-15.857c-4.471-7.896-5.688-15.467-3.621-22.487c3.559-12.087,15.77-18.614,15.893-18.681
				l0.566-0.297v-4.558h-2.115v-0.761h24.361v0.761h-2.119v4.577l0.594,0.291c0.123,0.059,12.23,6.123,15.908,17.968
				c2.215,7.118,0.982,14.919-3.662,23.187c-2.338,4.162,2.758,13.619,4.691,16.199l0.002,7.133h-55.199V300.779z M328.703,310.373
				H383.9v3.312h-55.197V310.373z M328.703,315.804h55.199l0.012,50.715h-55.211V315.804z M328.703,368.638h55.211l0.002,2.727
				h-55.213V368.638z M382.631,386.687c-1.574,1.779-4.555,2.719-8.611,2.719h-35.424c-3.852,0-6.646-0.877-8.311-2.611
				c-1.648-1.719-1.588-3.686-1.584-3.819v-9.49h55.213l0.006,9.619C383.92,383.121,384.105,385.023,382.631,386.687z
				 M385.768,300.074c-2.082-2.459-6.291-11.308-4.715-14.113c1.352-2.404,2.42-4.777,3.225-7.117h23.305v85.72h-21.557
				l-0.008-64.19L385.768,300.074z M470.916,372.957c0,5.277-4.295,9.57-9.572,9.57h-75.316l-0.002-15.363h24.156V276.24h-25.105
				c0.695-2.685,1.021-5.316,0.977-7.89h65.189c1.793,1.021,3.83,1.659,6.021,1.755l2.5,0.055h7.406c0,0,1.779,0,2.355,0
				c0.67,0,1.395,0.447,1.395,1.549C470.916,272.23,470.916,372.957,470.916,372.957z"/>
			<g>
				<path d="M367.557,224.078v8.016h-22.502v-8.016H367.557 M368.037,222.078h-23.463c-0.84,0-1.52,0.877-1.52,1.967v8.082
					c0,1.092,0.676,1.967,1.52,1.967h23.463c0.84,0,1.52-0.877,1.52-1.967v-8.082C369.557,222.955,368.881,222.078,368.037,222.078
					L368.037,222.078z"/>
			</g>
		</g>
		<path d="M370.637,333.361c-1.986,0-3.789,0.688-5.209,1.48c-0.115-0.467-0.275-0.916-0.459-1.354
			c2.525-0.729,4.393-3.03,4.393-5.786h-2.117c0,1.983-1.488,3.618-3.41,3.877c-1.658-2.189-4.268-3.613-7.207-3.613
			c-2.93,0-5.533,1.441-7.199,3.633c-1.996-0.184-3.574-1.852-3.574-3.895h-2.119c0,2.811,1.938,5.157,4.539,5.834
			c-0.205,0.479-0.371,0.983-0.49,1.504c-1.5-0.9-3.416-1.681-5.559-1.681c-4.492,0-8.035,3.519-8.188,3.664l-0.74,0.748l0.74,0.75
			c0.146,0.146,3.689,3.666,8.188,3.666c2.273,0,4.301-0.883,5.852-1.86c0.889,3.793,3.113,13.252,3.645,15.498l0.191,0.813h9.021
			l0.207-0.783c0.355-1.353,2.992-11.34,3.979-15.135c1.252,0.68,3.201,1.461,5.523,1.461c4.488,0,8.033-3.521,8.182-3.668
			l0.742-0.746l-0.742-0.746C378.672,336.878,375.129,333.361,370.637,333.361z M342.221,340.072c-2.451,0-4.646-1.398-5.812-2.301
			c1.158-0.898,3.35-2.295,5.812-2.295c2.457,0,4.652,1.41,5.744,2.254l0.061,0.043
			C346.889,338.658,344.688,340.072,342.221,340.072z M363.414,338.83c-0.1,0.445-2.443,9.346-4.119,15.695h-5.713
			c-1.188-5.045-3.711-15.773-3.795-16.17l-0.131-0.717l0.012-0.729c0.076-3.769,3.197-6.828,6.961-6.828
			c3.691,0,6.744,2.889,6.943,6.58l0.062,1.178L363.414,338.83z M370.637,340.072c-2.816,0-4.971-1.43-5.562-1.863l-0.426-0.313
			l0.598-0.427c1.264-0.905,3.223-1.985,5.391-1.985c2.451,0,4.646,1.396,5.811,2.3
			C375.291,338.675,373.104,340.072,370.637,340.072z"/>
	</g>
</g>
<g id="ilustracion" display="none">
	<path display="inline" d="M452.213,367.56l-0.738-2.574c-0.059-0.211-0.17-0.402-0.318-0.557l-41.23-42.117l31.09-31.09
		c0.053-0.051,0.074-0.115,0.115-0.172c0.039-0.057,0.094-0.096,0.123-0.158l6.525-12.777c0.043-0.074,0.088-0.145,0.111-0.225
		l4.066-7.957l-20.961,10.703c-0.062,0.033-0.104,0.086-0.156,0.125c-0.057,0.039-0.123,0.064-0.174,0.117l-21.596,21.596
		c0.029-2.271,0.059-4.568,0.082-6.916l-0.914-15.484c2.742-5.203,1.844-8.443,1.812-8.549c-3.42-13.441,5.721-17.566,6.105-17.732
		l3.674-1.553l-3.881-0.918c-2.898-0.689-5.082-0.697-6.727-0.391l0.709-1.291l-3.051,0.916
		c-7.336,2.201-12.266,6.057-14.652,11.463c-3.113,7.045-1.012,14.658,0.223,18.002l-0.918,15.627
		c0.006,0.674,0.014,1.326,0.021,1.992c-5.17-4.775-12.992-11.967-13.869-12.568c-0.617-0.422-1.32-0.547-1.977-0.354
		c-0.693,0.205-1.174,0.717-1.477,1.15l-5.959-6.086c-0.342-0.451-1.904-2.365-4.859-4.021c-0.578-0.402-5.01-3.457-9.006-5.252
		c-0.463-0.207-1-0.129-1.387,0.199l-1.348,1.158l-1.717-1.716c-0.51-0.51-1.334-0.51-1.846,0c-0.51,0.511-0.51,1.337,0,1.847
		l1.742,1.742l-0.889,1.02c-0.328,0.386-0.41,0.927-0.201,1.392c1.795,3.996,4.848,8.431,5.252,9.009
		c1.648,2.955,3.564,4.52,4.02,4.858l32.074,31.401l-35.932,35.937l-5.385,5.382c-0.98,0.979-1.018,2.522-0.086,3.459l6.975,6.973
		c0.932,0.93,2.479,0.893,3.459-0.086l5.383-5.381l28.07-28.072c1.402,32.867,4.018,51.287,7.529,51.861l0.213,0.032l0.209-0.032
		c3.531-0.576,6.152-19.205,7.557-52.453l34.58,33.854c0.152,0.15,0.346,0.266,0.555,0.32l2.578,0.736
		c0.439,0.129,0.92,0.014,1.256-0.302l2.455-2.325c0.008-0.009,0.016-0.021,0.023-0.025c0.012-0.01,0.02-0.018,0.023-0.023
		l2.324-2.457C452.223,368.482,452.34,368.003,452.213,367.56z M408.74,319.802c0.041-1.637,0.08-3.301,0.115-4.99l26.949-26.949
		l2.438,2.436L408.74,319.802z M444.182,276.833l0.875,0.875l-5.312,10.396l-5.963-5.963L444.182,276.833z M431.59,283.644
		l2.373,2.373l-25.031,25.029c0.031-1.59,0.061-3.195,0.084-4.83L431.59,283.644z M394.617,263.074
		c1.727-3.908,5.066-6.904,9.957-8.935c-0.006,0.034,0.002,0.069-0.002,0.106c-0.002,0.049-0.002,0.094-0.002,0.144
		c0.004,0.123,0.023,0.243,0.062,0.36c0.006,0.019,0.008,0.037,0.018,0.056c0.105,0.28,0.297,0.532,0.582,0.69
		c0.637,0.348,1.426,0.113,1.771-0.52l0.047-0.084c0.082-0.145,1.133-1.783,5.121-1.533c-3.139,2.697-7.291,8.43-4.645,18.836
		c0.008,0.029,0.699,2.898-2.18,7.691h-10.148C394.254,277.539,391.623,269.851,394.617,263.074z M406.4,293.153h-12.111
		l0.631-10.651h10.848L406.4,293.153z M376.271,287.554c0.025-0.062,0.066-0.131,0.107-0.197c1.438,1.182,9.229,8.34,15.215,13.877
		c0.016,0.809,0.023,1.598,0.037,2.398l-15.521-15.852C376.166,287.707,376.234,287.642,376.271,287.554z M351.5,275.835
		l1.266-1.455l1.324-1.141c2.482,1.196,5.086,2.836,6.594,3.825l-5.354,5.354C354.334,280.919,352.701,278.319,351.5,275.835z
		 M358.008,286.353c-0.393-0.459-0.812-1.025-1.234-1.686l6.154-6.152c0.66,0.422,1.227,0.842,1.684,1.232L358.008,286.353z
		 M366.43,281.619l25.26,25.803c0.07,4.189,0.154,8.23,0.25,12.134l-32.061-31.386L366.43,281.619z M391.984,323.251l0.053,0.051
		c0.041,1.525,0.086,3.027,0.131,4.506l-28.697,28.699l-2.373-2.373L391.984,323.251z M357.377,371.166l-6.654-6.656l4.385-4.383
		l6.654,6.652L357.377,371.166z M363.607,364.935l-6.656-6.654l2.303-2.299l6.652,6.654L363.607,364.935z M367.752,360.791
		l-2.438-2.438l26.967-26.97c0.057,1.603,0.113,3.162,0.174,4.703L367.752,360.791z M400.365,387.701
		c-0.547-1.496-1.318-4.385-2.131-9.908c-1.602-10.864-3.607-33.93-4.094-82.027h12.402
		C405.84,365.378,402.039,383.203,400.365,387.701z M442.375,368.933l-34.123-33.41c0.133-3.455,0.25-7.072,0.355-10.82
		l38.586,39.412L442.375,368.933z M447.715,369.455l-1.891,1.785l-1.545-0.443l-0.041-0.037l4.779-4.78l0.039,0.041l0.439,1.543
		L447.715,369.455z"/>
</g>
<g id="Identidad" display="none">
	<g display="inline">
		<path d="M399.619,347.996c4.043,0,5.883-6.469,5.883-12.479s-1.84-12.479-5.883-12.479c-4.066,0-5.92,6.469-5.92,12.479
			S395.551,347.996,399.619,347.996z M399.59,326.55c0.66,0.191,2.396,3.238,2.396,8.965c0,5.666-1.695,8.705-2.371,8.959
			c-0.686-0.229-2.4-3.24-2.4-8.959C397.215,329.742,398.971,326.722,399.59,326.55z"/>
		<path d="M403.578,263.96c10.938,0.832,21.625,5.312,31.768,13.322c0.322,0.256,0.707,0.379,1.088,0.379
			c0.521,0,1.037-0.229,1.385-0.668c0.604-0.765,0.471-1.867-0.289-2.473c-10.703-8.45-22.033-13.188-33.686-14.068
			c-0.984-0.08-1.812,0.65-1.885,1.618C401.883,263.041,402.609,263.886,403.578,263.96z"/>
		<path d="M365.691,275.714c0.438,0,0.842-0.16,1.148-0.426c0.285-0.242,12.273-10.203,29.648-11.361
			c0.971-0.064,1.703-0.902,1.639-1.871c-0.062-0.969-0.916-1.721-1.871-1.637c-17.408,1.16-32.322,11.375-32.322,13.537
			C363.934,274.927,364.721,275.714,365.691,275.714z"/>
		<path d="M427.725,282.065c-0.781-0.577-1.881-0.407-2.459,0.373c-0.572,0.782-0.406,1.883,0.375,2.459
			c6.07,4.47,16.719,14.517,19.812,31.595c0.154,0.85,0.895,1.445,1.729,1.445c0.104,0,0.211-0.012,0.316-0.029
			c0.955-0.172,1.59-1.086,1.418-2.043C445.6,297.589,434.217,286.843,427.725,282.065z"/>
		<path d="M383.414,279.684c10.688-4.948,22.955-4.403,36.471,1.616c0.893,0.393,1.93-0.004,2.32-0.893
			c0.398-0.889-0.002-1.929-0.889-2.32c-14.488-6.451-27.736-6.988-39.381-1.596c-22.137,10.256-30.463,38.02-30.809,39.202
			c-0.271,0.933,0.264,1.904,1.195,2.183c0.164,0.047,0.328,0.069,0.49,0.069c0.764,0,1.465-0.5,1.688-1.271
			C354.584,316.406,362.715,289.274,383.414,279.684z"/>
		<path d="M437.002,337.779c-0.947-0.021-1.783,0.727-1.818,1.695c-0.48,13.814-5.299,26.062-14.26,36.35
			c-0.09,0.096-9.146,9.406-22.504,9.812c-0.973,0.027-1.734,0.838-1.705,1.811c0.029,0.951,0.812,1.705,1.758,1.705
			c0.02,0,0.035,0,0.055-0.002c14.781-0.445,24.531-10.469,24.994-10.951c9.562-10.975,14.666-23.959,15.18-38.602
			C438.732,338.628,437.973,337.812,437.002,337.779z"/>
		<path d="M364.676,354.462c0.947-0.207,1.551-1.142,1.346-2.092c-4.631-21.48-0.564-39.982,11.758-53.517
			c4.572-5.06,16.355-12.332,28.48-10.337c10.1,1.664,18.107,9.188,23.781,22.298c2.857,7.438,4.34,13.687,4.957,20.881
			c0.08,0.968,0.949,1.683,1.9,1.604c0.969-0.084,1.684-0.936,1.602-1.904c-0.645-7.545-2.193-14.076-5.203-21.906
			c-7.729-17.869-18.658-23.152-26.465-24.439c-13.611-2.237-26.391,5.619-31.658,11.445
			c-13.117,14.398-17.471,33.979-12.592,56.617c0.18,0.824,0.908,1.389,1.719,1.389C364.424,354.5,364.549,354.488,364.676,354.462z
			"/>
		<path d="M367.717,359.638c-0.254-0.936-1.213-1.49-2.156-1.24c-0.938,0.256-1.494,1.221-1.24,2.156
			c1.646,6.098,3.568,11.189,4.895,14.391c2.385,5.768,2.854,6.574,3.795,6.574c0.158,0,0.33-0.021,0.523-0.049
			c0.566-0.072,1.062-0.422,1.324-0.932c0.268-0.509,0.268-1.113,0.002-1.621C374.82,378.839,370.773,370.966,367.717,359.638z"/>
		<path d="M428.084,339.324c1.266-17.828-6.918-38.072-22.805-41.09c-0.961-0.186-1.877,0.446-2.059,1.398
			c-0.182,0.955,0.443,1.875,1.398,2.057c13.777,2.616,21.084,21.441,19.953,37.385c-1.084,15.271-9.988,31.945-31.729,32.943
			c-0.969,0.047-1.721,0.867-1.676,1.84c0.043,0.941,0.822,1.678,1.754,1.678c0.027,0,0.057-0.002,0.082-0.002
			C417.053,374.425,426.893,356.103,428.084,339.324z"/>
		<path d="M381.904,368.904c-5.287-17.559-9.816-41.471-1.369-55.693c3.484-5.869,9.031-9.635,16.482-11.193
			c0.951-0.199,1.561-1.135,1.361-2.083c-0.199-0.95-1.127-1.558-2.082-1.358c-8.459,1.77-14.777,6.092-18.789,12.844
			c-9.1,15.322-4.465,40.272,1.027,58.504c1.367,4.545,3.918,13.559,5.814,20.32c0.217,0.772,0.924,1.284,1.689,1.284
			c0.156,0,0.318-0.021,0.479-0.065c0.936-0.262,1.479-1.232,1.219-2.168C385.838,382.513,383.283,373.474,381.904,368.904z"/>
		<path d="M384.584,335.292c0,14.024,7.898,23.797,14.986,23.797c7.07,0,14.955-9.771,14.955-23.797
			c0-14.027-7.885-23.797-14.955-23.797C392.482,311.496,384.584,321.269,384.584,335.292z M399.572,315.013
			c4.662,0,11.436,7.9,11.436,20.279s-6.771,20.281-11.436,20.281c-5.307,0-11.471-8.859-11.471-20.281
			C388.102,323.873,394.266,315.013,399.572,315.013z"/>
	</g>
</g>
<g id="Layer_6" display="none">
	<g display="inline">
		<g>
			<path fill="#231F20" d="M371.947,327.263c-3.244-2.672-6.262-5.146-8.393-7.668c1.49,0.195,2.98,0.311,4.455,0.311
				c1.02,0,1.951-0.066,2.807-0.164c1.375,3.41,4.965,4.703,8.146,4.703c6.652,0,13.535-5.57,13.535-14.896
				c0-4.129-1.572-7.883-4.441-10.604c-3.273-3.113-8.16-4.77-14.092-4.77c-0.035,0-0.197,0-0.479,0
				c-17.748,0.195-23.502,13.045-23.502,19.307c0,0.016,0,0.033,0,0.064c-0.457-0.146-0.918-0.295-1.377-0.441
				c-7.914-2.541-16.125-5.18-25.307-5.18c-8.422,0-15.271,2.262-19.828,6.557c-3.914,3.686-6.08,8.832-6.08,14.471
				c0,9.586,6.59,19.945,17.211,19.945c7.109,0,10.291-4.574,10.402-4.77c0.396-0.59,0.246-1.377-0.342-1.771
				c-0.574-0.396-1.379-0.245-1.771,0.322c-0.115,0.147-2.604,3.653-8.311,3.653c-7.047,0-14.65-6.651-14.65-17.387
				c0-4.934,1.868-9.408,5.276-12.604c4.081-3.834,10.323-5.85,18.075-5.85c8.785,0,16.783,2.571,24.52,5.047
				c0.787,0.262,1.557,0.49,2.328,0.754c1.082,9.178,7.404,15.617,13.52,21.863c6.229,6.354,12.109,12.354,12.109,20.797
				c0,5.637-1.375,9.914-3.572,13.078c0.346-2.214,0.561-4.523,0.561-6.867c0-8.883-5.246-18.16-13.045-23.092
				c-6.408-4.064-13.457-4.642-19.812-1.623c-8.133,3.836-12.16,12.719-10.062,22.092c2.029,8.998,10.373,19.537,27.221,19.537
				v0.082c0.051,0,0.184,0,0.377,0c1.23,0,5.133-0.082,9.852-1.084c-1.721,5.065-3.59,8.475-3.621,8.541
				c-0.346,0.623-0.115,1.393,0.49,1.735c0.195,0.108,0.41,0.164,0.607,0.164c0.457,0,0.881-0.229,1.127-0.656
				c0.166-0.295,2.443-4.456,4.328-10.487c4.652-1.295,9.701-3.523,13.604-7.344c4.393-4.294,6.621-9.935,6.621-16.732
				C390.467,342.472,380.635,334.394,371.947,327.263z M372.783,316.498c0-3.08,2.08-6.541,4.852-6.541
				c0.723,0,0.736,1.166,0.736,1.297c0,1.295-0.803,2.72-2.131,3.785c-0.736,0.59-1.834,1.246-3.439,1.705
				C372.783,316.66,372.783,316.578,372.783,316.498z M373.85,296.731c0.018,0,0.033,0,0.049,0c5.293,0,9.588,1.408,12.393,4.063
				c2.357,2.229,3.652,5.326,3.652,8.752c0,7.721-5.568,12.342-10.965,12.342c-3.229,0-4.801-1.277-5.521-2.654
				c2.049-0.572,3.459-1.428,4.406-2.182c1.936-1.557,3.1-3.721,3.1-5.783c0-2.229-1.377-3.869-3.295-3.869
				c-2.062,0-3.998,1.064-5.424,3.018c-1.262,1.703-1.982,3.933-1.982,6.08c0,0.262,0.018,0.49,0.033,0.738
				c-0.688,0.08-1.426,0.111-2.244,0.111c-2.131,0-4.295-0.246-6.508-0.672c-0.734-1.377-1.164-2.787-1.164-4.275
				c0-5.293,1.408-9.359,4.193-12.046c3.297-3.196,7.654-3.573,8.916-3.623C373.699,296.731,373.832,296.731,373.85,296.731z
				 M332.338,361.976c-1.869-8.309,1.521-15.85,8.65-19.225c2.328-1.099,4.77-1.64,7.23-1.64c3.389,0,6.85,1.048,10.127,3.109
				c7.078,4.489,11.848,12.897,11.848,20.934c0,3.621-0.539,7.191-1.311,10.438c-3.475,2.771-7.783,3.936-11.801,3.936
				C341.727,379.529,334.154,370.072,332.338,361.976z"/>
		</g>
		<g>
			<path stroke="#000000" stroke-width="0.3851" stroke-miterlimit="10" d="M459.727,353.927"/>
			<path fill="none" d="M444.863,316.853v1.369h-5.086v-2.082h-15.004v2.082h-2.078v15.373h2.078v2.141h15.004v-2.141h5.086v1.414
				c1.143-0.385,2.111-0.916,2.891-1.605c1.482-1.32,2.336-3.408,2.549-6.199h-1.973v-5.084h1.588
				c-0.424-1.561-1.139-2.803-2.16-3.695C446.98,317.751,446.01,317.228,444.863,316.853z"/>
			<path d="M459.91,344.666c1.244,1.082,2.271,2.379,3.059,3.853c0.793,1.479,1.377,3.144,1.744,4.93
				c0.363,1.806,0.623,3.638,0.752,5.443c0.07,1.159,0.141,2.519,0.207,4.079c0.062,1.564,0.188,3.191,0.357,4.826
				c0.17,1.646,0.451,3.232,0.828,4.711c0.094,0.371,0.207,0.724,0.322,1.068h0.988c-0.154-0.412-0.299-0.842-0.416-1.299
				c-0.367-1.436-0.639-2.975-0.807-4.576c-0.168-1.617-0.289-3.225-0.354-4.773c-0.066-1.563-0.139-2.93-0.207-4.096
				c-0.139-1.854-0.396-3.729-0.771-5.57c-0.381-1.877-1-3.618-1.834-5.18c-0.838-1.572-1.936-2.955-3.27-4.113
				c-0.768-0.664-1.662-1.227-2.664-1.7v1.021C458.619,343.685,459.309,344.142,459.91,344.666z"/>
			<path d="M454.17,305.235c1.895,0.765,3.6,1.749,5.096,2.933v-0.446h0.898c-1.645-1.356-3.531-2.487-5.65-3.345
				c-1.285-0.519-2.656-0.904-4.105-1.176v0.94C451.729,304.399,452.986,304.761,454.17,305.235z"/>
			<path d="M463.74,334.232c-1.314,2.287-3.291,4.18-5.893,5.65v1.053c2.969-1.588,5.219-3.678,6.689-6.24
				c1.271-2.201,2.096-4.719,2.494-7.49h-0.936C465.717,329.81,464.934,332.167,463.74,334.232z"/>
			<rect x="408.748" y="302.763" width="36.576" height="0.922"/>
			<rect x="405.744" y="305.765" width="0.926" height="67.811"/>
			<path d="M451.791,367.818c-0.203-3.182-0.516-6.283-0.92-9.227c-0.229-1.59-0.572-3.004-1.02-4.262h-0.98
				c0.479,1.266,0.844,2.725,1.084,4.391c0.406,2.916,0.711,5.996,0.914,9.154c0.131,2.074,0.412,3.979,0.832,5.699h0.961
				C452.227,371.849,451.928,369.931,451.791,367.818z"/>
			<rect x="421.771" y="350.175" width="0.924" height="23.4"/>
			<path d="M446.426,349.248c-1.875-1.375-4.613-2.078-8.16-2.078h-13.488v0.927h13.484c3.014,0,5.371,0.521,7.062,1.54v-0.389
				H446.426L446.426,349.248z"/>
			<rect x="408.748" y="375.656" width="10.941" height="0.924"/>
			<rect x="455.49" y="375.656" width="10.959" height="0.924"/>
			<path d="M447.758,318.425c1.021,0.893,1.736,2.135,2.158,3.695h0.967c-0.457-1.857-1.295-3.33-2.516-4.396
				c-0.938-0.812-2.113-1.433-3.504-1.853v0.978C446.01,317.228,446.98,317.751,447.758,318.425z"/>
			<rect x="424.773" y="335.736" width="15.004" height="0.924"/>
			<rect x="424.773" y="315.216" width="15.004" height="0.924"/>
			<rect x="421.771" y="318.222" width="0.924" height="15.373"/>
			<path d="M447.754,333.404c-0.771,0.688-1.748,1.221-2.891,1.604v0.98c1.396-0.432,2.564-1.061,3.508-1.895
				c1.682-1.498,2.643-3.811,2.861-6.891h-0.932C450.09,329.996,449.236,332.083,447.754,333.404z"/>
			<rect x="404.588" y="301.606" width="3.232" height="3.233"/>
			<rect x="446.248" y="301.606" width="3.234" height="3.233"/>
			<rect x="420.613" y="314.062" width="3.234" height="3.236"/>
			<rect x="420.613" y="334.521" width="3.234" height="3.234"/>
			<rect x="420.613" y="346.017" width="3.234" height="3.23"/>
			<rect x="446.248" y="350.175" width="3.234" height="3.229"/>
			<rect x="420.613" y="374.5" width="3.234" height="3.236"/>
			<rect x="404.588" y="374.5" width="3.232" height="3.236"/>
			<rect x="451.332" y="374.5" width="3.234" height="3.236"/>
			<rect x="467.373" y="374.5" width="3.232" height="3.236"/>
			<rect x="453.693" y="340.199" width="3.23" height="3.23"/>
			<rect x="449.256" y="323.044" width="3.229" height="3.235"/>
			<rect x="440.705" y="314.062" width="3.23" height="3.236"/>
			<rect x="440.705" y="334.521" width="3.23" height="3.234"/>
			<rect x="460.188" y="308.646" width="3.236" height="3.232"/>
			<path d="M468.531,326.281v-3.236h-1.238v-18.537c0.67-0.195,1.162-0.812,1.162-1.553c0-0.896-0.729-1.625-1.629-1.625
				c-0.896,0-1.623,0.729-1.623,1.625c0,0.737,0.49,1.354,1.164,1.553v12.445c-0.168-0.543-0.359-1.076-0.572-1.604
				c-0.402-0.98-0.898-1.906-1.445-2.801v0.252h-0.924c0.584,0.92,1.102,1.881,1.516,2.9c0.812,2,1.283,4.153,1.406,6.418h0.02
				v0.926h-1.07v3.233h1.07v18.433c-0.674,0.201-1.164,0.815-1.164,1.555c0,0.896,0.729,1.623,1.623,1.623
				c0.898,0,1.629-0.727,1.629-1.623c0-0.736-0.492-1.354-1.164-1.555v-18.43H468.531L468.531,326.281z"/>
		</g>
	</g>
</g>
<g>
	<path fill="#FF3333" d="M143.154,162.832c-8.045,0-14.59,6.55-14.59,14.601c0,3.854,1.49,7.49,4.204,10.248l0.009,0.009
		l0.086,0.083c2.757,2.75,6.413,4.264,10.291,4.264c3.84,0,7.471-1.488,10.222-4.19l0.027-0.03l0.03-0.029
		c0.006-0.007,0.012-0.014,0.021-0.021l0.022-0.019l0.086-0.088c2.704-2.752,4.194-6.384,4.194-10.227
		C157.757,169.381,151.205,162.832,143.154,162.832z M152.4,186.518c-0.027,0.025-0.06,0.046-0.087,0.074
		c-0.03,0.027-0.048,0.062-0.078,0.092c-2.341,2.3-5.547,3.726-9.081,3.726c-3.562,0-6.799-1.451-9.145-3.79
		c-0.006-0.01-0.016-0.021-0.022-0.027c-0.005-0.007-0.014-0.01-0.021-0.019c-2.33-2.346-3.776-5.577-3.776-9.142
		c0-7.154,5.823-12.972,12.964-12.972c7.154,0,12.977,5.817,12.977,12.972C156.131,180.969,154.703,184.175,152.4,186.518z"/>
	<path fill="#FF3333" d="M164.877,174.114h-2.415c-0.501-2.937-1.653-5.652-3.312-7.989l1.701-1.699c1.291-1.288,1.295-3.39,0-4.693
		c-0.641-0.65-1.494-0.978-2.343-0.978c-0.851,0-1.7,0.322-2.346,0.964l-1.716,1.708c-2.336-1.65-5.045-2.798-7.978-3.302v-2.394
		c0-1.817-1.485-3.316-3.315-3.316c-1.824,0-3.321,1.499-3.321,3.316v2.396c-2.933,0.502-5.636,1.651-7.973,3.308l-1.728-1.721
		c-0.655-0.635-1.508-0.954-2.357-0.954s-1.694,0.319-2.345,0.968c-1.29,1.295-1.286,3.396,0.012,4.691l1.718,1.716
		c-1.649,2.336-2.802,5.048-3.303,7.979h-2.419c-1.831,0-3.318,1.509-3.318,3.318c0,1.833,1.488,3.318,3.318,3.318h2.419
		c0.501,2.93,1.648,5.639,3.303,7.976l-1.714,1.716c-1.302,1.267-1.302,3.396-0.004,4.693c0.646,0.642,1.498,0.968,2.345,0.968
		c0.85,0,1.702-0.331,2.351-0.968l1.714-1.716c2.338,1.658,5.049,2.812,7.981,3.316v2.415c0,1.83,1.497,3.315,3.321,3.315
		c1.83,0,3.315-1.479,3.315-3.315v-2.415c2.935-0.504,5.646-1.653,7.987-3.31l1.706,1.709c0.651,0.642,1.499,0.968,2.348,0.968
		c0.851,0,1.7-0.331,2.341-0.968c1.291-1.297,1.291-3.413,0-4.693l-1.706-1.707c1.663-2.336,2.815-5.048,3.316-7.984h2.415
		c1.823,0,3.32-1.485,3.32-3.318C168.197,175.623,166.7,174.114,164.877,174.114z M164.877,179.123h-2.415h-1.37l-0.23,1.354
		c-0.458,2.658-1.48,5.119-3.041,7.317l-0.797,1.122l0.975,0.971l1.711,1.709c0.642,0.644,0.639,1.738,0,2.382
		c-0.32,0.315-0.756,0.497-1.198,0.497c-0.452,0-0.88-0.177-1.2-0.492l-1.707-1.706l-0.97-0.973l-1.12,0.793
		c-2.196,1.557-4.661,2.578-7.32,3.036l-1.35,0.231v1.371v2.415c0,0.931-0.761,1.689-1.689,1.689c-0.934,0-1.691-0.759-1.691-1.689
		v-2.415v-1.373l-1.35-0.229c-2.66-0.458-5.121-1.481-7.319-3.041l-1.12-0.795l-0.971,0.973l-1.701,1.701
		c-0.334,0.327-0.766,0.504-1.215,0.504c-0.448,0-0.878-0.175-1.195-0.492c-0.32-0.322-0.499-0.752-0.494-1.214
		c0.004-0.446,0.177-0.858,0.501-1.178l1.716-1.716l0.971-0.97l-0.794-1.12c-1.552-2.194-2.571-4.654-3.029-7.309l-0.23-1.354
		h-1.375h-2.419c-0.934,0-1.692-0.757-1.692-1.69c0-0.915,0.775-1.69,1.692-1.69h2.419h1.375l0.23-1.352
		c0.454-2.656,1.477-5.117,3.029-7.315l0.794-1.122l-0.976-0.971l-1.718-1.713c-0.66-0.662-0.664-1.736-0.01-2.392
		c0.32-0.317,0.74-0.492,1.193-0.492c0.456,0,0.893,0.177,1.21,0.48l1.726,1.72l0.97,0.971l1.12-0.793
		c2.191-1.558,4.654-2.578,7.309-3.033l1.354-0.232v-1.371v-2.396c0-0.916,0.773-1.69,1.691-1.69c0.929,0,1.689,0.759,1.689,1.69
		v2.394v1.373l1.35,0.232c2.659,0.455,5.117,1.474,7.316,3.026l1.119,0.791l0.969-0.969l1.708-1.704
		c0.325-0.317,0.75-0.492,1.203-0.492c0.452,0,0.872,0.178,1.19,0.497c0.66,0.665,0.665,1.738,0.006,2.394l-1.702,1.697
		l-0.976,0.973l0.796,1.123c1.558,2.198,2.578,4.661,3.038,7.324l0.23,1.352h1.37h2.415c0.912,0,1.689,0.775,1.689,1.69
		C166.566,178.366,165.806,179.123,164.877,179.123z"/>
	<path fill="#FF3333" d="M114.192,181.349h-0.694c-0.348-1.465-0.922-2.841-1.686-4.092l0.488-0.487
		c1.299-1.281,1.299-3.405,0.004-4.693c-0.646-0.645-1.492-0.964-2.346-0.964c-0.844,0-1.697,0.319-2.346,0.964l-0.485,0.485
		c-1.253-0.771-2.626-1.348-4.094-1.702v-0.674c0-1.826-1.488-3.318-3.318-3.318s-3.318,1.492-3.318,3.318v0.674
		c-1.469,0.354-2.849,0.934-4.1,1.706l-0.485-0.489c-0.648-0.645-1.5-0.964-2.348-0.964c-0.848,0-1.697,0.319-2.345,0.964
		c-1.292,1.28-1.292,3.405,0,4.693l0.497,0.497c-0.761,1.248-1.336,2.619-1.684,4.082h-0.699c-1.831,0-3.319,1.506-3.319,3.318
		c0,1.832,1.488,3.318,3.319,3.318h0.713c0.352,1.458,0.931,2.826,1.695,4.07l-0.508,0.508c-1.302,1.29-1.302,3.393-0.007,4.693
		c0.65,0.645,1.499,0.969,2.348,0.969c0.851,0,1.695-0.324,2.346-0.969l0.513-0.513c1.244,0.764,2.61,1.341,4.066,1.69v0.716
		c0,1.83,1.488,3.315,3.318,3.315s3.318-1.479,3.318-3.315v-0.716c1.456-0.35,2.82-0.927,4.062-1.688l0.51,0.51
		c0.651,0.645,1.5,0.969,2.348,0.969c0.851,0,1.695-0.324,2.346-0.969c1.294-1.287,1.294-3.403,0-4.693l-0.508-0.508
		c0.764-1.247,1.343-2.612,1.695-4.07h0.706c1.837,0,3.316-1.486,3.316-3.318C117.508,182.855,116.02,181.349,114.192,181.349z
		 M114.192,186.357h-0.706h-1.283l-0.299,1.247c-0.308,1.271-0.812,2.481-1.5,3.599l-0.671,1.095l0.906,0.908l0.513,0.513
		c0.315,0.315,0.49,0.738,0.49,1.194c0,0.452-0.175,0.876-0.485,1.188c-0.329,0.322-0.752,0.499-1.203,0.499
		s-0.876-0.177-1.196-0.49l-0.511-0.513l-0.904-0.91l-1.097,0.674c-1.12,0.685-2.327,1.187-3.594,1.492l-1.247,0.302v1.28v0.716
		c0,0.931-0.759,1.689-1.69,1.689c-0.934,0-1.69-0.759-1.69-1.689v-0.716v-1.28l-1.247-0.302c-1.27-0.306-2.479-0.808-3.594-1.492
		l-1.092-0.672l-0.909,0.904l-0.51,0.508c-0.327,0.322-0.75,0.499-1.201,0.499s-0.878-0.177-1.193-0.49
		c-0.324-0.324-0.499-0.752-0.497-1.207c0.002-0.448,0.177-0.867,0.501-1.187l0.506-0.508l0.911-0.909l-0.676-1.094
		c-0.686-1.123-1.191-2.332-1.5-3.602l-0.299-1.247h-1.281h-0.713c-0.932,0-1.69-0.756-1.69-1.689c0-0.918,0.775-1.693,1.69-1.693
		h0.699h1.286l0.299-1.251c0.304-1.271,0.805-2.485,1.488-3.607l0.667-1.091l-0.901-0.905l-0.501-0.504
		c-0.317-0.315-0.494-0.74-0.492-1.196c0-0.452,0.175-0.873,0.492-1.188c0.32-0.317,0.743-0.492,1.196-0.492
		c0.453,0,0.881,0.175,1.194,0.487l0.485,0.487l0.911,0.916l1.097-0.679c1.127-0.694,2.348-1.2,3.629-1.509l1.247-0.301v-1.281
		v-0.674c0-0.932,0.756-1.69,1.69-1.69c0.932,0,1.69,0.759,1.69,1.69v0.674v1.283l1.247,0.299c1.278,0.309,2.497,0.814,3.622,1.507
		l1.097,0.674l0.908-0.911l0.479-0.476c0.319-0.32,0.748-0.497,1.2-0.497c0.453,0,0.878,0.175,1.198,0.492s0.492,0.74,0.492,1.198
		c-0.004,0.45-0.177,0.869-0.501,1.188l-0.49,0.49l-0.904,0.906l0.667,1.095c0.69,1.126,1.191,2.343,1.495,3.614l0.297,1.251h1.286
		h0.694c0.915,0,1.688,0.775,1.688,1.693C115.88,185.601,115.123,186.357,114.192,186.357z"/>
	<path fill="#FF3333" d="M106.203,178.177l-0.094-0.068c-1.725-1.682-3.992-2.608-6.393-2.608c-2.394,0-4.659,0.922-6.425,2.638
		l-0.014,0.012l-0.09,0.092c-1.706,1.729-2.645,4.011-2.645,6.426c0,2.412,0.934,4.695,2.649,6.443l0.016,0.019v0.002l0.085,0.083
		c1.684,1.658,3.91,2.592,6.271,2.633h0.042h0.046c0.019-0.002,0.035-0.002,0.053-0.005l0.076,0.005h0.044h0.046
		c2.325-0.041,4.528-0.954,6.207-2.571l0.037-0.036l0.032-0.037c0.011-0.014,0.025-0.027,0.037-0.044l0.06-0.057l0.037-0.03
		l0.032-0.034c1.637-1.702,2.552-3.926,2.576-6.271v-0.01v-0.128c-0.012-2.388-0.938-4.634-2.604-6.345L106.203,178.177z
		 M107.258,184.667c0,0.011,0,0.021,0,0.032c-0.009,2.025-0.819,3.856-2.12,5.208c-0.032,0.03-0.069,0.051-0.101,0.083
		c-0.037,0.034-0.06,0.078-0.092,0.115c-1.329,1.283-3.123,2.081-5.105,2.113c-0.042-0.002-0.083-0.014-0.125-0.014
		c-0.043,0-0.083,0.012-0.126,0.014c-2.003-0.032-3.82-0.851-5.153-2.164c-0.016-0.016-0.025-0.034-0.042-0.051
		c-0.016-0.016-0.037-0.027-0.053-0.043c-1.341-1.366-2.173-3.236-2.173-5.294c0-2.057,0.835-3.921,2.178-5.285
		c0.014-0.012,0.028-0.019,0.039-0.029c0.012-0.015,0.023-0.03,0.035-0.044c1.366-1.346,3.233-2.181,5.296-2.181
		c2.072,0,3.949,0.842,5.314,2.199c0,0.004,0.002,0.007,0.007,0.011c0.009,0.008,0.014,0.01,0.016,0.017
		c1.354,1.356,2.196,3.224,2.205,5.282C107.258,184.646,107.258,184.658,107.258,184.667z"/>
	<path fill="#FF3333" d="M114.925,147.693l0.083,0.083c1.679,1.656,3.907,2.592,6.269,2.633h0.041h0.039
		c0.025-0.002,0.046-0.004,0.064-0.004h0.005l0.089,0.004h0.039h0.046c2.32-0.041,4.521-0.954,6.246-2.628
		c0.016-0.021,0.036-0.042,0.053-0.062l0.041-0.027l0.09-0.095c1.66-1.729,2.576-3.989,2.576-6.368c0-2.409-0.932-4.683-2.627-6.416
		l-0.007-0.01l-0.095-0.093c-1.729-1.712-4.017-2.655-6.441-2.655c-2.405,0-4.673,0.927-6.404,2.616l-0.007,0.006l-0.099,0.099
		c-1.718,1.731-2.663,4.024-2.663,6.453c0,2.393,0.917,4.662,2.645,6.439L114.925,147.693z M116.08,135.92
		c0.009-0.01,0.021-0.013,0.03-0.022c0.007-0.008,0.011-0.017,0.021-0.025c1.366-1.352,3.238-2.19,5.308-2.19
		c2.063,0,3.935,0.838,5.298,2.184c0.007,0.011,0.016,0.022,0.023,0.032c0.009,0.011,0.021,0.018,0.031,0.026
		c1.348,1.365,2.186,3.237,2.186,5.304c0,2.039-0.812,3.88-2.118,5.239c-0.032,0.032-0.069,0.053-0.101,0.085
		c-0.037,0.035-0.062,0.078-0.1,0.115c-1.325,1.283-3.114,2.079-5.087,2.113c-0.048-0.002-0.087-0.014-0.133-0.014
		c-0.048,0-0.087,0.012-0.133,0.014c-2.005-0.036-3.82-0.849-5.151-2.161c-0.023-0.025-0.039-0.056-0.064-0.081
		c-0.016-0.014-0.032-0.022-0.048-0.036c-1.327-1.364-2.153-3.223-2.153-5.274C113.888,139.161,114.73,137.286,116.08,135.92z"/>
	<path fill="#FF3333" d="M106.957,144.547h0.713c0.352,1.453,0.927,2.817,1.686,4.059l-0.517,0.522
		c-1.295,1.285-1.286,3.403,0.016,4.691c0.651,0.644,1.501,0.968,2.341,0.968c0.858,0,1.707-0.324,2.35-0.981l0.501-0.504
		c1.247,0.766,2.612,1.343,4.073,1.694v0.706c0,1.814,1.488,3.321,3.318,3.321c1.833,0,3.316-1.475,3.316-3.321v-0.706
		c1.456-0.352,2.82-0.924,4.061-1.688l0.503,0.511c0.654,0.644,1.502,0.968,2.355,0.968c0.849,0,1.697-0.324,2.342-0.968
		c1.294-1.288,1.294-3.406,0-4.691l-0.507-0.509c0.764-1.246,1.339-2.612,1.694-4.072h0.716c1.833,0,3.321-1.479,3.321-3.319
		c0-1.812-1.488-3.318-3.321-3.318h-0.704c-0.347-1.464-0.924-2.838-1.686-4.089l0.49-0.49c1.29-1.302,1.29-3.423-0.014-4.691
		c-0.646-0.648-1.495-0.973-2.344-0.973c-0.851,0-1.699,0.324-2.346,0.973l-0.474,0.474c-1.249-0.771-2.619-1.352-4.088-1.706v-0.66
		c0-1.823-1.483-3.318-3.316-3.318c-1.831,0-3.318,1.495-3.318,3.318v0.66c-1.469,0.354-2.84,0.934-4.089,1.704l-0.485-0.485
		c-0.646-0.644-1.497-0.966-2.345-0.966c-0.849,0-1.697,0.322-2.346,0.966c-1.302,1.282-1.302,3.397-0.007,4.691l0.497,0.5
		c-0.764,1.252-1.338,2.626-1.69,4.093h-0.697c-1.831,0-3.321,1.506-3.321,3.318C103.636,143.068,105.126,144.547,106.957,144.547z
		 M106.957,139.538h0.697h1.286l0.299-1.249c0.304-1.278,0.805-2.498,1.493-3.624l0.667-1.09l-0.902-0.905l-0.501-0.505
		c-0.32-0.319-0.492-0.745-0.492-1.2c0.002-0.451,0.177-0.869,0.497-1.185c0.32-0.317,0.748-0.493,1.201-0.493
		c0.453,0,0.878,0.176,1.193,0.487l0.485,0.485l0.908,0.913l1.097-0.677c1.125-0.69,2.341-1.198,3.615-1.507l1.247-0.299v-1.283
		v-0.66c0-0.933,0.759-1.69,1.692-1.69c0.932,0,1.69,0.758,1.69,1.69v0.66v1.281l1.246,0.301c1.279,0.311,2.496,0.816,3.616,1.509
		l1.094,0.676l0.911-0.913l0.47-0.471c0.318-0.32,0.744-0.495,1.197-0.495s0.877,0.176,1.207,0.511
		c0.313,0.302,0.486,0.712,0.49,1.158c0.005,0.463-0.175,0.896-0.49,1.218l-0.486,0.488l-0.911,0.905l0.667,1.093
		c0.688,1.128,1.193,2.346,1.496,3.621l0.3,1.249h1.28h0.704c0.917,0,1.69,0.774,1.69,1.69c0,0.933-0.759,1.691-1.69,1.691h-0.716
		h-1.28l-0.302,1.246c-0.311,1.271-0.811,2.481-1.499,3.602l-0.671,1.092l0.906,0.908l0.51,0.516
		c0.315,0.312,0.492,0.738,0.492,1.191s-0.177,0.876-0.496,1.195c-0.315,0.317-0.741,0.492-1.189,0.492
		c-0.453,0-0.881-0.177-1.198-0.492l-0.509-0.508l-0.905-0.911l-1.097,0.672c-1.115,0.686-2.325,1.187-3.59,1.492l-1.246,0.302v1.28
		v0.706c0,0.95-0.743,1.692-1.69,1.692c-0.917,0-1.692-0.774-1.692-1.692v-0.706v-1.28l-1.247-0.302
		c-1.27-0.308-2.483-0.812-3.599-1.499l-1.099-0.677l-0.911,0.918l-0.506,0.511c-0.315,0.319-0.736,0.494-1.189,0.494
		c-0.448,0-0.874-0.177-1.196-0.501c-0.32-0.315-0.497-0.74-0.497-1.193s0.168-0.874,0.492-1.194l0.517-0.52l0.897-0.908
		l-0.667-1.09c-0.683-1.113-1.184-2.323-1.49-3.592l-0.303-1.244h-1.279h-0.713c-0.934,0-1.692-0.759-1.692-1.691
		C105.265,140.312,106.04,139.538,106.957,139.538z"/>
	<path fill="#FF3333" d="M62.003,100.198c1.835,0,3.318-1.485,3.318-3.316c0-1.835-1.483-3.321-3.318-3.321
		c-1.835,0-3.318,1.485-3.318,3.321C58.685,98.713,60.168,100.198,62.003,100.198z"/>
	<path fill="#FF3333" d="M75.279,100.198c1.833,0,3.316-1.485,3.316-3.316c0-1.835-1.483-3.321-3.316-3.321
		c-1.835,0-3.321,1.485-3.321,3.321C71.958,98.713,73.444,100.198,75.279,100.198z"/>
	<path fill="#FF3333" d="M88.553,100.198c1.831,0,3.316-1.485,3.316-3.316c0-1.835-1.486-3.321-3.316-3.321
		c-1.837,0-3.32,1.485-3.32,3.321C85.232,98.713,86.715,100.198,88.553,100.198z"/>
	<path fill="#FF3333" d="M200.432,81.32H49.569c-2.042,0-3.705,1.662-3.705,3.705v124.684c0,2.043,1.662,3.704,3.705,3.704h150.863
		c2.042,0,3.704-1.661,3.704-3.704V85.025C204.136,82.982,202.474,81.32,200.432,81.32z M49.569,84.021h150.863
		c0.554,0,1.005,0.451,1.005,1.004v23.904H48.564V85.025C48.564,84.471,49.015,84.021,49.569,84.021z M200.432,210.713H49.569
		c-0.554,0-1.004-0.451-1.004-1.005v-98.08h152.872v98.08C201.437,210.262,200.985,210.713,200.432,210.713z"/>
</g>
</svg>
