<?xml version="1.0" encoding="utf-8"?>
<!-- Generator: Adobe Illustrator 16.0.0, SVG Export Plug-In . SVG Version: 6.00 Build 0)  -->
<!DOCTYPE svg PUBLIC "-//W3C//DTD SVG 1.1//EN" "http://www.w3.org/Graphics/SVG/1.1/DTD/svg11.dtd">
<svg version="1.1" id="Layer_1" xmlns="http://www.w3.org/2000/svg" xmlns:xlink="http://www.w3.org/1999/xlink" x="0px" y="0px"
	 width="250px" height="231.167px" viewBox="0 0 250 231.167" enable-background="new 0 0 250 231.167" xml:space="preserve">
<g id="Diseño_de_web" display="none">
	<g display="inline">
		<path d="M398.424,379.046h92.285c0.779,0,1.301-0.521,1.301-1.299v-58.492c0-0.779-0.521-1.299-1.301-1.299h-92.285
			c-0.779,0-1.299,0.52-1.299,1.299v58.492C397.125,378.527,397.645,379.046,398.424,379.046z M399.723,320.556h89.688v55.891
			h-89.688V320.556L399.723,320.556z"/>
		<path d="M510.727,382.425h-12.479v-67.85c0-2.34-2.078-4.418-4.42-4.418H466.24c0.008-0.066,0.033-0.121,0.033-0.193v-42.961
			c0-2.604-2.08-4.678-4.682-4.678H318.098c-2.602,0-4.682,2.074-4.682,4.678v56.412h-22.875c-2.081,0-3.9,1.818-3.9,3.896v60.053
			c0,2.08,1.819,3.896,3.9,3.896h34.834c0.195,0,0.371-0.027,0.529-0.092c0.479,0.223,1.006,0.355,1.549,0.355h14.299
			c2.078,0,3.9-1.82,3.9-3.9v-4.938v-15.461c0.17,0.072,0.357,0.119,0.574,0.119h26.721l-1.559,15.078l-6.5,4.686
			c-0.262,0.262-0.521,0.521-0.521,1.037c0,0.262,0,1.303,0.779,2.078c0.262,0.521,1.039,0.779,2.34,0.779h18.506
			c0.908,0.166,1.512,0.262,1.512,0.262h113.861c0,0,11.959-1.816,11.959-4.422v-1.561
			C513.586,383.726,512.287,382.425,510.727,382.425z M495.391,314.576v67.85h-36.916c-0.26,0-0.777,0.264-1.039,0.521
			c-0.26,0.26-0.26,0.52-0.26,0.779c0,0,0,0.262-0.262,0.262h-24.695c0,0-0.262,0-0.262-0.262s0-0.779-0.26-1.039
			c-0.262-0.262-0.52-0.521-1.039-0.521h-37.174v-67.59c0-1.039,0.781-1.818,1.816-1.818h98.268
			C494.609,312.757,495.391,313.537,495.391,314.576z M345.348,351.298c-0.562-1.289-1.861-2.146-3.596-2.146h-6.238v-3.898h55.373
			v5.98h-45.158C345.588,351.232,345.469,351.267,345.348,351.298z M390.887,314.576v28.076h-55.373v-15.338
			c0-2.078-1.818-3.898-3.9-3.898h-7.018v-49.912h130.76v36.654h-60.051C392.965,310.158,390.887,312.238,390.887,314.576z
			 M316.016,267.003c0-1.039,1.041-2.08,2.082-2.08h143.496c1.039,0,2.08,1.041,2.08,2.08v42.961c0,0.072,0.025,0.127,0.033,0.193
			h-6.047c0.01-0.066,0.033-0.121,0.033-0.193v-37.762c0-0.779-0.52-1.303-1.301-1.303H323.291c-0.775,0-1.301,0.521-1.301,1.303
			v51.213h-5.979v-56.412H316.016L316.016,267.003z M289.24,387.365v-60.051c0-0.779,0.52-1.299,1.301-1.299h41.072
			c0.779,0,1.301,0.52,1.301,1.299v21.836h-1.82v-18.195c0-0.779-0.52-1.301-1.299-1.301h-37.436c-0.779,0-1.299,0.521-1.299,1.301
			v51.471c0,0.781,0.52,1.303,1.299,1.303h31.195v3.896c0,0.359,0.066,0.705,0.172,1.041H290.54
			C289.76,388.666,289.24,388.146,289.24,387.365z M323.557,353.05v3.641v24.438H293.66v-48.873h34.834v16.896h-1.041
			C325.377,349.15,323.557,350.97,323.557,353.05z M341.752,388.666h-14.299c-0.777,0-1.299-0.521-1.299-1.301v-3.641h16.639v3.641
			C343.053,388.146,342.533,388.666,341.752,388.666z M343.053,381.126h-16.639V357.73h16.639V381.126z M343.312,355.39h-16.641
			v-2.6c0-0.566,0.262-1.041,1.039-1.041h14.299c0.777,0,1.303,0.52,1.303,1.301V355.39L343.312,355.39z M346.227,364.75
			c-0.215,0-0.402,0.047-0.574,0.121v-8.18v-2.873c0.027,0,0.051,0.014,0.076,0.014h45.158v10.934
			c-0.031-0.002-0.057-0.016-0.086-0.016H346.227L346.227,364.75z M367.748,388.666l5.979-4.42c0.262-0.26,0.521-0.521,0.521-1.039
			l1.562-15.857h14.99c0.027,0,0.055-0.014,0.086-0.016v15.092h-12.48c-1.559,0-2.857,1.303-2.857,2.859v1.562
			c0,0.662,0.783,1.273,1.943,1.818H367.748z M511.246,386.326h-0.26c-1.82,0.779-8.318,2.34-9.357,2.34H388.023
			c-1.039,0-7.537-1.561-9.617-2.34v-1.041c0,0,0-0.26,0.262-0.26h51.211c0.521,1.041,1.562,1.561,2.6,1.561h24.697
			c1.039,0,2.08-0.779,2.602-1.561h51.213c0,0,0.258,0,0.258,0.26L511.246,386.326L511.246,386.326z"/>
		<circle cx="311.076" cy="327.834" r="0.78"/>
		<circle cx="311.076" cy="386.325" r="1.56"/>
		<circle cx="334.734" cy="386.325" r="1.56"/>
	</g>
</g>
<g id="Gráfica_digital" display="none">
	<g display="inline">
		<g>
			<path d="M415.418,349.712c-6.832,0-12.391,5.562-12.391,12.398c0,3.271,1.266,6.355,3.568,8.703l0.01,0.01l0.07,0.064
				c2.342,2.336,5.443,3.619,8.736,3.619c3.266,0,6.35-1.264,8.686-3.559l0.02-0.025l0.025-0.02c0.006-0.007,0.01-0.017,0.018-0.021
				l0.021-0.016l0.072-0.074c2.297-2.338,3.561-5.422,3.561-8.687C427.82,355.275,422.256,349.712,415.418,349.712z M423.271,369.83
				c-0.023,0.021-0.053,0.039-0.074,0.062c-0.025,0.021-0.041,0.059-0.066,0.076c-1.988,1.953-4.711,3.164-7.713,3.164
				c-3.025,0-5.773-1.229-7.766-3.219c-0.008-0.008-0.016-0.018-0.021-0.021c-0.004-0.008-0.012-0.01-0.018-0.018
				c-1.979-1.992-3.207-4.734-3.207-7.764c0-6.076,4.943-11.018,11.01-11.018c6.076,0,11.021,4.941,11.021,11.018
				C426.439,365.117,425.227,367.839,423.271,369.83z"/>
			<path d="M433.867,359.294h-2.051c-0.428-2.494-1.404-4.801-2.812-6.785l1.445-1.443c1.096-1.094,1.1-2.879,0-3.986
				c-0.545-0.553-1.271-0.83-1.99-0.83c-0.723,0-1.443,0.273-1.992,0.818l-1.457,1.451c-1.982-1.402-4.285-2.377-6.773-2.805v-2.033
				c0-1.543-1.264-2.816-2.812-2.816c-1.551,0-2.82,1.273-2.82,2.816v2.035c-2.488,0.426-4.785,1.402-6.771,2.809l-1.467-1.461
				c-0.559-0.539-1.281-0.811-2.002-0.811c-0.725,0-1.439,0.271-1.992,0.822c-1.098,1.1-1.092,2.885,0.01,3.979l1.459,1.457
				c-1.398,1.982-2.379,4.285-2.805,6.775h-2.057c-1.555,0-2.816,1.281-2.816,2.818c0,1.557,1.264,2.818,2.816,2.818h2.057
				c0.426,2.488,1.398,4.789,2.805,6.772l-1.455,1.457c-1.104,1.075-1.104,2.886-0.004,3.981c0.549,0.549,1.271,0.82,1.992,0.82
				s1.445-0.279,1.996-0.82l1.455-1.455c1.984,1.404,4.289,2.392,6.777,2.812v2.051c0,1.561,1.27,2.816,2.82,2.816
				c1.555,0,2.812-1.256,2.812-2.816V378.5c2.49-0.428,4.795-1.402,6.781-2.811l1.449,1.451c0.555,0.545,1.273,0.822,1.994,0.822
				c0.723,0,1.443-0.281,1.988-0.822c1.096-1.102,1.096-2.898,0-3.986L429,371.712c1.412-1.984,2.391-4.287,2.816-6.781h2.051
				c1.549,0,2.82-1.262,2.82-2.818C436.688,360.576,435.416,359.294,433.867,359.294z M433.867,363.548h-2.051h-1.164l-0.195,1.15
				c-0.389,2.258-1.258,4.348-2.582,6.215l-0.678,0.953l0.828,0.822l1.451,1.447c0.547,0.547,0.545,1.479,0,2.021
				c-0.271,0.27-0.646,0.422-1.021,0.422c-0.385,0-0.744-0.148-1.02-0.418l-1.449-1.449l-0.824-0.824l-0.947,0.678
				c-1.865,1.316-3.959,2.188-6.221,2.574l-1.145,0.195v1.164v2.053c0,0.789-0.646,1.438-1.438,1.438
				c-0.793,0-1.436-0.646-1.436-1.438V378.5v-1.166l-1.146-0.193c-2.26-0.391-4.35-1.26-6.217-2.578l-0.951-0.682l-0.822,0.826
				l-1.443,1.445c-0.283,0.277-0.65,0.428-1.031,0.428s-0.746-0.145-1.018-0.418c-0.271-0.271-0.424-0.639-0.42-1.031
				c0.004-0.379,0.148-0.729,0.428-1l1.457-1.457l0.822-0.818l-0.674-0.95c-1.318-1.862-2.186-3.952-2.572-6.206l-0.193-1.15h-1.168
				h-2.057c-0.793,0-1.439-0.644-1.439-1.438c0-0.775,0.658-1.438,1.439-1.438h2.057h1.168l0.193-1.146
				c0.387-2.256,1.254-4.35,2.572-6.213l0.674-0.953l-0.828-0.822l-1.459-1.455c-0.562-0.562-0.562-1.477-0.008-2.031
				c0.27-0.27,0.629-0.418,1.016-0.418s0.758,0.15,1.025,0.408l1.465,1.461l0.824,0.824l0.949-0.676
				c1.861-1.32,3.953-2.188,6.207-2.574l1.148-0.197v-1.164v-2.035c0-0.777,0.656-1.436,1.438-1.436
				c0.789,0,1.438,0.645,1.438,1.436v2.033v1.166l1.145,0.197c2.262,0.387,4.35,1.252,6.213,2.564l0.951,0.676l0.822-0.82
				l1.449-1.447c0.275-0.271,0.639-0.418,1.021-0.418c0.381,0,0.74,0.149,1.012,0.422c0.562,0.564,0.564,1.477,0.004,2.033
				l-1.443,1.439l-0.828,0.822l0.676,0.953c1.322,1.865,2.189,3.959,2.58,6.225l0.195,1.146h1.162h2.053
				c0.773,0,1.439,0.658,1.439,1.438C435.303,362.906,434.656,363.548,433.867,363.548z"/>
			<path d="M390.82,365.437h-0.59c-0.295-1.242-0.783-2.41-1.434-3.475l0.414-0.414c1.104-1.088,1.104-2.895,0.004-3.986
				c-0.553-0.547-1.271-0.816-1.99-0.816s-1.441,0.271-1.992,0.816l-0.412,0.412c-1.064-0.652-2.23-1.145-3.479-1.443v-0.572
				c0-1.551-1.268-2.816-2.816-2.816c-1.555,0-2.818,1.271-2.818,2.816v0.572c-1.248,0.301-2.42,0.793-3.482,1.447l-0.412-0.416
				c-0.551-0.547-1.27-0.816-1.994-0.816c-0.721,0-1.438,0.271-1.99,0.816c-1.1,1.09-1.1,2.895,0,3.986l0.426,0.422
				c-0.646,1.062-1.139,2.227-1.436,3.467h-0.594c-1.555,0-2.816,1.279-2.816,2.818c0,1.557,1.268,2.818,2.816,2.818h0.605
				c0.299,1.234,0.791,2.396,1.439,3.455l-0.434,0.434c-1.105,1.096-1.105,2.881-0.01,3.986c0.557,0.547,1.271,0.818,1.994,0.818
				c0.727,0,1.439-0.271,1.99-0.818l0.439-0.439c1.059,0.648,2.219,1.142,3.451,1.439v0.604c0,1.557,1.268,2.814,2.816,2.814
				c1.557,0,2.818-1.256,2.818-2.814v-0.604c1.234-0.299,2.395-0.787,3.447-1.438l0.436,0.438c0.553,0.547,1.271,0.818,1.994,0.818
				s1.438-0.271,1.99-0.818c1.102-1.098,1.102-2.895,0-3.986l-0.432-0.434c0.646-1.062,1.141-2.221,1.439-3.455h0.602
				c1.562,0,2.814-1.266,2.814-2.818C393.637,366.718,392.373,365.437,390.82,365.437z M390.82,369.693h-0.6h-1.092l-0.258,1.059
				c-0.262,1.08-0.688,2.107-1.27,3.059l-0.57,0.934l0.771,0.77l0.436,0.438c0.271,0.268,0.416,0.627,0.416,1.014
				s-0.145,0.744-0.41,1.012c-0.277,0.271-0.641,0.424-1.02,0.424c-0.383,0-0.744-0.146-1.02-0.416l-0.436-0.438l-0.768-0.771
				l-0.934,0.571c-0.951,0.582-1.977,1.009-3.053,1.271l-1.062,0.258v1.088v0.604c0,0.791-0.645,1.438-1.438,1.438
				s-1.438-0.646-1.438-1.438v-0.604v-1.088l-1.059-0.258c-1.078-0.262-2.105-0.688-3.053-1.271l-0.932-0.569l-0.77,0.771
				l-0.438,0.432c-0.273,0.273-0.637,0.426-1.02,0.426c-0.385,0-0.746-0.15-1.016-0.416c-0.273-0.275-0.426-0.641-0.424-1.025
				c0.004-0.381,0.15-0.734,0.428-1.008l0.432-0.434l0.771-0.77l-0.574-0.932c-0.582-0.951-1.014-1.979-1.271-3.062l-0.254-1.06
				h-1.088h-0.604c-0.791,0-1.438-0.645-1.438-1.438c0-0.777,0.656-1.438,1.438-1.438h0.594h1.092l0.254-1.062
				c0.258-1.08,0.688-2.109,1.264-3.062l0.566-0.928l-0.766-0.77l-0.428-0.428c-0.271-0.271-0.42-0.631-0.418-1.02
				c0-0.387,0.146-0.74,0.418-1.012c0.271-0.27,0.633-0.418,1.018-0.418s0.748,0.148,1.014,0.414l0.412,0.414l0.773,0.777
				l0.932-0.576c0.957-0.59,1.994-1.021,3.082-1.281l1.059-0.256v-1.088v-0.572c0-0.791,0.646-1.436,1.439-1.436
				c0.791,0,1.438,0.645,1.438,1.436v0.572v1.09l1.061,0.254c1.086,0.264,2.121,0.691,3.074,1.279l0.934,0.57l0.771-0.771
				l0.406-0.404c0.271-0.27,0.635-0.422,1.021-0.422c0.385,0,0.744,0.148,1.018,0.418c0.271,0.271,0.418,0.629,0.418,1.021
				c-0.004,0.385-0.148,0.734-0.426,1.012l-0.416,0.416l-0.77,0.77l0.564,0.932c0.586,0.955,1.012,1.988,1.271,3.068l0.254,1.062
				h1.092h0.59c0.777,0,1.436,0.656,1.436,1.438C392.254,369.05,391.611,369.693,390.82,369.693z"/>
			<path d="M384.035,362.746l-0.08-0.061c-1.465-1.428-3.391-2.215-5.43-2.215c-2.033,0-3.957,0.783-5.457,2.24l-0.012,0.01
				l-0.076,0.078c-1.449,1.469-2.246,3.406-2.246,5.457c0,2.049,0.793,3.988,2.25,5.473l0.014,0.018v0.002l0.072,0.07
				c1.43,1.406,3.32,2.199,5.326,2.234h0.035h0.039c0.016-0.002,0.023-0.002,0.045-0.004l0.061,0.004h0.037h0.039
				c1.977-0.035,3.848-0.811,5.271-2.184l0.029-0.031l0.025-0.031c0.012-0.012,0.021-0.021,0.031-0.037l0.051-0.049l0.031-0.023
				l0.025-0.029c1.393-1.443,2.168-3.334,2.189-5.326v-0.008v-0.107c-0.012-2.023-0.797-3.938-2.211-5.391L384.035,362.746z
				 M384.932,368.285c-0.008,1.721-0.695,3.273-1.801,4.424c-0.027,0.025-0.059,0.043-0.086,0.07
				c-0.031,0.027-0.051,0.064-0.078,0.098c-1.129,1.09-2.652,1.77-4.336,1.795c-0.035-0.002-0.07-0.012-0.105-0.012
				s-0.068,0.01-0.104,0.012c-1.701-0.025-3.244-0.723-4.377-1.838c-0.018-0.014-0.021-0.027-0.035-0.043
				c-0.016-0.014-0.029-0.021-0.045-0.037c-1.143-1.158-1.848-2.748-1.848-4.496c0-1.744,0.709-3.328,1.852-4.486
				c0.014-0.011,0.02-0.018,0.031-0.021c0.012-0.014,0.021-0.025,0.027-0.037c1.16-1.145,2.746-1.854,4.498-1.854
				c1.762,0,3.355,0.717,4.516,1.865c0,0.004,0.002,0.008,0.008,0.012c0.008,0.008,0.014,0.01,0.016,0.016
				c1.148,1.15,1.863,2.736,1.873,4.484c0,0.01,0,0.02,0,0.021C384.932,368.267,384.932,368.275,384.932,368.285z"/>
			<path d="M391.443,336.853l0.07,0.07c1.426,1.406,3.312,2.201,5.322,2.236h0.031h0.033c0.021-0.002,0.039-0.006,0.055-0.006h0.008
				l0.072,0.006h0.033h0.039c1.971-0.035,3.84-0.812,5.305-2.232c0.018-0.018,0.031-0.035,0.045-0.053l0.035-0.023l0.076-0.078
				c1.41-1.471,2.189-3.391,2.189-5.41c0-2.045-0.791-3.977-2.23-5.449l-0.006-0.008l-0.08-0.078
				c-1.471-1.455-3.412-2.256-5.473-2.256c-2.041,0-3.969,0.787-5.438,2.223l-0.006,0.004l-0.084,0.084
				c-1.459,1.473-2.262,3.418-2.262,5.48c0,2.031,0.773,3.961,2.244,5.471L391.443,336.853z M392.424,326.855
				c0.008-0.008,0.018-0.012,0.025-0.02c0.006-0.006,0.01-0.016,0.018-0.021c1.16-1.146,2.75-1.859,4.508-1.859
				c1.752,0,3.344,0.711,4.5,1.854c0.008,0.01,0.016,0.02,0.021,0.027c0.008,0.01,0.018,0.016,0.027,0.021
				c1.145,1.156,1.854,2.748,1.854,4.506c0,1.729-0.688,3.295-1.799,4.447c-0.027,0.023-0.061,0.045-0.086,0.068
				c-0.031,0.029-0.053,0.066-0.084,0.102c-1.125,1.092-2.646,1.768-4.32,1.795c-0.041-0.002-0.074-0.014-0.113-0.014
				c-0.041,0-0.072,0.012-0.111,0.014c-1.703-0.029-3.244-0.723-4.377-1.836c-0.02-0.021-0.031-0.049-0.055-0.066
				c-0.014-0.012-0.027-0.021-0.041-0.031c-1.127-1.158-1.828-2.734-1.828-4.479C390.562,329.607,391.277,328.015,392.424,326.855z"
				/>
			<path d="M384.676,334.183h0.605c0.299,1.234,0.787,2.393,1.432,3.447l-0.439,0.443c-1.1,1.092-1.092,2.891,0.016,3.979
				c0.557,0.547,1.273,0.82,1.986,0.82c0.73,0,1.449-0.273,1.996-0.834l0.428-0.428c1.062,0.65,2.223,1.141,3.459,1.439v0.6
				c0,1.541,1.268,2.82,2.816,2.82c1.559,0,2.816-1.252,2.816-2.82v-0.6c1.236-0.299,2.395-0.785,3.449-1.434l0.428,0.434
				c0.555,0.547,1.275,0.822,2,0.822c0.721,0,1.441-0.275,1.988-0.822c1.1-1.094,1.1-2.893,0-3.984l-0.43-0.432
				c0.645-1.059,1.137-2.219,1.438-3.459h0.607c1.557,0,2.818-1.258,2.818-2.818c0-1.539-1.268-2.818-2.818-2.818h-0.6
				c-0.295-1.244-0.785-2.41-1.436-3.473l0.416-0.416c1.1-1.105,1.1-2.908-0.012-3.984c-0.551-0.551-1.271-0.826-1.99-0.826
				c-0.725,0-1.439,0.275-1.992,0.826l-0.398,0.402c-1.062-0.656-2.229-1.148-3.477-1.449v-0.562c0-1.55-1.26-2.813-2.812-2.813
				c-1.559,0-2.816,1.271-2.816,2.813v0.562c-1.248,0.301-2.412,0.793-3.475,1.447l-0.412-0.412c-0.549-0.547-1.271-0.82-1.99-0.82
				c-0.723,0-1.441,0.273-1.992,0.82c-1.104,1.088-1.104,2.885-0.006,3.982l0.422,0.426c-0.646,1.062-1.139,2.23-1.438,3.477h-0.592
				c-1.559,0-2.82,1.279-2.82,2.818C381.855,332.925,383.121,334.183,384.676,334.183z M384.676,329.927h0.592h1.092l0.256-1.061
				c0.258-1.088,0.688-2.121,1.271-3.078l0.562-0.928l-0.768-0.771l-0.426-0.428c-0.271-0.271-0.418-0.634-0.418-1.021
				c0.002-0.384,0.15-0.733,0.422-1.007c0.271-0.27,0.635-0.418,1.021-0.418c0.385,0,0.744,0.148,1.014,0.414l0.412,0.412
				l0.771,0.774l0.932-0.575c0.955-0.586,1.988-1.019,3.07-1.279l1.059-0.254v-1.09v-0.562c0-0.793,0.646-1.437,1.439-1.437
				c0.789,0,1.436,0.644,1.436,1.437v0.562v1.088l1.061,0.256c1.086,0.269,2.119,0.693,3.07,1.281l0.93,0.573l0.771-0.774
				l0.398-0.396c0.27-0.271,0.633-0.424,1.018-0.424c0.387,0,0.744,0.149,1.025,0.438c0.266,0.256,0.41,0.604,0.416,0.979
				c0.004,0.396-0.148,0.764-0.416,1.032l-0.414,0.416l-0.771,0.771l0.564,0.93c0.584,0.959,1.014,1.991,1.271,3.075l0.254,1.062
				h1.088h0.6c0.777,0,1.438,0.658,1.438,1.436c0,0.793-0.646,1.438-1.438,1.438h-0.605h-1.088l-0.258,1.062
				c-0.264,1.08-0.688,2.104-1.271,3.061l-0.568,0.928l0.771,0.771l0.436,0.438c0.27,0.268,0.418,0.627,0.418,1.014
				c0,0.385-0.148,0.742-0.424,1.016c-0.268,0.271-0.629,0.418-1.01,0.418c-0.385,0-0.748-0.148-1.02-0.418l-0.434-0.432
				l-0.771-0.773l-0.934,0.57c-0.945,0.582-1.975,1.008-3.049,1.27l-1.059,0.256v1.088v0.604c0,0.807-0.631,1.438-1.438,1.438
				c-0.777,0-1.439-0.656-1.439-1.438v-0.604v-1.088l-1.059-0.256c-1.078-0.264-2.109-0.688-3.059-1.271l-0.938-0.574l-0.77,0.778
				l-0.432,0.435c-0.27,0.271-0.625,0.42-1.012,0.42c-0.381,0-0.742-0.149-1.016-0.426c-0.271-0.271-0.422-0.629-0.422-1.017
				c0-0.385,0.143-0.739,0.418-1.015l0.438-0.438l0.762-0.771l-0.562-0.926c-0.58-0.945-1.006-1.977-1.27-3.051l-0.258-1.061h-1.086
				h-0.604c-0.793,0-1.439-0.646-1.439-1.438C383.238,330.585,383.896,329.927,384.676,329.927z"/>
		</g>
		<path d="M349.314,293.701c0,1.555-1.26,2.815-2.818,2.815s-2.818-1.263-2.818-2.815c0-1.56,1.26-2.82,2.818-2.82
			S349.314,292.142,349.314,293.701z"/>
		<path d="M360.588,293.701c0,1.555-1.26,2.815-2.816,2.815c-1.559,0-2.818-1.263-2.818-2.815c0-1.56,1.266-2.82,2.818-2.82
			C359.328,290.88,360.588,292.142,360.588,293.701z"/>
		<path d="M371.861,293.701c0,1.555-1.262,2.815-2.816,2.815c-1.561,0-2.82-1.263-2.82-2.815c0-1.56,1.26-2.82,2.82-2.82
			C370.6,290.88,371.861,292.142,371.861,293.701z"/>
		<path d="M464.475,281.63H335.527c-0.879,0-1.592,0.711-1.592,1.59v106.715c0,0.879,0.713,1.59,1.592,1.59h128.945
			c0.879,0,1.592-0.711,1.592-1.59V283.22C466.064,282.341,465.354,281.63,464.475,281.63z M462.885,284.81v19.053H337.117V284.81
			H462.885z M337.117,388.347v-81.305h125.768v81.305H337.117z"/>
	</g>
</g>
<g id="Gráfica_impresa" display="none">
	<g display="inline">
		<rect x="416.906" y="316.562" width="44.553" height="2.604"/>
		<rect x="416.906" y="323.285" width="44.553" height="2.604"/>
		<rect x="416.906" y="330.005" width="44.553" height="2.604"/>
		<rect x="416.906" y="336.726" width="44.553" height="2.602"/>
		<rect x="416.906" y="343.445" width="44.553" height="2.602"/>
		<rect x="416.906" y="350.166" width="44.553" height="2.604"/>
		<rect x="416.906" y="356.886" width="44.553" height="2.602"/>
		<rect x="415.932" y="363.607" width="38.971" height="2.604"/>
		<g>
			<path d="M417.02,311.544h44.439V276.24H417.02V311.544z M419.619,278.843h39.238v30.102h-39.238V278.843z"/>
			<path d="M444.705,241.24h-72.346c-1.354,0-2.656,0.229-3.873,0.645v-0.863h2.119v-4.996h-28.6v4.996h2.115v1.178
				c-2.58,1.483-12.961,8.067-16.367,19.623c-2.238,7.602-0.965,15.727,3.809,24.145c1.18,2.086-2.111,9.436-4.826,13.98l-0.15,0.25
				l0.002,82.719c-0.006,0.117-0.137,2.91,2.129,5.306c2.072,2.196,5.398,3.309,9.879,3.309h35.424
				c4.748,0,8.184-1.153,10.195-3.437c0.924-1.038,1.389-2.145,1.619-3.061h75.508c6.656,0,12.074-5.416,12.074-12.072v-103.02
				L444.705,241.24z M446.992,246.893h0.002l20.838,20.767h-8.072h-1.252h-0.688c-0.191,0-0.373-0.047-0.564-0.057
				c-3.893-0.201-7.215-2.45-8.947-5.703c-0.219-0.406-0.428-0.814-0.586-1.248c-0.156-0.404-0.285-0.824-0.389-1.249
				c-0.203-0.827-0.34-1.676-0.34-2.563L446.992,246.893L446.992,246.893z M444.885,260.112c0.215,0.794,0.627,1.787,0.627,1.787
				c0.596,1.437,1.453,2.722,2.482,3.851h-62.123c-0.186-1.578-0.51-3.133-0.982-4.66c-0.104-0.332-0.215-0.652-0.328-0.978H444.885
				z M372.359,243.74c0,0,69.123,0,70.119,0c1,0,2.02,0.754,2.02,2.02c0,1.269,0,1.73,0,1.73v9.346c0,0.229,0.023,0.451,0.035,0.68
				h-61.055c-3.232-6.797-8.762-11.325-12.295-13.691C371.568,243.769,371.961,243.74,372.359,243.74z M328.703,300.779
				c1.465-2.492,6.828-12.098,4.701-15.857c-4.471-7.896-5.688-15.467-3.621-22.486c3.559-12.087,15.77-18.614,15.893-18.682
				l0.566-0.297v-4.558h-2.115v-0.761h24.361v0.761h-2.119v4.577l0.594,0.291c0.123,0.059,12.23,6.123,15.908,17.968
				c2.215,7.118,0.982,14.919-3.662,23.187c-2.338,4.162,2.758,13.619,4.691,16.199l0.002,7.133h-55.199V300.779L328.703,300.779z
				 M328.703,310.373H383.9v3.312h-55.197V310.373z M328.703,315.804h55.199l0.012,50.715h-55.211V315.804z M328.703,368.638h55.211
				l0.002,2.727h-55.213V368.638z M382.631,386.687c-1.574,1.779-4.555,2.719-8.611,2.719h-35.424c-3.852,0-6.646-0.877-8.311-2.611
				c-1.648-1.719-1.588-3.686-1.584-3.818v-9.49h55.213l0.006,9.619C383.92,383.121,384.105,385.023,382.631,386.687z
				 M385.768,300.074c-2.082-2.459-6.291-11.308-4.715-14.113c1.352-2.403,2.42-4.776,3.225-7.117h23.305v85.721h-21.557
				l-0.008-64.189L385.768,300.074z M470.916,372.957c0,5.277-4.295,9.57-9.572,9.57h-75.316l-0.002-15.363h24.156V276.24h-25.105
				c0.695-2.685,1.021-5.316,0.979-7.89h65.188c1.793,1.021,3.83,1.659,6.021,1.755l2.5,0.055h7.406c0,0,1.779,0,2.355,0
				c0.67,0,1.395,0.447,1.395,1.549C470.916,272.23,470.916,372.957,470.916,372.957z"/>
			<g>
				<path d="M367.557,224.078v8.016h-22.502v-8.016H367.557 M368.037,222.078h-23.463c-0.84,0-1.52,0.877-1.52,1.967v8.082
					c0,1.092,0.676,1.967,1.52,1.967h23.463c0.84,0,1.52-0.877,1.52-1.967v-8.082C369.557,222.955,368.881,222.078,368.037,222.078
					L368.037,222.078z"/>
			</g>
		</g>
		<path d="M370.637,333.361c-1.986,0-3.789,0.688-5.209,1.48c-0.115-0.467-0.275-0.916-0.459-1.354
			c2.525-0.729,4.393-3.03,4.393-5.786h-2.117c0,1.983-1.486,3.618-3.41,3.877c-1.656-2.188-4.268-3.613-7.205-3.613
			c-2.932,0-5.533,1.441-7.199,3.634c-1.996-0.185-3.574-1.853-3.574-3.896h-2.119c0,2.812,1.938,5.157,4.539,5.834
			c-0.205,0.479-0.371,0.983-0.49,1.504c-1.5-0.899-3.416-1.681-5.559-1.681c-4.492,0-8.035,3.519-8.189,3.664l-0.738,0.748
			l0.738,0.75c0.146,0.146,3.689,3.666,8.189,3.666c2.271,0,4.301-0.883,5.852-1.86c0.889,3.793,3.113,13.252,3.645,15.498
			l0.191,0.813h9.021l0.207-0.783c0.354-1.353,2.992-11.34,3.979-15.135c1.252,0.68,3.201,1.461,5.523,1.461
			c4.488,0,8.033-3.521,8.182-3.668l0.742-0.746l-0.742-0.746C378.672,336.878,375.129,333.361,370.637,333.361z M342.221,340.072
			c-2.451,0-4.646-1.398-5.812-2.301c1.158-0.898,3.352-2.295,5.812-2.295c2.457,0,4.652,1.41,5.744,2.254l0.061,0.043
			C346.889,338.658,344.688,340.072,342.221,340.072z M363.414,338.83c-0.1,0.445-2.443,9.346-4.119,15.695h-5.713
			c-1.188-5.045-3.711-15.773-3.795-16.17l-0.131-0.717l0.012-0.729c0.076-3.77,3.197-6.828,6.961-6.828
			c3.691,0,6.744,2.889,6.943,6.58l0.062,1.178L363.414,338.83z M370.637,340.072c-2.816,0-4.971-1.43-5.562-1.863l-0.426-0.312
			l0.598-0.428c1.266-0.904,3.225-1.984,5.393-1.984c2.451,0,4.645,1.396,5.811,2.301
			C375.291,338.675,373.104,340.072,370.637,340.072z"/>
	</g>
</g>
<g id="ilustracion" display="none">
	<path display="inline" d="M452.213,367.56l-0.738-2.574c-0.059-0.211-0.17-0.402-0.318-0.557l-41.229-42.117l31.09-31.09
		c0.053-0.051,0.074-0.115,0.115-0.172c0.039-0.057,0.094-0.096,0.123-0.158l6.523-12.777c0.043-0.074,0.088-0.145,0.111-0.225
		l4.066-7.957l-20.961,10.703c-0.062,0.033-0.104,0.086-0.156,0.125c-0.057,0.039-0.123,0.064-0.174,0.117l-21.596,21.596
		c0.029-2.271,0.059-4.568,0.082-6.916l-0.914-15.484c2.742-5.203,1.844-8.443,1.812-8.549c-3.42-13.441,5.721-17.566,6.104-17.732
		l3.674-1.553l-3.881-0.918c-2.896-0.689-5.082-0.697-6.727-0.391l0.709-1.291l-3.051,0.916
		c-7.336,2.201-12.266,6.057-14.652,11.463c-3.113,7.045-1.012,14.658,0.223,18.002l-0.918,15.627
		c0.006,0.674,0.016,1.326,0.021,1.992c-5.17-4.775-12.992-11.967-13.869-12.568c-0.617-0.422-1.32-0.547-1.977-0.354
		c-0.693,0.205-1.174,0.717-1.477,1.15l-5.959-6.086c-0.342-0.451-1.904-2.365-4.859-4.021c-0.578-0.402-5.01-3.457-9.006-5.252
		c-0.463-0.207-1-0.129-1.387,0.199l-1.348,1.158l-1.719-1.717c-0.51-0.51-1.334-0.51-1.846,0c-0.51,0.512-0.51,1.338,0,1.848
		l1.742,1.742l-0.889,1.02c-0.328,0.386-0.41,0.927-0.201,1.392c1.795,3.996,4.848,8.431,5.252,9.009
		c1.648,2.955,3.564,4.521,4.02,4.858l32.074,31.401l-35.932,35.937l-5.385,5.382c-0.98,0.979-1.018,2.521-0.086,3.459l6.975,6.973
		c0.932,0.931,2.479,0.894,3.459-0.086l5.383-5.381l28.07-28.072c1.402,32.867,4.018,51.287,7.529,51.861l0.213,0.032l0.209-0.032
		c3.531-0.576,6.152-19.205,7.557-52.453l34.58,33.854c0.152,0.149,0.346,0.267,0.555,0.319l2.578,0.736
		c0.439,0.129,0.92,0.014,1.256-0.302l2.455-2.325c0.008-0.009,0.016-0.021,0.023-0.025c0.012-0.01,0.02-0.018,0.023-0.022
		l2.324-2.457C452.223,368.482,452.34,368.003,452.213,367.56z M408.74,319.802c0.041-1.637,0.08-3.301,0.115-4.99l26.949-26.949
		l2.438,2.436L408.74,319.802z M444.182,276.833l0.875,0.875l-5.312,10.396l-5.963-5.963L444.182,276.833z M431.59,283.644
		l2.373,2.373l-25.031,25.029c0.031-1.59,0.061-3.195,0.084-4.83L431.59,283.644z M394.617,263.074
		c1.727-3.908,5.066-6.904,9.957-8.935c-0.006,0.034,0.002,0.069-0.002,0.106c-0.002,0.049-0.002,0.094-0.002,0.144
		c0.004,0.123,0.023,0.243,0.062,0.36c0.006,0.019,0.008,0.037,0.018,0.056c0.105,0.28,0.297,0.532,0.582,0.69
		c0.637,0.348,1.426,0.112,1.771-0.521l0.047-0.084c0.082-0.146,1.133-1.783,5.121-1.533c-3.141,2.697-7.291,8.431-4.646,18.836
		c0.008,0.029,0.699,2.897-2.18,7.69h-10.148C394.254,277.539,391.623,269.851,394.617,263.074z M406.4,293.153h-12.111
		l0.631-10.651h10.848L406.4,293.153z M376.271,287.554c0.025-0.062,0.066-0.131,0.107-0.197c1.438,1.182,9.229,8.34,15.215,13.877
		c0.016,0.809,0.021,1.598,0.037,2.398l-15.521-15.852C376.166,287.707,376.234,287.642,376.271,287.554z M351.5,275.835
		l1.266-1.455l1.324-1.141c2.482,1.195,5.086,2.836,6.594,3.824l-5.354,5.354C354.334,280.919,352.701,278.319,351.5,275.835z
		 M358.008,286.353c-0.393-0.459-0.812-1.025-1.234-1.686l6.154-6.152c0.66,0.422,1.227,0.842,1.684,1.232L358.008,286.353z
		 M366.43,281.619l25.26,25.803c0.07,4.189,0.154,8.23,0.25,12.135l-32.061-31.387L366.43,281.619z M391.984,323.251l0.053,0.051
		c0.041,1.525,0.086,3.027,0.131,4.506l-28.697,28.699l-2.373-2.373L391.984,323.251z M357.377,371.166l-6.654-6.656l4.385-4.383
		l6.654,6.652L357.377,371.166z M363.607,364.935l-6.656-6.654l2.303-2.299l6.652,6.654L363.607,364.935z M367.752,360.791
		l-2.438-2.438l26.967-26.971c0.057,1.604,0.113,3.162,0.174,4.703L367.752,360.791z M400.365,387.701
		c-0.547-1.496-1.318-4.385-2.131-9.908c-1.602-10.863-3.607-33.93-4.094-82.026h12.4
		C405.84,365.378,402.039,383.203,400.365,387.701z M442.375,368.933l-34.123-33.41c0.133-3.455,0.25-7.072,0.355-10.82
		l38.586,39.412L442.375,368.933z M447.715,369.455l-1.891,1.785l-1.545-0.443l-0.041-0.037l4.779-4.779l0.039,0.041l0.438,1.543
		L447.715,369.455z"/>
</g>
<g id="Layer_6" display="none">
	<g display="inline">
		<g>
			<path fill="#231F20" d="M371.947,327.263c-3.244-2.672-6.262-5.146-8.393-7.668c1.49,0.195,2.979,0.311,4.455,0.311
				c1.02,0,1.949-0.066,2.807-0.164c1.375,3.41,4.965,4.703,8.146,4.703c6.65,0,13.533-5.57,13.533-14.896
				c0-4.129-1.57-7.883-4.439-10.604c-3.273-3.113-8.16-4.77-14.092-4.77c-0.035,0-0.197,0-0.48,0
				c-17.748,0.195-23.502,13.045-23.502,19.307c0,0.016,0,0.033,0,0.064c-0.457-0.146-0.918-0.295-1.377-0.441
				c-7.914-2.541-16.125-5.18-25.307-5.18c-8.422,0-15.271,2.262-19.828,6.557c-3.914,3.686-6.08,8.832-6.08,14.471
				c0,9.586,6.59,19.945,17.211,19.945c7.109,0,10.291-4.574,10.402-4.77c0.396-0.59,0.246-1.377-0.342-1.771
				c-0.574-0.396-1.379-0.244-1.771,0.322c-0.115,0.146-2.604,3.652-8.311,3.652c-7.047,0-14.65-6.65-14.65-17.387
				c0-4.934,1.868-9.408,5.276-12.604c4.081-3.834,10.323-5.85,18.075-5.85c8.785,0,16.783,2.57,24.52,5.047
				c0.787,0.262,1.557,0.489,2.328,0.754c1.082,9.178,7.404,15.617,13.52,21.863c6.229,6.354,12.109,12.354,12.109,20.797
				c0,5.637-1.375,9.914-3.572,13.078c0.346-2.215,0.561-4.523,0.561-6.867c0-8.883-5.246-18.16-13.045-23.092
				c-6.408-4.064-13.457-4.643-19.811-1.623c-8.133,3.836-12.16,12.719-10.062,22.092c2.029,8.998,10.373,19.537,27.221,19.537
				v0.082c0.051,0,0.184,0,0.377,0c1.23,0,5.133-0.082,9.852-1.084c-1.721,5.064-3.59,8.475-3.621,8.541
				c-0.346,0.623-0.115,1.393,0.49,1.734c0.195,0.107,0.41,0.164,0.607,0.164c0.457,0,0.881-0.229,1.127-0.656
				c0.166-0.295,2.443-4.456,4.328-10.486c4.652-1.295,9.701-3.523,13.604-7.345c4.393-4.294,6.621-9.935,6.621-16.731
				C390.467,342.472,380.635,334.394,371.947,327.263z M372.783,316.498c0-3.08,2.08-6.541,4.852-6.541
				c0.723,0,0.736,1.166,0.736,1.297c0,1.295-0.803,2.721-2.131,3.785c-0.736,0.59-1.834,1.246-3.439,1.705
				C372.783,316.66,372.783,316.578,372.783,316.498z M373.85,296.731c0.018,0,0.033,0,0.049,0c5.293,0,9.588,1.408,12.395,4.063
				c2.355,2.229,3.65,5.326,3.65,8.752c0,7.721-5.566,12.342-10.965,12.342c-3.229,0-4.801-1.277-5.52-2.654
				c2.049-0.572,3.459-1.428,4.404-2.182c1.938-1.557,3.102-3.721,3.102-5.783c0-2.229-1.377-3.869-3.295-3.869
				c-2.062,0-3.998,1.064-5.426,3.018c-1.262,1.703-1.98,3.934-1.98,6.08c0,0.262,0.018,0.49,0.033,0.738
				c-0.689,0.08-1.428,0.111-2.244,0.111c-2.131,0-4.295-0.246-6.508-0.672c-0.734-1.377-1.164-2.787-1.164-4.275
				c0-5.293,1.406-9.359,4.191-12.046c3.297-3.196,7.654-3.573,8.916-3.623C373.699,296.731,373.832,296.731,373.85,296.731z
				 M332.338,361.976c-1.869-8.309,1.521-15.85,8.65-19.225c2.328-1.1,4.77-1.641,7.23-1.641c3.389,0,6.85,1.049,10.127,3.109
				c7.078,4.488,11.848,12.896,11.848,20.934c0,3.621-0.539,7.191-1.311,10.438c-3.477,2.771-7.783,3.937-11.803,3.937
				C341.727,379.529,334.154,370.072,332.338,361.976z"/>
		</g>
		<g>
			<path stroke="#000000" stroke-width="0.3851" stroke-miterlimit="10" d="M459.727,353.927"/>
			<path fill="none" d="M444.863,316.853v1.369h-5.086v-2.082h-15.004v2.082h-2.078v15.373h2.078v2.141h15.004v-2.141h5.086v1.414
				c1.143-0.385,2.111-0.916,2.891-1.605c1.482-1.32,2.336-3.408,2.549-6.199h-1.973v-5.084h1.588
				c-0.424-1.561-1.139-2.803-2.16-3.695C446.98,317.751,446.01,317.228,444.863,316.853z"/>
			<path d="M459.91,344.666c1.244,1.082,2.271,2.379,3.059,3.854c0.793,1.479,1.377,3.145,1.744,4.93
				c0.363,1.807,0.623,3.639,0.752,5.443c0.07,1.158,0.141,2.52,0.207,4.079c0.062,1.563,0.188,3.19,0.357,4.825
				c0.17,1.646,0.451,3.232,0.828,4.711c0.094,0.371,0.207,0.725,0.322,1.068h0.986c-0.152-0.412-0.299-0.842-0.414-1.299
				c-0.367-1.436-0.641-2.975-0.809-4.576c-0.168-1.617-0.289-3.225-0.354-4.773c-0.066-1.562-0.139-2.93-0.207-4.096
				c-0.139-1.854-0.396-3.729-0.771-5.57c-0.381-1.877-1-3.617-1.834-5.18c-0.838-1.572-1.936-2.955-3.27-4.113
				c-0.768-0.664-1.662-1.227-2.664-1.699v1.021C458.619,343.685,459.309,344.142,459.91,344.666z"/>
			<path d="M454.17,305.235c1.895,0.765,3.6,1.749,5.096,2.933v-0.445h0.898c-1.645-1.355-3.531-2.487-5.65-3.346
				c-1.285-0.519-2.656-0.903-4.105-1.176v0.94C451.729,304.399,452.986,304.761,454.17,305.235z"/>
			<path d="M463.74,334.232c-1.314,2.287-3.291,4.18-5.893,5.65v1.053c2.969-1.588,5.219-3.678,6.688-6.24
				c1.271-2.201,2.098-4.719,2.494-7.49h-0.936C465.717,329.81,464.934,332.167,463.74,334.232z"/>
			<rect x="408.748" y="302.763" width="36.576" height="0.922"/>
			<rect x="405.744" y="305.765" width="0.926" height="67.811"/>
			<path d="M451.791,367.818c-0.203-3.182-0.516-6.283-0.92-9.227c-0.229-1.59-0.572-3.004-1.02-4.262h-0.98
				c0.479,1.266,0.844,2.725,1.084,4.391c0.406,2.916,0.711,5.996,0.914,9.154c0.131,2.074,0.412,3.979,0.832,5.699h0.961
				C452.227,371.849,451.928,369.931,451.791,367.818z"/>
			<rect x="421.771" y="350.175" width="0.924" height="23.4"/>
			<path d="M446.426,349.248c-1.875-1.375-4.613-2.078-8.16-2.078h-13.488v0.928h13.484c3.014,0,5.371,0.521,7.062,1.54v-0.39
				H446.426L446.426,349.248z"/>
			<rect x="408.748" y="375.656" width="10.941" height="0.924"/>
			<rect x="455.49" y="375.656" width="10.959" height="0.924"/>
			<path d="M447.758,318.425c1.021,0.893,1.736,2.135,2.158,3.695h0.967c-0.457-1.857-1.295-3.33-2.516-4.396
				c-0.938-0.812-2.113-1.434-3.504-1.854v0.979C446.01,317.228,446.98,317.751,447.758,318.425z"/>
			<rect x="424.773" y="335.736" width="15.004" height="0.924"/>
			<rect x="424.773" y="315.216" width="15.004" height="0.924"/>
			<rect x="421.771" y="318.222" width="0.924" height="15.373"/>
			<path d="M447.754,333.404c-0.771,0.688-1.748,1.221-2.891,1.604v0.98c1.396-0.432,2.564-1.061,3.508-1.895
				c1.682-1.498,2.643-3.811,2.861-6.891h-0.932C450.09,329.996,449.236,332.083,447.754,333.404z"/>
			<rect x="404.588" y="301.606" width="3.232" height="3.233"/>
			<rect x="446.248" y="301.606" width="3.234" height="3.233"/>
			<rect x="420.613" y="314.062" width="3.234" height="3.236"/>
			<rect x="420.613" y="334.521" width="3.234" height="3.234"/>
			<rect x="420.613" y="346.017" width="3.234" height="3.23"/>
			<rect x="446.248" y="350.175" width="3.234" height="3.229"/>
			<rect x="420.613" y="374.5" width="3.234" height="3.236"/>
			<rect x="404.588" y="374.5" width="3.232" height="3.236"/>
			<rect x="451.332" y="374.5" width="3.234" height="3.236"/>
			<rect x="467.373" y="374.5" width="3.232" height="3.236"/>
			<rect x="453.693" y="340.199" width="3.23" height="3.23"/>
			<rect x="449.256" y="323.044" width="3.229" height="3.234"/>
			<rect x="440.705" y="314.062" width="3.23" height="3.236"/>
			<rect x="440.705" y="334.521" width="3.23" height="3.234"/>
			<rect x="460.188" y="308.646" width="3.236" height="3.232"/>
			<path d="M468.531,326.281v-3.236h-1.238v-18.537c0.67-0.194,1.162-0.811,1.162-1.553c0-0.896-0.729-1.625-1.629-1.625
				c-0.896,0-1.623,0.729-1.623,1.625c0,0.737,0.49,1.354,1.164,1.553v12.445c-0.168-0.543-0.359-1.076-0.572-1.604
				c-0.402-0.98-0.898-1.906-1.445-2.801v0.252h-0.924c0.584,0.92,1.102,1.881,1.516,2.9c0.812,2,1.283,4.152,1.406,6.418h0.02
				v0.926h-1.068v3.232h1.068v18.434c-0.674,0.201-1.164,0.814-1.164,1.555c0,0.896,0.73,1.623,1.623,1.623
				c0.898,0,1.629-0.727,1.629-1.623c0-0.736-0.49-1.354-1.164-1.555v-18.43H468.531L468.531,326.281z"/>
		</g>
	</g>
</g>
<g>
	<path fill="#FF3333" d="M-228.027,152.078c-3.751,0-5.713-6.336-5.713-12.596s1.962-12.594,5.713-12.594
		c3.727,0,5.675,6.334,5.675,12.594S-224.301,152.078-228.027,152.078z M-228.027,129.587c-1.062,0-3.014,3.758-3.014,9.895
		c0,6.14,1.951,9.896,3.014,9.896c1.048,0,2.977-3.758,2.977-9.896C-225.051,133.345-226.979,129.587-228.027,129.587z"/>
	<path fill="#FF3333" d="M-189.411,78.307c-0.293,0-0.588-0.095-0.836-0.291c-10.713-8.461-22.015-13.198-33.59-14.079
		c-0.743-0.057-1.3-0.705-1.243-1.449c0.057-0.744,0.688-1.298,1.448-1.244c12.12,0.922,23.916,5.852,35.06,14.652
		c0.584,0.462,0.684,1.311,0.223,1.896C-188.617,78.129-189.012,78.307-189.411,78.307z"/>
	<path fill="#FF3333" d="M-263.609,76.264c-0.382,0-0.761-0.161-1.027-0.473c-0.484-0.567-0.417-1.419,0.149-1.903
		c0.543-0.464,13.527-11.382,32.97-12.68c0.734-0.058,1.388,0.513,1.437,1.257c0.05,0.744-0.513,1.387-1.257,1.437
		c-18.558,1.238-31.27,11.931-31.396,12.039C-262.987,76.158-263.3,76.264-263.609,76.264z"/>
	<path fill="#FF3333" d="M-178.141,120.55c-0.641,0-1.209-0.459-1.326-1.109c-3.279-18.086-14.549-28.719-20.975-33.448
		c-0.601-0.442-0.729-1.287-0.287-1.888c0.442-0.601,1.289-0.728,1.888-0.287c6.749,4.967,18.585,16.137,22.03,35.141
		c0.133,0.734-0.354,1.438-1.088,1.568C-177.98,120.542-178.061,120.55-178.141,120.55z"/>
	<path fill="#FF3333" d="M-277.114,120.558c-0.126,0-0.253-0.018-0.379-0.055c-0.716-0.209-1.127-0.959-0.918-1.674
		c0.358-1.227,9.031-30.145,32.047-40.808c12.075-5.594,25.834-5.031,40.894,1.675c0.682,0.304,0.987,1.102,0.685,1.783
		c-0.304,0.682-1.104,0.986-1.781,0.684c-14.314-6.375-27.322-6.947-38.662-1.692c-21.914,10.152-30.506,38.827-30.59,39.114
		C-275.991,120.177-276.53,120.558-277.114,120.558z"/>
	<path fill="#FF3333" d="M-229.231,195.244c-0.727,0-1.326-0.577-1.349-1.309c-0.022-0.746,0.563-1.369,1.309-1.392
		c14.212-0.431,23.852-10.341,23.947-10.44c9.492-10.896,14.584-23.848,15.094-38.451c0.027-0.746,0.629-1.309,1.396-1.303
		c0.745,0.025,1.328,0.65,1.303,1.396c-0.531,15.239-5.848,28.758-15.8,40.179c-0.464,0.486-10.553,10.854-25.858,11.319
		C-229.203,195.244-229.218,195.244-229.231,195.244z"/>
	<path fill="#FF3333" d="M-265.07,158.9c-0.623,0-1.183-0.432-1.318-1.065c-5.086-23.582-0.56-43.967,13.088-58.949
		c5.453-6.032,18.681-14.167,32.76-11.849c14.613,2.408,22.958,15.109,27.386,25.341c3.131,8.153,4.745,14.966,5.418,22.827
		c0.063,0.743-0.486,1.396-1.229,1.46c-0.732,0.075-1.396-0.485-1.46-1.229c-0.65-7.596-2.214-14.187-5.229-22.037
		c-6.029-13.932-14.557-21.922-25.324-23.696c-12.923-2.13-25.454,5.616-30.32,10.999c-13.038,14.312-17.342,33.872-12.448,56.566
		c0.157,0.729-0.306,1.445-1.035,1.604C-264.881,158.892-264.977,158.9-265.07,158.9z"/>
	<path fill="#FF3333" d="M-255.63,187.206c-0.488,0-0.96-0.267-1.2-0.729c-0.18-0.349-4.449-8.666-7.741-20.858
		c-0.194-0.72,0.232-1.461,0.952-1.655c0.72-0.189,1.461,0.232,1.655,0.952c3.217,11.915,7.489,20.237,7.532,20.321
		c0.343,0.662,0.083,1.477-0.579,1.818C-255.209,187.157-255.421,187.206-255.63,187.206z"/>
	<path fill="#FF3333" d="M-235.046,180.962c-0.717,0-1.314-0.562-1.348-1.287c-0.034-0.744,0.542-1.377,1.286-1.41
		c23.127-1.063,32.598-18.787,33.75-35.018c1.562-22.038-9.617-37.508-21.328-39.732c-0.732-0.139-1.215-0.846-1.074-1.578
		c0.139-0.733,0.85-1.215,1.578-1.074c7.438,1.413,13.932,6.854,18.281,15.321c4.004,7.795,5.912,17.729,5.235,27.254
		c-1.233,17.39-11.424,36.377-36.318,37.522C-235.004,180.962-235.025,180.962-235.046,180.962z"/>
	<path fill="#FF3333" d="M-242.265,197.732c-0.59,0-1.132-0.389-1.299-0.985c-1.982-7.067-4.65-16.505-6.103-21.323
		c-5.73-19.029-10.577-45.053-1.124-60.97c4.131-6.956,10.653-11.41,19.385-13.238c0.729-0.155,1.445,0.315,1.598,1.045
		c0.153,0.729-0.314,1.445-1.045,1.598c-7.96,1.666-13.887,5.695-17.616,11.974c-8.952,15.074-4.187,40.302,1.389,58.812
		c1.458,4.84,4.131,14.295,6.116,21.375c0.201,0.719-0.218,1.463-0.936,1.664C-242.021,197.716-242.144,197.732-242.265,197.732z"/>
	<path fill="#FF3333" d="M-228.078,163.714c-7.202,0-15.226-10.047-15.226-24.465s8.023-24.465,15.226-24.465
		c7.186,0,15.191,10.047,15.191,24.465S-220.893,163.714-228.078,163.714z M-228.078,117.484c-5.793,0-12.526,9.508-12.526,21.766
		c0,10.064,5.472,21.766,12.526,21.766c5.776,0,12.492-9.508,12.492-21.766S-222.302,117.484-228.078,117.484z"/>
</g>
<g>
	<path fill="none" stroke="#FF3333" stroke-width="3" stroke-linecap="round" stroke-linejoin="round" stroke-miterlimit="10" d="
		M128.926,146.304c0,6.218-1.938,11.246-4.327,11.246c-2.409,0-4.362-5.028-4.362-11.246c0-6.203,1.953-11.244,4.362-11.244
		C126.987,135.06,128.926,140.101,128.926,146.304z"/>
	<path fill="none" stroke="#FF3333" stroke-width="3" stroke-linecap="round" stroke-linejoin="round" stroke-miterlimit="10" d="
		M128.893,69.413c10.369,0.789,22.092,4.705,34.324,14.366"/>
	<path fill="none" stroke="#FF3333" stroke-width="3" stroke-linecap="round" stroke-linejoin="round" stroke-miterlimit="10" d="
		M89.017,81.736c0,0,12.964-11.077,32.182-12.359"/>
	<path fill="none" stroke="#FF3333" stroke-width="3" stroke-linecap="round" stroke-linejoin="round" stroke-miterlimit="10" d="
		M152.986,91.727c7.158,5.268,18.202,16.093,21.502,34.295"/>
	<path fill="none" stroke="#FF3333" stroke-width="3" stroke-linecap="round" stroke-linejoin="round" stroke-miterlimit="10" d="
		M75.512,126.031c0,0,18.072-61.893,71.096-38.277"/>
	<path fill="none" stroke="#FF3333" stroke-width="3" stroke-linecap="round" stroke-linejoin="round" stroke-miterlimit="10" d="
		M163.746,150.522c-0.425,12.167-4.128,26.323-15.468,39.337c0,0-9.952,10.405-24.883,10.858"/>
	<path fill="none" stroke="#FF3333" stroke-width="3" stroke-linecap="round" stroke-linejoin="round" stroke-miterlimit="10" d="
		M87.558,164.373c-5.295-24.558,0.202-43.963,12.766-57.756c9.751-10.785,41.384-25.068,57.908,13.119
		c2.618,6.819,4.561,13.609,5.313,22.406"/>
	<path fill="none" stroke="#FF3333" stroke-width="3" stroke-linecap="round" stroke-linejoin="round" stroke-miterlimit="10" d="
		M96.996,192.677c0,0-4.344-8.396-7.637-20.59"/>
	<path fill="none" stroke="#FF3333" stroke-width="3" stroke-linecap="round" stroke-linejoin="round" stroke-miterlimit="10" d="
		M130.193,109.012c29.363,5.576,34.82,75.241-12.611,77.423"/>
	<path fill="none" stroke="#FF3333" stroke-width="3" stroke-linecap="round" stroke-linejoin="round" stroke-miterlimit="10" d="
		M110.363,203.205c-2.276-8.117-4.748-16.831-6.109-21.349c-8.083-26.842-13.905-65.975,17.243-72.496"/>
	<path fill="none" stroke="#FF3333" stroke-width="3" stroke-linecap="round" stroke-linejoin="round" stroke-miterlimit="10" d="
		M124.549,122.957c-6.574,0-13.876,9.892-13.876,23.115c0,13.238,7.302,23.115,13.876,23.115c6.506,0,13.842-9.877,13.842-23.115
		C138.391,132.844,131.055,122.957,124.549,122.957z"/>
</g>
</svg>
