<?xml version="1.0" encoding="utf-8"?>
<!-- Generator: Adobe Illustrator 16.0.0, SVG Export Plug-In . SVG Version: 6.00 Build 0)  -->
<!DOCTYPE svg PUBLIC "-//W3C//DTD SVG 1.1//EN" "http://www.w3.org/Graphics/SVG/1.1/DTD/svg11.dtd">
<svg version="1.1" id="Layer_1" xmlns="http://www.w3.org/2000/svg" xmlns:xlink="http://www.w3.org/1999/xlink" x="0px" y="0px"
	 width="250px" height="231.167px" viewBox="0 0 250 231.167" enable-background="new 0 0 250 231.167" xml:space="preserve">
<g id="Diseño_de_web" display="none">
	<g display="inline">
		<path d="M398.424,379.046h92.285c0.779,0,1.301-0.521,1.301-1.299v-58.492c0-0.779-0.521-1.299-1.301-1.299h-92.285
			c-0.779,0-1.299,0.52-1.299,1.299v58.492C397.125,378.527,397.645,379.046,398.424,379.046z M399.723,320.556h89.688v55.891
			h-89.688V320.556L399.723,320.556z"/>
		<path d="M510.727,382.425h-12.479v-67.85c0-2.341-2.078-4.418-4.42-4.418H466.24c0.008-0.066,0.033-0.121,0.033-0.193v-42.961
			c0-2.604-2.08-4.678-4.683-4.678H318.098c-2.602,0-4.682,2.074-4.682,4.678v56.412h-22.875c-2.081,0-3.9,1.817-3.9,3.896v60.051
			c0,2.08,1.819,3.897,3.9,3.897h34.834c0.195,0,0.371-0.03,0.529-0.094c0.479,0.224,1.006,0.354,1.549,0.354h14.299
			c2.078,0,3.9-1.819,3.9-3.899v-4.938v-15.461c0.17,0.072,0.356,0.121,0.573,0.121h26.722l-1.56,15.076l-6.5,4.684
			c-0.262,0.262-0.521,0.521-0.521,1.039c0,0.262,0,1.301,0.779,2.078c0.262,0.521,1.038,0.779,2.34,0.779h18.506
			c0.908,0.166,1.512,0.262,1.512,0.262h113.861c0,0,11.959-1.816,11.959-4.42v-1.562
			C513.586,383.726,512.287,382.425,510.727,382.425z M495.391,314.576v67.85h-36.916c-0.26,0-0.778,0.265-1.039,0.521
			c-0.26,0.26-0.26,0.52-0.26,0.779c0,0,0,0.262-0.262,0.262h-24.695c0,0-0.262,0-0.262-0.262s0-0.779-0.26-1.039
			c-0.261-0.262-0.521-0.521-1.039-0.521h-37.174v-67.59c0-1.039,0.78-1.818,1.817-1.818h98.267
			C494.609,312.757,495.391,313.537,495.391,314.576z M345.348,351.298c-0.562-1.289-1.86-2.146-3.596-2.146h-6.238v-3.898h55.373
			v5.979h-45.158C345.588,351.232,345.469,351.267,345.348,351.298z M390.887,314.576v28.076h-55.373v-15.338
			c0-2.078-1.817-3.898-3.899-3.898h-7.019v-49.912h130.76v36.654h-60.051C392.965,310.158,390.887,312.238,390.887,314.576z
			 M316.016,267.003c0-1.039,1.041-2.08,2.082-2.08h143.496c1.039,0,2.08,1.041,2.08,2.08v42.961c0,0.072,0.025,0.127,0.033,0.193
			h-6.047c0.01-0.066,0.033-0.121,0.033-0.193v-37.762c0-0.779-0.521-1.303-1.3-1.303H323.293c-0.777,0-1.301,0.521-1.301,1.303
			v51.213h-5.979v-56.412H316.016L316.016,267.003z M289.24,387.365v-60.051c0-0.779,0.52-1.299,1.301-1.299h41.072
			c0.778,0,1.301,0.52,1.301,1.299v21.836h-1.82v-18.195c0-0.779-0.52-1.301-1.299-1.301h-37.436c-0.779,0-1.299,0.521-1.299,1.301
			v51.471c0,0.781,0.52,1.304,1.299,1.304h31.194v3.896c0,0.359,0.066,0.705,0.172,1.041H290.54
			C289.76,388.666,289.24,388.146,289.24,387.365z M323.557,353.05v3.641v24.438H293.66v-48.873h34.834v16.896h-1.041
			C325.377,349.15,323.557,350.97,323.557,353.05z M341.752,388.666h-14.299c-0.777,0-1.299-0.521-1.299-1.301v-3.641h16.639v3.641
			C343.053,388.146,342.533,388.666,341.752,388.666z M343.053,381.126h-16.639V357.73h16.639V381.126z M343.312,355.39h-16.64v-2.6
			c0-0.566,0.26-1.041,1.039-1.041h14.297c0.777,0,1.304,0.52,1.304,1.301V355.39z M346.227,364.75
			c-0.215,0-0.401,0.047-0.573,0.121v-8.18v-2.873c0.026,0,0.049,0.014,0.075,0.014h45.158v10.935
			c-0.031-0.002-0.057-0.017-0.086-0.017H346.227L346.227,364.75z M367.748,388.666l5.979-4.42c0.263-0.26,0.521-0.521,0.521-1.039
			l1.562-15.856h14.99c0.027,0,0.056-0.015,0.086-0.017v15.092h-12.479c-1.56,0-2.857,1.304-2.857,2.859v1.562
			c0,0.662,0.783,1.273,1.943,1.818H367.748L367.748,388.666z M511.246,386.326h-0.26c-1.82,0.779-8.318,2.34-9.357,2.34H388.023
			c-1.039,0-7.537-1.561-9.617-2.34v-1.041c0,0,0-0.26,0.262-0.26h51.211c0.521,1.041,1.562,1.561,2.6,1.561h24.697
			c1.039,0,2.08-0.778,2.603-1.561h51.211c0,0,0.26,0,0.26,0.26L511.246,386.326L511.246,386.326z"/>
		<circle cx="311.076" cy="327.834" r="0.78"/>
		<circle cx="311.076" cy="386.325" r="1.56"/>
		<circle cx="334.734" cy="386.325" r="1.56"/>
	</g>
</g>
<g id="Gráfica_digital" display="none">
	<g display="inline">
		<g>
			<path d="M415.418,349.712c-6.832,0-12.391,5.562-12.391,12.397c0,3.271,1.266,6.359,3.567,8.703l0.011,0.011l0.069,0.065
				c2.342,2.336,5.445,3.621,8.738,3.621c3.264,0,6.348-1.267,8.684-3.562l0.021-0.023l0.024-0.022
				c0.007-0.006,0.011-0.014,0.019-0.021l0.021-0.016l0.072-0.074c2.297-2.338,3.562-5.422,3.562-8.687
				C427.82,355.275,422.256,349.712,415.418,349.712z M423.271,369.83c-0.023,0.021-0.054,0.039-0.074,0.062
				c-0.025,0.021-0.041,0.055-0.066,0.076c-1.988,1.953-4.711,3.164-7.713,3.164c-3.025,0-5.773-1.229-7.766-3.219
				c-0.009-0.009-0.017-0.019-0.021-0.021c-0.004-0.008-0.012-0.01-0.018-0.018c-1.979-1.992-3.207-4.734-3.207-7.765
				c0-6.075,4.942-11.019,11.01-11.019c6.076,0,11.021,4.941,11.021,11.019C426.439,365.117,425.227,367.839,423.271,369.83z"/>
			<path d="M433.867,359.294h-2.051c-0.429-2.494-1.404-4.801-2.812-6.785l1.445-1.443c1.096-1.094,1.1-2.879,0-3.986
				c-0.545-0.553-1.271-0.83-1.99-0.83c-0.723,0-1.443,0.273-1.992,0.818l-1.457,1.451c-1.981-1.402-4.285-2.377-6.772-2.805v-2.033
				c0-1.543-1.265-2.816-2.814-2.816s-2.82,1.273-2.82,2.816v2.035c-2.487,0.426-4.784,1.402-6.771,2.809l-1.467-1.461
				c-0.558-0.539-1.281-0.811-2.002-0.811c-0.724,0-1.438,0.271-1.992,0.822c-1.096,1.1-1.092,2.885,0.012,3.979l1.459,1.457
				c-1.399,1.981-2.381,4.284-2.807,6.774h-2.055c-1.556,0-2.818,1.281-2.818,2.818c0,1.557,1.266,2.818,2.818,2.818h2.055
				c0.426,2.488,1.399,4.789,2.807,6.772l-1.455,1.456c-1.104,1.075-1.104,2.887-0.004,3.982c0.549,0.548,1.271,0.82,1.99,0.82
				c0.723,0,1.445-0.279,1.996-0.82l1.455-1.454c1.985,1.403,4.289,2.391,6.778,2.812v2.051c0,1.56,1.271,2.816,2.82,2.816
				c1.555,0,2.812-1.256,2.812-2.816V378.5c2.491-0.428,4.795-1.401,6.782-2.811l1.449,1.451c0.553,0.545,1.271,0.822,1.994,0.822
				s1.441-0.281,1.986-0.822c1.098-1.102,1.098-2.898,0-3.986L429,371.712c1.412-1.984,2.391-4.287,2.816-6.781h2.051
				c1.549,0,2.82-1.262,2.82-2.818C436.688,360.576,435.416,359.294,433.867,359.294z M433.867,363.548h-2.051h-1.164l-0.195,1.15
				c-0.389,2.258-1.258,4.348-2.582,6.215l-0.678,0.953l0.828,0.821l1.45,1.449c0.548,0.547,0.546,1.479,0,2.021
				c-0.271,0.27-0.645,0.422-1.02,0.422c-0.385,0-0.746-0.147-1.021-0.418l-1.448-1.449l-0.824-0.823l-0.949,0.676
				c-1.865,1.319-3.959,2.188-6.219,2.576l-1.146,0.194v1.164v2.053c0,0.791-0.646,1.439-1.438,1.439
				c-0.793,0-1.437-0.646-1.437-1.439V378.5v-1.166l-1.146-0.192c-2.26-0.392-4.35-1.261-6.217-2.58l-0.951-0.681l-0.822,0.826
				l-1.442,1.445c-0.283,0.277-0.65,0.428-1.031,0.428s-0.746-0.146-1.019-0.418c-0.272-0.271-0.424-0.639-0.42-1.031
				c0.004-0.379,0.148-0.729,0.429-1l1.457-1.455l0.821-0.821l-0.674-0.948c-1.318-1.863-2.186-3.953-2.572-6.207l-0.192-1.15
				h-1.168h-2.058c-0.793,0-1.438-0.643-1.438-1.438c0-0.774,0.658-1.438,1.438-1.438h2.058h1.168l0.192-1.146
				c0.388-2.256,1.254-4.348,2.572-6.213l0.674-0.953l-0.828-0.821l-1.459-1.455c-0.562-0.562-0.562-1.478-0.008-2.031
				c0.271-0.27,0.629-0.418,1.017-0.418c0.387,0,0.758,0.15,1.024,0.408l1.465,1.461l0.824,0.824l0.949-0.677
				c1.861-1.319,3.953-2.188,6.207-2.573l1.147-0.197v-1.164v-2.035c0-0.777,0.656-1.436,1.438-1.436
				c0.789,0,1.438,0.645,1.438,1.436v2.033v1.166l1.146,0.197c2.26,0.387,4.348,1.252,6.213,2.565l0.951,0.674l0.821-0.819
				l1.449-1.447c0.275-0.271,0.64-0.418,1.021-0.418c0.381,0,0.74,0.15,1.012,0.422c0.562,0.564,0.564,1.477,0.004,2.033
				l-1.442,1.438l-0.828,0.824l0.676,0.953c1.322,1.864,2.188,3.959,2.58,6.223l0.194,1.146h1.162h2.054
				c0.772,0,1.438,0.658,1.438,1.438C435.303,362.906,434.656,363.548,433.867,363.548z"/>
			<path d="M390.82,365.437h-0.59c-0.296-1.242-0.783-2.41-1.435-3.475l0.414-0.414c1.104-1.088,1.104-2.896,0.004-3.986
				c-0.551-0.547-1.27-0.816-1.99-0.816c-0.719,0-1.44,0.271-1.991,0.816l-0.412,0.412c-1.064-0.652-2.23-1.145-3.479-1.443v-0.572
				c0-1.551-1.266-2.815-2.815-2.815c-1.556,0-2.818,1.271-2.818,2.815v0.572c-1.248,0.301-2.42,0.793-3.482,1.447l-0.411-0.416
				c-0.552-0.547-1.271-0.816-1.994-0.816c-0.722,0-1.438,0.271-1.99,0.816c-1.1,1.09-1.1,2.895,0,3.986l0.424,0.422
				c-0.646,1.062-1.137,2.227-1.434,3.467h-0.595c-1.555,0-2.815,1.279-2.815,2.818c0,1.557,1.266,2.818,2.815,2.818h0.605
				c0.299,1.235,0.791,2.397,1.439,3.454l-0.435,0.435c-1.104,1.096-1.104,2.881-0.008,3.985c0.557,0.548,1.271,0.82,1.994,0.82
				c0.725,0,1.438-0.272,1.99-0.82l0.438-0.438c1.059,0.646,2.219,1.14,3.451,1.438v0.604c0,1.556,1.268,2.814,2.816,2.814
				c1.555,0,2.817-1.256,2.817-2.814v-0.604c1.236-0.299,2.396-0.786,3.449-1.437l0.434,0.437c0.554,0.548,1.273,0.82,1.994,0.82
				c0.724,0,1.439-0.272,1.992-0.82c1.1-1.096,1.1-2.893,0-3.985l-0.432-0.435c0.647-1.06,1.141-2.219,1.438-3.454h0.603
				c1.562,0,2.813-1.265,2.813-2.818C393.637,366.718,392.373,365.437,390.82,365.437z M390.82,369.693h-0.601h-1.092l-0.256,1.059
				c-0.262,1.08-0.688,2.107-1.271,3.06l-0.569,0.931l0.77,0.77l0.437,0.439c0.271,0.268,0.416,0.627,0.416,1.014
				c0,0.386-0.146,0.744-0.41,1.011c-0.277,0.272-0.642,0.424-1.021,0.424c-0.383,0-0.743-0.147-1.02-0.416l-0.435-0.437
				l-0.768-0.772l-0.934,0.571c-0.951,0.582-1.978,1.009-3.054,1.271l-1.062,0.256v1.088v0.604c0,0.791-0.646,1.438-1.437,1.438
				c-0.793,0-1.438-0.646-1.438-1.438v-0.604v-1.088l-1.06-0.256c-1.077-0.263-2.104-0.689-3.053-1.271l-0.932-0.569l-0.771,0.771
				l-0.436,0.434c-0.275,0.271-0.637,0.424-1.021,0.424c-0.385,0-0.746-0.148-1.016-0.416c-0.273-0.273-0.426-0.64-0.422-1.023
				c0.002-0.381,0.147-0.735,0.426-1.008l0.432-0.434l0.771-0.771l-0.574-0.932c-0.582-0.953-1.012-1.979-1.271-3.061l-0.254-1.059
				h-1.089h-0.604c-0.791,0-1.439-0.646-1.439-1.438c0-0.777,0.656-1.438,1.439-1.438h0.594h1.092l0.255-1.062
				c0.258-1.08,0.684-2.109,1.264-3.062l0.565-0.929l-0.766-0.771l-0.43-0.428c-0.271-0.27-0.42-0.631-0.418-1.018
				c0-0.387,0.146-0.742,0.418-1.012c0.271-0.271,0.635-0.418,1.02-0.418s0.748,0.147,1.015,0.414l0.411,0.414l0.773,0.776
				l0.932-0.576c0.957-0.59,1.994-1.021,3.082-1.28l1.06-0.256v-1.089v-0.571c0-0.791,0.643-1.437,1.436-1.437
				c0.791,0,1.438,0.646,1.438,1.437v0.571v1.091l1.062,0.254c1.086,0.264,2.121,0.69,3.074,1.278l0.934,0.57l0.771-0.771
				l0.402-0.404c0.271-0.271,0.639-0.422,1.021-0.422c0.385,0,0.746,0.147,1.019,0.418c0.271,0.271,0.418,0.629,0.418,1.02
				c-0.005,0.385-0.146,0.738-0.427,1.012l-0.416,0.416l-0.768,0.77l0.564,0.933c0.586,0.955,1.014,1.988,1.271,3.067l0.252,1.062
				h1.092h0.59c0.777,0,1.437,0.656,1.437,1.438C392.254,369.05,391.611,369.693,390.82,369.693z"/>
			<path d="M384.035,362.746l-0.08-0.061c-1.465-1.428-3.391-2.215-5.43-2.215c-2.033,0-3.957,0.783-5.457,2.24l-0.013,0.01
				l-0.075,0.078c-1.449,1.469-2.246,3.406-2.246,5.457c0,2.049,0.793,3.988,2.25,5.473l0.014,0.018v0.002l0.072,0.07
				c1.43,1.406,3.319,2.199,5.326,2.234h0.034h0.039c0.017-0.002,0.025-0.002,0.045-0.004l0.062,0.004h0.037h0.039
				c1.977-0.035,3.848-0.811,5.271-2.184l0.029-0.031l0.027-0.031c0.01-0.012,0.021-0.021,0.03-0.037l0.051-0.049l0.031-0.023
				l0.023-0.029c1.395-1.442,2.168-3.334,2.188-5.326v-0.008v-0.106c-0.01-2.024-0.797-3.938-2.211-5.392L384.035,362.746z
				 M384.932,368.285c-0.008,1.721-0.694,3.273-1.801,4.424c-0.027,0.025-0.059,0.043-0.086,0.07
				c-0.031,0.027-0.051,0.064-0.078,0.098c-1.129,1.09-2.651,1.771-4.336,1.795c-0.035-0.002-0.07-0.012-0.104-0.012
				c-0.035,0-0.068,0.01-0.104,0.012c-1.701-0.024-3.244-0.723-4.377-1.838c-0.018-0.014-0.021-0.026-0.035-0.043
				c-0.016-0.014-0.028-0.021-0.045-0.037c-1.143-1.157-1.848-2.748-1.848-4.496c0-1.743,0.709-3.327,1.852-4.485
				c0.015-0.011,0.021-0.019,0.031-0.022c0.012-0.015,0.021-0.025,0.027-0.037c1.159-1.146,2.746-1.854,4.498-1.854
				c1.762,0,3.354,0.718,4.516,1.867c0,0.004,0.002,0.006,0.008,0.01c0.008,0.009,0.014,0.011,0.016,0.017
				c1.148,1.149,1.863,2.735,1.873,4.483c0,0.011,0,0.021,0,0.022C384.932,368.267,384.932,368.275,384.932,368.285z"/>
			<path d="M391.443,336.853l0.069,0.07c1.427,1.406,3.314,2.201,5.322,2.236h0.033h0.033c0.021-0.002,0.039-0.007,0.055-0.007
				h0.006l0.074,0.007h0.033h0.039c1.971-0.035,3.84-0.812,5.305-2.232c0.016-0.018,0.031-0.035,0.045-0.053l0.035-0.023
				l0.076-0.078c1.409-1.471,2.188-3.391,2.188-5.41c0-2.045-0.791-3.977-2.229-5.449l-0.007-0.008l-0.079-0.078
				c-1.472-1.455-3.412-2.256-5.474-2.256c-2.041,0-3.969,0.787-5.438,2.223l-0.006,0.004l-0.084,0.084
				c-1.459,1.474-2.263,3.418-2.263,5.48c0,2.031,0.775,3.961,2.244,5.471L391.443,336.853z M392.424,326.855
				c0.008-0.008,0.019-0.012,0.025-0.02c0.006-0.006,0.01-0.017,0.018-0.021c1.16-1.146,2.75-1.859,4.508-1.859
				c1.752,0,3.345,0.711,4.5,1.854c0.009,0.01,0.017,0.021,0.021,0.026c0.008,0.011,0.018,0.017,0.027,0.021
				c1.145,1.158,1.854,2.748,1.854,4.506c0,1.729-0.688,3.295-1.799,4.447c-0.027,0.025-0.062,0.045-0.086,0.07
				c-0.031,0.029-0.053,0.066-0.084,0.1c-1.125,1.092-2.646,1.768-4.32,1.795c-0.041-0.002-0.074-0.012-0.113-0.012
				c-0.041,0-0.071,0.01-0.11,0.012c-1.703-0.029-3.244-0.721-4.377-1.836c-0.021-0.021-0.031-0.047-0.056-0.066
				c-0.014-0.014-0.026-0.021-0.041-0.031c-1.127-1.157-1.828-2.733-1.828-4.479C390.562,329.607,391.277,328.015,392.424,326.855z"
				/>
			<path d="M384.676,334.183h0.605c0.299,1.234,0.787,2.393,1.432,3.447l-0.438,0.443c-1.101,1.092-1.093,2.891,0.016,3.979
				c0.555,0.547,1.273,0.819,1.986,0.819c0.729,0,1.448-0.272,1.996-0.834l0.428-0.428c1.061,0.65,2.221,1.141,3.459,1.439v0.6
				c0,1.541,1.266,2.82,2.815,2.82c1.56,0,2.816-1.252,2.816-2.82v-0.6c1.236-0.299,2.395-0.785,3.449-1.434l0.428,0.434
				c0.555,0.547,1.275,0.822,2,0.822c0.721,0,1.441-0.275,1.988-0.822c1.1-1.094,1.1-2.893,0-3.984l-0.43-0.432
				c0.645-1.059,1.137-2.219,1.438-3.459h0.607c1.557,0,2.817-1.258,2.817-2.818c0-1.539-1.266-2.818-2.817-2.818h-0.601
				c-0.295-1.244-0.785-2.41-1.434-3.473l0.416-0.416c1.098-1.105,1.098-2.908-0.013-3.984c-0.551-0.551-1.271-0.826-1.989-0.826
				c-0.726,0-1.441,0.275-1.992,0.826l-0.4,0.402c-1.062-0.656-2.227-1.148-3.475-1.449v-0.562c0-1.55-1.26-2.815-2.814-2.815
				c-1.557,0-2.815,1.271-2.815,2.815v0.562c-1.248,0.301-2.412,0.793-3.476,1.447l-0.412-0.412c-0.549-0.547-1.271-0.82-1.989-0.82
				c-0.724,0-1.441,0.273-1.992,0.82c-1.104,1.088-1.104,2.885-0.006,3.982l0.422,0.426c-0.646,1.062-1.139,2.23-1.438,3.477h-0.592
				c-1.557,0-2.82,1.279-2.82,2.818C381.855,332.925,383.121,334.183,384.676,334.183z M384.676,329.927h0.592h1.093l0.256-1.061
				c0.258-1.089,0.686-2.121,1.27-3.078l0.564-0.929l-0.769-0.771l-0.426-0.428c-0.271-0.271-0.418-0.634-0.418-1.021
				c0.002-0.385,0.15-0.735,0.422-1.008c0.271-0.271,0.635-0.418,1.021-0.418c0.385,0,0.744,0.147,1.014,0.414l0.412,0.412
				l0.771,0.774l0.933-0.575c0.955-0.587,1.988-1.02,3.07-1.279l1.059-0.254v-1.09v-0.562c0-0.794,0.646-1.437,1.438-1.437
				c0.791,0,1.437,0.643,1.437,1.437v0.562v1.088l1.061,0.256c1.086,0.268,2.119,0.692,3.07,1.281l0.93,0.573l0.771-0.774
				l0.397-0.396c0.271-0.271,0.634-0.422,1.019-0.422c0.387,0,0.744,0.148,1.025,0.438c0.266,0.256,0.411,0.604,0.415,0.98
				c0.005,0.396-0.147,0.763-0.415,1.031l-0.414,0.416l-0.771,0.771l0.564,0.93c0.584,0.959,1.014,1.991,1.271,3.075l0.254,1.062
				h1.088h0.601c0.776,0,1.436,0.658,1.436,1.437c0,0.793-0.645,1.438-1.436,1.438h-0.607h-1.088l-0.256,1.06
				c-0.266,1.08-0.689,2.106-1.273,3.06l-0.567,0.93l0.771,0.771l0.435,0.438c0.27,0.27,0.418,0.627,0.418,1.014
				s-0.148,0.742-0.423,1.018c-0.268,0.271-0.629,0.418-1.01,0.418c-0.387,0-0.748-0.149-1.02-0.418l-0.435-0.434l-0.77-0.771
				l-0.935,0.57c-0.944,0.582-1.975,1.008-3.049,1.268l-1.061,0.257v1.088v0.601c0,0.809-0.631,1.438-1.438,1.438
				c-0.776,0-1.438-0.655-1.438-1.438v-0.601v-1.088l-1.06-0.257c-1.077-0.262-2.108-0.688-3.059-1.271l-0.938-0.574l-0.771,0.778
				l-0.432,0.435c-0.271,0.271-0.625,0.42-1.013,0.42c-0.381,0-0.741-0.148-1.016-0.426c-0.271-0.269-0.422-0.629-0.422-1.015
				s0.143-0.741,0.418-1.015l0.438-0.44l0.763-0.771l-0.566-0.926c-0.58-0.945-1.006-1.976-1.266-3.054l-0.258-1.058h-1.086h-0.605
				c-0.793,0-1.438-0.646-1.438-1.438C383.238,330.585,383.896,329.927,384.676,329.927z"/>
		</g>
		<path d="M349.314,293.701c0,1.555-1.261,2.815-2.818,2.815s-2.818-1.263-2.818-2.815c0-1.56,1.261-2.82,2.818-2.82
			S349.314,292.142,349.314,293.701z"/>
		<path d="M360.588,293.701c0,1.555-1.26,2.815-2.815,2.815c-1.56,0-2.818-1.263-2.818-2.815c0-1.56,1.264-2.82,2.818-2.82
			C359.328,290.88,360.588,292.142,360.588,293.701z"/>
		<path d="M371.861,293.701c0,1.555-1.263,2.815-2.816,2.815c-1.561,0-2.82-1.263-2.82-2.815c0-1.56,1.261-2.82,2.82-2.82
			C370.6,290.88,371.861,292.142,371.861,293.701z"/>
		<path d="M464.475,281.63H335.527c-0.879,0-1.593,0.711-1.593,1.59v106.715c0,0.879,0.714,1.59,1.593,1.59h128.944
			c0.879,0,1.593-0.711,1.593-1.59V283.22C466.064,282.341,465.354,281.63,464.475,281.63z M462.885,284.81v19.053H337.117V284.81
			H462.885z M337.117,388.347v-81.305h125.768v81.305H337.117z"/>
	</g>
</g>
<g id="Gráfica_impresa" display="none">
	<g display="inline">
		<rect x="416.906" y="316.562" width="44.553" height="2.604"/>
		<rect x="416.906" y="323.285" width="44.553" height="2.604"/>
		<rect x="416.906" y="330.005" width="44.553" height="2.604"/>
		<rect x="416.906" y="336.726" width="44.553" height="2.602"/>
		<rect x="416.906" y="343.445" width="44.553" height="2.602"/>
		<rect x="416.906" y="350.166" width="44.553" height="2.604"/>
		<rect x="416.906" y="356.886" width="44.553" height="2.602"/>
		<rect x="415.932" y="363.607" width="38.972" height="2.604"/>
		<g>
			<path d="M417.02,311.544h44.439V276.24H417.02V311.544z M419.619,278.843h39.238v30.102h-39.238V278.843z"/>
			<path d="M444.705,241.24h-72.346c-1.354,0-2.656,0.229-3.873,0.645v-0.863h2.119v-4.996h-28.601v4.996h2.117v1.18
				c-2.578,1.481-12.961,8.065-16.367,19.62c-2.24,7.603-0.965,15.728,3.807,24.146c1.181,2.087-2.11,9.436-4.825,13.98l-0.15,0.252
				l0.002,82.717c-0.006,0.117-0.137,2.91,2.129,5.306c2.072,2.196,5.398,3.308,9.879,3.308h35.424
				c4.748,0,8.185-1.152,10.195-3.435c0.924-1.038,1.39-2.146,1.619-3.062h75.508c6.656,0,12.074-5.416,12.074-12.072v-103.02
				L444.705,241.24z M446.992,246.893h0.002l20.838,20.767h-8.072h-1.252h-0.688c-0.191,0-0.373-0.047-0.564-0.057
				c-3.893-0.201-7.215-2.45-8.947-5.703c-0.219-0.406-0.428-0.814-0.586-1.248c-0.155-0.404-0.284-0.824-0.389-1.249
				c-0.203-0.827-0.34-1.676-0.34-2.563L446.992,246.893L446.992,246.893z M444.885,260.112c0.215,0.794,0.627,1.787,0.627,1.787
				c0.597,1.437,1.453,2.722,2.482,3.851h-62.123c-0.187-1.578-0.51-3.133-0.982-4.66c-0.104-0.332-0.215-0.652-0.328-0.978H444.885
				z M372.359,243.74c0,0,69.123,0,70.119,0c1,0,2.02,0.754,2.02,2.02c0,1.269,0,1.73,0,1.73v9.346c0,0.229,0.023,0.451,0.035,0.68
				h-61.055c-3.232-6.797-8.761-11.325-12.296-13.692C371.568,243.769,371.961,243.74,372.359,243.74z M328.703,300.779
				c1.465-2.492,6.828-12.098,4.701-15.857c-4.472-7.896-5.688-15.467-3.621-22.486c3.559-12.088,15.77-18.614,15.893-18.682
				l0.566-0.297v-4.558h-2.115v-0.761h24.361v0.761h-2.119v4.577l0.594,0.291c0.123,0.059,12.23,6.123,15.908,17.968
				c2.215,7.118,0.981,14.919-3.662,23.187c-2.338,4.162,2.758,13.619,4.691,16.199l0.002,7.133h-55.199V300.779L328.703,300.779z
				 M328.703,310.373H383.9v3.312h-55.197V310.373z M328.703,315.804h55.199l0.012,50.715h-55.211V315.804z M328.703,368.638h55.211
				l0.002,2.727h-55.213V368.638z M382.631,386.687c-1.574,1.779-4.555,2.719-8.611,2.719h-35.424c-3.852,0-6.646-0.877-8.311-2.611
				c-1.648-1.719-1.588-3.686-1.584-3.817v-9.492h55.213l0.006,9.621C383.92,383.121,384.105,385.023,382.631,386.687z
				 M385.768,300.074c-2.082-2.459-6.291-11.308-4.715-14.113c1.353-2.403,2.42-4.776,3.226-7.117h23.303v85.722h-21.555
				l-0.009-64.19L385.768,300.074z M470.916,372.957c0,5.277-4.295,9.57-9.572,9.57h-75.315l-0.002-15.363h24.155V276.24h-25.106
				c0.696-2.685,1.021-5.316,0.979-7.89h65.188c1.793,1.021,3.83,1.659,6.021,1.755l2.5,0.055h7.406c0,0,1.779,0,2.355,0
				c0.67,0,1.395,0.447,1.395,1.549C470.916,272.23,470.916,372.957,470.916,372.957z"/>
			<g>
				<path d="M367.557,224.078v8.016h-22.502v-8.016H367.557 M368.037,222.078h-23.463c-0.84,0-1.521,0.877-1.521,1.967v8.082
					c0,1.092,0.677,1.967,1.521,1.967h23.463c0.84,0,1.52-0.877,1.52-1.967v-8.082C369.557,222.955,368.881,222.078,368.037,222.078
					L368.037,222.078z"/>
			</g>
		</g>
		<path d="M370.637,333.361c-1.985,0-3.789,0.688-5.209,1.48c-0.115-0.467-0.274-0.916-0.459-1.354
			c2.525-0.728,4.394-3.03,4.394-5.786h-2.119c0,1.985-1.484,3.618-3.41,3.877c-1.654-2.188-4.266-3.613-7.207-3.613
			c-2.928,0-5.529,1.441-7.195,3.635c-1.998-0.186-3.575-1.854-3.575-3.896h-2.119c0,2.812,1.938,5.157,4.539,5.834
			c-0.205,0.481-0.371,0.983-0.49,1.504c-1.5-0.898-3.416-1.681-5.56-1.681c-4.491,0-8.034,3.519-8.188,3.664l-0.736,0.748
			l0.736,0.75c0.147,0.146,3.691,3.666,8.188,3.666c2.271,0,4.302-0.881,5.853-1.86c0.889,3.793,3.113,13.252,3.645,15.498
			l0.191,0.815h9.021l0.207-0.785c0.354-1.351,2.992-11.338,3.979-15.133c1.252,0.678,3.201,1.461,5.522,1.461
			c4.49,0,8.035-3.521,8.183-3.668l0.742-0.746l-0.742-0.748C378.672,336.878,375.129,333.361,370.637,333.361z M342.221,340.072
			c-2.451,0-4.647-1.398-5.812-2.301c1.158-0.898,3.352-2.295,5.812-2.295c2.457,0,4.652,1.41,5.744,2.254l0.062,0.043
			C346.889,338.658,344.688,340.072,342.221,340.072z M363.414,338.83c-0.1,0.445-2.443,9.346-4.119,15.695h-5.713
			c-1.188-5.045-3.711-15.773-3.795-16.17l-0.131-0.717l0.012-0.729c0.076-3.769,3.197-6.828,6.961-6.828
			c3.691,0,6.744,2.889,6.943,6.58l0.062,1.178L363.414,338.83z M370.637,340.072c-2.815,0-4.971-1.43-5.562-1.863l-0.426-0.312
			l0.598-0.429c1.266-0.903,3.225-1.985,5.393-1.985c2.451,0,4.646,1.396,5.812,2.3
			C375.291,338.675,373.104,340.072,370.637,340.072z"/>
	</g>
</g>
<g id="Identidad" display="none">
	<g display="inline">
		<path d="M399.619,347.996c4.043,0,5.883-6.469,5.883-12.479s-1.84-12.479-5.883-12.479c-4.066,0-5.92,6.469-5.92,12.479
			S395.551,347.996,399.619,347.996z M399.59,326.55c0.66,0.191,2.396,3.238,2.396,8.965c0,5.666-1.695,8.705-2.371,8.959
			c-0.685-0.229-2.4-3.24-2.4-8.959C397.215,329.742,398.971,326.722,399.59,326.55z"/>
		<path d="M403.578,263.96c10.938,0.832,21.625,5.312,31.768,13.322c0.322,0.256,0.707,0.379,1.088,0.379
			c0.521,0,1.037-0.229,1.386-0.668c0.604-0.766,0.471-1.867-0.289-2.474c-10.703-8.45-22.033-13.188-33.687-14.067
			c-0.983-0.08-1.812,0.649-1.885,1.617C401.883,263.041,402.609,263.886,403.578,263.96z"/>
		<path d="M365.691,275.714c0.438,0,0.842-0.16,1.149-0.426c0.285-0.242,12.271-10.203,29.646-11.361
			c0.975-0.064,1.705-0.902,1.643-1.871c-0.063-0.969-0.918-1.721-1.871-1.637c-17.41,1.16-32.324,11.375-32.324,13.537
			C363.934,274.927,364.721,275.714,365.691,275.714z"/>
		<path d="M427.725,282.065c-0.78-0.577-1.881-0.407-2.459,0.373c-0.571,0.782-0.405,1.883,0.375,2.459
			c6.07,4.47,16.72,14.517,19.812,31.595c0.154,0.85,0.895,1.445,1.729,1.445c0.104,0,0.211-0.012,0.316-0.029
			c0.955-0.172,1.59-1.086,1.418-2.043C445.6,297.589,434.217,286.843,427.725,282.065z"/>
		<path d="M383.414,279.684c10.688-4.948,22.955-4.403,36.471,1.616c0.894,0.393,1.931-0.004,2.32-0.893
			c0.398-0.89-0.002-1.93-0.889-2.32c-14.488-6.451-27.736-6.988-39.382-1.596c-22.135,10.256-30.463,38.02-30.807,39.2
			c-0.271,0.935,0.262,1.906,1.191,2.185c0.166,0.047,0.33,0.067,0.491,0.067c0.763,0,1.466-0.5,1.689-1.271
			C354.584,316.406,362.715,289.274,383.414,279.684z"/>
		<path d="M437.002,337.779c-0.947-0.021-1.783,0.727-1.818,1.695c-0.479,13.814-5.299,26.062-14.26,36.35
			c-0.09,0.096-9.146,9.406-22.504,9.812c-0.973,0.027-1.734,0.838-1.705,1.811c0.029,0.951,0.812,1.705,1.758,1.705
			c0.021,0,0.035,0,0.054-0.002c14.782-0.445,24.532-10.469,24.996-10.951c9.562-10.975,14.666-23.959,15.178-38.602
			C438.732,338.628,437.973,337.812,437.002,337.779z"/>
		<path d="M364.676,354.462c0.947-0.207,1.551-1.144,1.347-2.092c-4.632-21.48-0.566-39.982,11.758-53.518
			c4.571-5.061,16.354-12.332,28.479-10.337c10.101,1.664,18.107,9.188,23.781,22.297c2.857,7.438,4.34,13.688,4.957,20.881
			c0.08,0.97,0.949,1.685,1.9,1.604c0.969-0.084,1.684-0.938,1.602-1.903c-0.645-7.545-2.193-14.076-5.203-21.905
			c-7.729-17.869-18.658-23.152-26.465-24.439c-13.611-2.237-26.391,5.619-31.658,11.445
			c-13.117,14.397-17.471,33.979-12.592,56.616c0.18,0.824,0.908,1.39,1.719,1.39C364.424,354.5,364.549,354.488,364.676,354.462z"
			/>
		<path d="M367.717,359.638c-0.254-0.936-1.213-1.49-2.156-1.24c-0.938,0.256-1.493,1.221-1.239,2.156
			c1.646,6.098,3.567,11.189,4.895,14.391c2.385,5.768,2.854,6.574,3.795,6.574c0.158,0,0.33-0.021,0.521-0.049
			c0.567-0.072,1.062-0.422,1.326-0.932c0.266-0.511,0.266-1.113,0.002-1.621C374.82,378.839,370.773,370.966,367.717,359.638z"/>
		<path d="M428.084,339.324c1.266-17.828-6.918-38.072-22.805-41.09c-0.961-0.186-1.877,0.446-2.06,1.398
			c-0.182,0.955,0.443,1.875,1.398,2.057c13.777,2.616,21.084,21.441,19.953,37.385c-1.084,15.271-9.988,31.945-31.729,32.943
			c-0.969,0.047-1.721,0.867-1.676,1.84c0.043,0.941,0.822,1.678,1.754,1.678c0.027,0,0.057-0.002,0.082-0.002
			C417.053,374.425,426.893,356.103,428.084,339.324z"/>
		<path d="M381.904,368.904c-5.287-17.559-9.816-41.471-1.369-55.693c3.483-5.869,9.031-9.635,16.483-11.192
			c0.951-0.199,1.56-1.136,1.361-2.083c-0.201-0.95-1.127-1.559-2.082-1.357c-8.459,1.77-14.779,6.092-18.791,12.844
			c-9.102,15.32-4.463,40.271,1.025,58.504c1.369,4.545,3.918,13.559,5.815,20.32c0.218,0.772,0.925,1.282,1.689,1.282
			c0.156,0,0.318-0.021,0.479-0.063c0.935-0.262,1.479-1.232,1.22-2.168C385.838,382.513,383.283,373.474,381.904,368.904z"/>
		<path d="M384.584,335.292c0,14.022,7.898,23.797,14.986,23.797c7.069,0,14.955-9.771,14.955-23.797
			c0-14.026-7.886-23.797-14.955-23.797C392.482,311.496,384.584,321.269,384.584,335.292z M399.572,315.013
			c4.662,0,11.436,7.9,11.436,20.279s-6.771,20.281-11.436,20.281c-5.308,0-11.472-8.859-11.472-20.281
			C388.102,323.873,394.266,315.013,399.572,315.013z"/>
	</g>
</g>
<g id="Layer_6" display="none">
	<g display="inline">
		<g>
			<path fill="#231F20" d="M371.947,327.263c-3.244-2.672-6.263-5.146-8.394-7.668c1.492,0.195,2.979,0.311,4.457,0.311
				c1.019,0,1.951-0.066,2.806-0.164c1.375,3.41,4.965,4.703,8.146,4.703c6.65,0,13.533-5.57,13.533-14.896
				c0-4.129-1.57-7.883-4.439-10.604c-3.274-3.113-8.16-4.77-14.092-4.77c-0.035,0-0.197,0-0.479,0
				c-17.748,0.195-23.502,13.045-23.502,19.307c0,0.016,0,0.033,0,0.064c-0.457-0.146-0.919-0.295-1.378-0.441
				c-7.913-2.541-16.125-5.18-25.305-5.18c-8.422,0-15.271,2.262-19.83,6.557c-3.913,3.686-6.079,8.832-6.079,14.471
				c0,9.586,6.59,19.945,17.21,19.945c7.111,0,10.291-4.574,10.404-4.77c0.396-0.59,0.246-1.377-0.344-1.771
				c-0.572-0.396-1.379-0.244-1.771,0.324c-0.114,0.146-2.604,3.652-8.311,3.652c-7.049,0-14.65-6.65-14.65-17.387
				c0-4.935,1.867-9.408,5.275-12.604c4.08-3.835,10.322-5.851,18.074-5.851c8.785,0,16.782,2.57,24.521,5.047
				c0.787,0.263,1.558,0.49,2.328,0.754c1.082,9.179,7.402,15.617,13.521,21.863c6.229,6.354,12.108,12.354,12.108,20.797
				c0,5.637-1.375,9.914-3.572,13.078c0.345-2.214,0.56-4.523,0.56-6.867c0-8.883-5.244-18.16-13.045-23.092
				c-6.406-4.064-13.457-4.641-19.812-1.623c-8.131,3.836-12.16,12.719-10.062,22.092c2.028,8.998,10.373,19.537,27.223,19.537
				v0.082c0.051,0,0.184,0,0.377,0c1.229,0,5.133-0.082,9.853-1.084c-1.722,5.064-3.591,8.476-3.621,8.541
				c-0.347,0.623-0.115,1.394,0.489,1.734c0.195,0.109,0.41,0.164,0.605,0.164c0.457,0,0.883-0.229,1.129-0.655
				c0.166-0.296,2.441-4.456,4.326-10.487c4.651-1.295,9.701-3.522,13.604-7.344c4.392-4.294,6.621-9.934,6.621-16.732
				C390.467,342.472,380.635,334.394,371.947,327.263z M372.783,316.498c0-3.08,2.08-6.541,4.852-6.541
				c0.724,0,0.736,1.166,0.736,1.297c0,1.295-0.803,2.722-2.131,3.785c-0.736,0.59-1.834,1.246-3.439,1.705
				C372.783,316.66,372.783,316.578,372.783,316.498z M373.85,296.731c0.017,0,0.033,0,0.05,0c5.293,0,9.588,1.408,12.391,4.063
				c2.359,2.229,3.654,5.326,3.654,8.752c0,7.721-5.57,12.342-10.966,12.342c-3.229,0-4.801-1.277-5.522-2.654
				c2.053-0.572,3.459-1.428,4.408-2.182c1.938-1.557,3.102-3.721,3.102-5.783c0-2.229-1.379-3.869-3.299-3.869
				c-2.062,0-3.994,1.064-5.424,3.018c-1.26,1.703-1.979,3.935-1.979,6.08c0,0.262,0.017,0.49,0.031,0.738
				c-0.689,0.08-1.428,0.111-2.242,0.111c-2.133,0-4.295-0.246-6.512-0.672c-0.732-1.377-1.16-2.787-1.16-4.275
				c0-5.293,1.404-9.359,4.191-12.046c3.295-3.196,7.653-3.573,8.916-3.623C373.699,296.731,373.832,296.731,373.85,296.731z
				 M332.338,361.976c-1.869-8.309,1.521-15.85,8.65-19.225c2.328-1.101,4.77-1.642,7.229-1.642c3.39,0,6.851,1.05,10.127,3.111
				c7.078,4.487,11.849,12.896,11.849,20.932c0,3.621-0.539,7.193-1.312,10.438c-3.477,2.771-7.783,3.937-11.803,3.937
				C341.727,379.529,334.154,370.072,332.338,361.976z"/>
		</g>
		<g>
			<path stroke="#000000" stroke-width="0.3851" stroke-miterlimit="10" d="M459.727,353.927"/>
			<path fill="none" d="M444.863,316.853v1.369h-5.086v-2.082h-15.004v2.082h-2.078v15.373h2.078v2.141h15.004v-2.141h5.086v1.414
				c1.143-0.385,2.112-0.916,2.891-1.605c1.482-1.32,2.336-3.408,2.549-6.199h-1.973v-5.084h1.588
				c-0.424-1.561-1.139-2.803-2.16-3.695C446.98,317.751,446.01,317.228,444.863,316.853z"/>
			<path d="M459.91,344.666c1.244,1.082,2.272,2.379,3.059,3.854c0.793,1.479,1.377,3.144,1.744,4.929
				c0.363,1.807,0.623,3.639,0.752,5.444c0.07,1.157,0.139,2.519,0.207,4.08c0.062,1.562,0.187,3.188,0.357,4.823
				c0.17,1.646,0.451,3.232,0.828,4.711c0.094,0.371,0.207,0.726,0.323,1.068h0.988c-0.154-0.412-0.303-0.842-0.416-1.299
				c-0.367-1.436-0.643-2.975-0.811-4.576c-0.168-1.617-0.289-3.225-0.354-4.773c-0.065-1.563-0.137-2.93-0.207-4.096
				c-0.137-1.854-0.396-3.729-0.771-5.57c-0.382-1.877-1-3.616-1.834-5.18c-0.839-1.572-1.935-2.955-3.269-4.113
				c-0.768-0.662-1.662-1.227-2.664-1.698v1.021C458.619,343.685,459.309,344.142,459.91,344.666z"/>
			<path d="M454.17,305.235c1.894,0.765,3.6,1.749,5.096,2.933v-0.444h0.898c-1.645-1.359-3.531-2.488-5.65-3.347
				c-1.284-0.519-2.657-0.903-4.104-1.176v0.94C451.729,304.399,452.986,304.761,454.17,305.235z"/>
			<path d="M463.74,334.232c-1.314,2.287-3.291,4.18-5.892,5.65v1.053c2.968-1.588,5.218-3.678,6.688-6.24
				c1.271-2.201,2.098-4.719,2.494-7.49h-0.935C465.717,329.81,464.934,332.167,463.74,334.232z"/>
			<rect x="408.748" y="302.763" width="36.576" height="0.922"/>
			<rect x="405.744" y="305.765" width="0.926" height="67.811"/>
			<path d="M451.791,367.818c-0.203-3.182-0.516-6.283-0.92-9.227c-0.229-1.59-0.572-3.004-1.021-4.262h-0.981
				c0.479,1.266,0.846,2.725,1.084,4.391c0.406,2.916,0.711,5.996,0.914,9.154c0.131,2.074,0.412,3.979,0.832,5.699h0.961
				C452.227,371.849,451.928,369.931,451.791,367.818z"/>
			<rect x="421.771" y="350.175" width="0.924" height="23.4"/>
			<path d="M446.426,349.248c-1.875-1.375-4.613-2.078-8.16-2.078h-13.489v0.929h13.485c3.013,0,5.371,0.521,7.062,1.54v-0.391
				H446.426L446.426,349.248z"/>
			<rect x="408.748" y="375.656" width="10.941" height="0.924"/>
			<rect x="455.49" y="375.656" width="10.959" height="0.924"/>
			<path d="M447.758,318.425c1.021,0.893,1.736,2.135,2.158,3.695h0.967c-0.457-1.857-1.295-3.33-2.516-4.396
				c-0.938-0.812-2.113-1.435-3.504-1.854v0.979C446.01,317.228,446.98,317.751,447.758,318.425z"/>
			<rect x="424.773" y="335.736" width="15.004" height="0.924"/>
			<rect x="424.773" y="315.216" width="15.004" height="0.924"/>
			<rect x="421.771" y="318.222" width="0.924" height="15.373"/>
			<path d="M447.754,333.404c-0.771,0.688-1.748,1.221-2.891,1.604v0.98c1.396-0.432,2.565-1.061,3.508-1.895
				c1.682-1.498,2.643-3.811,2.861-6.891H450.3C450.09,329.996,449.236,332.083,447.754,333.404z"/>
			<rect x="404.588" y="301.606" width="3.232" height="3.233"/>
			<rect x="446.248" y="301.606" width="3.234" height="3.233"/>
			<rect x="420.613" y="314.062" width="3.235" height="3.236"/>
			<rect x="420.613" y="334.521" width="3.235" height="3.234"/>
			<rect x="420.613" y="346.017" width="3.235" height="3.23"/>
			<rect x="446.248" y="350.175" width="3.234" height="3.229"/>
			<rect x="420.613" y="374.5" width="3.235" height="3.236"/>
			<rect x="404.588" y="374.5" width="3.232" height="3.236"/>
			<rect x="451.332" y="374.5" width="3.234" height="3.236"/>
			<rect x="467.373" y="374.5" width="3.232" height="3.236"/>
			<rect x="453.693" y="340.199" width="3.231" height="3.23"/>
			<rect x="449.256" y="323.044" width="3.229" height="3.233"/>
			<rect x="440.705" y="314.062" width="3.231" height="3.236"/>
			<rect x="440.705" y="334.521" width="3.231" height="3.234"/>
			<rect x="460.188" y="308.646" width="3.236" height="3.232"/>
			<path d="M468.531,326.281v-3.236h-1.238v-18.537c0.67-0.194,1.162-0.812,1.162-1.553c0-0.896-0.729-1.625-1.629-1.625
				c-0.896,0-1.623,0.729-1.623,1.625c0,0.737,0.49,1.354,1.164,1.553v12.445c-0.168-0.543-0.359-1.076-0.572-1.604
				c-0.402-0.98-0.9-1.906-1.445-2.801v0.252h-0.924c0.584,0.92,1.101,1.881,1.515,2.9c0.813,2,1.284,4.151,1.407,6.418h0.021v0.926
				H465.3v3.231h1.068v18.435c-0.674,0.201-1.164,0.813-1.164,1.555c0,0.896,0.729,1.623,1.623,1.623
				c0.899,0,1.629-0.727,1.629-1.623c0-0.736-0.49-1.354-1.16-1.555v-18.43H468.531L468.531,326.281z"/>
		</g>
	</g>
</g>
<path fill="#FF3333" d="M175.501,200.882l-0.715-2.495c-0.056-0.192-0.156-0.367-0.296-0.511l-39.975-40.83l30.193-30.193
	c0.003-0.004,0.004-0.008,0.008-0.012c0.082-0.084,0.155-0.18,0.213-0.291l6.319-12.374c0.041-0.069,0.083-0.135,0.108-0.21
	l3.852-7.54l-20.125,10.278c-0.055,0.026-0.09,0.074-0.139,0.109c-0.055,0.038-0.116,0.062-0.164,0.109l-21.036,21.035
	c0.022-1.834,0.046-3.69,0.063-5.576l-0.887-15.008c2.652-5.026,1.788-8.15,1.758-8.253c-3.324-13.071,5.574-17.083,5.95-17.245
	l3.38-1.428l-3.57-0.845c-2.883-0.682-5.022-0.668-6.615-0.347l0.678-1.234l-2.809,0.842c-7.085,2.125-11.847,5.848-14.151,11.065
	c-3.008,6.81-0.968,14.174,0.223,17.396l-0.891,15.141c0.002,0.216,0.005,0.422,0.007,0.636
	c-5.002-4.621-12.576-11.586-13.424-12.166c-0.582-0.397-1.243-0.519-1.859-0.334c-0.761,0.226-1.246,0.836-1.511,1.276
	l-5.852-5.977c-0.323-0.426-1.833-2.28-4.695-3.879c-0.549-0.383-4.842-3.343-8.713-5.082c-0.426-0.191-0.922-0.119-1.274,0.185
	l-1.35,1.161l-1.703-1.703c-0.468-0.469-1.229-0.469-1.697,0c-0.469,0.469-0.468,1.229,0.001,1.697l1.729,1.729l-0.897,1.033
	c-0.306,0.353-0.38,0.852-0.188,1.278c1.738,3.872,4.699,8.167,5.081,8.714c1.601,2.863,3.455,4.371,3.882,4.695l31.108,30.457
	L80.72,190.986l-5.212,5.213c-0.43,0.43-0.684,0.991-0.716,1.582c-0.033,0.631,0.196,1.241,0.632,1.678l6.751,6.75
	c0.407,0.408,0.969,0.638,1.557,0.638c0.04,0,0.081-0.001,0.121-0.003c0.591-0.032,1.152-0.285,1.583-0.715l5.213-5.213
	l27.202-27.203c1.34,32.631,3.873,50.949,7.299,51.508l0.193,0.031l0.193-0.031c3.442-0.562,5.985-19.072,7.319-52.061
	l33.526,32.824c0.144,0.141,0.318,0.241,0.511,0.296l2.496,0.714c0.109,0.031,0.221,0.047,0.33,0.047c0.303,0,0.6-0.115,0.825-0.328
	l2.424-2.295l2.25-2.379C175.512,201.73,175.618,201.291,175.501,200.882z M120.031,119.673h10.625l0.617,10.443h-11.859
	L120.031,119.673z M133.438,154.73c0.041-1.645,0.076-3.312,0.111-5.01l26.165-26.166l2.449,2.449L133.438,154.73z M167.836,112.886
	l0.913,0.913l-5.205,10.191l-5.897-5.898L167.836,112.886z M155.631,119.47l2.387,2.387l-24.4,24.402
	c0.027-1.598,0.056-3.215,0.08-4.854L155.631,119.47z M119.744,100.886c1.694-3.823,4.979-6.747,9.783-8.717
	c-0.016,0.058-0.01,0.116-0.018,0.174c-0.006,0.05-0.016,0.098-0.015,0.147c0.002,0.129,0.022,0.255,0.065,0.377
	c0.002,0.005,0.002,0.011,0.004,0.017c0.096,0.265,0.276,0.5,0.543,0.646c0.578,0.318,1.31,0.106,1.629-0.474l0.049-0.088
	c0.15-0.234,1.291-1.779,5.171-1.5c-3.037,2.556-7.185,8.097-4.595,18.275c0.008,0.029,0.691,2.84-2.137,7.529h-9.902
	C119.416,115.028,116.818,107.491,119.744,100.886z M102.07,123.25c0.022-0.055,0.084-0.158,0.146-0.244
	c1.241,0.998,8.842,7.979,14.703,13.402c0.011,0.889,0.022,1.773,0.034,2.65c-0.007,0.01-0.014,0.02-0.02,0.029l-15.126-15.45
	C101.917,123.529,102.008,123.4,102.07,123.25z M77.959,112.029l1.254-1.443l1.318-1.134c2.455,1.181,5.036,2.81,6.494,3.771
	l-5.297,5.297C80.768,117.062,79.14,114.483,77.959,112.029z M83.06,120.583l6.029-6.03c0.688,0.434,1.269,0.871,1.733,1.269
	l-6.492,6.493C83.931,121.851,83.494,121.27,83.06,120.583z M86.058,123.982l6.433-6.432l24.516,25.041
	c0.064,4.1,0.143,8.054,0.233,11.875l-0.022,0.023L86.058,123.982z M117.324,157.955c0.04,1.514,0.082,3.002,0.127,4.471
	l-27.784,27.783l-2.388-2.387l29.956-29.955L117.324,157.955z M85.582,189.519l6.534,6.533l-2.315,2.316l-6.534-6.535
	L85.582,189.519z M83.762,204.401l-6.53-6.53l4.338-4.338l6.533,6.532L83.762,204.401z M93.813,194.355l-2.449-2.449l26.191-26.191
	c0.053,1.606,0.108,3.187,0.167,4.732L93.813,194.355z M125.344,221.74c-0.634-1.697-1.646-5.498-2.651-13.804
	c-1.925-15.888-3.074-41.287-3.42-75.409v-0.009h12.139c-0.344,34.167-1.493,59.542-3.416,75.418
	C126.988,216.242,125.977,220.042,125.344,221.74z M133.323,159.257l37.466,38.271l-4.755,4.755l-33.054-32.359
	C133.107,166.512,133.223,162.957,133.323,159.257z M171.271,202.718l-1.879,1.779l-1.547-0.441l-0.098-0.094l4.72-4.721
	l0.095,0.098l0.442,1.547L171.271,202.718z"/>
</svg>
