<?xml version="1.0" encoding="utf-8"?>
<!-- Generator: Adobe Illustrator 16.0.0, SVG Export Plug-In . SVG Version: 6.00 Build 0)  -->
<!DOCTYPE svg PUBLIC "-//W3C//DTD SVG 1.1//EN" "http://www.w3.org/Graphics/SVG/1.1/DTD/svg11.dtd">
<svg version="1.1" id="Layer_1" xmlns="http://www.w3.org/2000/svg" xmlns:xlink="http://www.w3.org/1999/xlink" x="0px" y="0px"
	 width="250px" height="231.167px" viewBox="0 0 250 231.167" enable-background="new 0 0 250 231.167" xml:space="preserve">
<g id="Diseño_de_web" display="none">
	<g display="inline">
		<path d="M398.424,379.046h92.285c0.779,0,1.301-0.521,1.301-1.299v-58.492c0-0.779-0.521-1.299-1.301-1.299h-92.285
			c-0.779,0-1.299,0.52-1.299,1.299v58.492C397.125,378.527,397.645,379.046,398.424,379.046z M399.723,320.556h89.688v55.891
			h-89.688V320.556L399.723,320.556z"/>
		<path d="M510.727,382.425h-12.479v-67.85c0-2.34-2.078-4.418-4.42-4.418H466.24c0.008-0.066,0.033-0.121,0.033-0.193v-42.961
			c0-2.603-2.08-4.678-4.682-4.678H318.098c-2.602,0-4.682,2.075-4.682,4.678v56.412h-22.875c-2.081,0-3.9,1.818-3.9,3.896v60.051
			c0,2.08,1.819,3.898,3.9,3.898h34.834c0.195,0,0.371-0.031,0.529-0.094c0.48,0.223,1.006,0.354,1.549,0.354h14.299
			c2.078,0,3.9-1.819,3.9-3.899v-4.938v-15.461c0.17,0.072,0.357,0.121,0.574,0.121h26.721l-1.559,15.076l-6.5,4.684
			c-0.262,0.262-0.521,0.521-0.521,1.039c0,0.262,0,1.301,0.779,2.078c0.262,0.521,1.039,0.779,2.34,0.779h18.506
			c0.908,0.166,1.512,0.262,1.512,0.262h113.861c0,0,11.959-1.816,11.959-4.42v-1.562
			C513.586,383.726,512.287,382.425,510.727,382.425z M495.391,314.576v67.85h-36.916c-0.26,0-0.779,0.264-1.039,0.521
			c-0.26,0.26-0.26,0.52-0.26,0.779c0,0,0,0.262-0.262,0.262h-24.695c0,0-0.262,0-0.262-0.262s0-0.779-0.26-1.039
			c-0.26-0.262-0.52-0.521-1.039-0.521h-37.174v-67.59c0-1.039,0.781-1.818,1.818-1.818h98.266
			C494.609,312.757,495.391,313.537,495.391,314.576z M345.348,351.298c-0.562-1.289-1.861-2.146-3.596-2.146h-6.238v-3.898h55.373
			v5.979h-45.158C345.588,351.232,345.469,351.267,345.348,351.298z M390.887,314.576v28.076h-55.373v-15.338
			c0-2.078-1.818-3.898-3.9-3.898h-7.018v-49.912h130.76v36.654h-60.051C392.965,310.158,390.887,312.238,390.887,314.576z
			 M316.016,267.003c0-1.039,1.041-2.08,2.082-2.08h143.496c1.039,0,2.08,1.041,2.08,2.08v42.961c0,0.072,0.025,0.127,0.033,0.193
			h-6.047c0.01-0.066,0.033-0.121,0.033-0.193v-37.762c0-0.779-0.52-1.302-1.299-1.302H323.293c-0.777,0-1.301,0.521-1.301,1.302
			v51.213h-5.979v-56.412H316.016z M289.24,387.365v-60.051c0-0.779,0.52-1.299,1.301-1.299h41.072c0.779,0,1.301,0.52,1.301,1.299
			v21.836h-1.82v-18.195c0-0.779-0.52-1.301-1.299-1.301h-37.436c-0.779,0-1.299,0.521-1.299,1.301v51.471
			c0,0.781,0.52,1.303,1.299,1.303h31.195v3.896c0,0.359,0.066,0.705,0.172,1.041H290.54
			C289.76,388.666,289.24,388.146,289.24,387.365z M323.557,353.05v3.641v24.438H293.66v-48.873h34.834v16.896h-1.041
			C325.377,349.15,323.557,350.97,323.557,353.05z M341.752,388.666h-14.299c-0.777,0-1.299-0.521-1.299-1.301v-3.641h16.639v3.641
			C343.053,388.146,342.533,388.666,341.752,388.666z M343.053,381.126h-16.639V357.73h16.639V381.126z M343.312,355.39h-16.639
			v-2.6c0-0.566,0.26-1.041,1.039-1.041h14.297c0.777,0,1.303,0.52,1.303,1.301V355.39z M346.227,364.75
			c-0.215,0-0.402,0.047-0.574,0.121v-8.18v-2.873c0.027,0,0.049,0.014,0.076,0.014h45.158v10.934
			c-0.031-0.002-0.057-0.016-0.086-0.016H346.227L346.227,364.75z M367.748,388.666l5.979-4.42c0.262-0.26,0.521-0.521,0.521-1.039
			l1.562-15.857h14.99c0.027,0,0.055-0.014,0.086-0.016v15.092h-12.48c-1.559,0-2.857,1.303-2.857,2.859v1.562
			c0,0.662,0.783,1.273,1.943,1.818H367.748z M511.246,386.326h-0.26c-1.82,0.779-8.318,2.34-9.357,2.34H388.023
			c-1.039,0-7.537-1.561-9.617-2.34v-1.041c0,0,0-0.26,0.262-0.26h51.211c0.521,1.041,1.561,1.561,2.6,1.561h24.697
			c1.039,0,2.08-0.779,2.602-1.561h51.211c0,0,0.26,0,0.26,0.26L511.246,386.326L511.246,386.326z"/>
		<circle cx="311.076" cy="327.834" r="0.78"/>
		<circle cx="311.076" cy="386.325" r="1.56"/>
		<circle cx="334.734" cy="386.325" r="1.56"/>
	</g>
</g>
<g id="Gráfica_digital" display="none">
	<g display="inline">
		<g>
			<path d="M415.418,349.712c-6.832,0-12.391,5.562-12.391,12.398c0,3.271,1.266,6.359,3.568,8.703l0.01,0.01l0.07,0.066
				c2.342,2.336,5.445,3.621,8.738,3.621c3.264,0,6.348-1.266,8.684-3.561l0.021-0.023l0.025-0.023
				c0.006-0.006,0.01-0.014,0.018-0.021l0.021-0.016l0.072-0.074c2.297-2.338,3.561-5.422,3.561-8.686
				C427.82,355.275,422.256,349.712,415.418,349.712z M423.271,369.83c-0.023,0.021-0.053,0.039-0.074,0.062
				c-0.025,0.021-0.041,0.055-0.066,0.076c-1.988,1.953-4.711,3.164-7.713,3.164c-3.025,0-5.773-1.229-7.766-3.219
				c-0.008-0.008-0.016-0.018-0.021-0.021c-0.004-0.008-0.012-0.01-0.018-0.018c-1.979-1.992-3.207-4.734-3.207-7.764
				c0-6.076,4.943-11.018,11.01-11.018c6.076,0,11.021,4.941,11.021,11.018C426.439,365.117,425.227,367.839,423.271,369.83z"/>
			<path d="M433.867,359.294h-2.051c-0.428-2.494-1.404-4.801-2.812-6.785l1.445-1.443c1.096-1.094,1.1-2.879,0-3.986
				c-0.545-0.553-1.271-0.83-1.99-0.83c-0.723,0-1.443,0.273-1.992,0.818l-1.457,1.451c-1.982-1.402-4.285-2.377-6.773-2.805v-2.033
				c0-1.543-1.264-2.816-2.814-2.816s-2.82,1.273-2.82,2.816v2.035c-2.488,0.426-4.785,1.402-6.771,2.809l-1.467-1.461
				c-0.557-0.539-1.281-0.811-2.002-0.811c-0.723,0-1.438,0.271-1.992,0.822c-1.096,1.1-1.092,2.885,0.012,3.98l1.459,1.457
				c-1.4,1.982-2.381,4.285-2.807,6.775h-2.055c-1.555,0-2.818,1.281-2.818,2.818c0,1.557,1.266,2.818,2.818,2.818h2.055
				c0.426,2.488,1.4,4.789,2.807,6.773l-1.455,1.456c-1.105,1.075-1.105,2.886-0.004,3.983c0.549,0.547,1.27,0.82,1.99,0.82
				c0.723,0,1.445-0.279,1.996-0.82l1.455-1.455c1.986,1.404,4.289,2.391,6.779,2.812v2.051c0,1.559,1.27,2.816,2.82,2.816
				c1.555,0,2.812-1.256,2.812-2.816V378.5c2.492-0.428,4.795-1.402,6.783-2.811l1.449,1.451c0.553,0.545,1.271,0.822,1.994,0.822
				s1.441-0.281,1.986-0.822c1.098-1.102,1.098-2.898,0-3.986L429,371.712c1.412-1.984,2.391-4.287,2.816-6.781h2.051
				c1.549,0,2.82-1.262,2.82-2.818C436.688,360.576,435.416,359.294,433.867,359.294z M433.867,363.548h-2.051h-1.164l-0.195,1.15
				c-0.389,2.258-1.258,4.348-2.582,6.215l-0.678,0.953l0.828,0.822l1.451,1.449c0.547,0.547,0.545,1.479,0,2.021
				c-0.271,0.27-0.645,0.422-1.02,0.422c-0.385,0-0.746-0.148-1.02-0.418l-1.449-1.449l-0.824-0.824l-0.949,0.676
				c-1.865,1.32-3.959,2.188-6.219,2.576l-1.145,0.195v1.164v2.053c0,0.791-0.646,1.438-1.438,1.438
				c-0.793,0-1.436-0.646-1.436-1.438v-2.053v-1.166l-1.146-0.193c-2.26-0.391-4.35-1.26-6.217-2.58l-0.951-0.68l-0.822,0.826
				l-1.443,1.445c-0.283,0.277-0.65,0.428-1.031,0.428s-0.746-0.146-1.018-0.418c-0.273-0.271-0.424-0.639-0.42-1.031
				c0.004-0.379,0.148-0.729,0.428-1l1.457-1.455l0.822-0.822l-0.674-0.949c-1.318-1.863-2.186-3.953-2.572-6.207l-0.193-1.15
				h-1.168h-2.057c-0.793,0-1.439-0.643-1.439-1.438c0-0.775,0.658-1.438,1.439-1.438h2.057h1.168l0.193-1.146
				c0.387-2.256,1.254-4.348,2.572-6.213l0.674-0.953l-0.828-0.822l-1.459-1.455c-0.562-0.562-0.562-1.477-0.008-2.031
				c0.27-0.27,0.629-0.418,1.016-0.418s0.758,0.15,1.025,0.408l1.465,1.461l0.824,0.824l0.949-0.676
				c1.861-1.32,3.953-2.188,6.207-2.574l1.148-0.197v-1.164v-2.035c0-0.777,0.656-1.436,1.438-1.436
				c0.789,0,1.438,0.645,1.438,1.436v2.033v1.166l1.145,0.197c2.26,0.387,4.348,1.252,6.213,2.566l0.951,0.674l0.822-0.82
				l1.449-1.447c0.275-0.271,0.639-0.418,1.021-0.418c0.381,0,0.74,0.15,1.012,0.422c0.562,0.564,0.564,1.477,0.004,2.033
				l-1.443,1.439l-0.828,0.824l0.676,0.953c1.322,1.865,2.189,3.959,2.58,6.223l0.195,1.146h1.162h2.053
				c0.773,0,1.438,0.658,1.438,1.438C435.303,362.906,434.656,363.548,433.867,363.548z"/>
			<path d="M390.82,365.437h-0.59c-0.295-1.242-0.783-2.41-1.434-3.475l0.414-0.414c1.104-1.088,1.104-2.895,0.004-3.986
				c-0.551-0.547-1.27-0.816-1.99-0.816c-0.719,0-1.441,0.271-1.992,0.816l-0.412,0.412c-1.064-0.652-2.23-1.145-3.479-1.443v-0.572
				c0-1.551-1.266-2.816-2.816-2.816c-1.555,0-2.818,1.27-2.818,2.816v0.572c-1.248,0.301-2.42,0.793-3.482,1.447l-0.412-0.416
				c-0.551-0.547-1.27-0.816-1.994-0.816c-0.721,0-1.438,0.271-1.99,0.816c-1.1,1.09-1.1,2.895,0,3.986l0.424,0.422
				c-0.646,1.062-1.137,2.227-1.434,3.467h-0.594c-1.555,0-2.816,1.279-2.816,2.818c0,1.557,1.266,2.818,2.816,2.818h0.605
				c0.299,1.236,0.791,2.398,1.439,3.455l-0.434,0.434c-1.105,1.096-1.105,2.881-0.008,3.986c0.557,0.547,1.271,0.82,1.994,0.82
				c0.725,0,1.439-0.273,1.99-0.82l0.439-0.438c1.059,0.646,2.219,1.139,3.451,1.438v0.605c0,1.555,1.268,2.814,2.816,2.814
				c1.555,0,2.818-1.256,2.818-2.814v-0.605c1.236-0.299,2.395-0.787,3.449-1.436l0.434,0.436c0.553,0.547,1.273,0.82,1.994,0.82
				c0.723,0,1.439-0.273,1.992-0.82c1.1-1.096,1.1-2.893,0-3.986l-0.432-0.434c0.648-1.059,1.141-2.219,1.438-3.455h0.602
				c1.562,0,2.814-1.264,2.814-2.818C393.637,366.718,392.373,365.437,390.82,365.437z M390.82,369.693h-0.6h-1.092l-0.256,1.059
				c-0.262,1.08-0.688,2.107-1.27,3.059l-0.57,0.93l0.77,0.771l0.436,0.438c0.271,0.268,0.416,0.627,0.416,1.014
				c0,0.386-0.145,0.744-0.41,1.011c-0.277,0.272-0.641,0.424-1.02,0.424c-0.383,0-0.744-0.147-1.02-0.416l-0.434-0.437
				l-0.768-0.772l-0.934,0.572c-0.951,0.581-1.977,1.008-3.053,1.271l-1.062,0.256v1.088v0.604c0,0.791-0.645,1.438-1.436,1.438
				c-0.793,0-1.438-0.646-1.438-1.438v-0.604v-1.088l-1.059-0.256c-1.078-0.263-2.104-0.689-3.053-1.271l-0.932-0.57l-0.77,0.771
				l-0.436,0.433c-0.275,0.272-0.637,0.424-1.02,0.424c-0.385,0-0.746-0.149-1.016-0.416c-0.273-0.274-0.426-0.64-0.422-1.024
				c0.002-0.381,0.148-0.735,0.426-1.008l0.432-0.433l0.771-0.771l-0.574-0.932c-0.582-0.953-1.012-1.979-1.271-3.061l-0.254-1.059
				h-1.088h-0.604c-0.791,0-1.439-0.645-1.439-1.438c0-0.777,0.656-1.438,1.439-1.438h0.594h1.092l0.254-1.062
				c0.258-1.08,0.684-2.109,1.264-3.062l0.566-0.928l-0.766-0.77l-0.43-0.428c-0.27-0.27-0.42-0.631-0.418-1.018
				c0-0.387,0.146-0.742,0.418-1.012s0.635-0.418,1.02-0.418s0.748,0.148,1.014,0.414l0.412,0.414l0.773,0.777l0.932-0.576
				c0.957-0.59,1.994-1.021,3.082-1.281l1.059-0.256v-1.088v-0.572c0-0.791,0.643-1.436,1.436-1.436
				c0.791,0,1.438,0.645,1.438,1.436v0.572v1.09l1.062,0.254c1.086,0.264,2.121,0.691,3.074,1.279l0.934,0.57l0.771-0.771
				l0.402-0.404c0.271-0.27,0.639-0.422,1.021-0.422c0.385,0,0.746,0.148,1.018,0.418c0.271,0.271,0.418,0.629,0.418,1.02
				c-0.004,0.385-0.146,0.738-0.426,1.012l-0.416,0.416l-0.768,0.77l0.564,0.932c0.586,0.955,1.014,1.988,1.271,3.068l0.252,1.062
				h1.092h0.59c0.777,0,1.436,0.656,1.436,1.438C392.254,369.05,391.611,369.693,390.82,369.693z"/>
			<path d="M384.035,362.746l-0.08-0.061c-1.465-1.428-3.391-2.215-5.43-2.215c-2.033,0-3.957,0.783-5.457,2.24l-0.012,0.01
				l-0.076,0.078c-1.449,1.469-2.246,3.406-2.246,5.457c0,2.049,0.793,3.988,2.25,5.473l0.014,0.018v0.002l0.072,0.07
				c1.43,1.406,3.32,2.199,5.326,2.234h0.035h0.039c0.016-0.002,0.025-0.002,0.045-0.004l0.061,0.004h0.037h0.039
				c1.977-0.035,3.848-0.811,5.271-2.184l0.029-0.031l0.027-0.031c0.01-0.012,0.021-0.021,0.031-0.037l0.051-0.049l0.031-0.023
				l0.023-0.029c1.395-1.443,2.168-3.334,2.189-5.326v-0.008v-0.107c-0.01-2.025-0.797-3.938-2.211-5.391L384.035,362.746z
				 M384.932,368.285c-0.008,1.721-0.695,3.273-1.801,4.424c-0.027,0.025-0.059,0.043-0.086,0.07
				c-0.031,0.027-0.051,0.064-0.078,0.098c-1.129,1.09-2.652,1.77-4.336,1.795c-0.035-0.002-0.07-0.012-0.105-0.012
				s-0.068,0.01-0.104,0.012c-1.701-0.025-3.244-0.723-4.377-1.838c-0.018-0.014-0.021-0.027-0.035-0.043
				c-0.016-0.014-0.029-0.021-0.045-0.037c-1.143-1.158-1.848-2.748-1.848-4.496c0-1.744,0.709-3.328,1.852-4.486
				c0.014-0.011,0.02-0.018,0.031-0.023c0.012-0.014,0.021-0.025,0.027-0.037c1.16-1.145,2.746-1.854,4.498-1.854
				c1.762,0,3.355,0.717,4.516,1.867c0,0.004,0.002,0.006,0.008,0.01c0.008,0.008,0.014,0.01,0.016,0.016
				c1.148,1.15,1.863,2.736,1.873,4.484c0,0.01,0,0.02,0,0.023C384.932,368.267,384.932,368.275,384.932,368.285z"/>
			<path d="M391.443,336.853l0.07,0.07c1.426,1.406,3.314,2.201,5.322,2.236h0.033h0.033c0.021-0.002,0.039-0.006,0.055-0.006h0.006
				l0.074,0.006h0.033h0.039c1.971-0.035,3.84-0.812,5.305-2.232c0.016-0.018,0.031-0.035,0.045-0.053l0.035-0.023l0.076-0.078
				c1.41-1.471,2.189-3.391,2.189-5.41c0-2.045-0.791-3.977-2.23-5.449l-0.006-0.008l-0.08-0.078
				c-1.471-1.455-3.412-2.256-5.473-2.256c-2.041,0-3.969,0.787-5.438,2.223l-0.006,0.004l-0.084,0.084
				c-1.459,1.473-2.262,3.418-2.262,5.48c0,2.031,0.775,3.961,2.244,5.471L391.443,336.853z M392.424,326.855
				c0.008-0.008,0.018-0.012,0.025-0.02c0.006-0.006,0.01-0.016,0.018-0.021c1.16-1.146,2.75-1.859,4.508-1.859
				c1.752,0,3.344,0.711,4.5,1.854c0.008,0.01,0.016,0.02,0.021,0.027c0.008,0.01,0.018,0.016,0.027,0.021
				c1.145,1.158,1.854,2.748,1.854,4.506c0,1.729-0.688,3.295-1.799,4.447c-0.027,0.025-0.061,0.045-0.086,0.07
				c-0.031,0.029-0.053,0.066-0.084,0.1c-1.125,1.092-2.646,1.768-4.32,1.795c-0.041-0.002-0.074-0.012-0.113-0.012
				c-0.041,0-0.072,0.01-0.111,0.012c-1.703-0.029-3.244-0.721-4.377-1.836c-0.02-0.021-0.031-0.047-0.055-0.066
				c-0.014-0.014-0.027-0.021-0.041-0.031c-1.127-1.158-1.828-2.734-1.828-4.479C390.562,329.607,391.277,328.015,392.424,326.855z"
				/>
			<path d="M384.676,334.183h0.605c0.299,1.234,0.787,2.393,1.432,3.447l-0.439,0.443c-1.1,1.092-1.092,2.891,0.016,3.98
				c0.555,0.547,1.273,0.82,1.986,0.82c0.73,0,1.449-0.273,1.996-0.834l0.428-0.428c1.061,0.65,2.221,1.141,3.459,1.439v0.6
				c0,1.541,1.266,2.82,2.816,2.82c1.559,0,2.816-1.252,2.816-2.82v-0.6c1.236-0.299,2.395-0.785,3.449-1.434l0.428,0.434
				c0.555,0.547,1.275,0.822,2,0.822c0.721,0,1.441-0.275,1.988-0.822c1.1-1.094,1.1-2.893,0-3.984l-0.43-0.432
				c0.645-1.059,1.137-2.219,1.438-3.459h0.607c1.557,0,2.818-1.258,2.818-2.818c0-1.539-1.266-2.818-2.818-2.818h-0.6
				c-0.295-1.244-0.785-2.41-1.434-3.473l0.416-0.416c1.098-1.105,1.098-2.908-0.012-3.984c-0.551-0.551-1.271-0.826-1.99-0.826
				c-0.725,0-1.441,0.275-1.992,0.826l-0.4,0.402c-1.062-0.656-2.227-1.148-3.475-1.449v-0.562c0-1.55-1.26-2.815-2.814-2.815
				c-1.557,0-2.816,1.271-2.816,2.815v0.562c-1.248,0.301-2.412,0.793-3.475,1.447l-0.412-0.412c-0.549-0.547-1.271-0.82-1.99-0.82
				c-0.723,0-1.441,0.273-1.992,0.82c-1.104,1.088-1.104,2.885-0.006,3.982l0.422,0.426c-0.646,1.062-1.139,2.23-1.438,3.477h-0.592
				c-1.557,0-2.82,1.279-2.82,2.818C381.855,332.925,383.121,334.183,384.676,334.183z M384.676,329.927h0.592h1.092l0.256-1.061
				c0.258-1.088,0.686-2.121,1.27-3.078l0.564-0.928l-0.768-0.771l-0.426-0.428c-0.271-0.271-0.418-0.633-0.418-1.021
				c0.002-0.384,0.15-0.735,0.422-1.007c0.271-0.271,0.635-0.418,1.021-0.418c0.385,0,0.744,0.147,1.014,0.414l0.412,0.412
				l0.771,0.774l0.932-0.575c0.955-0.587,1.988-1.019,3.07-1.279l1.059-0.254v-1.09v-0.562c0-0.793,0.646-1.437,1.439-1.437
				c0.791,0,1.436,0.644,1.436,1.437v0.562v1.088l1.061,0.256c1.086,0.267,2.119,0.692,3.07,1.281l0.93,0.573l0.771-0.774
				l0.398-0.397c0.27-0.271,0.633-0.422,1.018-0.422c0.387,0,0.744,0.149,1.025,0.437c0.266,0.256,0.412,0.604,0.416,0.981
				c0.004,0.396-0.148,0.763-0.416,1.032l-0.414,0.416l-0.771,0.771l0.564,0.929c0.584,0.959,1.014,1.992,1.271,3.076l0.254,1.061
				h1.088h0.6c0.777,0,1.436,0.658,1.436,1.437c0,0.793-0.645,1.438-1.436,1.438h-0.607h-1.088l-0.256,1.06
				c-0.266,1.08-0.689,2.106-1.273,3.06l-0.568,0.929l0.771,0.771l0.434,0.438c0.27,0.269,0.418,0.627,0.418,1.014
				c0,0.386-0.148,0.742-0.422,1.017c-0.268,0.271-0.629,0.418-1.01,0.418c-0.387,0-0.748-0.149-1.02-0.418l-0.434-0.433
				l-0.77-0.772l-0.934,0.57c-0.945,0.582-1.975,1.008-3.049,1.268l-1.061,0.257v1.088v0.601c0,0.808-0.631,1.438-1.438,1.438
				c-0.777,0-1.438-0.656-1.438-1.438v-0.601v-1.088l-1.059-0.257c-1.078-0.262-2.109-0.688-3.059-1.272l-0.938-0.573l-0.77,0.778
				l-0.432,0.435c-0.27,0.271-0.625,0.42-1.012,0.42c-0.381,0-0.742-0.149-1.016-0.426c-0.271-0.269-0.422-0.629-0.422-1.015
				s0.143-0.741,0.418-1.015l0.439-0.44l0.762-0.771l-0.566-0.926c-0.58-0.945-1.006-1.975-1.266-3.053l-0.258-1.058h-1.086h-0.605
				c-0.793,0-1.438-0.646-1.438-1.438C383.238,330.585,383.896,329.927,384.676,329.927z"/>
		</g>
		<path d="M349.314,293.701c0,1.555-1.26,2.815-2.818,2.815s-2.818-1.263-2.818-2.815c0-1.56,1.26-2.82,2.818-2.82
			S349.314,292.142,349.314,293.701z"/>
		<path d="M360.588,293.701c0,1.555-1.26,2.815-2.816,2.815c-1.559,0-2.818-1.263-2.818-2.815c0-1.56,1.264-2.82,2.818-2.82
			C359.328,290.88,360.588,292.142,360.588,293.701z"/>
		<path d="M371.861,293.701c0,1.555-1.262,2.815-2.816,2.815c-1.561,0-2.82-1.263-2.82-2.815c0-1.56,1.26-2.82,2.82-2.82
			C370.6,290.88,371.861,292.142,371.861,293.701z"/>
		<path d="M464.475,281.63H335.527c-0.879,0-1.592,0.711-1.592,1.59v106.715c0,0.879,0.713,1.59,1.592,1.59h128.945
			c0.879,0,1.592-0.711,1.592-1.59V283.22C466.064,282.341,465.354,281.63,464.475,281.63z M462.885,284.81v19.053H337.117V284.81
			H462.885z M337.117,388.347v-81.305h125.768v81.305H337.117z"/>
	</g>
</g>
<g id="ilustracion" display="none">
	<path display="inline" d="M452.213,367.56l-0.738-2.574c-0.059-0.211-0.17-0.402-0.318-0.557l-41.23-42.117l31.09-31.09
		c0.053-0.051,0.074-0.115,0.115-0.172c0.039-0.057,0.094-0.096,0.123-0.158l6.525-12.777c0.043-0.074,0.088-0.145,0.111-0.225
		l4.066-7.957l-20.961,10.703c-0.062,0.033-0.104,0.086-0.156,0.125c-0.057,0.039-0.123,0.064-0.174,0.117l-21.596,21.596
		c0.029-2.271,0.059-4.568,0.082-6.916l-0.914-15.484c2.742-5.203,1.844-8.443,1.812-8.549c-3.42-13.441,5.721-17.566,6.104-17.732
		l3.674-1.553l-3.881-0.918c-2.896-0.689-5.082-0.697-6.725-0.391l0.709-1.291l-3.051,0.916
		c-7.336,2.201-12.268,6.057-14.654,11.463c-3.113,7.045-1.012,14.658,0.223,18.002l-0.918,15.627
		c0.006,0.674,0.016,1.326,0.021,1.992c-5.17-4.775-12.992-11.967-13.869-12.568c-0.617-0.422-1.32-0.547-1.977-0.354
		c-0.693,0.205-1.174,0.717-1.475,1.15l-5.959-6.086c-0.342-0.451-1.906-2.365-4.859-4.021c-0.58-0.402-5.01-3.457-9.008-5.252
		c-0.461-0.207-0.998-0.129-1.385,0.199l-1.348,1.158l-1.719-1.716c-0.51-0.51-1.334-0.51-1.846,0c-0.51,0.511-0.51,1.337,0,1.847
		l1.742,1.742l-0.887,1.02c-0.33,0.386-0.412,0.927-0.203,1.392c1.795,3.996,4.848,8.431,5.252,9.009
		c1.65,2.955,3.566,4.52,4.02,4.858l32.074,31.401l-35.932,35.936l-5.385,5.381c-0.979,0.979-1.016,2.525-0.084,3.459l6.973,6.975
		c0.932,0.93,2.48,0.893,3.459-0.086l5.383-5.381l28.07-28.072c1.404,32.867,4.018,51.287,7.531,51.861l0.211,0.031l0.209-0.031
		c3.533-0.576,6.154-19.205,7.557-52.453l34.582,33.854c0.15,0.15,0.344,0.266,0.553,0.32l2.578,0.736
		c0.439,0.129,0.92,0.014,1.256-0.303l2.455-2.326c0.008-0.008,0.016-0.018,0.023-0.023c0.012-0.01,0.02-0.02,0.025-0.023
		l2.324-2.457C452.223,368.482,452.34,368.003,452.213,367.56z M408.74,319.802c0.041-1.637,0.08-3.301,0.115-4.99l26.949-26.949
		l2.438,2.436L408.74,319.802z M444.182,276.833l0.875,0.875l-5.312,10.396l-5.963-5.963L444.182,276.833z M431.59,283.644
		l2.373,2.373l-25.031,25.029c0.031-1.59,0.061-3.195,0.084-4.83L431.59,283.644z M394.617,263.074
		c1.727-3.908,5.066-6.904,9.957-8.935c-0.006,0.034,0.002,0.069-0.002,0.106c-0.002,0.049-0.002,0.094-0.002,0.144
		c0.004,0.123,0.025,0.243,0.064,0.36c0.006,0.019,0.008,0.037,0.016,0.056c0.105,0.28,0.297,0.532,0.582,0.69
		c0.637,0.348,1.426,0.113,1.773-0.52l0.047-0.084c0.082-0.145,1.133-1.783,5.121-1.533c-3.143,2.697-7.291,8.43-4.646,18.838
		c0.008,0.027,0.701,2.895-2.178,7.689h-10.148C394.254,277.539,391.623,269.851,394.617,263.074z M406.4,293.153h-12.111
		l0.631-10.651h10.848L406.4,293.153z M376.271,287.554c0.025-0.062,0.066-0.131,0.109-0.197c1.438,1.182,9.229,8.34,15.213,13.877
		c0.016,0.809,0.023,1.598,0.037,2.398l-15.521-15.852C376.166,287.707,376.234,287.642,376.271,287.554z M351.5,275.835
		l1.266-1.455l1.324-1.141c2.482,1.196,5.086,2.836,6.594,3.825l-5.354,5.354C354.334,280.919,352.701,278.319,351.5,275.835z
		 M358.008,286.353c-0.393-0.459-0.812-1.025-1.234-1.686l6.154-6.152c0.66,0.422,1.227,0.842,1.684,1.232L358.008,286.353z
		 M366.43,281.619l25.26,25.803c0.07,4.189,0.154,8.229,0.25,12.135l-32.061-31.387L366.43,281.619z M391.984,323.251l0.053,0.051
		c0.041,1.525,0.086,3.027,0.131,4.506l-28.697,28.699l-2.373-2.373L391.984,323.251z M357.377,371.166l-6.654-6.656l4.385-4.383
		l6.654,6.652L357.377,371.166z M363.607,364.935l-6.656-6.654l2.303-2.299l6.652,6.654L363.607,364.935z M367.752,360.791
		l-2.438-2.438l26.967-26.971c0.057,1.602,0.113,3.162,0.174,4.703L367.752,360.791z M400.365,387.701
		c-0.547-1.496-1.318-4.385-2.131-9.908c-1.602-10.863-3.607-33.93-4.094-82.027h12.404
		C405.84,365.378,402.039,383.203,400.365,387.701z M442.375,368.933l-34.123-33.41c0.133-3.455,0.25-7.072,0.355-10.82
		l38.586,39.412L442.375,368.933z M447.715,369.455l-1.891,1.785l-1.545-0.443l-0.041-0.037l4.779-4.779l0.039,0.041l0.439,1.543
		L447.715,369.455z"/>
</g>
<g id="Identidad" display="none">
	<g display="inline">
		<path d="M399.619,347.996c4.043,0,5.883-6.469,5.883-12.479s-1.84-12.479-5.883-12.479c-4.066,0-5.92,6.469-5.92,12.479
			S395.551,347.996,399.619,347.996z M399.59,326.55c0.66,0.191,2.396,3.238,2.396,8.965c0,5.666-1.695,8.705-2.371,8.959
			c-0.684-0.229-2.4-3.24-2.4-8.959C397.215,329.742,398.971,326.722,399.59,326.55z"/>
		<path d="M403.578,263.96c10.938,0.832,21.625,5.312,31.768,13.322c0.322,0.256,0.707,0.379,1.088,0.379
			c0.521,0,1.037-0.229,1.385-0.668c0.604-0.765,0.471-1.867-0.289-2.473c-10.703-8.45-22.033-13.188-33.686-14.068
			c-0.984-0.08-1.812,0.65-1.885,1.618C401.883,263.041,402.609,263.886,403.578,263.96z"/>
		<path d="M365.691,275.714c0.439,0,0.842-0.16,1.15-0.426c0.285-0.242,12.271-10.203,29.645-11.361
			c0.975-0.064,1.705-0.902,1.643-1.871c-0.064-0.969-0.918-1.721-1.871-1.637c-17.41,1.16-32.324,11.375-32.324,13.537
			C363.934,274.927,364.721,275.714,365.691,275.714z"/>
		<path d="M427.725,282.065c-0.781-0.577-1.881-0.407-2.459,0.373c-0.572,0.782-0.406,1.883,0.375,2.459
			c6.07,4.47,16.719,14.517,19.812,31.595c0.154,0.85,0.895,1.445,1.729,1.445c0.104,0,0.211-0.012,0.316-0.029
			c0.955-0.172,1.59-1.086,1.418-2.043C445.6,297.589,434.217,286.843,427.725,282.065z"/>
		<path d="M383.414,279.684c10.688-4.948,22.955-4.403,36.471,1.616c0.893,0.393,1.93-0.004,2.32-0.893
			c0.398-0.889-0.002-1.929-0.889-2.32c-14.488-6.451-27.736-6.988-39.381-1.596c-22.135,10.256-30.463,38.021-30.807,39.201
			c-0.271,0.934,0.262,1.906,1.191,2.184c0.166,0.047,0.33,0.068,0.492,0.068c0.762,0,1.465-0.5,1.689-1.27
			C354.584,316.406,362.715,289.274,383.414,279.684z"/>
		<path d="M437.002,337.779c-0.947-0.021-1.783,0.727-1.818,1.695c-0.48,13.814-5.299,26.062-14.26,36.35
			c-0.09,0.096-9.146,9.406-22.504,9.812c-0.973,0.027-1.734,0.838-1.705,1.811c0.029,0.951,0.812,1.705,1.758,1.705
			c0.02,0,0.035,0,0.053-0.002c14.783-0.445,24.533-10.469,24.996-10.951c9.562-10.975,14.666-23.959,15.178-38.602
			C438.732,338.628,437.973,337.812,437.002,337.779z"/>
		<path d="M364.676,354.462c0.947-0.207,1.551-1.143,1.346-2.092c-4.631-21.48-0.566-39.982,11.758-53.517
			c4.572-5.06,16.355-12.332,28.48-10.337c10.1,1.664,18.107,9.188,23.781,22.297c2.857,7.438,4.34,13.688,4.957,20.881
			c0.08,0.969,0.949,1.684,1.9,1.604c0.969-0.084,1.684-0.937,1.602-1.903c-0.645-7.545-2.193-14.076-5.203-21.905
			c-7.729-17.869-18.658-23.152-26.465-24.439c-13.611-2.238-26.391,5.619-31.658,11.445
			c-13.117,14.397-17.471,33.979-12.592,56.616c0.18,0.824,0.908,1.39,1.719,1.39C364.424,354.5,364.549,354.488,364.676,354.462z"
			/>
		<path d="M367.717,359.638c-0.254-0.936-1.213-1.49-2.156-1.24c-0.938,0.256-1.494,1.221-1.24,2.156
			c1.646,6.098,3.568,11.189,4.895,14.391c2.385,5.768,2.854,6.574,3.795,6.574c0.158,0,0.33-0.021,0.521-0.049
			c0.568-0.072,1.062-0.422,1.326-0.932c0.266-0.51,0.266-1.113,0.002-1.621C374.82,378.839,370.773,370.966,367.717,359.638z"/>
		<path d="M428.084,339.324c1.266-17.828-6.918-38.072-22.805-41.09c-0.961-0.186-1.877,0.446-2.059,1.398
			c-0.182,0.955,0.443,1.875,1.398,2.057c13.777,2.616,21.084,21.441,19.953,37.385c-1.084,15.271-9.988,31.945-31.729,32.943
			c-0.969,0.047-1.721,0.867-1.676,1.84c0.043,0.941,0.822,1.678,1.754,1.678c0.027,0,0.057-0.002,0.082-0.002
			C417.053,374.425,426.893,356.103,428.084,339.324z"/>
		<path d="M381.904,368.904c-5.287-17.559-9.816-41.471-1.369-55.693c3.484-5.869,9.031-9.635,16.484-11.193
			c0.951-0.199,1.559-1.135,1.361-2.083c-0.201-0.95-1.127-1.558-2.082-1.358c-8.459,1.77-14.779,6.092-18.791,12.844
			c-9.102,15.32-4.463,40.271,1.025,58.504c1.369,4.545,3.918,13.559,5.816,20.32c0.217,0.773,0.924,1.283,1.689,1.283
			c0.156,0,0.318-0.021,0.479-0.064c0.934-0.262,1.479-1.232,1.219-2.168C385.838,382.513,383.283,373.474,381.904,368.904z"/>
		<path d="M384.584,335.292c0,14.023,7.898,23.797,14.986,23.797c7.07,0,14.955-9.771,14.955-23.797
			c0-14.026-7.885-23.797-14.955-23.797C392.482,311.496,384.584,321.269,384.584,335.292z M399.572,315.013
			c4.662,0,11.436,7.9,11.436,20.279s-6.771,20.281-11.436,20.281c-5.307,0-11.471-8.859-11.471-20.281
			C388.102,323.873,394.266,315.013,399.572,315.013z"/>
	</g>
</g>
<g id="Layer_6" display="none">
	<g display="inline">
		<g>
			<path fill="#231F20" d="M371.947,327.263c-3.244-2.672-6.262-5.146-8.393-7.668c1.492,0.195,2.979,0.311,4.457,0.311
				c1.018,0,1.951-0.066,2.805-0.164c1.375,3.41,4.965,4.703,8.146,4.703c6.65,0,13.533-5.57,13.533-14.896
				c0-4.129-1.57-7.883-4.439-10.604c-3.275-3.113-8.16-4.77-14.092-4.77c-0.035,0-0.197,0-0.48,0
				c-17.748,0.195-23.502,13.045-23.502,19.307c0,0.016,0,0.033,0,0.064c-0.457-0.146-0.918-0.295-1.377-0.441
				c-7.914-2.541-16.125-5.18-25.305-5.18c-8.422,0-15.271,2.262-19.83,6.557c-3.914,3.686-6.08,8.832-6.08,14.471
				c0,9.586,6.59,19.945,17.211,19.945c7.111,0,10.291-4.574,10.404-4.77c0.395-0.59,0.246-1.377-0.344-1.771
				c-0.572-0.396-1.379-0.244-1.77,0.324c-0.115,0.146-2.605,3.652-8.311,3.652c-7.049,0-14.65-6.65-14.65-17.387
				c0-4.934,1.867-9.408,5.275-12.604c4.08-3.834,10.322-5.85,18.074-5.85c8.785,0,16.783,2.57,24.521,5.047
				c0.787,0.262,1.557,0.49,2.328,0.754c1.082,9.178,7.402,15.617,13.52,21.863c6.229,6.354,12.109,12.354,12.109,20.797
				c0,5.637-1.375,9.914-3.572,13.078c0.344-2.214,0.559-4.523,0.559-6.867c0-8.883-5.244-18.16-13.045-23.092
				c-6.406-4.064-13.457-4.641-19.812-1.623c-8.131,3.836-12.16,12.719-10.062,22.092c2.029,8.998,10.373,19.537,27.223,19.537
				v0.082c0.051,0,0.184,0,0.377,0c1.229,0,5.133-0.082,9.852-1.084c-1.721,5.064-3.59,8.475-3.621,8.541
				c-0.346,0.623-0.115,1.393,0.49,1.734c0.195,0.109,0.41,0.164,0.605,0.164c0.457,0,0.883-0.229,1.129-0.655
				c0.166-0.296,2.441-4.456,4.326-10.487c4.652-1.295,9.701-3.523,13.605-7.344c4.391-4.294,6.621-9.934,6.621-16.732
				C390.467,342.472,380.635,334.394,371.947,327.263z M372.783,316.498c0-3.08,2.08-6.541,4.852-6.541
				c0.723,0,0.736,1.166,0.736,1.297c0,1.295-0.803,2.721-2.131,3.785c-0.736,0.59-1.834,1.246-3.439,1.705
				C372.783,316.66,372.783,316.578,372.783,316.498z M373.85,296.731c0.016,0,0.033,0,0.049,0c5.293,0,9.588,1.408,12.391,4.063
				c2.359,2.229,3.654,5.326,3.654,8.752c0,7.721-5.57,12.342-10.965,12.342c-3.229,0-4.801-1.277-5.523-2.654
				c2.053-0.572,3.459-1.428,4.408-2.182c1.938-1.557,3.102-3.721,3.102-5.783c0-2.229-1.379-3.869-3.299-3.869
				c-2.061,0-3.994,1.064-5.424,3.018c-1.26,1.703-1.979,3.934-1.979,6.08c0,0.262,0.016,0.49,0.031,0.738
				c-0.689,0.08-1.428,0.111-2.242,0.111c-2.133,0-4.295-0.246-6.512-0.672c-0.732-1.377-1.16-2.787-1.16-4.275
				c0-5.293,1.404-9.359,4.191-12.046c3.295-3.196,7.654-3.573,8.916-3.623C373.699,296.731,373.832,296.731,373.85,296.731z
				 M332.338,361.976c-1.869-8.309,1.521-15.85,8.65-19.225c2.328-1.1,4.77-1.641,7.23-1.641c3.389,0,6.85,1.049,10.127,3.111
				c7.078,4.488,11.848,12.896,11.848,20.932c0,3.621-0.539,7.193-1.311,10.438c-3.477,2.771-7.783,3.937-11.803,3.937
				C341.727,379.529,334.154,370.072,332.338,361.976z"/>
		</g>
		<g>
			<path stroke="#000000" stroke-width="0.3851" stroke-miterlimit="10" d="M459.727,353.927"/>
			<path fill="none" d="M444.863,316.853v1.369h-5.086v-2.082h-15.004v2.082h-2.078v15.373h2.078v2.141h15.004v-2.141h5.086v1.414
				c1.143-0.385,2.113-0.916,2.891-1.605c1.482-1.32,2.336-3.408,2.549-6.199h-1.973v-5.084h1.588
				c-0.424-1.561-1.139-2.803-2.16-3.695C446.98,317.751,446.01,317.228,444.863,316.853z"/>
			<path d="M459.91,344.666c1.244,1.082,2.273,2.379,3.059,3.854c0.793,1.479,1.377,3.143,1.744,4.928
				c0.363,1.807,0.623,3.639,0.752,5.445c0.07,1.158,0.139,2.518,0.207,4.08c0.062,1.562,0.186,3.189,0.357,4.824
				c0.17,1.646,0.451,3.232,0.828,4.711c0.094,0.371,0.207,0.725,0.324,1.068h0.988c-0.154-0.412-0.303-0.842-0.416-1.299
				c-0.367-1.436-0.643-2.975-0.811-4.576c-0.168-1.617-0.289-3.225-0.354-4.773c-0.066-1.564-0.137-2.93-0.207-4.096
				c-0.137-1.854-0.396-3.729-0.771-5.57c-0.381-1.877-1-3.617-1.834-5.18c-0.838-1.572-1.934-2.955-3.268-4.113
				c-0.768-0.663-1.662-1.227-2.664-1.699v1.021C458.619,343.685,459.309,344.142,459.91,344.666z"/>
			<path d="M454.17,305.235c1.893,0.765,3.6,1.749,5.096,2.933v-0.445h0.898c-1.645-1.359-3.531-2.488-5.65-3.346
				c-1.285-0.519-2.658-0.904-4.105-1.176v0.94C451.729,304.399,452.986,304.761,454.17,305.235z"/>
			<path d="M463.74,334.232c-1.314,2.287-3.291,4.18-5.891,5.65v1.053c2.967-1.588,5.217-3.678,6.688-6.24
				c1.271-2.201,2.098-4.719,2.494-7.49h-0.934C465.717,329.81,464.934,332.167,463.74,334.232z"/>
			<rect x="408.748" y="302.763" width="36.576" height="0.922"/>
			<rect x="405.744" y="305.765" width="0.926" height="67.811"/>
			<path d="M451.791,367.818c-0.203-3.182-0.516-6.283-0.92-9.227c-0.229-1.59-0.572-3.004-1.02-4.262h-0.982
				c0.48,1.266,0.846,2.725,1.084,4.391c0.406,2.916,0.711,5.996,0.914,9.154c0.131,2.074,0.412,3.979,0.832,5.699h0.961
				C452.227,371.849,451.928,369.931,451.791,367.818z"/>
			<rect x="421.771" y="350.175" width="0.924" height="23.4"/>
			<path d="M446.426,349.248c-1.875-1.375-4.613-2.078-8.16-2.078h-13.49v0.928h13.486c3.012,0,5.371,0.521,7.062,1.54v-0.39
				H446.426L446.426,349.248z"/>
			<rect x="408.748" y="375.656" width="10.941" height="0.924"/>
			<rect x="455.49" y="375.656" width="10.959" height="0.924"/>
			<path d="M447.758,318.425c1.021,0.893,1.736,2.135,2.158,3.695h0.967c-0.457-1.857-1.295-3.33-2.516-4.395
				c-0.938-0.812-2.113-1.434-3.504-1.854v0.979C446.01,317.228,446.98,317.751,447.758,318.425z"/>
			<rect x="424.773" y="335.736" width="15.004" height="0.924"/>
			<rect x="424.773" y="315.216" width="15.004" height="0.924"/>
			<rect x="421.771" y="318.222" width="0.924" height="15.373"/>
			<path d="M447.754,333.404c-0.771,0.688-1.748,1.221-2.891,1.604v0.98c1.396-0.432,2.566-1.061,3.508-1.895
				c1.682-1.498,2.643-3.811,2.861-6.891h-0.932C450.09,329.996,449.236,332.083,447.754,333.404z"/>
			<rect x="404.588" y="301.606" width="3.232" height="3.233"/>
			<rect x="446.248" y="301.606" width="3.234" height="3.233"/>
			<rect x="420.613" y="314.062" width="3.236" height="3.236"/>
			<rect x="420.613" y="334.521" width="3.236" height="3.234"/>
			<rect x="420.613" y="346.017" width="3.236" height="3.23"/>
			<rect x="446.248" y="350.175" width="3.234" height="3.229"/>
			<rect x="420.613" y="374.5" width="3.236" height="3.236"/>
			<rect x="404.588" y="374.5" width="3.232" height="3.236"/>
			<rect x="451.332" y="374.5" width="3.234" height="3.236"/>
			<rect x="467.373" y="374.5" width="3.232" height="3.236"/>
			<rect x="453.693" y="340.199" width="3.232" height="3.23"/>
			<rect x="449.256" y="323.044" width="3.229" height="3.234"/>
			<rect x="440.705" y="314.062" width="3.232" height="3.236"/>
			<rect x="440.705" y="334.521" width="3.232" height="3.234"/>
			<rect x="460.188" y="308.646" width="3.236" height="3.232"/>
			<path d="M468.531,326.281v-3.236h-1.238v-18.537c0.67-0.195,1.162-0.812,1.162-1.553c0-0.896-0.729-1.625-1.629-1.625
				c-0.896,0-1.623,0.729-1.623,1.625c0,0.737,0.49,1.354,1.164,1.553v12.445c-0.168-0.543-0.359-1.076-0.572-1.604
				c-0.402-0.98-0.9-1.906-1.445-2.801v0.252h-0.924c0.584,0.92,1.1,1.881,1.514,2.9c0.814,2,1.285,4.152,1.408,6.418h0.02v0.926
				h-1.068v3.232h1.068v18.434c-0.674,0.201-1.164,0.814-1.164,1.555c0,0.896,0.73,1.623,1.623,1.623c0.9,0,1.629-0.727,1.629-1.623
				c0-0.736-0.49-1.354-1.16-1.555v-18.43H468.531L468.531,326.281z"/>
		</g>
	</g>
</g>
<g>
	<path fill="#FF3333" d="M69.485,171.933c0.124,0.125,3.105,3.086,6.889,3.086c1.914,0,3.618-0.74,4.925-1.566
		c0.744,3.193,2.619,11.154,3.063,13.043l0.162,0.689h7.591l0.176-0.664c0.3-1.133,2.519-9.539,3.351-12.734
		c1.052,0.57,2.693,1.232,4.648,1.232c3.779,0,6.763-2.965,6.886-3.088l0.623-0.629l-0.623-0.629
		c-0.125-0.123-3.106-3.084-6.888-3.084c-1.672,0-3.19,0.58-4.385,1.248c-0.098-0.393-0.231-0.771-0.387-1.139
		c2.126-0.611,3.696-2.553,3.696-4.871h-1.782c0,1.672-1.253,3.047-2.868,3.264c-1.397-1.844-3.592-3.043-6.067-3.043
		c-2.464,0-4.658,1.215-6.059,3.059c-1.681-0.154-3.01-1.559-3.01-3.279h-1.782c0,2.365,1.629,4.342,3.819,4.91
		c-0.173,0.406-0.313,0.828-0.413,1.264c-1.262-0.756-2.875-1.412-4.677-1.412c-3.781,0-6.764,2.961-6.889,3.086l-0.625,0.629
		L69.485,171.933z M95.75,171.046c1.064-0.764,2.713-1.674,4.538-1.674c2.062,0,3.912,1.176,4.89,1.936
		c-0.973,0.754-2.815,1.93-4.89,1.93c-2.371,0-4.183-1.201-4.68-1.568l-0.358-0.264L95.75,171.046z M82.642,170.578
		c0.062-3.168,2.689-5.748,5.855-5.748c3.108,0,5.676,2.432,5.846,5.539l0.054,0.99l-0.188,0.834
		c-0.083,0.375-2.056,7.865-3.465,13.209h-4.809c-0.999-4.246-3.123-13.273-3.193-13.609l-0.112-0.602L82.642,170.578z
		 M76.374,169.373c2.067,0,3.915,1.186,4.833,1.895l0.05,0.037c-0.955,0.742-2.807,1.934-4.883,1.934
		c-2.063,0-3.913-1.176-4.892-1.936C72.457,170.544,74.299,169.373,76.374,169.373z"/>
	<path fill="#FF3333" d="M77.862,84.487h20.932c1.411,0,2.559-1.282,2.559-2.856v-6.799c0-1.575-1.148-2.856-2.559-2.856H77.862
		c-1.41,0-2.557,1.282-2.557,2.856v6.799C75.306,83.206,76.453,84.487,77.862,84.487z M77.706,74.832
		c0-0.271,0.125-0.437,0.156-0.456l20.912-0.003c0.052,0.023,0.178,0.188,0.178,0.459v6.799c0,0.261-0.116,0.423-0.172,0.456
		l-20.897,0.004c-0.052-0.023-0.176-0.188-0.176-0.46V74.832z"/>
	<path fill="#FF3333" d="M137.879,154.031h39.33v-31.738h-39.33V154.031z M140.279,124.693h34.529v26.938h-34.529V124.693z"/>
	<rect x="139.206" y="156.882" fill="#FF3333" width="36.803" height="2.4"/>
	<rect x="139.206" y="162.468" fill="#FF3333" width="36.803" height="2.4"/>
	<rect x="139.206" y="168.054" fill="#FF3333" width="36.803" height="2.4"/>
	<rect x="139.206" y="173.638" fill="#FF3333" width="36.803" height="2.4"/>
	<rect x="139.206" y="179.22" fill="#FF3333" width="36.803" height="2.4"/>
	<rect x="139.206" y="184.806" fill="#FF3333" width="36.803" height="2.4"/>
	<rect x="139.206" y="190.39" fill="#FF3333" width="36.803" height="2.4"/>
	<rect x="139.206" y="195.978" fill="#FF3333" width="26.741" height="2.4"/>
	<path fill="#FF3333" d="M162.594,93.206H99.188c-0.24-0.158-0.458-0.298-0.635-0.409v-0.294h2.97V85.71H75.138v6.793h2.97v0.294
		c-3.406,2.122-19.396,13.188-13.037,30.241c0.068,0.186,1.628,4.426,3.013,6.99c-0.032,1.141-0.446,5.988-4.956,11.25l-0.289,0.336
		v68.848c0,4.18,3.401,7.582,7.581,7.582h35.82c2.434,0,4.598-1.158,5.986-2.945h67.239c4.232,0,7.675-3.352,7.675-7.469
		l0.021-89.111L162.594,93.206z M113.042,114.251c-0.07-1.512-0.308-2.954-0.675-4.325h48.52v2.789c0,0.526,0.058,1.04,0.165,1.536
		H113.042z M111.422,151.984H65.239v-2.293h46.183V151.984z M111.422,154.384v41.797H65.239v-41.797H111.422z M65.239,198.582
		h46.183v2.295H65.239V198.582z M113.533,141.279c-4.515-5.268-4.925-10.119-4.957-11.248c0.859-1.592,1.785-3.826,2.381-5.338
		h21.24v73.156h-18.375v-56.234L113.533,141.279z M163.286,97.366l19.815,20.417l-14.542,0.002c-2.907,0-5.273-2.275-5.273-5.07
		V97.366z M160.886,95.606v11.919h-49.314c-2.108-5.311-6.041-9.357-9.146-11.919H160.886z M70.481,129.658l-0.015-0.281
		l-0.138-0.244c-1.325-2.354-2.989-6.875-3.007-6.926c-6.339-17,11.791-27.251,12.565-27.679l0.621-0.343v-4.082h-2.97V88.11h21.584
		v1.992h-2.97v4.083l0.622,0.342c0.048,0.026,4.818,2.682,8.752,7.461c5.184,6.298,6.467,13.1,3.811,20.223
		c-0.017,0.045-1.681,4.566-3.005,6.92l-0.138,0.244l-0.015,0.281c-0.014,0.254-0.258,6.213,5.243,12.84v4.793H65.239v-4.793
		C70.739,135.871,70.495,129.912,70.481,129.658z M106.24,215.644H70.42c-2.857,0-5.181-2.324-5.181-5.182v-7.186h46.183v7.186
		C111.422,213.32,109.098,215.644,106.24,215.644z M179.465,212.699h-65.98c0.219-0.707,0.337-1.459,0.337-2.236V200.25h20.775
		v-77.957h-22.757c0.663-1.963,1.039-3.846,1.167-5.641h49.042c1.356,2.117,3.763,3.533,6.51,3.533l16.201-0.002l-0.021,87.447
		C184.739,210.425,182.373,212.699,179.465,212.699z"/>
</g>
</svg>
