<?xml version="1.0" encoding="utf-8"?>
<!-- Generator: Adobe Illustrator 16.0.0, SVG Export Plug-In . SVG Version: 6.00 Build 0)  -->
<!DOCTYPE svg PUBLIC "-//W3C//DTD SVG 1.1//EN" "http://www.w3.org/Graphics/SVG/1.1/DTD/svg11.dtd">
<svg version="1.1" id="Layer_1" xmlns="http://www.w3.org/2000/svg" xmlns:xlink="http://www.w3.org/1999/xlink" x="0px" y="0px"
	 width="163.2px" height="45.6px" viewBox="0 0 163.2 45.6" enable-background="new 0 0 163.2 45.6" xml:space="preserve">
<g>
	<path fill="#6A6666" d="M12.511,38.779H11.82v-0.722c-0.117,0.167-0.601,0.836-1.615,0.836c-1.337,0-2.279-0.995-2.279-2.395
		c0-1.409,0.897-2.412,2.225-2.412c0.969,0,1.507,0.616,1.642,0.854v-2.526h0.718V38.779z M10.232,34.72
		c-0.916,0-1.579,0.739-1.579,1.787c0,1.065,0.691,1.761,1.588,1.761c0.978,0,1.579-0.801,1.579-1.761
		C11.82,35.371,11.102,34.72,10.232,34.72z"/>
	<path fill="#6A6666" d="M15.693,32.545c0.278,0,0.494,0.211,0.494,0.476c0,0.272-0.215,0.484-0.494,0.484
		c-0.269,0-0.484-0.212-0.484-0.484C15.208,32.756,15.424,32.545,15.693,32.545z M15.343,34.2h0.709v4.578h-0.709V34.2z"/>
	<path fill="#6A6666" d="M19.024,37.599c0.197,0.361,0.529,0.704,1.166,0.704c0.467,0,0.861-0.264,0.861-0.73
		c0-1.057-2.342-0.695-2.342-2.245c0-0.775,0.655-1.241,1.499-1.241c0.87,0,1.319,0.537,1.444,0.88l-0.52,0.291
		c-0.126-0.247-0.368-0.59-0.969-0.59c-0.431,0-0.771,0.237-0.771,0.634c0,1.03,2.351,0.643,2.351,2.236
		c0,0.81-0.682,1.355-1.588,1.355c-0.978,0-1.417-0.546-1.624-0.978L19.024,37.599z"/>
	<path fill="#6A6666" d="M26.197,34.086c1.373,0,2.216,0.968,2.216,2.342c0,0.026,0,0.123-0.009,0.211h-3.741
		c0.009,1.021,0.709,1.638,1.678,1.638c0.79,0,1.229-0.405,1.454-0.713l0.466,0.334c-0.26,0.432-0.87,0.995-1.929,0.995
		c-1.417,0-2.396-0.978-2.396-2.386C23.937,35.045,24.959,34.086,26.197,34.086z M27.687,36.119
		c-0.044-0.95-0.718-1.435-1.489-1.435c-0.763,0-1.444,0.572-1.498,1.435H27.687z"/>
	<path fill="#6A6666" d="M34.664,35.917v2.861h-0.709v-2.888c0-0.73-0.467-1.171-1.104-1.171c-0.718,0-1.211,0.52-1.211,1.276v2.782
		h-0.708V34.2h0.7v0.66c0.224-0.414,0.745-0.774,1.391-0.774C34.107,34.086,34.664,34.878,34.664,35.917z M32.241,33.091
		c-0.197,0-0.332,0.149-0.341,0.388h-0.511c0-0.563,0.35-0.925,0.843-0.925c0.458,0,0.798,0.388,1.122,0.388
		c0.197,0,0.332-0.15,0.341-0.388h0.502c0,0.563-0.332,0.934-0.825,0.934C32.905,33.488,32.591,33.091,32.241,33.091z"/>
	<path fill="#6A6666" d="M39.594,34.086c1.409,0,2.432,1.03,2.432,2.403s-1.041,2.403-2.44,2.403s-2.432-1.013-2.432-2.403
		C37.154,35.107,38.204,34.086,39.594,34.086z M39.585,38.259c1.005,0,1.723-0.748,1.723-1.77c0-1.013-0.718-1.77-1.723-1.77
		s-1.705,0.766-1.705,1.77C37.881,37.52,38.589,38.259,39.585,38.259z"/>
	<path fill="#6A6666" d="M48.836,35.521c0.278,0,0.511,0.221,0.511,0.493c0,0.273-0.233,0.502-0.511,0.502s-0.502-0.229-0.502-0.502
		C48.333,35.741,48.558,35.521,48.836,35.521z"/>
	<path fill="#6A6666" d="M55.966,34.2h0.682v0.722c0.117-0.167,0.61-0.836,1.624-0.836c1.328,0,2.279,0.994,2.279,2.395
		c0,1.417-0.906,2.412-2.225,2.412c-0.978,0-1.507-0.616-1.651-0.854v2.386h-0.709V34.2z M58.245,38.259
		c0.915,0,1.579-0.73,1.579-1.778c0-1.074-0.7-1.761-1.597-1.761c-0.969,0-1.579,0.801-1.579,1.761
		C56.648,37.608,57.366,38.259,58.245,38.259z"/>
	<path fill="#6A6666" d="M65.177,34.781c-1.068,0-1.382,0.827-1.382,1.805v2.192h-0.708V34.2h0.7v0.766
		c0.162-0.458,0.682-0.88,1.391-0.88V34.781z"/>
	<path fill="#6A6666" d="M69.622,34.086c1.409,0,2.432,1.03,2.432,2.403s-1.041,2.403-2.44,2.403s-2.432-1.013-2.432-2.403
		C67.182,35.107,68.231,34.086,69.622,34.086z M69.613,38.259c1.005,0,1.723-0.748,1.723-1.77c0-1.013-0.718-1.77-1.723-1.77
		s-1.705,0.766-1.705,1.77C67.909,37.52,68.617,38.259,69.613,38.259z"/>
	<path fill="#6A6666" d="M75.083,39.465c0.18,0.105,0.736,0.379,1.409,0.379c0.888,0,1.642-0.361,1.642-1.383v-0.404
		c-0.107,0.167-0.592,0.836-1.615,0.836c-1.336,0-2.252-0.995-2.252-2.395c0-1.409,0.924-2.412,2.243-2.412
		c0.969,0,1.499,0.607,1.651,0.854V34.2h0.682v3.944c0,1.734-0.996,2.324-2.342,2.324c-0.61,0-1.265-0.211-1.669-0.458
		L75.083,39.465z M76.563,34.72c-0.906,0-1.579,0.73-1.579,1.778c0,1.065,0.7,1.761,1.597,1.761c0.96,0,1.579-0.774,1.579-1.761
		C78.161,35.389,77.452,34.72,76.563,34.72z"/>
	<path fill="#6A6666" d="M83.729,34.781c-1.068,0-1.382,0.827-1.382,1.805v2.192h-0.708V34.2h0.7v0.766
		c0.162-0.458,0.682-0.88,1.391-0.88V34.781z"/>
	<path fill="#6A6666" d="M87.627,35.865c0.592,0,1.04,0.22,1.229,0.414v-0.563c0-0.644-0.439-1.013-1.131-1.013
		c-0.574,0-1.041,0.202-1.373,0.396l-0.287-0.51c0.314-0.194,0.934-0.502,1.723-0.502c1.275,0,1.777,0.695,1.777,1.673v3.02h-0.61
		l-0.081-0.388c-0.242,0.273-0.637,0.502-1.265,0.502c-1.022,0-1.776-0.634-1.776-1.522C85.833,36.498,86.577,35.865,87.627,35.865z
		 M87.725,38.312c0.682,0,1.158-0.396,1.158-0.951c0-0.572-0.467-0.941-1.166-0.941c-0.709,0-1.167,0.405-1.167,0.941
		C86.55,37.889,87.008,38.312,87.725,38.312z"/>
	<path fill="#6A6666" d="M98.856,38.779h-0.709v-2.756c0-0.862-0.359-1.303-1.049-1.303c-0.656,0-1.148,0.458-1.148,1.312v2.747
		h-0.709v-2.888c0-0.73-0.413-1.171-1.068-1.171c-0.619,0-1.131,0.511-1.131,1.285v2.773h-0.709V34.2h0.701c0,0.423,0,0.66,0,0.66
		c0.179-0.396,0.672-0.774,1.318-0.774c0.699,0,1.193,0.334,1.408,0.836c0.278-0.546,0.835-0.836,1.498-0.836
		c1.041,0,1.598,0.722,1.598,1.726V38.779z"/>
	<path fill="#6A6666" d="M103.153,35.865c0.592,0,1.04,0.22,1.229,0.414v-0.563c0-0.644-0.439-1.013-1.131-1.013
		c-0.574,0-1.041,0.202-1.373,0.396l-0.287-0.51c0.314-0.194,0.934-0.502,1.723-0.502c1.275,0,1.777,0.695,1.777,1.673v3.02h-0.61
		l-0.081-0.388c-0.242,0.273-0.637,0.502-1.265,0.502c-1.022,0-1.776-0.634-1.776-1.522
		C101.358,36.498,102.102,35.865,103.153,35.865z M103.25,38.312c0.682,0,1.158-0.396,1.158-0.951c0-0.572-0.467-0.941-1.166-0.941
		c-0.709,0-1.167,0.405-1.167,0.941C102.076,37.889,102.534,38.312,103.25,38.312z"/>
	<path fill="#6A6666" d="M111.331,35.31c-0.188-0.193-0.672-0.581-1.381-0.581c-0.979,0-1.67,0.766-1.67,1.761
		c0,0.986,0.727,1.77,1.688,1.77c0.735,0,1.202-0.423,1.391-0.607l0.215,0.59c-0.188,0.193-0.762,0.651-1.633,0.651
		c-1.391,0-2.396-1.048-2.396-2.403s1.032-2.403,2.387-2.403c0.853,0,1.399,0.396,1.642,0.625L111.331,35.31z"/>
	<path fill="#6A6666" d="M114.414,32.545c0.278,0,0.493,0.211,0.493,0.476c0,0.272-0.215,0.484-0.493,0.484
		c-0.269,0-0.484-0.212-0.484-0.484C113.929,32.756,114.145,32.545,114.414,32.545z M114.063,34.2h0.709v4.578h-0.709V34.2z"/>
	<path fill="#6A6666" d="M119.737,34.086c1.408,0,2.432,1.03,2.432,2.403s-1.041,2.403-2.44,2.403s-2.432-1.013-2.432-2.403
		C117.296,35.107,118.346,34.086,119.737,34.086z M119.728,38.259c1.005,0,1.723-0.748,1.723-1.77c0-1.013-0.718-1.77-1.723-1.77
		s-1.704,0.766-1.704,1.77C118.024,37.52,118.732,38.259,119.728,38.259z M119.925,32.396h0.78l-0.799,1.25h-0.618L119.925,32.396z"
		/>
	<path fill="#6A6666" d="M128.418,35.917v2.861h-0.709v-2.888c0-0.73-0.467-1.171-1.104-1.171c-0.717,0-1.211,0.52-1.211,1.276
		v2.782h-0.709V34.2h0.7v0.66c0.224-0.414,0.745-0.774,1.391-0.774C127.862,34.086,128.418,34.878,128.418,35.917z"/>
	<path fill="#6A6666" d="M138.153,35.143l-1.247,3.636h-0.78l-1.57-4.578h0.771l1.221,3.769c0,0,0.008-0.018,1.256-3.769h0.699
		c1.238,3.751,1.248,3.769,1.248,3.769l1.229-3.769h0.771l-1.579,4.578h-0.78L138.153,35.143z"/>
	<path fill="#6A6666" d="M146.002,34.086c1.373,0,2.216,0.968,2.216,2.342c0,0.026,0,0.123-0.009,0.211h-3.742
		c0.01,1.021,0.709,1.638,1.678,1.638c0.79,0,1.23-0.405,1.454-0.713l0.466,0.334c-0.26,0.432-0.869,0.995-1.928,0.995
		c-1.418,0-2.396-0.978-2.396-2.386C143.741,35.045,144.764,34.086,146.002,34.086z M147.491,36.119
		c-0.044-0.95-0.717-1.435-1.488-1.435c-0.764,0-1.445,0.572-1.498,1.435H147.491z"/>
	<path fill="#6A6666" d="M150.735,32.413h0.709v2.526c0.145-0.237,0.674-0.854,1.651-0.854c1.319,0,2.226,1.003,2.226,2.412
		c0,1.399-0.951,2.395-2.279,2.395c-1.014,0-1.508-0.669-1.624-0.836v0.722h-0.683V32.413z M152.997,38.268
		c0.896,0,1.598-0.695,1.598-1.761c0-1.048-0.664-1.787-1.58-1.787c-0.879,0-1.597,0.651-1.597,1.787
		C151.417,37.467,152.028,38.268,152.997,38.268z"/>
</g>
<text transform="matrix(1.0204 0 0 1 7.6299 62.2786)"><tspan x="0" y="0" fill="#6A6666" font-family="'Geomanist-Regular'" font-size="8.8" letter-spacing="0.98">di</tspan><tspan x="10.428" y="0" fill="#6A6666" font-family="'Geomanist-Regular'" font-size="8.8" letter-spacing="0.98">seño</tspan><tspan x="35.587" y="0" fill="#6A6666" font-family="'Geomanist-Regular'" font-size="8.8" letter-spacing="0.98"> · </tspan><tspan x="46.772" y="0" fill="#6A6666" font-family="'Geomanist-Regular'" font-size="8.8" letter-spacing="0.98">p</tspan><tspan x="53.75" y="0" fill="#6A6666" font-family="'Geomanist-Regular'" font-size="8.8" letter-spacing="0.98">r</tspan><tspan x="58.071" y="0" fill="#6A6666" font-family="'Geomanist-Regular'" font-size="8.8" letter-spacing="0.98">o</tspan><tspan x="65.014" y="0" fill="#6A6666" font-family="'Geomanist-Regular'" font-size="8.8" letter-spacing="0.98">g</tspan><tspan x="71.93" y="0" fill="#6A6666" font-family="'Geomanist-Regular'" font-size="8.8" letter-spacing="0.98">rama</tspan><tspan x="97.626" y="0" fill="#6A6666" font-family="'Geomanist-Regular'" font-size="8.8" letter-spacing="0.98">c</tspan><tspan x="103.707" y="0" fill="#6A6666" font-family="'Geomanist-Regular'" font-size="8.8" letter-spacing="0.98">i</tspan><tspan x="107.183" y="0" fill="#6A6666" font-family="'Geomanist-Regular'" font-size="8.8" letter-spacing="0.98">ón </tspan><tspan x="124.326" y="0" fill="#6A6666" font-family="'Geomanist-Regular'" font-size="8.8" letter-spacing="0.98">we</tspan><tspan x="139.646" y="0" fill="#6A6666" font-family="'Geomanist-Regular'" font-size="8.8">b</tspan></text>
<g>
	<defs>
		<rect id="SVGID_1_" y="6.352" width="165.137" height="34.933"/>
	</defs>
	<clipPath id="SVGID_2_">
		<use xlink:href="#SVGID_1_"  overflow="visible"/>
	</clipPath>
	<path clip-path="url(#SVGID_2_)" fill="#CC0000" d="M8.003,19.718c0.701,1.475,1.903,2.948,4.408,2.948
		c1.903,0,3.708-1.176,3.708-3.241c0-4.521-8.821-3.048-8.821-8.547c0-2.651,2.205-4.317,5.112-4.317
		c3.208,0,4.613,1.964,5.012,3.335l-1.303,0.491c-0.501-1.081-1.304-2.456-3.809-2.456c-1.805,0-3.408,1.085-3.408,2.848
		c0,4.318,8.822,2.845,8.822,8.645c0,2.851-2.306,4.816-5.412,4.816c-3.708,0-5.113-2.163-5.814-3.832L8.003,19.718z"/>
	<path clip-path="url(#SVGID_2_)" fill="#CC0000" d="M26.847,22.569c2.906,0,4.91-1.768,4.91-4.125c0-2.355-1.903-4.028-4.91-4.028
		s-4.911,1.768-4.911,4.028C21.934,20.801,23.84,22.569,26.847,22.569 M26.745,13.041c2.306,0,4.209,0.982,4.91,1.768v-2.555
		c0-2.848-1.903-4.321-4.71-4.321c-2.305,0-4.111,0.884-5.313,1.576l-0.701-1.29c0.902-0.59,3.208-1.771,6.117-1.771
		c4.208,0,6.213,2.456,6.213,5.895v11.295h-1.402l-0.3-1.572c-0.902,1.083-2.404,1.965-4.911,1.965
		c-3.909,0-6.616-2.455-6.616-5.598C20.229,15.398,22.937,13.041,26.745,13.041"/>
	<path clip-path="url(#SVGID_2_)" fill="#CC0000" d="M44.89,8.031c-4.111,0-5.312,3.242-5.312,6.773v8.84h-1.606V6.852h1.606v3.046
		c0.501-1.669,2.506-3.438,5.312-3.438V8.031z"/>
	<path clip-path="url(#SVGID_2_)" fill="#CC0000" d="M53.912,22.569c2.906,0,4.91-1.768,4.91-4.125c0-2.355-1.903-4.028-4.91-4.028
		c-3.008,0-4.911,1.768-4.911,4.028C48.9,20.801,50.802,22.569,53.912,22.569 M53.809,13.041c2.307,0,4.209,0.982,4.91,1.768v-2.555
		c0-2.848-1.903-4.321-4.71-4.321c-2.306,0-4.111,0.884-5.313,1.576l-0.701-1.29c0.902-0.59,3.208-1.771,6.117-1.771
		c4.208,0,6.213,2.456,6.213,5.895v11.295h-1.401l-0.301-1.572c-0.902,1.083-2.405,1.965-4.911,1.965
		c-3.908,0-6.616-2.455-6.616-5.598C47.194,15.398,50,13.041,53.809,13.041"/>
	<path clip-path="url(#SVGID_2_)" fill="#CC0000" d="M86.689,10.487c-0.602-0.688-2.608-2.456-5.615-2.456
		c-3.907,0-6.816,3.131-6.816,7.265c0,4.032,3.007,7.269,6.915,7.269c3.209,0,5.014-1.865,5.713-2.558l0.604,1.374
		c-0.501,0.688-2.807,2.652-6.307,2.652c-5.012,0-8.622-3.928-8.622-8.84s3.708-8.841,8.622-8.841c3.405,0,5.514,1.658,6.307,2.555
		L86.689,10.487z"/>
	<path clip-path="url(#SVGID_2_)" fill="#CC0000" d="M98.518,22.569c4.107,0,7.116-3.143,7.116-7.269
		c0-4.125-2.903-7.265-7.116-7.265c-4.212,0-7.018,3.132-7.018,7.265C91.399,19.524,94.306,22.569,98.518,22.569 M98.518,6.457
		c5.011,0,8.819,3.83,8.819,8.841c0,5.014-3.809,8.84-8.819,8.84c-5.013,0-8.822-3.731-8.822-8.84
		C89.696,10.191,93.505,6.457,98.518,6.457"/>
	<path clip-path="url(#SVGID_2_)" fill="#CC0000" d="M110.845,17.754V6.851h1.604v10.806c0,3.046,2.004,4.911,4.614,4.911
		c3.007,0,5.116-2.16,5.116-5.505V6.851h1.608v16.797h-1.608v-2.65c-0.897,1.668-2.903,3.049-5.314,3.049
		C113.451,24.14,110.845,21.684,110.845,17.754"/>
	<path clip-path="url(#SVGID_2_)" fill="#CC0000" d="M128.788,19.718c0.702,1.475,1.906,2.948,4.412,2.948
		c1.9,0,3.707-1.176,3.707-3.241c0-4.521-8.823-3.048-8.823-8.547c0.003-2.651,2.198-4.317,5.116-4.317
		c3.206,0,4.609,1.964,5.011,3.335l-1.403,0.491c-0.501-1.081-1.304-2.456-3.81-2.456c-1.804,0-3.406,1.085-3.406,2.848
		c0,4.318,8.818,2.845,8.818,8.645c0,2.849-2.304,4.812-5.407,4.812c-3.702,0-5.117-2.16-5.812-3.83L128.788,19.718z"/>
	<path clip-path="url(#SVGID_2_)" fill="#CC0000" d="M149.837,22.569c4.11,0,7.117-3.143,7.117-7.269
		c0-4.124-2.902-7.265-7.117-7.265c-4.208,0-7.017,3.132-7.017,7.265C142.721,19.524,145.629,22.569,149.837,22.569 M149.837,6.457
		c5.012,0,8.822,3.83,8.822,8.841c0,5.014-3.811,8.84-8.822,8.84s-8.822-3.731-8.822-8.84
		C141.015,10.191,144.826,6.457,149.837,6.457"/>
</g>
</svg>
