<?xml version="1.0" encoding="utf-8"?>
<!-- Generator: Adobe Illustrator 16.0.0, SVG Export Plug-In . SVG Version: 6.00 Build 0)  -->
<!DOCTYPE svg PUBLIC "-//W3C//DTD SVG 1.1//EN" "http://www.w3.org/Graphics/SVG/1.1/DTD/svg11.dtd">
<svg version="1.1" id="Layer_1" xmlns="http://www.w3.org/2000/svg" xmlns:xlink="http://www.w3.org/1999/xlink" x="0px" y="0px"
	 width="163.2px" height="45.6px" viewBox="0 0 163.2 45.6" enable-background="new 0 0 163.2 45.6" xml:space="preserve">
<g>
	<path fill="#CC0000" d="M7.2-37.817c0.699,1.5,1.898,3,4.398,3c1.899,0,3.7-1.198,3.7-3.3c0-4.601-8.801-3.101-8.801-8.7
		c0-2.699,2.2-4.396,5.101-4.396c3.2,0,4.602,2,5,3.396l-1.3,0.5c-0.5-1.101-1.301-2.5-3.801-2.5c-1.8,0-3.399,1.104-3.399,2.899
		c0,4.396,8.801,2.896,8.801,8.8c0,2.901-2.301,4.902-5.399,4.902c-3.699,0-5.101-2.201-5.8-3.9L7.2-37.817z"/>
	<path fill="#CC0000" d="M25.898-44.615c2.301,0,4.199,1,4.899,1.8v-2.601c0-2.899-1.899-4.399-4.7-4.399
		c-2.3,0-4.101,0.899-5.3,1.604l-0.7-1.312c0.9-0.602,3.2-1.803,6.102-1.803c4.199,0,6.199,2.5,6.199,6v11.5H31l-0.3-1.601
		c-0.899,1.101-2.399,2-4.899,2c-3.899,0-6.601-2.5-6.601-5.699C19.398-42.216,22.098-44.615,25.898-44.615z M26-34.916
		c2.899,0,4.899-1.8,4.899-4.199c0-2.398-1.899-4.101-4.899-4.101s-4.899,1.8-4.899,4.101C21.098-36.716,23-34.916,26-34.916z"/>
	<path fill="#CC0000" d="M44-49.716c-4.101,0-5.3,3.3-5.3,6.896v9h-1.602v-17.096H38.7v3.101c0.5-1.698,2.5-3.5,5.3-3.5V-49.716z"/>
	<path fill="#CC0000" d="M52.898-44.615c2.301,0,4.199,1,4.899,1.8v-2.601c0-2.899-1.899-4.399-4.7-4.399
		c-2.3,0-4.101,0.899-5.3,1.604l-0.7-1.312c0.9-0.602,3.2-1.803,6.102-1.803c4.199,0,6.199,2.5,6.199,6v11.5H58l-0.3-1.601
		c-0.899,1.101-2.399,2-4.899,2c-3.899,0-6.601-2.5-6.601-5.699C46.298-42.216,49.098-44.615,52.898-44.615z M53-34.916
		c2.899,0,4.899-1.8,4.899-4.199c0-2.398-1.899-4.101-4.899-4.101s-4.899,1.8-4.899,4.101C48-36.716,49.898-34.916,53-34.916z"/>
	<path fill="#CC0000" d="M85.7-47.216c-0.6-0.7-2.602-2.5-5.602-2.5c-3.898,0-6.8,3.188-6.8,7.396c0,4.104,3,7.399,6.899,7.399
		c3.201,0,5-1.899,5.699-2.604l0.603,1.399c-0.5,0.7-2.799,2.701-6.292,2.701c-5,0-8.602-4-8.602-9s3.7-9,8.602-9
		c3.398,0,5.5,1.688,6.292,2.601L85.7-47.216z"/>
	<path fill="#CC0000" d="M97.5-51.317c5,0,8.799,3.899,8.799,9c0,5.104-3.799,9-8.799,9s-8.801-3.8-8.801-9
		C88.7-47.516,92.5-51.317,97.5-51.317z M97.5-34.916c4.1,0,7.1-3.199,7.1-7.399c0-4.199-2.896-7.396-7.1-7.396
		c-4.201,0-7,3.188-7,7.396C90.399-38.016,93.299-34.916,97.5-34.916z"/>
	<path fill="#CC0000" d="M109.799-39.817v-11.1h1.6v11c0,3.101,2,5,4.604,5c3,0,5.104-2.199,5.104-5.604v-10.396h1.604v17.101
		h-1.604v-2.699c-0.896,1.698-2.896,3.104-5.301,3.104C112.399-33.316,109.799-35.817,109.799-39.817z"/>
	<path fill="#CC0000" d="M127.7-37.817c0.699,1.5,1.9,3,4.4,3c1.896,0,3.699-1.198,3.699-3.3c0-4.601-8.803-3.101-8.803-8.7
		c0.004-2.699,2.191-4.396,5.104-4.396c3.199,0,4.6,2,5,3.396l-1.4,0.5c-0.5-1.101-1.301-2.5-3.801-2.5
		c-1.799,0-3.398,1.104-3.398,2.899c0,4.396,8.799,2.896,8.799,8.8c0,2.9-2.299,4.9-5.395,4.9c-3.693,0-5.105-2.2-5.8-3.9
		L127.7-37.817z"/>
	<path fill="#CC0000" d="M148.7-51.317c5,0,8.801,3.899,8.801,9c0,5.104-3.801,9-8.801,9s-8.801-3.8-8.801-9
		C139.899-47.516,143.7-51.317,148.7-51.317z M148.7-34.916c4.1,0,7.1-3.199,7.1-7.399c0-4.198-2.896-7.396-7.1-7.396
		c-4.199,0-7,3.188-7,7.396C141.6-38.016,144.5-34.916,148.7-34.916z"/>
</g>
<g>
	<g enable-background="new    ">
		<path fill="#323537" d="M6.358,85.83c-0.501-0.596-0.752-1.312-0.752-2.158c0-0.855,0.25-1.59,0.752-2.2
			c0.5-0.606,1.102-0.916,1.804-0.916c0.446,0,0.856,0.134,1.229,0.396c0.364,0.271,0.629,0.629,0.792,1.062v-3.538h0.547v8.104
			h-0.547v-1.188c-0.146,0.4-0.405,0.729-0.779,0.975c-0.364,0.242-0.779,0.365-1.243,0.365C7.46,86.733,6.859,86.432,6.358,85.83z
			 M9.597,85.544c0.392-0.521,0.587-1.146,0.587-1.872c0-0.729-0.196-1.349-0.587-1.857c-0.401-0.521-0.879-0.775-1.435-0.775
			c-0.556,0-1.03,0.26-1.421,0.775c-0.392,0.514-0.587,1.129-0.587,1.857c0,0.728,0.196,1.354,0.587,1.872
			c0.392,0.52,0.865,0.774,1.421,0.774C8.717,86.323,9.196,86.063,9.597,85.544z"/>
		<path fill="#323537" d="M12.92,78.479h0.546v0.834H12.92V78.479z M12.92,86.582v-5.821h0.546v5.821H12.92z"/>
		<path fill="#323537" d="M15.833,86.187c-0.438-0.36-0.656-0.807-0.656-1.325h0.505c0,0.396,0.168,0.729,0.505,1.015
			c0.337,0.271,0.743,0.41,1.216,0.41c0.547,0,0.988-0.123,1.326-0.369c0.328-0.255,0.492-0.587,0.492-0.997
			c0-0.312-0.173-0.574-0.519-0.793c-0.347-0.209-0.811-0.341-1.394-0.396c-0.62-0.055-1.111-0.229-1.476-0.52
			c-0.374-0.292-0.561-0.651-0.561-1.08c0-0.481,0.187-0.854,0.561-1.12c0.374-0.264,0.897-0.396,1.571-0.396
			c0.647,0,1.162,0.144,1.544,0.426c0.392,0.278,0.588,0.659,0.588,1.134h-0.52c-0.063-0.354-0.237-0.633-0.519-0.833
			c-0.283-0.2-0.647-0.301-1.093-0.301c-0.492,0-0.884,0.101-1.175,0.301s-0.437,0.465-0.437,0.792c0,0.312,0.178,0.574,0.533,0.793
			c0.346,0.21,0.811,0.342,1.394,0.396c0.61,0.057,1.102,0.233,1.476,0.548c0.364,0.311,0.547,0.692,0.547,1.16
			c0,0.521-0.214,0.936-0.643,1.24c-0.419,0.312-0.984,0.466-1.694,0.466C16.785,86.733,16.261,86.55,15.833,86.187z"/>
		<path fill="#323537" d="M21.808,85.94c-0.474-0.569-0.711-1.33-0.711-2.269c0-0.939,0.237-1.694,0.711-2.271
			c0.474-0.562,1.102-0.849,1.886-0.849c0.783,0,1.412,0.261,1.886,0.779c0.473,0.521,0.71,1.212,0.71,2.077v0.26h-4.646
			c0,0.792,0.187,1.426,0.56,1.896c0.373,0.477,0.87,0.71,1.49,0.71c0.464,0,0.883-0.122,1.257-0.365
			c0.383-0.259,0.647-0.589,0.792-0.997h0.547c-0.091,0.537-0.383,0.979-0.875,1.339c-0.492,0.354-1.066,0.533-1.722,0.533
			C22.91,86.787,22.281,86.505,21.808,85.94z M25.743,83.153V82.95c-0.045-0.537-0.264-0.993-0.656-1.366
			c-0.401-0.364-0.866-0.547-1.394-0.547c-0.529,0-0.989,0.187-1.38,0.561c-0.401,0.384-0.624,0.854-0.669,1.407v0.146
			L25.743,83.153L25.743,83.153z"/>
		<path fill="#323537" d="M28.014,86.582v-5.821h0.546V81.8c0.173-0.363,0.428-0.65,0.766-0.86c0.337-0.22,0.706-0.328,1.106-0.328
			c0.574,0,1.062,0.188,1.462,0.562c0.41,0.383,0.615,0.838,0.615,1.366v4.045h-0.546V82.54c0-0.4-0.15-0.742-0.451-1.024
			c-0.3-0.281-0.661-0.424-1.08-0.424c-0.456,0-0.861,0.155-1.216,0.465c-0.355,0.318-0.574,0.716-0.656,1.188v3.84L28.014,86.582
			L28.014,86.582z M28.957,79.819c0.1-0.22,0.241-0.396,0.424-0.529c0.173-0.128,0.355-0.191,0.546-0.191
			c0.173,0,0.401,0.104,0.683,0.314c0.292,0.21,0.524,0.312,0.697,0.312c0.146,0,0.283-0.041,0.41-0.123
			c0.127-0.072,0.232-0.178,0.314-0.312l0.312,0.312c-0.109,0.191-0.255,0.343-0.437,0.451c-0.183,0.109-0.378,0.163-0.588,0.163
			c-0.173,0-0.405-0.104-0.697-0.3c-0.292-0.21-0.524-0.314-0.697-0.314c-0.128,0-0.25,0.047-0.369,0.139
			c-0.118,0.094-0.214,0.217-0.287,0.368L28.957,79.819z"/>
		<path fill="#323537" d="M34.985,85.858c-0.501-0.546-0.752-1.271-0.752-2.187c0-0.938,0.25-1.694,0.752-2.271
			c0.492-0.562,1.152-0.849,1.981-0.849c0.82,0,1.48,0.283,1.981,0.849c0.492,0.573,0.738,1.33,0.738,2.271
			c0,0.91-0.246,1.641-0.738,2.187c-0.501,0.55-1.161,0.819-1.981,0.819C36.138,86.678,35.477,86.406,34.985,85.858z M38.552,85.531
			c0.392-0.469,0.587-1.088,0.587-1.858c0-0.802-0.196-1.438-0.587-1.913c-0.401-0.482-0.929-0.725-1.585-0.725
			c-0.665,0-1.193,0.237-1.585,0.725c-0.401,0.475-0.601,1.111-0.601,1.913c0,0.771,0.2,1.395,0.601,1.858
			c0.392,0.464,0.92,0.691,1.585,0.691C37.623,86.227,38.151,85.994,38.552,85.531z"/>
	</g>
	<g enable-background="new    ">
		<path fill="#323537" d="M44.565,83.359c0.22,0.076,0.286,0.362,0.165,0.659c-0.121,0.286-0.407,0.463-0.627,0.386
			c-0.22-0.072-0.286-0.396-0.165-0.656C44.07,83.448,44.345,83.281,44.565,83.359z"/>
	</g>
	<g enable-background="new    ">
		<path fill="#323537" d="M49.454,85.912c-0.538-0.619-0.807-1.366-0.807-2.24c0-0.855,0.269-1.59,0.807-2.2
			c0.537-0.606,1.188-0.916,1.954-0.916c0.629,0,1.166,0.188,1.613,0.562c0.446,0.383,0.669,0.838,0.669,1.362h-0.546
			c0-0.384-0.169-0.71-0.506-0.979c-0.337-0.272-0.747-0.41-1.23-0.41c-0.61,0-1.134,0.251-1.571,0.752
			c-0.428,0.51-0.642,1.12-0.642,1.831c0,0.729,0.214,1.354,0.642,1.872c0.438,0.52,0.961,0.778,1.571,0.778
			c0.474,0,0.875-0.146,1.203-0.428c0.337-0.278,0.506-0.615,0.506-1.012h0.574c0,0.537-0.223,0.997-0.669,1.38
			c-0.447,0.384-0.984,0.574-1.613,0.574C50.643,86.842,49.991,86.532,49.454,85.912z"/>
		<path fill="#323537" d="M55.702,85.858c-0.501-0.546-0.752-1.271-0.752-2.187c0-0.938,0.25-1.694,0.752-2.271
			c0.492-0.562,1.152-0.849,1.981-0.849c0.82,0,1.48,0.283,1.981,0.849c0.492,0.573,0.738,1.33,0.738,2.271
			c0,0.91-0.246,1.641-0.738,2.187c-0.501,0.55-1.161,0.819-1.981,0.819C56.854,86.678,56.193,86.406,55.702,85.858z M59.268,85.531
			c0.392-0.469,0.587-1.088,0.587-1.858c0-0.802-0.196-1.438-0.587-1.913c-0.401-0.482-0.929-0.725-1.585-0.725
			c-0.665,0-1.193,0.237-1.585,0.725c-0.401,0.475-0.601,1.111-0.601,1.913c0,0.771,0.2,1.395,0.601,1.858
			c0.392,0.464,0.92,0.691,1.585,0.691C58.339,86.227,58.867,85.994,59.268,85.531z"/>
		<path fill="#323537" d="M62.222,86.582v-5.821h0.546v0.984c0.164-0.351,0.396-0.62,0.697-0.82c0.3-0.209,0.624-0.313,0.97-0.313
			c0.41,0,0.77,0.108,1.079,0.328c0.319,0.229,0.524,0.519,0.615,0.86c0.173-0.363,0.433-0.65,0.779-0.86
			c0.355-0.22,0.742-0.328,1.162-0.328c0.519,0,0.965,0.182,1.339,0.533c0.364,0.354,0.547,0.782,0.547,1.283v4.154h-0.547v-4.154
			c0-0.383-0.132-0.71-0.396-0.982c-0.255-0.271-0.57-0.406-0.943-0.406c-0.428,0-0.811,0.146-1.148,0.447
			c-0.337,0.305-0.546,0.687-0.628,1.146v3.949h-0.547v-4.154c0-0.383-0.123-0.71-0.369-0.982c-0.246-0.271-0.542-0.406-0.888-0.406
			c-0.41,0-0.779,0.155-1.107,0.479c-0.319,0.328-0.524,0.737-0.615,1.229v3.84L62.222,86.582L62.222,86.582z"/>
		<path fill="#323537" d="M72.568,86.199c-0.392-0.355-0.587-0.783-0.587-1.284v-4.154h0.547v4.154c0,0.374,0.141,0.693,0.423,0.97
			c0.282,0.266,0.624,0.396,1.025,0.396c0.474,0,0.897-0.187,1.271-0.551c0.373-0.36,0.61-0.82,0.71-1.38V80.76h0.546v5.821h-0.546
			v-1.024c-0.164,0.354-0.428,0.646-0.792,0.86c-0.355,0.21-0.752,0.312-1.189,0.312C73.43,86.733,72.96,86.555,72.568,86.199z"/>
		<path fill="#323537" d="M78.693,86.582v-5.821h0.546v0.984c0.164-0.351,0.415-0.62,0.752-0.82c0.337-0.209,0.71-0.313,1.121-0.313
			c0.574,0,1.062,0.188,1.463,0.562c0.409,0.383,0.614,0.838,0.614,1.366v4.045h-0.547V82.54c0-0.4-0.149-0.742-0.451-1.024
			c-0.3-0.281-0.661-0.424-1.079-0.424c-0.456,0-0.861,0.155-1.216,0.465c-0.355,0.318-0.574,0.716-0.656,1.188v3.84L78.693,86.582
			L78.693,86.582z"/>
		<path fill="#323537" d="M85.284,78.479h0.545v0.834h-0.545V78.479z M85.284,86.582v-5.821h0.545v5.821H85.284z"/>
		<path fill="#323537" d="M88.426,85.912c-0.536-0.619-0.807-1.366-0.807-2.24c0-0.855,0.271-1.59,0.807-2.2
			c0.537-0.606,1.189-0.916,1.955-0.916c0.629,0,1.166,0.188,1.611,0.562c0.443,0.383,0.67,0.838,0.67,1.362h-0.547
			c0-0.384-0.172-0.71-0.51-0.979c-0.336-0.272-0.746-0.41-1.229-0.41c-0.608,0-1.135,0.251-1.569,0.752
			c-0.431,0.51-0.646,1.12-0.646,1.831c0,0.729,0.215,1.354,0.646,1.872c0.438,0.52,0.961,0.778,1.569,0.778
			c0.476,0,0.875-0.146,1.201-0.428c0.338-0.278,0.506-0.615,0.506-1.012h0.574c0,0.537-0.225,0.997-0.671,1.38
			c-0.444,0.384-0.981,0.574-1.61,0.574C89.618,86.842,88.963,86.532,88.426,85.912z"/>
		<path fill="#323537" d="M94.429,86.309c-0.41-0.327-0.615-0.72-0.615-1.175c0-0.438,0.201-0.819,0.603-1.147
			c0.396-0.323,0.883-0.52,1.479-0.569c0.569-0.059,1.043-0.146,1.403-0.273c0.373-0.128,0.562-0.274,0.562-0.45V82.17
			c0-0.3-0.164-0.555-0.49-0.769c-0.316-0.21-0.711-0.312-1.177-0.312c-0.438,0-0.813,0.102-1.134,0.301
			c-0.312,0.21-0.465,0.455-0.465,0.737v0.301h-0.521v-0.354c0-0.396,0.204-0.729,0.614-0.997c0.419-0.273,0.92-0.41,1.503-0.41
			c0.602,0,1.116,0.133,1.544,0.396c0.429,0.269,0.644,0.583,0.644,0.956v3.525c0,0.229,0.054,0.423,0.149,0.587
			c0.101,0.164,0.224,0.246,0.369,0.246c0.045,0,0.086-0.004,0.123-0.014c0.035-0.013,0.062-0.022,0.082-0.041v0.26
			c-0.138,0.062-0.312,0.096-0.521,0.096s-0.396-0.091-0.547-0.271c-0.146-0.187-0.223-0.4-0.223-0.656
			c-0.105,0.312-0.342,0.562-0.693,0.752c-0.354,0.188-0.769,0.287-1.229,0.287C95.318,86.787,94.831,86.628,94.429,86.309z
			 M97.174,85.899c0.375-0.311,0.603-0.705,0.685-1.188v-1.339c-0.127,0.105-0.358,0.196-0.696,0.271
			c-0.314,0.071-0.742,0.132-1.271,0.182c-0.431,0.032-0.788,0.182-1.079,0.437c-0.292,0.246-0.438,0.538-0.438,0.875
			c0,0.347,0.146,0.639,0.451,0.874c0.291,0.246,0.646,0.369,1.062,0.369C96.375,86.377,96.801,86.218,97.174,85.899z"/>
		<path fill="#323537" d="M101.004,85.912c-0.539-0.619-0.812-1.366-0.812-2.24c0-0.855,0.271-1.59,0.812-2.2
			c0.537-0.606,1.188-0.916,1.953-0.916c0.629,0,1.166,0.188,1.608,0.562c0.446,0.383,0.669,0.838,0.669,1.362h-0.546
			c0-0.384-0.169-0.71-0.506-0.979c-0.337-0.272-0.747-0.41-1.229-0.41c-0.608,0-1.137,0.251-1.57,0.752
			c-0.43,0.51-0.643,1.12-0.643,1.831c0,0.729,0.213,1.354,0.643,1.872c0.439,0.52,0.962,0.778,1.57,0.778
			c0.476,0,0.875-0.146,1.203-0.428c0.336-0.278,0.506-0.615,0.506-1.012h0.57c0,0.537-0.223,0.997-0.669,1.38
			c-0.444,0.384-0.981,0.574-1.61,0.574C102.193,86.842,101.542,86.532,101.004,85.912z"/>
		<path fill="#323537" d="M106.87,78.479h0.547v0.834h-0.547V78.479z M106.87,86.582v-5.821h0.547v5.821H106.87z"/>
		<path fill="#323537" d="M109.988,85.858c-0.502-0.546-0.752-1.271-0.752-2.187c0-0.938,0.25-1.694,0.752-2.271
			c0.492-0.562,1.152-0.849,1.979-0.849c0.82,0,1.479,0.283,1.982,0.849c0.488,0.573,0.734,1.33,0.734,2.271
			c0,0.91-0.246,1.641-0.734,2.187c-0.506,0.55-1.162,0.819-1.982,0.819C111.14,86.678,110.48,86.406,109.988,85.858z
			 M113.554,85.531c0.392-0.469,0.588-1.088,0.588-1.858c0-0.802-0.196-1.438-0.588-1.913c-0.4-0.482-0.931-0.725-1.587-0.725
			c-0.663,0-1.192,0.237-1.584,0.725c-0.4,0.475-0.602,1.111-0.602,1.913c0,0.771,0.196,1.395,0.602,1.858
			c0.392,0.464,0.921,0.691,1.584,0.691C112.625,86.227,113.154,85.994,113.554,85.531z M112.254,77.974h0.82l-0.916,2.077h-0.386
			L112.254,77.974z"/>
		<path fill="#323537" d="M116.506,86.582v-5.821h0.548v0.984c0.163-0.351,0.413-0.62,0.752-0.82
			c0.337-0.209,0.711-0.313,1.12-0.313c0.574,0,1.062,0.188,1.462,0.562c0.409,0.383,0.614,0.838,0.614,1.366v4.045h-0.547V82.54
			c0-0.4-0.149-0.742-0.451-1.024c-0.299-0.281-0.66-0.424-1.078-0.424c-0.457,0-0.86,0.155-1.217,0.465
			c-0.354,0.318-0.574,0.716-0.655,1.188v3.84L116.506,86.582L116.506,86.582z"/>
		<path fill="#323537" d="M129.385,86.582l-2.174-5.821h0.506l1.982,5.192l1.867-5.192h0.521l-2.131,5.821H129.385z"/>
		<path fill="#323537" d="M133.583,78.479h0.547v0.834h-0.547V78.479z M133.583,86.582v-5.821h0.547v5.821H133.583z"/>
		<path fill="#323537" d="M136.497,86.187c-0.438-0.36-0.654-0.807-0.654-1.325h0.509c0,0.396,0.169,0.729,0.505,1.015
			c0.338,0.271,0.743,0.41,1.219,0.41c0.549,0,0.986-0.123,1.324-0.369c0.327-0.255,0.491-0.587,0.491-0.997
			c0-0.312-0.177-0.574-0.521-0.793c-0.35-0.209-0.812-0.341-1.396-0.396c-0.619-0.055-1.111-0.229-1.477-0.52
			c-0.375-0.292-0.562-0.651-0.562-1.08c0-0.481,0.188-0.854,0.562-1.12c0.373-0.264,0.896-0.396,1.567-0.396
			c0.646,0,1.162,0.144,1.544,0.426c0.395,0.278,0.592,0.659,0.592,1.134h-0.521c-0.062-0.354-0.237-0.633-0.521-0.833
			s-0.646-0.301-1.097-0.301c-0.489,0-0.886,0.101-1.177,0.301s-0.438,0.465-0.438,0.792c0,0.312,0.178,0.574,0.529,0.793
			c0.35,0.21,0.812,0.342,1.396,0.396c0.61,0.057,1.104,0.233,1.479,0.548c0.363,0.311,0.547,0.692,0.547,1.16
			c0,0.521-0.214,0.936-0.645,1.24c-0.42,0.312-0.981,0.466-1.692,0.466C137.45,86.733,136.924,86.55,136.497,86.187z"/>
		<path fill="#323537" d="M142.622,86.199c-0.393-0.355-0.588-0.783-0.588-1.284v-4.154h0.547v4.154c0,0.374,0.146,0.693,0.424,0.97
			c0.281,0.266,0.623,0.396,1.024,0.396c0.474,0,0.896-0.187,1.271-0.551c0.373-0.36,0.611-0.82,0.711-1.38V80.76h0.551v5.821
			h-0.551v-1.024c-0.16,0.354-0.428,0.646-0.793,0.86c-0.354,0.21-0.752,0.312-1.188,0.312
			C143.482,86.733,143.012,86.555,142.622,86.199z"/>
		<path fill="#323537" d="M148.881,86.309c-0.409-0.327-0.614-0.72-0.614-1.175c0-0.438,0.2-0.819,0.603-1.147
			c0.395-0.323,0.883-0.52,1.479-0.569c0.57-0.059,1.043-0.146,1.404-0.273c0.373-0.128,0.562-0.274,0.562-0.45V82.17
			c0-0.3-0.164-0.555-0.492-0.769c-0.316-0.21-0.711-0.312-1.176-0.312c-0.438,0-0.812,0.102-1.134,0.301
			c-0.312,0.21-0.466,0.455-0.466,0.737v0.301h-0.521v-0.354c0-0.396,0.205-0.729,0.615-0.997c0.418-0.273,0.92-0.41,1.502-0.41
			c0.604,0,1.115,0.133,1.545,0.396c0.43,0.269,0.645,0.583,0.645,0.956v3.525c0,0.229,0.049,0.423,0.147,0.587
			s0.226,0.246,0.369,0.246c0.046,0,0.087-0.004,0.123-0.014c0.034-0.013,0.062-0.022,0.082-0.041v0.26
			c-0.138,0.062-0.312,0.096-0.521,0.096c-0.211,0-0.396-0.091-0.55-0.271c-0.146-0.187-0.219-0.4-0.219-0.656
			c-0.106,0.312-0.343,0.562-0.697,0.752c-0.354,0.188-0.767,0.287-1.229,0.287C149.77,86.787,149.284,86.628,148.881,86.309z
			 M151.627,85.899c0.373-0.311,0.603-0.705,0.685-1.188v-1.339c-0.128,0.105-0.36,0.196-0.696,0.271
			c-0.318,0.071-0.742,0.132-1.271,0.182c-0.428,0.032-0.784,0.182-1.076,0.437c-0.292,0.246-0.438,0.538-0.438,0.875
			c0,0.347,0.147,0.639,0.447,0.874c0.292,0.246,0.646,0.369,1.062,0.369C150.827,86.377,151.254,86.218,151.627,85.899z"/>
		<path fill="#323537" d="M155.047,86.582v-8.104h0.545v8.104H155.047z"/>
	</g>
</g>
<g>
	<g enable-background="new    ">
		<path fill="#323537" d="M6.867-17.846c-0.501-0.592-0.752-1.312-0.752-2.155c0-0.856,0.25-1.59,0.752-2.2
			c0.5-0.61,1.102-0.916,1.804-0.916c0.446,0,0.856,0.133,1.229,0.396c0.364,0.273,0.629,0.632,0.792,1.065v-3.539h0.547v8.104
			h-0.547v-1.188c-0.146,0.4-0.405,0.724-0.779,0.97c-0.364,0.246-0.779,0.369-1.243,0.369C7.969-16.944,7.367-17.245,6.867-17.846z
			 M10.105-18.133c0.392-0.521,0.587-1.146,0.587-1.872c0-0.729-0.196-1.352-0.587-1.858c-0.401-0.52-0.879-0.779-1.435-0.779
			c-0.556,0-1.03,0.263-1.421,0.779c-0.392,0.51-0.587,1.129-0.587,1.858c0,0.729,0.196,1.353,0.587,1.872
			c0.392,0.519,0.865,0.775,1.421,0.775C9.226-17.354,9.704-17.614,10.105-18.133z"/>
		<path fill="#323537" d="M13.428-25.198h0.546v0.834h-0.546V-25.198z M13.428-17.094v-5.821h0.546v5.821H13.428z"/>
		<path fill="#323537" d="M16.341-17.491c-0.438-0.364-0.656-0.806-0.656-1.325h0.505c0,0.395,0.168,0.729,0.505,1.011
			c0.337,0.273,0.743,0.41,1.216,0.41c0.547,0,0.988-0.123,1.326-0.369c0.328-0.255,0.492-0.587,0.492-0.994
			c0-0.312-0.173-0.574-0.519-0.796c-0.347-0.209-0.811-0.341-1.394-0.396c-0.62-0.055-1.111-0.229-1.476-0.52
			c-0.374-0.295-0.561-0.651-0.561-1.08c0-0.482,0.187-0.855,0.561-1.12c0.374-0.267,0.897-0.396,1.571-0.396
			c0.647,0,1.162,0.145,1.544,0.424c0.392,0.282,0.588,0.66,0.588,1.137h-0.52c-0.063-0.354-0.237-0.636-0.519-0.833
			c-0.283-0.2-0.647-0.304-1.093-0.304c-0.492,0-0.884,0.104-1.175,0.304c-0.291,0.197-0.436,0.464-0.436,0.791
			c0,0.311,0.178,0.571,0.533,0.793c0.346,0.21,0.811,0.342,1.394,0.396c0.61,0.055,1.102,0.236,1.476,0.546
			c0.364,0.312,0.547,0.697,0.547,1.162c0,0.521-0.214,0.937-0.643,1.243c-0.419,0.31-0.984,0.465-1.694,0.465
			C17.293-16.944,16.77-17.127,16.341-17.491z"/>
		<path fill="#323537" d="M22.138-17.491c-0.438-0.364-0.656-0.806-0.656-1.325h0.505c0,0.395,0.168,0.729,0.505,1.011
			c0.337,0.273,0.743,0.41,1.216,0.41c0.547,0,0.988-0.123,1.326-0.369c0.328-0.255,0.492-0.587,0.492-0.994
			c0-0.312-0.173-0.574-0.519-0.796c-0.347-0.209-0.811-0.341-1.394-0.396c-0.62-0.055-1.111-0.229-1.476-0.52
			c-0.374-0.295-0.561-0.651-0.561-1.08c0-0.482,0.187-0.855,0.561-1.12c0.374-0.267,0.897-0.396,1.571-0.396
			c0.647,0,1.162,0.145,1.544,0.424c0.392,0.282,0.588,0.66,0.588,1.137h-0.52c-0.063-0.354-0.237-0.636-0.519-0.833
			c-0.283-0.2-0.647-0.304-1.093-0.304c-0.492,0-0.884,0.104-1.175,0.304c-0.291,0.197-0.437,0.465-0.437,0.792
			c0,0.311,0.178,0.571,0.533,0.793c0.346,0.21,0.811,0.342,1.394,0.396c0.61,0.056,1.102,0.236,1.476,0.546
			c0.364,0.312,0.547,0.697,0.547,1.162c0,0.521-0.214,0.937-0.643,1.243c-0.419,0.31-0.984,0.465-1.694,0.465
			C23.09-16.944,22.566-17.127,22.138-17.491z"/>
		<path fill="#323537" d="M28.112-17.737c-0.474-0.573-0.711-1.33-0.711-2.268c0-0.938,0.237-1.694,0.711-2.271
			c0.474-0.562,1.102-0.848,1.886-0.848c0.783,0,1.412,0.26,1.886,0.779c0.473,0.52,0.71,1.212,0.71,2.074v0.263h-4.646
			c0,0.792,0.187,1.426,0.56,1.896c0.373,0.476,0.87,0.71,1.49,0.71c0.464,0,0.883-0.123,1.257-0.369
			c0.383-0.255,0.647-0.587,0.792-0.997h0.547c-0.091,0.537-0.383,0.983-0.875,1.342c-0.492,0.354-1.066,0.53-1.722,0.53
			C29.214-16.889,28.586-17.172,28.112-17.737z M32.047-20.524v-0.205c-0.045-0.537-0.264-0.993-0.656-1.363
			c-0.401-0.364-0.866-0.55-1.394-0.55c-0.529,0-0.989,0.188-1.38,0.562c-0.401,0.383-0.624,0.852-0.669,1.407v0.147L32.047-20.524
			L32.047-20.524z"/>
		<path fill="#323537" d="M34.318-17.094v-5.821h0.546v0.981c0.164-0.347,0.415-0.617,0.752-0.817
			c0.337-0.209,0.71-0.314,1.12-0.314c0.574,0,1.062,0.188,1.462,0.562c0.41,0.383,0.615,0.838,0.615,1.363v4.048h-0.546v-4.048
			c0-0.397-0.15-0.739-0.451-1.021c-0.3-0.282-0.661-0.424-1.08-0.424c-0.456,0-0.861,0.152-1.216,0.465
			c-0.355,0.318-0.574,0.715-0.656,1.188v3.843L34.318-17.094L34.318-17.094z"/>
		<path fill="#323537" d="M40.662-15.318h0.424c0.209,0,0.437-0.169,0.683-0.506s0.469-0.778,0.669-1.325l-2.227-5.767h0.505
			l1.981,5.097l1.968-5.097h0.533l-2.5,6.45c-0.173,0.464-0.396,0.842-0.669,1.134c-0.283,0.282-0.565,0.424-0.847,0.424h-0.52
			V-15.318z"/>
	</g>
	<g enable-background="new    ">
		<path fill="#323537" d="M49.074-20.318c0.22,0.077,0.286,0.363,0.165,0.66c-0.121,0.286-0.407,0.462-0.627,0.385
			c-0.22-0.076-0.286-0.396-0.165-0.66C48.579-20.23,48.854-20.395,49.074-20.318z"/>
	</g>
	<g enable-background="new    ">
		<path fill="#323537" d="M53.962-17.764c-0.538-0.616-0.807-1.363-0.807-2.237c0-0.856,0.269-1.59,0.807-2.2
			c0.537-0.61,1.188-0.916,1.954-0.916c0.629,0,1.166,0.188,1.613,0.561c0.446,0.386,0.669,0.84,0.669,1.366h-0.546
			c0-0.383-0.169-0.71-0.506-0.98c-0.337-0.273-0.747-0.41-1.23-0.41c-0.61,0-1.134,0.251-1.571,0.752
			c-0.428,0.51-0.642,1.12-0.642,1.831c0,0.729,0.214,1.353,0.642,1.872c0.438,0.519,0.961,0.775,1.571,0.775
			c0.474,0,0.875-0.141,1.203-0.424c0.337-0.282,0.506-0.619,0.506-1.011h0.574c0,0.537-0.223,0.997-0.669,1.38
			c-0.447,0.383-0.984,0.574-1.613,0.574C55.151-16.835,54.5-17.144,53.962-17.764z"/>
		<path fill="#323537" d="M60.21-17.819c-0.501-0.546-0.752-1.272-0.752-2.186c0-0.938,0.25-1.694,0.752-2.271
			c0.492-0.562,1.152-0.848,1.981-0.848c0.82,0,1.48,0.283,1.981,0.848c0.492,0.574,0.738,1.33,0.738,2.271
			c0,0.91-0.246,1.64-0.738,2.186c-0.501,0.547-1.161,0.82-1.981,0.82C61.362-16.999,60.702-17.272,60.21-17.819z M63.776-18.146
			c0.392-0.465,0.587-1.084,0.587-1.855c0-0.805-0.196-1.439-0.587-1.913c-0.401-0.483-0.929-0.728-1.585-0.728
			c-0.665,0-1.193,0.241-1.585,0.728c-0.401,0.474-0.601,1.108-0.601,1.913c0,0.771,0.2,1.394,0.601,1.855
			c0.392,0.464,0.92,0.696,1.585,0.696C62.847-17.45,63.375-17.682,63.776-18.146z"/>
		<path fill="#323537" d="M66.73-17.094v-5.821h0.546v0.981c0.164-0.347,0.396-0.617,0.697-0.817c0.3-0.209,0.624-0.314,0.97-0.314
			c0.41,0,0.77,0.109,1.079,0.328c0.319,0.229,0.524,0.515,0.615,0.861c0.173-0.364,0.433-0.651,0.779-0.861
			c0.355-0.219,0.742-0.328,1.162-0.328c0.519,0,0.965,0.178,1.339,0.533c0.364,0.355,0.547,0.783,0.547,1.284v4.154h-0.547v-4.154
			c0-0.383-0.132-0.71-0.396-0.983c-0.255-0.271-0.57-0.41-0.943-0.41c-0.428,0-0.811,0.15-1.148,0.451
			c-0.337,0.301-0.546,0.686-0.628,1.147v3.949h-0.547v-4.154c0-0.383-0.123-0.71-0.369-0.983c-0.246-0.271-0.542-0.41-0.888-0.41
			c-0.41,0-0.779,0.159-1.107,0.479c-0.319,0.328-0.524,0.737-0.615,1.229v3.843L66.73-17.094L66.73-17.094z"/>
		<path fill="#323537" d="M77.077-17.477c-0.392-0.354-0.587-0.78-0.587-1.281v-4.154h0.547v4.154c0,0.371,0.141,0.694,0.423,0.97
			c0.282,0.265,0.624,0.396,1.025,0.396c0.474,0,0.897-0.182,1.271-0.547c0.373-0.364,0.61-0.824,0.71-1.38v-3.594h0.546v5.82
			h-0.546v-1.023c-0.164,0.354-0.428,0.642-0.792,0.86c-0.355,0.21-0.752,0.312-1.189,0.312
			C77.938-16.944,77.468-17.122,77.077-17.477z"/>
		<path fill="#323537" d="M83.202-17.094v-5.821h0.547v0.981c0.164-0.347,0.414-0.617,0.752-0.817
			c0.336-0.209,0.711-0.314,1.119-0.314c0.574,0,1.062,0.188,1.463,0.562c0.41,0.383,0.615,0.838,0.615,1.363v4.048H87.15v-4.048
			c0-0.397-0.149-0.739-0.45-1.021s-0.66-0.424-1.08-0.424c-0.455,0-0.859,0.152-1.216,0.465c-0.354,0.318-0.573,0.715-0.655,1.188
			v3.843L83.202-17.094L83.202-17.094z"/>
		<path fill="#323537" d="M89.792-25.198h0.547v0.834h-0.547V-25.198z M89.792-17.094v-5.821h0.547v5.821H89.792z"/>
		<path fill="#323537" d="M92.936-17.764c-0.538-0.616-0.807-1.363-0.807-2.237c0-0.856,0.269-1.59,0.807-2.2
			c0.537-0.61,1.188-0.916,1.954-0.916c0.629,0,1.166,0.188,1.612,0.561c0.445,0.386,0.668,0.84,0.668,1.366h-0.545
			c0-0.383-0.17-0.71-0.506-0.98c-0.338-0.273-0.748-0.41-1.229-0.41c-0.611,0-1.136,0.251-1.572,0.752
			c-0.428,0.51-0.642,1.12-0.642,1.831c0,0.729,0.214,1.353,0.642,1.872c0.438,0.519,0.961,0.775,1.572,0.775
			c0.474,0,0.875-0.141,1.202-0.424c0.337-0.282,0.506-0.619,0.506-1.011h0.572c0,0.537-0.223,0.997-0.668,1.38
			c-0.446,0.383-0.983,0.574-1.612,0.574C94.125-16.835,93.473-17.144,92.936-17.764z"/>
		<path fill="#323537" d="M98.937-17.368c-0.41-0.328-0.614-0.72-0.614-1.175c0-0.438,0.2-0.82,0.602-1.148
			c0.395-0.327,0.886-0.519,1.479-0.573c0.574-0.055,1.043-0.146,1.407-0.271c0.374-0.128,0.562-0.278,0.562-0.451v-0.52
			c0-0.303-0.164-0.558-0.49-0.768c-0.319-0.21-0.711-0.312-1.176-0.312c-0.438,0-0.816,0.101-1.137,0.301
			c-0.312,0.21-0.465,0.455-0.465,0.737v0.301h-0.521v-0.355c0-0.392,0.205-0.724,0.615-0.997c0.42-0.271,0.92-0.407,1.504-0.407
			c0.6,0,1.114,0.133,1.543,0.396c0.428,0.266,0.645,0.583,0.645,0.956v3.526c0,0.228,0.051,0.423,0.148,0.587
			c0.103,0.164,0.223,0.246,0.369,0.246c0.045,0,0.086-0.004,0.122-0.017c0.036-0.009,0.063-0.021,0.082-0.041v0.263
			c-0.137,0.062-0.312,0.096-0.521,0.096s-0.391-0.091-0.547-0.273c-0.146-0.182-0.219-0.397-0.219-0.653
			c-0.109,0.311-0.343,0.561-0.695,0.752c-0.355,0.188-0.768,0.286-1.229,0.286C99.827-16.889,99.338-17.049,98.937-17.368z
			 M101.684-17.778c0.374-0.31,0.602-0.705,0.684-1.188v-1.342c-0.127,0.109-0.359,0.2-0.697,0.273
			c-0.316,0.072-0.74,0.132-1.271,0.178c-0.429,0.036-0.789,0.185-1.08,0.438c-0.291,0.246-0.438,0.538-0.438,0.875
			c0,0.346,0.15,0.638,0.451,0.874c0.291,0.246,0.646,0.369,1.066,0.369C100.881-17.3,101.31-17.459,101.684-17.778z"/>
		<path fill="#323537" d="M105.513-17.764c-0.538-0.616-0.808-1.363-0.808-2.237c0-0.856,0.27-1.59,0.808-2.2
			c0.536-0.61,1.188-0.916,1.952-0.916c0.629,0,1.166,0.188,1.613,0.561c0.443,0.386,0.67,0.84,0.67,1.366h-0.547
			c0-0.383-0.17-0.71-0.508-0.98c-0.338-0.273-0.746-0.41-1.229-0.41c-0.609,0-1.133,0.251-1.57,0.752
			c-0.43,0.51-0.643,1.12-0.643,1.831c0,0.729,0.213,1.353,0.643,1.872c0.438,0.519,0.961,0.775,1.57,0.775
			c0.475,0,0.875-0.141,1.203-0.424c0.336-0.282,0.506-0.619,0.506-1.011h0.574c0,0.537-0.227,0.997-0.67,1.38
			c-0.447,0.383-0.984,0.574-1.613,0.574C106.702-16.835,106.049-17.144,105.513-17.764z"/>
		<path fill="#323537" d="M111.377-25.198h0.545v0.834h-0.545V-25.198z M111.377-17.094v-5.821h0.545v5.821H111.377z"/>
		<path fill="#323537" d="M114.497-17.819c-0.502-0.546-0.752-1.272-0.752-2.186c0-0.938,0.25-1.694,0.752-2.271
			c0.491-0.562,1.151-0.848,1.98-0.848c0.82,0,1.48,0.283,1.98,0.848c0.492,0.574,0.736,1.33,0.736,2.271
			c0,0.91-0.244,1.64-0.736,2.186c-0.5,0.547-1.16,0.82-1.98,0.82C115.648-16.999,114.988-17.272,114.497-17.819z M118.062-18.146
			c0.394-0.465,0.588-1.084,0.588-1.855c0-0.805-0.194-1.439-0.588-1.913c-0.399-0.483-0.929-0.728-1.585-0.728
			c-0.665,0-1.193,0.241-1.585,0.728c-0.399,0.474-0.603,1.108-0.603,1.913c0,0.771,0.201,1.394,0.603,1.855
			c0.392,0.464,0.92,0.696,1.585,0.696C117.133-17.45,117.663-17.682,118.062-18.146z M116.764-25.703h0.818l-0.914,2.077h-0.383
			L116.764-25.703z"/>
		<path fill="#323537" d="M127.304-17.094l-2.173-5.821h0.507l1.979,5.189l1.873-5.189h0.52l-2.133,5.821H127.304z"/>
		<path fill="#323537" d="M131.502-25.198h0.545v0.834h-0.545V-25.198z M131.502-17.094v-5.821h0.545v5.821H131.502z"/>
		<path fill="#323537" d="M134.417-17.491c-0.438-0.364-0.656-0.806-0.656-1.325h0.508c0,0.395,0.168,0.729,0.506,1.011
			c0.336,0.273,0.742,0.41,1.217,0.41c0.549,0,0.987-0.123,1.324-0.369c0.328-0.255,0.492-0.587,0.492-0.994
			c0-0.312-0.176-0.574-0.521-0.796c-0.347-0.209-0.812-0.341-1.395-0.396c-0.62-0.055-1.111-0.229-1.477-0.52
			c-0.373-0.295-0.562-0.651-0.562-1.08c0-0.482,0.188-0.855,0.562-1.12c0.373-0.267,0.896-0.396,1.569-0.396
			c0.646,0,1.161,0.145,1.544,0.424c0.395,0.282,0.59,0.66,0.59,1.137h-0.521c-0.062-0.354-0.236-0.636-0.521-0.833
			c-0.283-0.2-0.646-0.304-1.094-0.304c-0.49,0-0.884,0.104-1.175,0.304c-0.292,0.197-0.438,0.465-0.438,0.792
			c0,0.311,0.178,0.571,0.533,0.793c0.346,0.21,0.811,0.342,1.395,0.396c0.609,0.056,1.104,0.236,1.478,0.546
			c0.364,0.312,0.548,0.697,0.548,1.162c0,0.521-0.216,0.937-0.646,1.243c-0.418,0.31-0.981,0.465-1.691,0.465
			C135.368-16.944,134.842-17.127,134.417-17.491z"/>
		<path fill="#323537" d="M140.542-17.477c-0.394-0.354-0.588-0.78-0.588-1.281v-4.154h0.547v4.154c0,0.371,0.143,0.694,0.424,0.97
			c0.281,0.265,0.623,0.396,1.023,0.396c0.475,0,0.896-0.182,1.271-0.547c0.373-0.364,0.609-0.824,0.711-1.38v-3.594h0.547v5.82
			h-0.547v-1.023c-0.164,0.354-0.428,0.642-0.793,0.86c-0.355,0.21-0.752,0.312-1.188,0.312
			C141.402-16.944,140.931-17.122,140.542-17.477z"/>
		<path fill="#323537" d="M146.801-17.368c-0.41-0.328-0.614-0.72-0.614-1.175c0-0.438,0.198-0.82,0.601-1.148
			c0.395-0.327,0.885-0.519,1.479-0.573c0.572-0.055,1.043-0.146,1.406-0.271c0.373-0.128,0.562-0.278,0.562-0.451v-0.52
			c0-0.303-0.164-0.558-0.489-0.768c-0.32-0.21-0.711-0.312-1.178-0.312c-0.438,0-0.812,0.101-1.135,0.301
			c-0.311,0.21-0.467,0.455-0.467,0.737v0.301h-0.52v-0.355c0-0.392,0.205-0.724,0.615-0.997c0.419-0.271,0.92-0.407,1.503-0.407
			c0.603,0,1.115,0.133,1.544,0.396c0.43,0.266,0.643,0.583,0.643,0.956v3.526c0,0.228,0.051,0.423,0.149,0.587
			c0.103,0.164,0.224,0.246,0.369,0.246c0.046,0,0.087-0.004,0.123-0.017c0.037-0.009,0.063-0.021,0.082-0.041v0.263
			c-0.138,0.062-0.31,0.096-0.521,0.096c-0.209,0-0.393-0.091-0.545-0.273c-0.146-0.182-0.222-0.397-0.222-0.653
			c-0.106,0.311-0.341,0.561-0.694,0.752c-0.354,0.188-0.768,0.286-1.229,0.286C147.689-16.889,147.204-17.049,146.801-17.368z
			 M149.547-17.778c0.373-0.31,0.602-0.705,0.684-1.188v-1.342c-0.128,0.109-0.359,0.2-0.695,0.273
			c-0.32,0.072-0.744,0.132-1.271,0.178c-0.429,0.036-0.788,0.185-1.08,0.438c-0.291,0.246-0.438,0.538-0.438,0.875
			c0,0.346,0.15,0.638,0.451,0.874c0.291,0.246,0.646,0.369,1.065,0.369C148.747-17.3,149.174-17.459,149.547-17.778z"/>
		<path fill="#323537" d="M152.965-17.094v-8.104h0.548v8.104H152.965z"/>
	</g>
</g>
<g>
	<path fill="#6A6666" d="M14.015,38.398h-0.688v-0.719c-0.116,0.166-0.599,0.832-1.609,0.832c-1.332,0-2.27-0.988-2.27-2.381
		c0-1.4,0.894-2.398,2.216-2.398c0.965,0,1.501,0.613,1.635,0.852V32.07h0.715L14.015,38.398L14.015,38.398z M11.745,34.363
		c-0.912,0-1.573,0.734-1.573,1.777c0,1.061,0.688,1.75,1.582,1.75c0.974,0,1.573-0.797,1.573-1.75
		C13.327,35.011,12.612,34.363,11.745,34.363z"/>
	<path fill="#6A6666" d="M17.178,32.2c0.277,0,0.492,0.211,0.492,0.473c0,0.271-0.215,0.479-0.492,0.479
		c-0.268,0-0.483-0.209-0.483-0.479C16.695,32.411,16.91,32.2,17.178,32.2z M16.83,33.847h0.706v4.551H16.83V33.847z"/>
	<path fill="#6A6666" d="M20.494,37.224c0.197,0.359,0.527,0.701,1.162,0.701c0.464,0,0.858-0.264,0.858-0.727
		c0-1.053-2.333-0.691-2.333-2.232c0-0.771,0.653-1.234,1.493-1.234c0.867,0,1.314,0.535,1.439,0.875l-0.519,0.289
		c-0.125-0.244-0.366-0.586-0.965-0.586c-0.429,0-0.769,0.236-0.769,0.631c0,1.023,2.342,0.641,2.342,2.225
		c0,0.805-0.68,1.348-1.582,1.348c-0.975,0-1.412-0.543-1.618-0.971L20.494,37.224z"/>
	<path fill="#6A6666" d="M25.829,37.224c0.197,0.359,0.527,0.701,1.162,0.701c0.464,0,0.858-0.264,0.858-0.727
		c0-1.053-2.333-0.691-2.333-2.232c0-0.771,0.653-1.234,1.493-1.234c0.867,0,1.312,0.535,1.438,0.875l-0.519,0.289
		c-0.125-0.244-0.366-0.586-0.965-0.586c-0.429,0-0.769,0.236-0.769,0.631c0,1.023,2.342,0.641,2.342,2.225
		c0,0.805-0.68,1.348-1.582,1.348c-0.974,0-1.412-0.543-1.618-0.971L25.829,37.224z"/>
	<path fill="#6A6666" d="M32.969,33.732c1.367,0,2.208,0.963,2.208,2.328c0,0.027,0,0.123-0.009,0.211h-3.727
		c0.009,1.018,0.706,1.627,1.671,1.627c0.787,0,1.225-0.4,1.448-0.709l0.465,0.334c-0.259,0.43-0.867,0.988-1.922,0.988
		c-1.412,0-2.386-0.971-2.386-2.371C30.717,34.687,31.736,33.732,32.969,33.732z M34.453,35.755
		c-0.045-0.947-0.715-1.428-1.483-1.428c-0.76,0-1.439,0.566-1.493,1.428H34.453z"/>
	<path fill="#6A6666" d="M41.397,35.552v2.846h-0.706v-2.871c0-0.727-0.465-1.164-1.1-1.164c-0.715,0-1.207,0.518-1.207,1.271V38.4
		h-0.706v-4.551h0.697v0.656c0.223-0.412,0.742-0.771,1.385-0.771C40.842,33.732,41.397,34.521,41.397,35.552z"/>
	<path fill="#6A6666" d="M44.854,39.964l0.67-1.611l-1.895-4.506h0.769l1.475,3.658l1.43-3.658h0.75l-2.493,6.117H44.854z"/>
	<path fill="#6A6666" d="M54.595,35.159c0.277,0,0.51,0.219,0.51,0.488c0,0.271-0.232,0.498-0.51,0.498
		c-0.277,0-0.5-0.227-0.5-0.498C54.095,35.378,54.318,35.159,54.595,35.159z"/>
	<path fill="#6A6666" d="M61.691,33.847h0.679v0.717c0.116-0.166,0.608-0.832,1.618-0.832c1.323,0,2.271,0.99,2.271,2.381
		c0,1.41-0.903,2.398-2.217,2.398c-0.974,0-1.501-0.613-1.645-0.85v2.373h-0.706V33.847z M63.961,37.88
		c0.912,0,1.573-0.725,1.573-1.77c0-1.066-0.697-1.75-1.591-1.75c-0.965,0-1.573,0.799-1.573,1.75
		C62.37,37.234,63.085,37.88,63.961,37.88z"/>
	<path fill="#6A6666" d="M70.86,34.423c-1.063,0-1.376,0.824-1.376,1.795v2.18h-0.707v-4.551h0.698v0.76
		c0.161-0.455,0.679-0.875,1.385-0.875V34.423z"/>
	<path fill="#6A6666" d="M75.283,33.732c1.403,0,2.422,1.025,2.422,2.393s-1.037,2.389-2.431,2.389s-2.422-1.006-2.422-2.389
		C72.852,34.747,73.898,33.732,75.283,33.732z M75.274,37.88c1.001,0,1.716-0.742,1.716-1.758c0-1.008-0.715-1.762-1.716-1.762
		s-1.698,0.764-1.698,1.762C73.576,37.146,74.282,37.88,75.274,37.88z"/>
	<path fill="#6A6666" d="M80.716,39.079c0.18,0.104,0.733,0.377,1.403,0.377c0.885,0,1.635-0.359,1.635-1.375v-0.402
		c-0.105,0.166-0.59,0.832-1.607,0.832c-1.332,0-2.244-0.988-2.244-2.381c0-1.4,0.921-2.398,2.234-2.398
		c0.967,0,1.492,0.605,1.645,0.852v-0.734h0.682v3.92c0,1.727-0.992,2.312-2.334,2.312c-0.606,0-1.259-0.211-1.662-0.455
		L80.716,39.079z M82.19,34.363c-0.901,0-1.573,0.729-1.573,1.77c0,1.059,0.697,1.75,1.592,1.75c0.955,0,1.57-0.771,1.57-1.75
		C83.78,35.029,83.075,34.363,82.19,34.363z"/>
	<path fill="#6A6666" d="M89.321,34.423c-1.062,0-1.377,0.824-1.377,1.795v2.18h-0.707v-4.551h0.699v0.76
		c0.16-0.455,0.68-0.875,1.385-0.875V34.423z"/>
	<path fill="#6A6666" d="M93.2,35.501c0.592,0,1.035,0.217,1.227,0.41V35.35c0-0.639-0.439-1.006-1.127-1.006
		c-0.572,0-1.037,0.201-1.367,0.396l-0.285-0.51c0.312-0.191,0.93-0.5,1.715-0.5c1.27,0,1.771,0.691,1.771,1.664v3.002h-0.607
		l-0.08-0.385c-0.242,0.271-0.635,0.498-1.262,0.498c-1.02,0-1.77-0.631-1.77-1.514C91.413,36.13,92.153,35.501,93.2,35.501z
		 M93.299,37.933c0.68,0,1.152-0.393,1.152-0.945c0-0.566-0.467-0.936-1.162-0.936c-0.705,0-1.162,0.402-1.162,0.936
		C92.127,37.513,92.584,37.933,93.299,37.933z"/>
	<path fill="#6A6666" d="M104.381,38.398h-0.707v-2.738c0-0.857-0.355-1.297-1.045-1.297c-0.652,0-1.146,0.455-1.146,1.307v2.729
		h-0.707v-2.871c0-0.727-0.408-1.164-1.061-1.164c-0.617,0-1.127,0.51-1.127,1.277v2.758h-0.707v-4.551h0.697
		c0,0.42,0,0.656,0,0.656c0.18-0.396,0.672-0.771,1.314-0.771c0.695,0,1.188,0.334,1.402,0.832c0.273-0.543,0.83-0.832,1.492-0.832
		c1.037,0,1.59,0.721,1.59,1.717L104.381,38.398L104.381,38.398z"/>
	<path fill="#6A6666" d="M108.649,35.501c0.592,0,1.037,0.217,1.227,0.41V35.35c0-0.639-0.439-1.006-1.125-1.006
		c-0.572,0-1.037,0.201-1.367,0.396l-0.287-0.51c0.312-0.191,0.93-0.5,1.717-0.5c1.271,0,1.771,0.691,1.771,1.664v3.002h-0.609
		l-0.08-0.385c-0.24,0.271-0.635,0.498-1.26,0.498c-1.02,0-1.77-0.631-1.77-1.514C106.862,36.13,107.604,35.501,108.649,35.501z
		 M108.75,37.933c0.68,0,1.15-0.393,1.15-0.945c0-0.566-0.465-0.936-1.16-0.936c-0.705,0-1.162,0.402-1.162,0.936
		C107.579,37.513,108.036,37.933,108.75,37.933z"/>
	<path fill="#6A6666" d="M116.793,34.948c-0.189-0.191-0.672-0.576-1.377-0.576c-0.977,0-1.662,0.76-1.662,1.75
		c0,0.979,0.725,1.758,1.68,1.758c0.732,0,1.197-0.42,1.387-0.604l0.215,0.586c-0.188,0.193-0.76,0.648-1.627,0.648
		c-1.387,0-2.387-1.041-2.387-2.389c0-1.35,1.027-2.393,2.377-2.393c0.852,0,1.396,0.396,1.637,0.623L116.793,34.948z"/>
	<path fill="#6A6666" d="M119.856,32.2c0.277,0,0.492,0.211,0.492,0.473c0,0.271-0.215,0.479-0.492,0.479
		c-0.268,0-0.48-0.209-0.48-0.479C119.375,32.411,119.59,32.2,119.856,32.2z M119.508,33.847h0.707v4.551h-0.707V33.847z"/>
	<path fill="#6A6666" d="M125.155,33.732c1.402,0,2.424,1.025,2.424,2.393s-1.035,2.389-2.434,2.389c-1.393,0-2.42-1.006-2.42-2.389
		C122.727,34.747,123.772,33.732,125.155,33.732z M125.147,37.88c1.002,0,1.719-0.742,1.719-1.758c0-1.008-0.717-1.762-1.719-1.762
		c-1,0-1.695,0.764-1.695,1.762C123.45,37.146,124.155,37.88,125.147,37.88z M125.344,32.052h0.777l-0.795,1.242h-0.617
		L125.344,32.052z"/>
	<path fill="#6A6666" d="M136.987,34.782l-1.24,3.613h-0.777l-1.562-4.551h0.768l1.217,3.744c0,0,0.01-0.019,1.252-3.744h0.695
		c1.234,3.729,1.242,3.744,1.242,3.744l1.227-3.744h0.77l-1.572,4.551h-0.777L136.987,34.782z"/>
	<path fill="#6A6666" d="M144.799,33.732c1.367,0,2.207,0.963,2.207,2.328c0,0.027,0,0.123-0.008,0.211h-3.729
		c0.008,1.018,0.705,1.627,1.67,1.627c0.787,0,1.227-0.4,1.449-0.709l0.465,0.334c-0.26,0.43-0.867,0.988-1.922,0.988
		c-1.412,0-2.387-0.971-2.387-2.371C142.547,34.687,143.565,33.732,144.799,33.732z M146.284,35.755
		c-0.047-0.947-0.717-1.428-1.484-1.428c-0.76,0-1.438,0.566-1.492,1.428H146.284z"/>
	<path fill="#6A6666" d="M149.508,32.07h0.707v2.514c0.143-0.236,0.67-0.852,1.645-0.852c1.312,0,2.217,0.998,2.217,2.398
		c0,1.393-0.945,2.381-2.271,2.381c-1.01,0-1.502-0.666-1.615-0.832v0.719h-0.682V32.07z M151.76,37.89
		c0.895,0,1.592-0.689,1.592-1.75c0-1.043-0.66-1.777-1.572-1.777c-0.875,0-1.59,0.648-1.59,1.777
		C150.188,37.093,150.795,37.89,151.76,37.89z"/>
</g>
<text transform="matrix(1.0204 0 0 1 -5.3701 165.7786)" fill="#6A6666" font-family="'Geomanist-Regular'" font-size="10.78">di</text>
<text transform="matrix(1.0204 0 0 1 7.6646 165.7786)" fill="#6A6666" font-family="'Geomanist-Regular'" font-size="10.78">sseny</text>
<text transform="matrix(1.0204 0 0 1 44.5693 165.7786)" fill="#6A6666" font-family="'Geomanist-Regular'" font-size="10.78"> · </text>
<text transform="matrix(1.0204 0 0 1 58.5498 165.7786)" fill="#6A6666" font-family="'Geomanist-Regular'" font-size="10.78">p</text>
<text transform="matrix(1.0204 0 0 1 67.272 165.7786)" fill="#6A6666" font-family="'Geomanist-Regular'" font-size="10.78">r</text>
<text transform="matrix(1.0204 0 0 1 72.6743 165.7786)" fill="#6A6666" font-family="'Geomanist-Regular'" font-size="10.78">o</text>
<text transform="matrix(1.0204 0 0 1 81.3525 165.7786)" fill="#6A6666" font-family="'Geomanist-Regular'" font-size="10.78">g</text>
<text transform="matrix(1.0204 0 0 1 89.9976 165.7786)" fill="#6A6666" font-family="'Geomanist-Regular'" font-size="10.78">rama</text>
<text transform="matrix(1.0204 0 0 1 122.1177 165.7786)" fill="#6A6666" font-family="'Geomanist-Regular'" font-size="10.78">c</text>
<text transform="matrix(1.0204 0 0 1 129.7192 165.7786)" fill="#6A6666" font-family="'Geomanist-Regular'" font-size="10.78">i</text>
<text transform="matrix(1.0204 0 0 1 134.063 165.7786)" fill="#6A6666" font-family="'Geomanist-Regular'" font-size="10.78">ó </text>
<text transform="matrix(1.0204 0 0 1 147.4946 165.7786)" fill="#6A6666" font-family="'Geomanist-Regular'" font-size="10.78">we</text>
<text transform="matrix(1.0204 0 0 1 166.646 165.7786)" fill="#6A6666" font-family="'Geomanist-Regular'" font-size="10.78">b</text>
<g>
	<g>
		<g>
			<defs>
				<rect id="SVGID_1_" y="6.352" width="165.137" height="34.935"/>
			</defs>
			<clipPath id="SVGID_2_">
				<use xlink:href="#SVGID_1_"  overflow="visible"/>
			</clipPath>
			<path clip-path="url(#SVGID_2_)" fill="#CC0000" d="M8.003,19.718c0.701,1.475,1.903,2.948,4.408,2.948
				c1.903,0,3.708-1.176,3.708-3.241c0-4.521-8.821-3.048-8.821-8.547c0-2.651,2.205-4.317,5.112-4.317
				c3.208,0,4.613,1.964,5.012,3.335l-1.303,0.491c-0.501-1.081-1.304-2.456-3.809-2.456c-1.805,0-3.408,1.085-3.408,2.848
				c0,4.318,8.822,2.847,8.822,8.646c0,2.851-2.306,4.816-5.412,4.816c-3.708,0-5.113-2.163-5.814-3.832L8.003,19.718z"/>
		</g>
	</g>
	<g>
		<g>
			<defs>
				<rect id="SVGID_3_" y="6.352" width="165.137" height="34.935"/>
			</defs>
			<clipPath id="SVGID_4_">
				<use xlink:href="#SVGID_3_"  overflow="visible"/>
			</clipPath>
			<path clip-path="url(#SVGID_4_)" fill="#CC0000" d="M26.847,22.569c2.906,0,4.91-1.768,4.91-4.125
				c0-2.354-1.903-4.026-4.91-4.026c-3.007,0-4.911,1.768-4.911,4.026C21.934,20.801,23.84,22.569,26.847,22.569 M26.745,13.041
				c2.306,0,4.209,0.98,4.91,1.768v-2.555c0-2.848-1.903-4.321-4.71-4.321c-2.305,0-4.111,0.884-5.313,1.576l-0.701-1.29
				c0.902-0.59,3.208-1.771,6.117-1.771c4.208,0,6.213,2.454,6.213,5.895v11.295h-1.402l-0.3-1.572
				c-0.902,1.083-2.404,1.967-4.911,1.967c-3.909,0-6.616-2.455-6.616-5.6C20.229,15.398,22.937,13.041,26.745,13.041"/>
		</g>
	</g>
	<g>
		<g>
			<defs>
				<rect id="SVGID_5_" y="6.352" width="165.137" height="34.935"/>
			</defs>
			<clipPath id="SVGID_6_">
				<use xlink:href="#SVGID_5_"  overflow="visible"/>
			</clipPath>
			<path clip-path="url(#SVGID_6_)" fill="#CC0000" d="M44.89,8.031c-4.111,0-5.312,3.24-5.312,6.771v8.84h-1.606V6.852h1.606v3.046
				c0.501-1.669,2.506-3.438,5.312-3.438V8.031z"/>
		</g>
	</g>
	<g>
		<g>
			<defs>
				<rect id="SVGID_7_" y="6.352" width="165.137" height="34.935"/>
			</defs>
			<clipPath id="SVGID_8_">
				<use xlink:href="#SVGID_7_"  overflow="visible"/>
			</clipPath>
			<path clip-path="url(#SVGID_8_)" fill="#CC0000" d="M53.912,22.569c2.906,0,4.91-1.768,4.91-4.125
				c0-2.354-1.903-4.026-4.91-4.026c-3.008,0-4.911,1.768-4.911,4.026C48.9,20.801,50.802,22.569,53.912,22.569 M53.809,13.041
				c2.307,0,4.209,0.98,4.91,1.768v-2.555c0-2.848-1.903-4.321-4.71-4.321c-2.306,0-4.111,0.884-5.313,1.576l-0.701-1.29
				c0.902-0.59,3.208-1.771,6.117-1.771c4.208,0,6.213,2.454,6.213,5.895v11.295h-1.401l-0.301-1.572
				c-0.902,1.083-2.405,1.967-4.911,1.967c-3.908,0-6.616-2.455-6.616-5.6C47.194,15.398,50,13.041,53.809,13.041"/>
		</g>
	</g>
	<g>
		<g>
			<defs>
				<rect id="SVGID_9_" y="6.352" width="165.137" height="34.935"/>
			</defs>
			<clipPath id="SVGID_10_">
				<use xlink:href="#SVGID_9_"  overflow="visible"/>
			</clipPath>
			<path clip-path="url(#SVGID_10_)" fill="#CC0000" d="M86.689,10.487c-0.603-0.688-2.608-2.454-5.615-2.454
				c-3.907,0-6.816,3.131-6.816,7.265c0,4.032,3.007,7.269,6.915,7.269c3.208,0,5.014-1.863,5.712-2.558l0.605,1.374
				c-0.502,0.688-2.809,2.652-6.309,2.652c-5.012,0-8.622-3.93-8.622-8.842c0-4.91,3.708-8.841,8.622-8.841
				c3.404,0,5.516,1.658,6.309,2.557L86.689,10.487z"/>
		</g>
	</g>
	<g>
		<g>
			<defs>
				<rect id="SVGID_11_" y="6.352" width="165.137" height="34.935"/>
			</defs>
			<clipPath id="SVGID_12_">
				<use xlink:href="#SVGID_11_"  overflow="visible"/>
			</clipPath>
			<path clip-path="url(#SVGID_12_)" fill="#CC0000" d="M98.518,22.569c4.107,0,7.115-3.143,7.115-7.269
				c0-4.125-2.902-7.265-7.115-7.265c-4.212,0-7.018,3.132-7.018,7.265C91.399,19.524,94.306,22.569,98.518,22.569 M98.518,6.457
				c5.011,0,8.818,3.83,8.818,8.841c0,5.014-3.81,8.84-8.818,8.84c-5.014,0-8.822-3.729-8.822-8.84
				C89.696,10.191,93.504,6.457,98.518,6.457"/>
		</g>
	</g>
	<g>
		<g>
			<defs>
				<rect id="SVGID_13_" y="6.352" width="165.137" height="34.935"/>
			</defs>
			<clipPath id="SVGID_14_">
				<use xlink:href="#SVGID_13_"  overflow="visible"/>
			</clipPath>
			<path clip-path="url(#SVGID_14_)" fill="#CC0000" d="M110.844,17.754V6.851h1.605v10.808c0,3.046,2.004,4.909,4.612,4.909
				c3.007,0,5.116-2.158,5.116-5.505V6.851h1.607v16.797h-1.607v-2.648c-0.896,1.668-2.903,3.049-5.312,3.049
				C113.452,24.14,110.844,21.684,110.844,17.754"/>
		</g>
	</g>
	<g>
		<g>
			<defs>
				<rect id="SVGID_15_" y="6.352" width="165.137" height="34.935"/>
			</defs>
			<clipPath id="SVGID_16_">
				<use xlink:href="#SVGID_15_"  overflow="visible"/>
			</clipPath>
			<path clip-path="url(#SVGID_16_)" fill="#CC0000" d="M128.788,19.718c0.703,1.475,1.906,2.948,4.412,2.948
				c1.9,0,3.707-1.176,3.707-3.241c0-4.521-8.822-3.048-8.822-8.547c0.002-2.651,2.197-4.317,5.115-4.317
				c3.207,0,4.609,1.964,5.012,3.335l-1.402,0.491c-0.501-1.081-1.305-2.456-3.811-2.456c-1.805,0-3.406,1.085-3.406,2.848
				c0,4.318,8.818,2.847,8.818,8.646c0,2.849-2.305,4.812-5.408,4.812c-3.701,0-5.117-2.158-5.812-3.828L128.788,19.718z"/>
		</g>
	</g>
	<g>
		<g>
			<defs>
				<rect id="SVGID_17_" y="6.352" width="165.137" height="34.935"/>
			</defs>
			<clipPath id="SVGID_18_">
				<use xlink:href="#SVGID_17_"  overflow="visible"/>
			</clipPath>
			<path clip-path="url(#SVGID_18_)" fill="#CC0000" d="M149.836,22.569c4.111,0,7.117-3.143,7.117-7.269
				c0-4.124-2.902-7.265-7.117-7.265c-4.207,0-7.018,3.132-7.018,7.265C142.721,19.524,145.629,22.569,149.836,22.569
				 M149.836,6.457c5.013,0,8.822,3.83,8.822,8.841c0,5.014-3.812,8.84-8.822,8.84c-5.01,0-8.821-3.729-8.821-8.84
				C141.015,10.191,144.827,6.457,149.836,6.457"/>
		</g>
	</g>
</g>
</svg>
