<?xml version="1.0" encoding="utf-8"?>
<!-- Generator: Adobe Illustrator 16.0.0, SVG Export Plug-In . SVG Version: 6.00 Build 0)  -->
<!DOCTYPE svg PUBLIC "-//W3C//DTD SVG 1.1//EN" "http://www.w3.org/Graphics/SVG/1.1/DTD/svg11.dtd">
<svg version="1.1" id="Layer_1" xmlns="http://www.w3.org/2000/svg" xmlns:xlink="http://www.w3.org/1999/xlink" x="0px" y="0px"
	 width="250px" height="231.167px" viewBox="0 0 250 231.167" enable-background="new 0 0 250 231.167" xml:space="preserve">
<g id="Diseño_de_web" display="none">
	<g display="inline">
		<path d="M398.424,379.046h92.285c0.779,0,1.301-0.521,1.301-1.299v-58.492c0-0.779-0.521-1.299-1.301-1.299h-92.285
			c-0.779,0-1.299,0.52-1.299,1.299v58.492C397.125,378.527,397.645,379.046,398.424,379.046z M399.723,320.556h89.688v55.891
			h-89.688V320.556L399.723,320.556z"/>
		<path d="M510.727,382.425h-12.479v-67.85c0-2.341-2.078-4.418-4.42-4.418H466.24c0.008-0.066,0.033-0.121,0.033-0.193v-42.961
			c0-2.604-2.08-4.678-4.686-4.678h-143.49c-2.602,0-4.682,2.072-4.682,4.678v56.412h-22.875c-2.081,0-3.9,1.817-3.9,3.895v60.055
			c0,2.08,1.819,3.895,3.9,3.895h34.834c0.195,0,0.371-0.024,0.529-0.092c0.479,0.224,1.006,0.355,1.549,0.355h14.299
			c2.078,0,3.9-1.82,3.9-3.9v-4.938v-15.461c0.17,0.072,0.354,0.119,0.572,0.119h26.723l-1.561,15.078l-6.5,4.688
			c-0.264,0.262-0.521,0.521-0.521,1.035c0,0.266,0,1.305,0.778,2.078c0.263,0.521,1.038,0.779,2.341,0.779h18.506
			c0.908,0.166,1.512,0.262,1.512,0.262h113.861c0,0,11.959-1.812,11.959-4.422v-1.562
			C513.586,383.726,512.287,382.425,510.727,382.425z M495.391,314.576v67.85h-36.916c-0.26,0-0.775,0.265-1.039,0.521
			c-0.26,0.26-0.26,0.52-0.26,0.779c0,0,0,0.262-0.262,0.262h-24.695c0,0-0.262,0-0.262-0.262s0-0.779-0.26-1.039
			c-0.264-0.262-0.521-0.521-1.039-0.521h-37.174v-67.59c0-1.039,0.779-1.818,1.814-1.818h98.27
			C494.609,312.757,495.391,313.537,495.391,314.576z M345.348,351.298c-0.562-1.289-1.859-2.146-3.596-2.146h-6.238v-3.898h55.373
			v5.98h-45.158C345.588,351.232,345.469,351.267,345.348,351.298z M390.887,314.576v28.076h-55.373v-15.338
			c0-2.078-1.816-3.898-3.898-3.898h-7.02v-49.912h130.76v36.654h-60.051C392.965,310.158,390.887,312.238,390.887,314.576z
			 M316.016,267.003c0-1.039,1.041-2.08,2.082-2.08h143.496c1.039,0,2.08,1.041,2.08,2.08v42.961c0,0.072,0.025,0.127,0.033,0.193
			h-6.047c0.01-0.066,0.033-0.121,0.033-0.193v-37.762c0-0.779-0.521-1.305-1.303-1.305h-133.1c-0.775,0-1.299,0.521-1.299,1.305
			v51.213h-5.979v-56.412H316.016L316.016,267.003z M289.24,387.365v-60.051c0-0.779,0.52-1.299,1.301-1.299h41.072
			c0.777,0,1.301,0.52,1.301,1.299v21.836h-1.82v-18.195c0-0.779-0.52-1.301-1.299-1.301h-37.436c-0.779,0-1.299,0.521-1.299,1.301
			v51.471c0,0.781,0.52,1.304,1.299,1.304h31.193v3.896c0,0.359,0.066,0.705,0.172,1.041H290.54
			C289.76,388.666,289.24,388.146,289.24,387.365z M323.557,353.05v3.641v24.438H293.66v-48.873h34.834v16.896h-1.041
			C325.377,349.15,323.557,350.97,323.557,353.05z M341.752,388.666h-14.299c-0.777,0-1.299-0.521-1.299-1.301v-3.641h16.639v3.641
			C343.053,388.146,342.533,388.666,341.752,388.666z M343.053,381.126h-16.639V357.73h16.639V381.126z M343.312,355.39H326.67v-2.6
			c0-0.566,0.262-1.041,1.039-1.041h14.297c0.779,0,1.307,0.52,1.307,1.301V355.39z M346.227,364.75
			c-0.215,0-0.398,0.047-0.572,0.121v-8.18v-2.873c0.025,0,0.051,0.014,0.074,0.014h45.158v10.935
			c-0.03-0.002-0.057-0.017-0.086-0.017H346.227L346.227,364.75z M367.748,388.666l5.979-4.42c0.264-0.26,0.521-0.521,0.521-1.039
			l1.562-15.856h14.99c0.029,0,0.057-0.015,0.086-0.017v15.092h-12.479c-1.561,0-2.857,1.304-2.857,2.859v1.562
			c0,0.662,0.783,1.273,1.943,1.818H367.748L367.748,388.666z M511.246,386.326h-0.26c-1.82,0.779-8.318,2.34-9.357,2.34H388.023
			c-1.039,0-7.537-1.561-9.617-2.34v-1.041c0,0,0-0.26,0.262-0.26h51.211c0.521,1.041,1.562,1.561,2.6,1.561h24.697
			c1.039,0,2.08-0.778,2.604-1.561h51.211c0,0,0.26,0,0.26,0.26L511.246,386.326L511.246,386.326z"/>
		<circle cx="311.076" cy="327.834" r="0.78"/>
		<circle cx="311.076" cy="386.325" r="1.56"/>
		<circle cx="334.734" cy="386.325" r="1.56"/>
	</g>
</g>
<g id="Gráfica_digital" display="none">
	<g display="inline">
		<g>
			<path d="M415.418,349.712c-6.832,0-12.391,5.562-12.391,12.397c0,3.271,1.266,6.354,3.564,8.703l0.014,0.011l0.066,0.062
				c2.342,2.336,5.447,3.618,8.74,3.618c3.262,0,6.346-1.264,8.682-3.559l0.023-0.025l0.021-0.02
				c0.01-0.006,0.014-0.018,0.021-0.021l0.02-0.016l0.072-0.074c2.297-2.338,3.562-5.422,3.562-8.686
				C427.82,355.275,422.256,349.712,415.418,349.712z M423.271,369.83c-0.023,0.021-0.057,0.039-0.074,0.062
				c-0.025,0.021-0.041,0.061-0.066,0.076c-1.988,1.953-4.711,3.164-7.713,3.164c-3.025,0-5.773-1.229-7.766-3.219
				c-0.012-0.009-0.02-0.019-0.021-0.021c-0.004-0.008-0.012-0.01-0.018-0.018c-1.979-1.992-3.207-4.734-3.207-7.765
				c0-6.075,4.939-11.019,11.01-11.019c6.076,0,11.021,4.941,11.021,11.019C426.439,365.117,425.227,367.839,423.271,369.83z"/>
			<path d="M433.867,359.294h-2.051c-0.432-2.494-1.404-4.801-2.812-6.785l1.445-1.443c1.096-1.094,1.1-2.879,0-3.986
				c-0.545-0.553-1.271-0.83-1.99-0.83c-0.723,0-1.443,0.273-1.992,0.818l-1.457,1.451c-1.979-1.402-4.285-2.377-6.771-2.805v-2.033
				c0-1.543-1.268-2.816-2.816-2.816s-2.82,1.273-2.82,2.816v2.035c-2.484,0.426-4.781,1.402-6.771,2.809l-1.467-1.461
				c-0.561-0.539-1.281-0.811-2.002-0.811c-0.727,0-1.438,0.271-1.992,0.822c-1.098,1.1-1.092,2.885,0.012,3.979l1.459,1.457
				c-1.396,1.984-2.379,4.287-2.807,6.777h-2.059c-1.555,0-2.814,1.278-2.814,2.815c0,1.56,1.266,2.815,2.814,2.815h2.059
				c0.428,2.488,1.396,4.789,2.807,6.773l-1.455,1.457c-1.104,1.076-1.104,2.885-0.004,3.98c0.549,0.549,1.271,0.822,1.99,0.822
				c0.723,0,1.445-0.281,1.996-0.822l1.455-1.455c1.982,1.406,4.289,2.393,6.775,2.814v2.051c0,1.561,1.271,2.813,2.82,2.813
				c1.555,0,2.814-1.256,2.814-2.813V378.5c2.488-0.428,4.795-1.401,6.779-2.811l1.449,1.451c0.553,0.545,1.271,0.822,1.992,0.822
				c0.725,0,1.443-0.281,1.988-0.822c1.098-1.102,1.098-2.898,0-3.986L429,371.712c1.412-1.984,2.391-4.287,2.816-6.781h2.051
				c1.549,0,2.82-1.262,2.82-2.818C436.688,360.576,435.416,359.294,433.867,359.294z M433.867,363.548h-2.051h-1.164l-0.195,1.15
				c-0.389,2.258-1.258,4.348-2.582,6.215l-0.678,0.953l0.828,0.821l1.447,1.442c0.551,0.55,0.549,1.48,0,2.023
				c-0.271,0.268-0.643,0.422-1.018,0.422c-0.385,0-0.748-0.148-1.021-0.418l-1.445-1.449l-0.824-0.824l-0.951,0.681
				c-1.865,1.313-3.959,2.188-6.217,2.571l-1.146,0.195v1.164v2.051c0,0.791-0.646,1.439-1.436,1.439
				c-0.793,0-1.438-0.646-1.438-1.439V378.5v-1.166l-1.146-0.192c-2.26-0.392-4.35-1.261-6.217-2.576l-0.951-0.685l-0.822,0.826
				l-1.441,1.445c-0.283,0.277-0.65,0.428-1.031,0.428s-0.746-0.145-1.02-0.418c-0.271-0.271-0.424-0.639-0.42-1.031
				c0.004-0.379,0.148-0.729,0.43-1l1.457-1.457l0.82-0.815l-0.676-0.948c-1.316-1.863-2.184-3.953-2.57-6.207l-0.191-1.15h-1.168
				h-2.059c-0.793,0-1.438-0.643-1.438-1.438c0-0.775,0.658-1.438,1.438-1.438h2.059h1.168l0.191-1.146
				c0.389-2.257,1.254-4.353,2.57-6.214l0.676-0.952l-0.828-0.822l-1.459-1.455c-0.562-0.562-0.562-1.478-0.008-2.031
				c0.271-0.27,0.629-0.418,1.018-0.418c0.387,0,0.758,0.15,1.023,0.408l1.465,1.461l0.822,0.824l0.951-0.676
				c1.859-1.32,3.953-2.188,6.207-2.574l1.146-0.197v-1.164v-2.035c0-0.777,0.656-1.436,1.438-1.436
				c0.789,0,1.436,0.645,1.436,1.436v2.033v1.166l1.146,0.197c2.258,0.387,4.346,1.252,6.213,2.562l0.951,0.679l0.818-0.82
				l1.449-1.447c0.275-0.27,0.643-0.418,1.021-0.418s0.738,0.15,1.012,0.422c0.562,0.564,0.563,1.477,0.004,2.033l-1.44,1.439
				l-0.827,0.819l0.676,0.95c1.321,1.867,2.188,3.962,2.58,6.23l0.191,1.145h1.162h2.056c0.771,0,1.437,0.658,1.437,1.439
				C435.303,362.906,434.656,363.548,433.867,363.548z"/>
			<path d="M390.82,365.437h-0.59c-0.297-1.242-0.783-2.41-1.438-3.475l0.414-0.414c1.104-1.088,1.104-2.896,0.004-3.986
				c-0.549-0.547-1.27-0.816-1.988-0.816c-0.721,0-1.439,0.271-1.99,0.816l-0.412,0.412c-1.064-0.652-2.23-1.145-3.479-1.443v-0.572
				c0-1.551-1.266-2.815-2.814-2.815c-1.557,0-2.818,1.271-2.818,2.815v0.572c-1.246,0.301-2.42,0.793-3.48,1.447l-0.41-0.416
				c-0.553-0.547-1.271-0.816-1.994-0.816s-1.438,0.271-1.99,0.816c-1.1,1.09-1.1,2.895,0,3.986l0.424,0.422
				c-0.646,1.062-1.137,2.227-1.434,3.467h-0.595c-1.556,0-2.815,1.279-2.815,2.818c0,1.557,1.266,2.818,2.815,2.818h0.604
				c0.301,1.231,0.791,2.395,1.439,3.454l-0.436,0.435c-1.104,1.096-1.104,2.881-0.008,3.985c0.555,0.548,1.271,0.816,1.994,0.816
				c0.725,0,1.438-0.271,1.99-0.816l0.438-0.438c1.061,0.648,2.221,1.143,3.453,1.438v0.604c0,1.559,1.268,2.816,2.812,2.816
				c1.559,0,2.818-1.259,2.818-2.816v-0.604c1.236-0.299,2.396-0.786,3.449-1.438l0.434,0.438c0.554,0.548,1.273,0.816,1.994,0.816
				c0.723,0,1.439-0.271,1.992-0.816c1.1-1.1,1.1-2.896,0-3.985l-0.433-0.435c0.646-1.062,1.142-2.223,1.438-3.454h0.602
				c1.562,0,2.814-1.269,2.814-2.818C393.637,366.718,392.373,365.437,390.82,365.437z M390.82,369.693h-0.602h-1.094l-0.254,1.059
				c-0.264,1.08-0.688,2.107-1.271,3.06l-0.568,0.937l0.771,0.77l0.438,0.438c0.271,0.27,0.416,0.627,0.416,1.014
				c0,0.388-0.146,0.744-0.41,1.013c-0.277,0.271-0.643,0.426-1.021,0.426c-0.385,0-0.742-0.146-1.02-0.415l-0.438-0.439l-0.77-0.77
				l-0.932,0.569c-0.951,0.582-1.979,1.008-3.055,1.271l-1.062,0.256v1.088v0.604c0,0.789-0.646,1.438-1.438,1.438
				s-1.438-0.646-1.438-1.438v-0.604v-1.088l-1.061-0.256c-1.077-0.265-2.104-0.688-3.055-1.271l-0.93-0.567l-0.771,0.771
				l-0.438,0.432c-0.273,0.272-0.638,0.427-1.021,0.427c-0.385,0-0.746-0.15-1.018-0.416c-0.271-0.274-0.424-0.642-0.422-1.024
				c0.002-0.382,0.148-0.735,0.428-1.009l0.432-0.434l0.771-0.771l-0.572-0.931c-0.582-0.953-1.014-1.979-1.271-3.062l-0.254-1.06
				h-1.09h-0.604c-0.791,0-1.438-0.646-1.438-1.438c0-0.775,0.655-1.438,1.438-1.438h0.594h1.092l0.255-1.062
				c0.261-1.08,0.687-2.107,1.267-3.062l0.562-0.93l-0.766-0.771l-0.428-0.428c-0.271-0.271-0.42-0.629-0.418-1.02
				c0-0.385,0.146-0.738,0.418-1.01c0.271-0.271,0.633-0.418,1.018-0.418s0.748,0.146,1.016,0.414l0.41,0.414l0.773,0.774
				l0.932-0.573c0.957-0.593,1.994-1.021,3.082-1.281l1.062-0.256v-1.088v-0.572c0-0.791,0.645-1.438,1.438-1.438
				c0.791,0,1.438,0.646,1.438,1.438v0.572v1.09l1.061,0.254c1.086,0.262,2.121,0.688,3.074,1.279l0.934,0.567l0.771-0.771
				l0.406-0.404c0.271-0.27,0.635-0.422,1.021-0.422s0.744,0.146,1.02,0.418c0.271,0.271,0.418,0.629,0.418,1.021
				c-0.004,0.386-0.148,0.734-0.427,1.013l-0.415,0.416l-0.771,0.77l0.564,0.932c0.586,0.955,1.012,1.988,1.271,3.068l0.252,1.062
				h1.094h0.592c0.773,0,1.436,0.655,1.436,1.438C392.254,369.05,391.611,369.693,390.82,369.693z"/>
			<path d="M384.035,362.746l-0.08-0.061c-1.465-1.428-3.391-2.215-5.43-2.215c-2.033,0-3.957,0.783-5.457,2.24l-0.014,0.01
				l-0.074,0.078c-1.449,1.469-2.246,3.406-2.246,5.457c0,2.049,0.793,3.988,2.25,5.473l0.014,0.018v0.002l0.072,0.07
				c1.43,1.406,3.318,2.199,5.326,2.234h0.033h0.039c0.018-0.002,0.025-0.002,0.045-0.004l0.062,0.004h0.037h0.039
				c1.977-0.035,3.846-0.811,5.271-2.184l0.029-0.031l0.023-0.031c0.014-0.012,0.021-0.021,0.031-0.037l0.051-0.049l0.031-0.023
				l0.025-0.029c1.393-1.442,2.168-3.334,2.188-5.326v-0.008v-0.106c-0.012-2.021-0.797-3.938-2.211-5.392L384.035,362.746z
				 M384.932,368.285c-0.008,1.721-0.693,3.273-1.801,4.424c-0.027,0.025-0.059,0.043-0.086,0.07
				c-0.031,0.027-0.051,0.064-0.078,0.098c-1.129,1.09-2.65,1.771-4.336,1.795c-0.035-0.002-0.07-0.012-0.104-0.012
				s-0.066,0.01-0.104,0.012c-1.699-0.024-3.244-0.723-4.377-1.838c-0.018-0.014-0.021-0.026-0.035-0.043
				c-0.014-0.014-0.025-0.021-0.045-0.037c-1.143-1.157-1.846-2.748-1.846-4.496c0-1.743,0.709-3.327,1.85-4.485
				c0.018-0.011,0.021-0.019,0.033-0.021c0.01-0.014,0.021-0.024,0.025-0.037c1.158-1.145,2.746-1.854,4.498-1.854
				c1.764,0,3.354,0.717,4.518,1.863c0,0.004,0.002,0.01,0.006,0.016c0.01,0.006,0.017,0.008,0.02,0.014
				c1.146,1.152,1.859,2.738,1.872,4.486c0,0.008,0,0.018,0,0.02C384.932,368.267,384.932,368.275,384.932,368.285z"/>
			<path d="M391.443,336.853l0.068,0.07c1.428,1.406,3.314,2.201,5.32,2.236h0.035h0.033c0.021-0.002,0.039-0.007,0.055-0.007h0.004
				l0.076,0.007h0.033h0.039c1.971-0.035,3.84-0.812,5.305-2.232c0.014-0.018,0.031-0.035,0.045-0.053l0.035-0.023l0.076-0.078
				c1.406-1.471,2.188-3.391,2.188-5.41c0-2.045-0.791-3.977-2.229-5.449l-0.01-0.008l-0.076-0.078
				c-1.475-1.455-3.412-2.256-5.477-2.256c-2.041,0-3.969,0.787-5.438,2.223l-0.007,0.004l-0.085,0.084
				c-1.459,1.474-2.262,3.418-2.262,5.48c0,2.031,0.775,3.961,2.242,5.471L391.443,336.853z M392.424,326.855
				c0.008-0.008,0.02-0.012,0.025-0.02c0.006-0.006,0.01-0.017,0.018-0.021c1.16-1.146,2.75-1.859,4.508-1.859
				c1.752,0,3.348,0.711,4.5,1.854c0.012,0.01,0.02,0.021,0.021,0.026c0.008,0.011,0.018,0.017,0.027,0.021
				c1.145,1.154,1.854,2.748,1.854,4.506c0,1.729-0.688,3.295-1.799,4.447c-0.027,0.021-0.062,0.045-0.086,0.066
				c-0.031,0.029-0.053,0.065-0.084,0.104c-1.125,1.092-2.646,1.768-4.32,1.795c-0.041-0.002-0.074-0.016-0.113-0.016
				c-0.041,0-0.068,0.014-0.107,0.016c-1.703-0.029-3.244-0.725-4.379-1.836c-0.021-0.021-0.029-0.051-0.057-0.066
				c-0.014-0.014-0.025-0.021-0.041-0.031c-1.127-1.157-1.828-2.733-1.828-4.479C390.562,329.607,391.277,328.015,392.424,326.855z"
				/>
			<path d="M384.676,334.183h0.605c0.299,1.234,0.787,2.393,1.432,3.447l-0.438,0.443c-1.102,1.092-1.094,2.891,0.018,3.979
				c0.553,0.547,1.271,0.822,1.984,0.822c0.729,0,1.447-0.275,1.996-0.834l0.43-0.431c1.059,0.647,2.219,1.144,3.459,1.438v0.602
				c0,1.541,1.264,2.82,2.812,2.82c1.562,0,2.816-1.254,2.816-2.82v-0.602c1.236-0.299,2.395-0.783,3.449-1.435l0.428,0.435
				c0.555,0.549,1.275,0.822,2,0.822c0.721,0,1.441-0.273,1.988-0.822c1.1-1.094,1.1-2.894,0-3.982l-0.43-0.434
				c0.645-1.059,1.137-2.219,1.438-3.459h0.607c1.557,0,2.814-1.258,2.814-2.816c0-1.539-1.264-2.816-2.814-2.816h-0.604
				c-0.295-1.244-0.785-2.41-1.432-3.475l0.416-0.416c1.096-1.104,1.096-2.906-0.016-3.982c-0.551-0.551-1.271-0.826-1.986-0.826
				c-0.729,0-1.443,0.275-1.992,0.826l-0.402,0.4c-1.061-0.654-2.225-1.146-3.473-1.447v-0.562c0-1.55-1.26-2.812-2.816-2.812
				c-1.555,0-2.812,1.271-2.812,2.812v0.562c-1.248,0.301-2.412,0.793-3.477,1.445l-0.412-0.412
				c-0.551-0.547-1.271-0.818-1.988-0.818c-0.725,0-1.441,0.271-1.992,0.818c-1.104,1.09-1.104,2.887-0.006,3.98l0.422,0.428
				c-0.646,1.062-1.14,2.229-1.438,3.479h-0.594c-1.555,0-2.818,1.277-2.818,2.816C381.855,332.925,383.121,334.183,384.676,334.183
				z M384.676,329.927h0.592h1.094l0.258-1.061c0.258-1.089,0.684-2.121,1.268-3.078l0.566-0.929l-0.771-0.771l-0.426-0.428
				c-0.271-0.271-0.418-0.635-0.418-1.021c0.002-0.385,0.15-0.732,0.422-1.008c0.271-0.27,0.637-0.418,1.021-0.418
				s0.744,0.148,1.014,0.414l0.412,0.412l0.771,0.774l0.933-0.575c0.955-0.586,1.988-1.021,3.07-1.279l1.059-0.254v-1.09v-0.562
				c0-0.794,0.646-1.437,1.438-1.437c0.788,0,1.437,0.643,1.437,1.437v0.562v1.088l1.061,0.256c1.086,0.27,2.119,0.693,3.07,1.281
				l0.93,0.573l0.771-0.774l0.397-0.396c0.271-0.271,0.634-0.424,1.019-0.424c0.387,0,0.744,0.149,1.025,0.438
				c0.266,0.256,0.408,0.604,0.415,0.979c0.005,0.396-0.147,0.764-0.415,1.031l-0.414,0.416l-0.771,0.771l0.564,0.93
				c0.584,0.959,1.014,1.991,1.271,3.075l0.254,1.062h1.088h0.604c0.773,0,1.436,0.658,1.436,1.437c0,0.793-0.645,1.438-1.436,1.438
				h-0.607h-1.088l-0.256,1.062c-0.266,1.08-0.689,2.104-1.273,3.06l-0.564,0.93l0.77,0.771l0.438,0.438
				c0.27,0.27,0.418,0.627,0.418,1.016c0,0.385-0.148,0.74-0.422,1.016c-0.271,0.271-0.632,0.418-1.014,0.418
				c-0.385,0-0.748-0.147-1.018-0.418l-0.438-0.432l-0.77-0.773l-0.934,0.57c-0.945,0.582-1.979,1.008-3.053,1.269l-1.059,0.256
				v1.09v0.603c0,0.809-0.631,1.438-1.438,1.438c-0.775,0-1.438-0.654-1.438-1.438v-0.603v-1.09l-1.061-0.256
				c-1.076-0.263-2.107-0.688-3.059-1.271l-0.938-0.574l-0.771,0.779l-0.432,0.434c-0.271,0.271-0.625,0.421-1.014,0.421
				c-0.381,0-0.738-0.15-1.016-0.427c-0.271-0.271-0.422-0.629-0.422-1.018c0-0.387,0.143-0.738,0.418-1.016l0.438-0.438
				l0.764-0.771l-0.564-0.928c-0.58-0.943-1.006-1.976-1.268-3.051l-0.258-1.062h-1.086h-0.604c-0.793,0-1.438-0.646-1.438-1.438
				C383.238,330.585,383.896,329.927,384.676,329.927z"/>
		</g>
		<path d="M349.314,293.701c0,1.555-1.262,2.815-2.818,2.815s-2.818-1.263-2.818-2.815c0-1.56,1.262-2.82,2.818-2.82
			S349.314,292.142,349.314,293.701z"/>
		<path d="M360.588,293.701c0,1.555-1.26,2.815-2.814,2.815c-1.561,0-2.816-1.263-2.816-2.815c0-1.56,1.262-2.82,2.816-2.82
			S360.588,292.142,360.588,293.701z"/>
		<path d="M371.861,293.701c0,1.555-1.264,2.815-2.816,2.815c-1.561,0-2.82-1.263-2.82-2.815c0-1.56,1.262-2.82,2.82-2.82
			C370.6,290.88,371.861,292.142,371.861,293.701z"/>
		<path d="M464.475,281.63H335.527c-0.879,0-1.594,0.711-1.594,1.59v106.715c0,0.879,0.715,1.59,1.594,1.59H464.47
			c0.879,0,1.596-0.711,1.596-1.59V283.22C466.064,282.341,465.354,281.63,464.475,281.63z M462.885,284.81v19.053H337.117V284.81
			H462.885z M337.117,388.347v-81.305h125.768v81.305H337.117z"/>
	</g>
</g>
<g id="Gráfica_impresa" display="none">
	<g display="inline">
		<rect x="416.906" y="316.562" width="44.553" height="2.604"/>
		<rect x="416.906" y="323.285" width="44.553" height="2.604"/>
		<rect x="416.906" y="330.005" width="44.553" height="2.604"/>
		<rect x="416.906" y="336.726" width="44.553" height="2.602"/>
		<rect x="416.906" y="343.445" width="44.553" height="2.602"/>
		<rect x="416.906" y="350.166" width="44.553" height="2.604"/>
		<rect x="416.906" y="356.886" width="44.553" height="2.602"/>
		<rect x="415.932" y="363.607" width="38.975" height="2.604"/>
		<g>
			<path d="M417.02,311.544h44.439V276.24H417.02V311.544z M419.619,278.843h39.238v30.102h-39.238V278.843z"/>
			<path d="M444.705,241.24h-72.346c-1.354,0-2.656,0.229-3.873,0.645v-0.861h2.119v-4.996h-28.604v4.996h2.119v1.18
				c-2.582,1.481-12.961,8.065-16.369,19.623c-2.238,7.602-0.963,15.727,3.809,24.145c1.182,2.086-2.109,9.436-4.824,13.98
				l-0.15,0.25l0.002,82.719c-0.006,0.117-0.137,2.91,2.129,5.306c2.072,2.196,5.398,3.31,9.879,3.31h35.424
				c4.748,0,8.188-1.154,10.195-3.438c0.924-1.038,1.391-2.145,1.619-3.061h75.508c6.656,0,12.074-5.416,12.074-12.072V269.942
				L444.705,241.24z M446.992,246.893h0.002l20.838,20.767h-8.072h-1.252h-0.688c-0.191,0-0.373-0.047-0.564-0.057
				c-3.893-0.201-7.215-2.45-8.947-5.703c-0.219-0.406-0.428-0.814-0.586-1.248c-0.152-0.404-0.281-0.824-0.389-1.249
				c-0.203-0.827-0.34-1.676-0.34-2.563L446.992,246.893L446.992,246.893z M444.885,260.112c0.215,0.794,0.627,1.787,0.627,1.787
				c0.6,1.437,1.453,2.722,2.482,3.851h-62.123c-0.188-1.578-0.51-3.133-0.982-4.66c-0.104-0.332-0.215-0.65-0.328-0.978H444.885z
				 M372.359,243.74c0,0,69.123,0,70.119,0c1,0,2.02,0.754,2.02,2.02c0,1.271,0,1.73,0,1.73v9.346c0,0.229,0.023,0.451,0.035,0.682
				h-61.055c-3.232-6.799-8.764-11.325-12.297-13.689C371.568,243.769,371.961,243.74,372.359,243.74z M328.703,300.779
				c1.465-2.492,6.828-12.098,4.701-15.857c-4.473-7.896-5.688-15.467-3.621-22.484c3.559-12.087,15.77-18.613,15.893-18.684
				l0.566-0.297v-4.558h-2.115v-0.761h24.361v0.761h-2.119v4.577l0.594,0.291c0.123,0.059,12.23,6.123,15.908,17.968
				c2.215,7.118,0.98,14.919-3.662,23.187c-2.338,4.162,2.758,13.619,4.691,16.199l0.002,7.133h-55.199V300.779L328.703,300.779z
				 M328.703,310.373H383.9v3.312h-55.197V310.373z M328.703,315.804h55.199l0.012,50.715h-55.211V315.804z M328.703,368.638h55.211
				l0.002,2.727h-55.213V368.638z M382.631,386.687c-1.574,1.779-4.555,2.719-8.611,2.719h-35.424c-3.852,0-6.646-0.877-8.311-2.611
				c-1.648-1.719-1.588-3.686-1.584-3.817v-9.487h55.213l0.006,9.616C383.92,383.121,384.105,385.023,382.631,386.687z
				 M385.768,300.074c-2.082-2.459-6.291-11.308-4.715-14.113c1.354-2.401,2.42-4.774,3.227-7.117h23.305v85.722h-21.557
				l-0.01-64.188L385.768,300.074z M470.916,372.957c0,5.277-4.295,9.57-9.572,9.57h-75.314l-0.002-15.363h24.154V276.24h-25.104
				c0.693-2.685,1.021-5.316,0.979-7.89h65.189c1.793,1.021,3.83,1.659,6.02,1.755l2.5,0.055h7.406c0,0,1.781,0,2.357,0
				c0.67,0,1.393,0.447,1.393,1.549C470.916,272.23,470.916,372.957,470.916,372.957z"/>
			<g>
				<path d="M367.557,224.078v8.016h-22.502v-8.016H367.557 M368.037,222.078h-23.463c-0.84,0-1.521,0.877-1.521,1.967v8.082
					c0,1.092,0.678,1.967,1.521,1.967h23.463c0.84,0,1.52-0.877,1.52-1.967v-8.082C369.557,222.955,368.881,222.078,368.037,222.078
					L368.037,222.078z"/>
			</g>
		</g>
		<path d="M370.637,333.361c-1.984,0-3.789,0.688-5.209,1.48c-0.115-0.467-0.273-0.916-0.459-1.354
			c2.525-0.729,4.395-3.03,4.395-5.786h-2.117c0,1.981-1.486,3.618-3.41,3.877c-1.656-2.188-4.268-3.613-7.205-3.613
			c-2.932,0-5.533,1.441-7.199,3.635c-1.996-0.186-3.572-1.854-3.572-3.896h-2.119c0,2.812,1.938,5.157,4.539,5.834
			c-0.205,0.479-0.371,0.983-0.49,1.504c-1.5-0.898-3.416-1.681-5.561-1.681c-4.49,0-8.033,3.519-8.188,3.664l-0.738,0.748
			l0.738,0.75c0.146,0.146,3.688,3.666,8.188,3.666c2.271,0,4.303-0.886,5.854-1.86c0.889,3.793,3.113,13.252,3.645,15.498
			l0.191,0.812h9.021l0.207-0.781c0.354-1.354,2.991-11.342,3.979-15.137c1.252,0.682,3.201,1.461,5.523,1.461
			c4.486,0,8.031-3.521,8.182-3.668l0.742-0.746l-0.742-0.744C378.672,336.878,375.129,333.361,370.637,333.361z M342.221,340.072
			c-2.451,0-4.646-1.398-5.812-2.301c1.158-0.898,3.35-2.295,5.812-2.295c2.457,0,4.652,1.41,5.744,2.254l0.062,0.043
			C346.889,338.658,344.688,340.072,342.221,340.072z M363.414,338.83c-0.1,0.445-2.443,9.346-4.119,15.695h-5.713
			c-1.188-5.045-3.711-15.773-3.795-16.17l-0.131-0.717l0.012-0.729c0.076-3.771,3.197-6.828,6.961-6.828
			c3.691,0,6.744,2.889,6.943,6.58l0.062,1.178L363.414,338.83z M370.637,340.072c-2.814,0-4.971-1.43-5.562-1.863l-0.426-0.312
			l0.598-0.429c1.264-0.903,3.223-1.981,5.391-1.981c2.451,0,4.646,1.396,5.812,2.302
			C375.291,338.675,373.104,340.072,370.637,340.072z"/>
	</g>
</g>
<g id="ilustracion" display="none">
	<path display="inline" d="M452.213,367.56l-0.738-2.574c-0.059-0.211-0.17-0.402-0.314-0.557l-41.232-42.117l31.09-31.09
		c0.057-0.051,0.074-0.115,0.115-0.172c0.039-0.057,0.094-0.096,0.123-0.158l6.527-12.777c0.043-0.074,0.088-0.145,0.107-0.225
		l4.066-7.957l-20.961,10.703c-0.062,0.033-0.104,0.086-0.156,0.125c-0.057,0.039-0.123,0.064-0.174,0.117l-21.596,21.596
		c0.025-2.271,0.059-4.568,0.082-6.916l-0.914-15.484c2.742-5.203,1.844-8.443,1.812-8.549c-3.42-13.441,5.722-17.566,6.105-17.732
		l3.674-1.553l-3.881-0.918c-2.898-0.689-5.082-0.697-6.729-0.391l0.709-1.291l-3.051,0.916
		c-7.336,2.201-12.268,6.057-14.652,11.463c-3.111,7.045-1.014,14.658,0.225,18.002l-0.918,15.627
		c0.006,0.674,0.014,1.326,0.021,1.992c-5.172-4.775-12.992-11.967-13.869-12.568c-0.615-0.422-1.318-0.547-1.979-0.354
		c-0.691,0.205-1.174,0.717-1.477,1.15l-5.961-6.086c-0.342-0.451-1.902-2.365-4.855-4.021c-0.58-0.402-5.012-3.457-9.008-5.252
		c-0.463-0.207-0.998-0.129-1.389,0.199l-1.348,1.158l-1.717-1.719c-0.51-0.51-1.334-0.51-1.846,0c-0.512,0.514-0.512,1.336,0,1.85
		l1.74,1.742l-0.889,1.02c-0.328,0.386-0.41,0.927-0.201,1.392c1.795,3.996,4.85,8.431,5.252,9.009
		c1.648,2.955,3.564,4.521,4.021,4.858l32.074,31.401l-35.934,35.938l-5.387,5.381c-0.979,0.979-1.02,2.521-0.084,3.459l6.975,6.973
		c0.934,0.933,2.479,0.896,3.459-0.086l5.383-5.381l28.068-28.072c1.404,32.867,4.021,51.287,7.531,51.861l0.211,0.033l0.209-0.033
		c3.533-0.576,6.154-19.205,7.557-52.453l34.582,33.854c0.15,0.149,0.348,0.267,0.557,0.319l2.576,0.736
		c0.438,0.129,0.922,0.014,1.258-0.303l2.455-2.326c0.008-0.008,0.016-0.021,0.021-0.023c0.012-0.01,0.021-0.02,0.025-0.022
		l2.322-2.457C452.223,368.482,452.34,368.003,452.213,367.56z M408.74,319.802c0.041-1.637,0.08-3.301,0.115-4.99l26.945-26.949
		l2.438,2.436L408.74,319.802z M444.182,276.833l0.875,0.875l-5.312,10.396l-5.963-5.963L444.182,276.833z M431.59,283.644
		l2.373,2.373l-25.031,25.029c0.031-1.59,0.062-3.195,0.084-4.83L431.59,283.644z M394.617,263.074
		c1.727-3.908,5.062-6.904,9.957-8.935c-0.006,0.034,0.002,0.069-0.002,0.106c-0.002,0.049-0.002,0.094-0.002,0.144
		c0.004,0.123,0.021,0.243,0.062,0.36c0.006,0.019,0.008,0.037,0.021,0.056c0.104,0.28,0.297,0.532,0.582,0.69
		c0.637,0.348,1.426,0.11,1.771-0.521l0.047-0.084c0.082-0.146,1.133-1.783,5.121-1.533c-3.141,2.697-7.291,8.432-4.646,18.836
		c0.008,0.029,0.697,2.896-2.182,7.689H395.2C394.254,277.539,391.623,269.851,394.617,263.074z M406.4,293.153h-12.111
		l0.631-10.651h10.848L406.4,293.153z M376.271,287.554c0.021-0.062,0.062-0.131,0.105-0.197c1.438,1.182,9.229,8.34,15.213,13.877
		c0.02,0.809,0.025,1.598,0.037,2.398l-15.521-15.852C376.166,287.707,376.234,287.642,376.271,287.554z M351.5,275.835l1.266-1.455
		l1.324-1.141c2.482,1.193,5.086,2.836,6.594,3.822l-5.354,5.354C354.334,280.919,352.701,278.319,351.5,275.835z M358.008,286.353
		c-0.393-0.459-0.812-1.025-1.232-1.686l6.152-6.152c0.66,0.422,1.229,0.842,1.686,1.232L358.008,286.353z M366.43,281.619
		l25.262,25.803c0.068,4.189,0.152,8.23,0.25,12.136l-32.062-31.388L366.43,281.619z M391.984,323.251l0.053,0.051
		c0.041,1.525,0.086,3.027,0.131,4.506l-28.697,28.699l-2.373-2.373L391.984,323.251z M357.377,371.166l-6.654-6.656l4.387-4.383
		l6.652,6.652L357.377,371.166z M363.607,364.935l-6.656-6.654l2.303-2.299l6.652,6.654L363.607,364.935z M367.752,360.791
		l-2.438-2.438l26.967-26.971c0.057,1.604,0.113,3.162,0.174,4.703L367.752,360.791z M400.365,387.701
		c-0.547-1.496-1.318-4.385-2.131-9.908c-1.604-10.862-3.607-33.93-4.096-82.024h12.4
		C405.84,365.378,402.039,383.203,400.365,387.701z M442.375,368.933l-34.123-33.41c0.133-3.455,0.25-7.072,0.355-10.82
		l38.586,39.412L442.375,368.933z M447.715,369.455l-1.891,1.785l-1.545-0.443l-0.041-0.037l4.775-4.778l0.039,0.041l0.441,1.543
		L447.715,369.455z"/>
</g>
<g id="Identidad" display="none">
	<g display="inline">
		<path d="M399.619,347.996c4.043,0,5.883-6.469,5.883-12.479s-1.84-12.479-5.883-12.479c-4.066,0-5.92,6.469-5.92,12.479
			S395.551,347.996,399.619,347.996z M399.59,326.55c0.66,0.191,2.396,3.238,2.396,8.965c0,5.666-1.695,8.705-2.371,8.959
			c-0.688-0.229-2.4-3.24-2.4-8.959C397.215,329.742,398.971,326.722,399.59,326.55z"/>
		<path d="M403.578,263.96c10.938,0.832,21.625,5.312,31.768,13.322c0.322,0.256,0.707,0.379,1.088,0.379
			c0.521,0,1.037-0.229,1.389-0.668c0.602-0.768,0.471-1.867-0.289-2.476c-10.703-8.45-22.033-13.188-33.688-14.065
			c-0.98-0.08-1.812,0.647-1.885,1.615C401.883,263.041,402.609,263.886,403.578,263.96z"/>
		<path d="M365.691,275.714c0.438,0,0.842-0.16,1.146-0.426c0.283-0.242,12.271-10.203,29.646-11.361
			c0.973-0.064,1.705-0.902,1.641-1.871c-0.062-0.969-0.918-1.721-1.871-1.637c-17.408,1.16-32.322,11.375-32.322,13.537
			C363.934,274.927,364.721,275.714,365.691,275.714z"/>
		<path d="M427.725,282.065c-0.777-0.577-1.881-0.407-2.459,0.373c-0.568,0.782-0.402,1.883,0.375,2.459
			c6.07,4.47,16.723,14.517,19.812,31.595c0.154,0.85,0.895,1.445,1.729,1.445c0.104,0,0.211-0.012,0.316-0.029
			c0.955-0.172,1.59-1.086,1.418-2.043C445.6,297.589,434.217,286.843,427.725,282.065z"/>
		<path d="M383.414,279.684c10.688-4.948,22.955-4.403,36.471,1.616c0.896,0.393,1.934-0.004,2.32-0.893
			c0.398-0.892-0.002-1.932-0.889-2.32c-14.488-6.451-27.736-6.988-39.383-1.596c-22.137,10.256-30.463,38.02-30.809,39.2
			c-0.271,0.935,0.264,1.901,1.193,2.185c0.164,0.047,0.328,0.067,0.488,0.067c0.766,0,1.467-0.5,1.688-1.271
			C354.584,316.406,362.715,289.274,383.414,279.684z"/>
		<path d="M437.002,337.779c-0.947-0.021-1.783,0.727-1.818,1.695c-0.479,13.814-5.299,26.062-14.26,36.35
			c-0.09,0.096-9.146,9.406-22.504,9.812c-0.973,0.027-1.734,0.838-1.705,1.811c0.029,0.951,0.812,1.705,1.758,1.705
			c0.021,0,0.035,0,0.057-0.002c14.779-0.445,24.529-10.469,24.994-10.951c9.562-10.975,14.665-23.959,15.18-38.602
			C438.732,338.628,437.973,337.812,437.002,337.779z"/>
		<path d="M364.676,354.462c0.947-0.207,1.551-1.144,1.348-2.092c-4.633-21.48-0.564-39.982,11.758-53.52
			c4.57-5.062,16.354-12.332,28.479-10.337c10.104,1.663,18.107,9.188,23.781,22.299c2.857,7.438,4.34,13.688,4.957,20.881
			c0.08,0.97,0.949,1.685,1.9,1.604c0.969-0.084,1.684-0.937,1.602-1.903c-0.645-7.545-2.193-14.076-5.203-21.905
			c-7.729-17.869-18.658-23.152-26.465-24.439c-13.611-2.235-26.391,5.619-31.658,11.445
			c-13.117,14.397-17.471,33.979-12.592,56.616c0.18,0.824,0.908,1.39,1.719,1.39C364.424,354.5,364.549,354.488,364.676,354.462z"
			/>
		<path d="M367.717,359.638c-0.254-0.936-1.213-1.49-2.156-1.24c-0.938,0.256-1.492,1.221-1.238,2.156
			c1.646,6.098,3.566,11.189,4.895,14.391c2.387,5.768,2.854,6.574,3.795,6.574c0.158,0,0.33-0.021,0.523-0.049
			c0.564-0.072,1.062-0.422,1.324-0.932c0.27-0.511,0.27-1.113,0.002-1.621C374.82,378.839,370.773,370.966,367.717,359.638z"/>
		<path d="M428.084,339.324c1.266-17.828-6.918-38.072-22.805-41.09c-0.961-0.186-1.877,0.446-2.062,1.398
			c-0.18,0.955,0.445,1.875,1.4,2.057c13.775,2.616,21.084,21.441,19.953,37.385c-1.084,15.271-9.99,31.945-31.729,32.943
			c-0.971,0.047-1.723,0.867-1.678,1.84c0.045,0.941,0.822,1.678,1.756,1.678c0.025,0,0.057-0.002,0.082-0.002
			C417.053,374.425,426.893,356.103,428.084,339.324z"/>
		<path d="M381.904,368.904c-5.287-17.559-9.816-41.471-1.369-55.693c3.482-5.869,9.031-9.635,16.48-11.19
			c0.951-0.199,1.562-1.138,1.361-2.083c-0.201-0.95-1.129-1.561-2.082-1.355c-8.459,1.77-14.777,6.092-18.791,12.844
			c-9.1,15.322-4.463,40.271,1.027,58.504c1.367,4.545,3.918,13.559,5.812,20.32c0.218,0.771,0.924,1.283,1.689,1.283
			c0.156,0,0.316-0.021,0.479-0.064c0.938-0.262,1.479-1.232,1.221-2.168C385.838,382.513,383.283,373.474,381.904,368.904z"/>
		<path d="M384.584,335.292c0,14.022,7.898,23.797,14.986,23.797c7.066,0,14.955-9.771,14.955-23.797
			c0-14.027-7.889-23.797-14.955-23.797C392.482,311.496,384.584,321.269,384.584,335.292z M399.572,315.013
			c4.662,0,11.436,7.9,11.436,20.279s-6.771,20.281-11.436,20.281c-5.309,0-11.473-8.859-11.473-20.281
			C388.102,323.873,394.266,315.013,399.572,315.013z"/>
	</g>
</g>
<g>
	<path fill="#FF3333" stroke="#FFFFFF" stroke-width="0.5" stroke-miterlimit="10" d="M141.646,206.851h-33.295
		c-0.979,0-1.775,0.797-1.775,1.777c0,0.979,0.796,1.773,1.775,1.773h33.295c0.979,0,1.776-0.796,1.776-1.773
		C143.424,207.648,142.627,206.851,141.646,206.851z"/>
	<path fill="#FF3333" stroke="#FFFFFF" stroke-width="0.5" stroke-miterlimit="10" d="M168.395,144.809
		c0-11.97-4.77-23.117-13.43-31.389c-8.105-7.741-18.75-12.004-29.972-12.004c-0.681,0-1.363,0.016-2.049,0.046
		c-22.274,1.028-40.417,19.293-41.304,41.583c-0.477,12.035,3.88,23.406,12.27,32.016c6.379,6.543,9.893,15.508,9.893,25.243
		c0,0.979,0.796,1.774,1.774,1.774h38.847c0.979,0,1.773-0.802,1.773-1.785c0-9.582,3.628-18.66,10.216-25.563
		C164.141,166.632,168.395,156.007,168.395,144.809z M120.45,156.91h-7.937c-4.376,0-7.937-3.562-7.937-7.938
		c0-4.376,3.561-7.937,7.937-7.937s7.937,3.561,7.937,7.937V156.91z M128.773,198.529h-7.548v-40.847h7.548V198.529z
		 M142.734,197.595l-0.062,0.934H129.55v-40.847h7.937c4.804,0,8.712-3.907,8.712-8.711s-3.908-8.712-8.712-8.712
		c-4.803,0-8.711,3.908-8.711,8.712v7.938h-7.549v-7.938c0-4.804-3.908-8.712-8.711-8.712c-4.803,0-8.711,3.908-8.711,8.712
		s3.908,8.711,8.711,8.711h7.937v40.847h-13.124l-0.059-0.938c-0.6-9.584-4.442-18.465-10.818-25.008
		c-7.703-7.905-11.704-18.348-11.265-29.401c0.814-20.462,17.472-37.231,37.923-38.177c11.021-0.502,21.507,3.44,29.405,10.981
		c7.953,7.598,12.334,17.833,12.334,28.823c0,10.276-3.908,20.03-11.002,27.466C147.307,179.134,143.361,188.126,142.734,197.595z
		 M129.55,156.91v-7.938c0-4.376,3.562-7.937,7.937-7.937c4.377,0,7.938,3.561,7.938,7.937c0,4.377-3.562,7.938-7.938,7.938H129.55z
		"/>
	<path fill="#FF3333" stroke="#FFFFFF" stroke-width="0.5" stroke-miterlimit="10" d="M136.1,223.501h-22.198
		c-0.979,0-1.775,0.797-1.775,1.774s0.796,1.772,1.775,1.772H136.1c0.979,0,1.774-0.795,1.774-1.772S137.078,223.501,136.1,223.501z
		"/>
	<path fill="#FF3333" stroke="#FFFFFF" stroke-width="0.5" stroke-miterlimit="10" d="M141.646,215.177h-33.295
		c-0.979,0-1.775,0.796-1.775,1.773c0,0.979,0.796,1.773,1.775,1.773h33.295c0.979,0,1.776-0.797,1.776-1.773
		C143.424,215.973,142.627,215.177,141.646,215.177z"/>
	<path fill="#FF3333" stroke="#FFFFFF" stroke-width="0.5" stroke-miterlimit="10" d="M125,91.647c0.979,0,1.773-0.796,1.773-1.775
		v-19.98c0-0.979-0.795-1.775-1.773-1.775c-0.978,0-1.775,0.796-1.775,1.775v19.98C123.225,90.851,124.021,91.647,125,91.647z"/>
	<path fill="#FF3333" stroke="#FFFFFF" stroke-width="0.5" stroke-miterlimit="10" d="M165.102,182.402
		c-0.338-0.338-0.781-0.523-1.254-0.523c-0.475,0-0.92,0.187-1.256,0.522c-0.337,0.337-0.521,0.782-0.521,1.255
		s0.186,0.918,0.521,1.254l13.874,13.875c0.673,0.67,1.839,0.67,2.511,0c0.334-0.336,0.521-0.781,0.521-1.255
		s-0.187-0.919-0.521-1.255L165.102,182.402z"/>
	<path fill="#FF3333" stroke="#FFFFFF" stroke-width="0.5" stroke-miterlimit="10" d="M199.557,143.035h-19.621
		c-0.979,0-1.773,0.797-1.773,1.774s0.796,1.774,1.773,1.774h19.621c0.979,0,1.774-0.797,1.774-1.774
		S200.535,143.035,199.557,143.035z"/>
	<path fill="#FF3333" stroke="#FFFFFF" stroke-width="0.5" stroke-miterlimit="10" d="M73.535,198.785l13.874-13.875
		c0.335-0.336,0.521-0.781,0.521-1.254s-0.185-0.918-0.521-1.254c-0.337-0.338-0.782-0.523-1.255-0.523
		c-0.473,0-0.917,0.187-1.253,0.522l-13.875,13.874c-0.335,0.336-0.521,0.781-0.521,1.256c0,0.473,0.185,0.918,0.521,1.254
		C71.696,199.457,72.867,199.457,73.535,198.785z"/>
	<path fill="#FF3333" stroke="#FFFFFF" stroke-width="0.5" stroke-miterlimit="10" d="M50.443,146.583h19.621
		c0.979,0,1.774-0.797,1.774-1.774s-0.796-1.774-1.774-1.774H50.443c-0.978,0-1.774,0.797-1.774,1.774
		S49.465,146.583,50.443,146.583z"/>
	<path fill="#FF3333" stroke="#FFFFFF" stroke-width="0.5" stroke-miterlimit="10" d="M162.07,105.963
		c0,0.473,0.185,0.918,0.521,1.254c0.673,0.67,1.836,0.672,2.511,0l13.873-13.873c0.691-0.692,0.691-1.818,0-2.51
		c-0.336-0.336-0.781-0.521-1.254-0.521c-0.475,0-0.92,0.185-1.256,0.521l-13.874,13.874
		C162.255,105.044,162.07,105.49,162.07,105.963z"/>
	<path fill="#FF3333" stroke="#FFFFFF" stroke-width="0.5" stroke-miterlimit="10" d="M71.025,93.344l13.874,13.874
		c0.673,0.672,1.839,0.672,2.51,0c0.691-0.692,0.691-1.818,0-2.51L73.536,90.834c-0.336-0.335-0.782-0.521-1.255-0.521
		c-0.473,0-0.919,0.185-1.255,0.521C70.334,91.526,70.333,92.652,71.025,93.344z"/>
</g>
</svg>
