<?xml version="1.0" encoding="utf-8"?>
<!-- Generator: Adobe Illustrator 16.0.0, SVG Export Plug-In . SVG Version: 6.00 Build 0)  -->
<!DOCTYPE svg PUBLIC "-//W3C//DTD SVG 1.1//EN" "http://www.w3.org/Graphics/SVG/1.1/DTD/svg11.dtd">
<svg version="1.1" id="Layer_1" xmlns="http://www.w3.org/2000/svg" xmlns:xlink="http://www.w3.org/1999/xlink" x="0px" y="0px"
	 width="250px" height="231.167px" viewBox="0 0 250 231.167" enable-background="new 0 0 250 231.167" xml:space="preserve">
<g id="Diseño_de_web">
	<g>
		<path fill="#FF3333" d="M123.424,201.875h92.285c0.779,0,1.301-0.52,1.301-1.299v-58.492c0-0.779-0.52-1.299-1.301-1.299h-92.285
			c-0.78,0-1.299,0.52-1.299,1.299v58.492C122.125,201.355,122.644,201.875,123.424,201.875z M124.723,143.384h89.689v55.891
			h-89.689V143.384L124.723,143.384z"/>
		<path fill="#FF3333" d="M235.727,205.253h-12.479v-67.85c0-2.338-2.078-4.418-4.418-4.418h-27.59
			c0.008-0.066,0.033-0.121,0.033-0.193V89.832c0-2.602-2.08-4.678-4.682-4.678H43.098c-2.602,0-4.681,2.076-4.681,4.678v56.412
			H15.542c-2.081,0-3.9,1.82-3.9,3.896v60.053c0,2.08,1.819,3.896,3.9,3.896h34.835c0.194,0,0.371-0.029,0.528-0.092
			c0.479,0.221,1.006,0.355,1.55,0.355h14.298c2.079,0,3.9-1.82,3.9-3.9v-4.939v-15.461c0.17,0.074,0.357,0.121,0.574,0.121h26.721
			l-1.559,15.078l-6.5,4.684c-0.262,0.26-0.521,0.52-0.521,1.037c0,0.262,0,1.303,0.779,2.078c0.262,0.521,1.039,0.781,2.34,0.781
			h18.506c0.908,0.166,1.512,0.26,1.512,0.26h113.863c0,0,11.959-1.816,11.959-4.42v-1.561
			C238.586,206.554,237.287,205.253,235.727,205.253z M220.391,137.404v67.85h-36.916c-0.26,0-0.777,0.262-1.039,0.521
			c-0.26,0.26-0.26,0.52-0.26,0.779c0,0,0,0.262-0.26,0.262h-24.697c0,0-0.26,0-0.26-0.262s0-0.779-0.26-1.039
			c-0.262-0.262-0.521-0.521-1.039-0.521h-37.175v-67.59c0-1.039,0.781-1.818,1.817-1.818h98.268
			C219.609,135.585,220.391,136.365,220.391,137.404z M70.348,174.126c-0.562-1.289-1.861-2.146-3.596-2.146h-6.238v-3.898h55.372
			v5.98H70.729C70.588,174.06,70.468,174.095,70.348,174.126z M115.886,137.404v28.076H60.514v-15.338
			c0-2.078-1.818-3.898-3.9-3.898h-7.019V96.332h130.76v36.654h-60.051C117.965,132.986,115.886,135.066,115.886,137.404z
			 M41.016,89.832c0-1.039,1.041-2.08,2.082-2.08h143.496c1.039,0,2.08,1.041,2.08,2.08v42.961c0,0.072,0.025,0.127,0.035,0.193
			h-6.047c0.008-0.066,0.033-0.121,0.033-0.193V95.031c0-0.779-0.521-1.301-1.301-1.301h-133.1c-0.778,0-1.3,0.521-1.3,1.301v51.213
			h-5.979V89.832L41.016,89.832z M14.241,210.193v-60.051c0-0.779,0.52-1.299,1.301-1.299h41.072c0.779,0,1.301,0.52,1.301,1.299
			v21.836h-1.82v-18.195c0-0.779-0.52-1.301-1.3-1.301H17.36c-0.779,0-1.299,0.521-1.299,1.301v51.471
			c0,0.781,0.52,1.301,1.299,1.301h31.195v3.898c0,0.359,0.069,0.705,0.172,1.041H15.541
			C14.76,211.494,14.241,210.974,14.241,210.193z M48.557,175.878v3.641v24.438H18.661v-48.873h34.834v16.896h-1.04
			C50.376,171.978,48.557,173.798,48.557,175.878z M66.752,211.494H52.455c-0.779,0-1.3-0.521-1.3-1.301v-3.641h16.638v3.641
			C68.052,210.974,67.534,211.494,66.752,211.494z M68.052,203.955H51.416v-23.396h16.637V203.955z M68.313,178.218h-16.64v-2.6
			c0-0.566,0.261-1.041,1.039-1.041H67.01c0.78,0,1.303,0.52,1.303,1.301V178.218z M71.227,187.578
			c-0.215,0-0.402,0.047-0.574,0.121v-8.18v-2.873c0.027,0,0.05,0.014,0.076,0.014h45.157v10.932
			c-0.03-0.002-0.055-0.014-0.086-0.014H71.227L71.227,187.578z M92.749,211.494l5.979-4.42c0.262-0.26,0.521-0.521,0.521-1.039
			l1.562-15.859H115.8c0.031,0,0.056-0.012,0.086-0.014v15.092h-12.479c-1.56,0-2.859,1.301-2.859,2.859v1.561
			c0,0.664,0.784,1.275,1.944,1.82H92.749z M236.246,209.154h-0.258c-1.822,0.779-8.32,2.34-9.359,2.34H113.024
			c-1.039,0-7.537-1.561-9.617-2.34v-1.041c0,0,0-0.26,0.262-0.26h51.21c0.521,1.041,1.562,1.561,2.6,1.561h24.697
			c1.039,0,2.08-0.781,2.602-1.561h51.213c0,0,0.258,0,0.258,0.26L236.246,209.154L236.246,209.154z"/>
		<circle fill="#FF3333" cx="36.077" cy="150.663" r="0.78"/>
		<circle fill="#FF3333" cx="36.077" cy="209.153" r="1.56"/>
		<circle fill="#FF3333" cx="59.735" cy="209.153" r="1.56"/>
	</g>
</g>
<g id="Gráfica_digital" display="none">
	<g display="inline">
		<g>
			<path d="M415.418,349.712c-6.832,0-12.391,5.562-12.391,12.4c0,3.27,1.266,6.357,3.568,8.703l0.01,0.008l0.07,0.066
				c2.342,2.336,5.447,3.621,8.74,3.621c3.262,0,6.346-1.264,8.682-3.559l0.023-0.025l0.025-0.021
				c0.006-0.006,0.01-0.016,0.018-0.021l0.02-0.016l0.072-0.074c2.297-2.338,3.562-5.422,3.562-8.686
				C427.82,355.275,422.256,349.712,415.418,349.712z M423.271,369.83c-0.023,0.02-0.053,0.039-0.074,0.061
				c-0.025,0.023-0.041,0.057-0.066,0.078c-1.988,1.953-4.711,3.164-7.713,3.164c-3.025,0-5.773-1.229-7.766-3.219
				c-0.008-0.008-0.016-0.018-0.021-0.023c-0.004-0.006-0.012-0.008-0.018-0.016c-1.979-1.992-3.207-4.736-3.207-7.764
				c0-6.076,4.943-11.018,11.01-11.018c6.076,0,11.021,4.941,11.021,11.018C426.439,365.117,425.227,367.839,423.271,369.83z"/>
			<path d="M433.867,359.294h-2.051c-0.428-2.494-1.404-4.801-2.812-6.785l1.445-1.443c1.096-1.094,1.1-2.879,0-3.986
				c-0.545-0.553-1.271-0.83-1.99-0.83c-0.723,0-1.443,0.273-1.992,0.818l-1.457,1.451c-1.982-1.402-4.285-2.377-6.773-2.805v-2.033
				c0-1.543-1.264-2.816-2.816-2.816c-1.549,0-2.82,1.273-2.82,2.816v2.035c-2.488,0.426-4.785,1.402-6.771,2.809l-1.467-1.461
				c-0.559-0.539-1.281-0.811-2.002-0.811c-0.725,0-1.439,0.271-1.992,0.822c-1.097,1.1-1.092,2.885,0.01,3.98l1.459,1.457
				c-1.399,1.984-2.379,4.287-2.805,6.777h-2.057c-1.555,0-2.816,1.281-2.816,2.818c0,1.557,1.264,2.818,2.816,2.818h2.057
				c0.426,2.488,1.398,4.789,2.805,6.773l-1.455,1.457c-1.104,1.076-1.104,2.885-0.004,3.982c0.549,0.549,1.271,0.822,1.992,0.822
				s1.445-0.281,1.996-0.822l1.455-1.455c1.984,1.406,4.289,2.391,6.777,2.814v2.051c0,1.559,1.271,2.816,2.82,2.816
				c1.555,0,2.816-1.256,2.816-2.816V378.5c2.49-0.428,4.795-1.404,6.781-2.811l1.449,1.451c0.554,0.545,1.273,0.822,1.994,0.822
				c0.723,0,1.443-0.281,1.988-0.822c1.096-1.102,1.096-2.898,0-3.986L429,371.712c1.412-1.984,2.391-4.287,2.816-6.781h2.051
				c1.549,0,2.82-1.262,2.82-2.818C436.688,360.576,435.416,359.294,433.867,359.294z M433.867,363.548h-2.051h-1.164l-0.195,1.15
				c-0.389,2.258-1.258,4.348-2.582,6.215l-0.678,0.953l0.828,0.824l1.451,1.447c0.547,0.547,0.545,1.48,0,2.023
				c-0.271,0.268-0.643,0.422-1.018,0.422c-0.385,0-0.748-0.15-1.02-0.418l-1.449-1.449l-0.824-0.826l-0.951,0.678
				c-1.865,1.318-3.959,2.188-6.217,2.574l-1.146,0.197v1.164v2.051c0,0.791-0.646,1.439-1.436,1.439
				c-0.793,0-1.436-0.646-1.436-1.439v-2.051v-1.166l-1.146-0.195c-2.26-0.389-4.35-1.258-6.217-2.578l-0.951-0.68l-0.824,0.826
				l-1.443,1.445c-0.283,0.277-0.65,0.428-1.031,0.428s-0.746-0.145-1.018-0.418c-0.271-0.273-0.424-0.639-0.42-1.031
				c0.004-0.379,0.15-0.729,0.428-1l1.457-1.457l0.822-0.82l-0.674-0.951c-1.318-1.863-2.184-3.953-2.572-6.207l-0.193-1.15h-1.168
				h-2.057c-0.793,0-1.438-0.643-1.438-1.436c0-0.777,0.658-1.439,1.438-1.439h2.057h1.168l0.193-1.145
				c0.387-2.256,1.254-4.35,2.572-6.213l0.674-0.953l-0.828-0.824l-1.459-1.455c-0.561-0.562-0.562-1.475-0.008-2.031
				c0.271-0.27,0.629-0.418,1.016-0.418s0.758,0.15,1.025,0.408l1.465,1.461l0.824,0.824l0.951-0.674
				c1.861-1.322,3.953-2.189,6.207-2.576l1.148-0.197v-1.164v-2.035c0-0.777,0.656-1.436,1.438-1.436
				c0.789,0,1.436,0.645,1.436,1.436v2.033v1.166l1.146,0.197c2.258,0.387,4.346,1.252,6.213,2.566l0.951,0.676l0.822-0.822
				l1.449-1.447c0.275-0.27,0.639-0.418,1.021-0.418s0.74,0.15,1.012,0.422c0.562,0.564,0.564,1.477,0.004,2.033l-1.443,1.441
				l-0.828,0.822l0.676,0.953c1.322,1.867,2.188,3.959,2.58,6.225l0.195,1.145h1.162h2.053c0.773,0,1.436,0.658,1.436,1.439
				C435.303,362.906,434.656,363.548,433.867,363.548z"/>
			<path d="M390.82,365.437h-0.59c-0.295-1.242-0.783-2.41-1.434-3.475l0.414-0.414c1.104-1.088,1.104-2.893,0.004-3.986
				c-0.549-0.547-1.268-0.816-1.99-0.816c-0.719,0-1.441,0.27-1.992,0.816l-0.412,0.412c-1.064-0.652-2.23-1.145-3.479-1.443v-0.572
				c0-1.551-1.264-2.818-2.816-2.818c-1.555,0-2.818,1.27-2.818,2.818v0.572c-1.248,0.301-2.42,0.793-3.482,1.447l-0.412-0.416
				c-0.551-0.547-1.271-0.816-1.994-0.816c-0.721,0-1.439,0.27-1.99,0.816c-1.1,1.09-1.1,2.895,0,3.986l0.422,0.422
				c-0.646,1.062-1.135,2.227-1.432,3.467h-0.594c-1.555,0-2.816,1.279-2.816,2.818c0,1.557,1.264,2.818,2.816,2.818h0.605
				c0.299,1.236,0.791,2.398,1.439,3.457l-0.434,0.432c-1.104,1.096-1.104,2.881-0.006,3.986c0.554,0.547,1.271,0.82,1.994,0.82
				s1.438-0.273,1.99-0.82l0.438-0.438c1.059,0.648,2.219,1.141,3.453,1.438v0.605c0,1.557,1.266,2.816,2.816,2.816
				c1.556,0,2.818-1.256,2.818-2.816v-0.605c1.236-0.297,2.395-0.787,3.449-1.436l0.434,0.436c0.553,0.547,1.273,0.82,1.994,0.82
				c0.723,0,1.439-0.273,1.992-0.82c1.1-1.096,1.1-2.893,0-3.986l-0.432-0.432c0.647-1.061,1.141-2.221,1.438-3.457h0.602
				c1.561,0,2.814-1.264,2.814-2.818C393.637,366.718,392.373,365.437,390.82,365.437z M390.82,369.693h-0.6h-1.092l-0.254,1.059
				c-0.262,1.08-0.688,2.107-1.271,3.057l-0.57,0.932l0.77,0.77l0.436,0.438c0.27,0.268,0.416,0.627,0.416,1.014
				c0,0.385-0.146,0.744-0.41,1.01c-0.279,0.273-0.641,0.424-1.021,0.424c-0.383,0-0.744-0.148-1.017-0.416l-0.435-0.436
				l-0.769-0.773l-0.933,0.572c-0.95,0.582-1.977,1.008-3.053,1.27l-1.06,0.256v1.088v0.605c0,0.791-0.646,1.438-1.437,1.438
				c-0.793,0-1.437-0.646-1.437-1.438v-0.605v-1.088l-1.06-0.256c-1.078-0.262-2.104-0.688-3.053-1.27l-0.929-0.57l-0.771,0.77
				l-0.436,0.432c-0.275,0.273-0.637,0.426-1.02,0.426c-0.385,0-0.746-0.15-1.016-0.416c-0.273-0.275-0.424-0.641-0.422-1.025
				c0.002-0.381,0.15-0.736,0.426-1.008l0.432-0.434l0.771-0.77l-0.574-0.93c-0.582-0.953-1.012-1.98-1.271-3.061l-0.254-1.059
				h-1.088h-0.604c-0.791,0-1.437-0.645-1.437-1.438c0-0.777,0.656-1.438,1.437-1.438h0.595h1.092l0.254-1.062
				c0.258-1.08,0.684-2.109,1.264-3.062l0.566-0.928l-0.766-0.77l-0.428-0.428c-0.271-0.27-0.42-0.629-0.418-1.018
				c0-0.385,0.146-0.74,0.418-1.01s0.632-0.418,1.018-0.418c0.385,0,0.748,0.148,1.014,0.414l0.412,0.414l0.772,0.777l0.933-0.576
				c0.957-0.59,1.994-1.021,3.082-1.281l1.059-0.256v-1.088v-0.572c0-0.791,0.643-1.436,1.436-1.436
				c0.791,0,1.438,0.645,1.438,1.436v0.572v1.09l1.061,0.254c1.086,0.262,2.121,0.691,3.074,1.279l0.934,0.57l0.771-0.771
				l0.406-0.404c0.271-0.27,0.635-0.422,1.021-0.422c0.385,0,0.745,0.148,1.019,0.418c0.271,0.271,0.418,0.629,0.418,1.02
				c-0.005,0.383-0.15,0.736-0.427,1.01l-0.416,0.416l-0.769,0.77l0.566,0.932c0.586,0.955,1.012,1.988,1.27,3.068l0.253,1.062
				h1.092h0.59c0.777,0,1.435,0.658,1.435,1.438C392.254,369.05,391.611,369.693,390.82,369.693z"/>
			<path d="M384.035,362.746l-0.08-0.061c-1.465-1.428-3.391-2.215-5.43-2.215c-2.033,0-3.957,0.783-5.457,2.24l-0.012,0.01
				l-0.076,0.078c-1.449,1.469-2.246,3.406-2.246,5.457c0,2.049,0.793,3.988,2.25,5.473l0.014,0.018v0.002l0.072,0.07
				c1.43,1.406,3.32,2.199,5.326,2.234h0.035h0.039c0.016-0.002,0.027-0.002,0.045-0.004l0.062,0.004h0.037h0.039
				c1.975-0.035,3.846-0.811,5.271-2.184l0.031-0.031l0.026-0.031c0.011-0.012,0.021-0.021,0.031-0.037l0.051-0.049l0.031-0.023
				l0.026-0.029c1.392-1.445,2.168-3.334,2.188-5.326v-0.008v-0.109c-0.011-2.025-0.797-3.936-2.211-5.389L384.035,362.746z
				 M384.932,368.285c-0.008,1.721-0.695,3.273-1.801,4.424c-0.027,0.025-0.059,0.043-0.086,0.07
				c-0.031,0.027-0.051,0.064-0.078,0.098c-1.129,1.09-2.652,1.768-4.336,1.795c-0.035-0.002-0.07-0.012-0.105-0.012
				s-0.068,0.01-0.105,0.012c-1.701-0.027-3.244-0.723-4.377-1.838c-0.016-0.014-0.021-0.029-0.035-0.043s-0.029-0.023-0.045-0.037
				c-1.141-1.16-1.846-2.748-1.846-4.496c0-1.746,0.709-3.33,1.85-4.488c0.014-0.01,0.021-0.016,0.033-0.023
				c0.01-0.012,0.021-0.025,0.027-0.037c1.16-1.143,2.746-1.852,4.498-1.852c1.762,0,3.354,0.715,4.516,1.865
				c0,0.004,0.002,0.008,0.006,0.012c0.008,0.006,0.014,0.008,0.016,0.014c1.148,1.152,1.863,2.738,1.873,4.486
				c0,0.008,0,0.018,0,0.023C384.932,368.267,384.932,368.275,384.932,368.285z"/>
			<path d="M391.443,336.853l0.07,0.07c1.426,1.406,3.316,2.201,5.322,2.236h0.035h0.033c0.021-0.002,0.039-0.004,0.055-0.004h0.004
				l0.076,0.004h0.033h0.039c1.971-0.035,3.84-0.812,5.305-2.232c0.014-0.018,0.031-0.035,0.045-0.053l0.035-0.023l0.076-0.078
				c1.41-1.471,2.188-3.391,2.188-5.41c0-2.045-0.791-3.977-2.229-5.449l-0.006-0.008l-0.08-0.078
				c-1.471-1.455-3.412-2.256-5.473-2.256c-2.041,0-3.969,0.787-5.438,2.223l-0.006,0.004l-0.084,0.084
				c-1.459,1.471-2.262,3.418-2.262,5.48c0,2.031,0.777,3.961,2.244,5.471L391.443,336.853z M392.424,326.855
				c0.008-0.008,0.018-0.012,0.025-0.02c0.006-0.006,0.01-0.014,0.018-0.02c1.16-1.148,2.75-1.861,4.508-1.861
				c1.752,0,3.344,0.711,4.5,1.854c0.008,0.01,0.016,0.02,0.021,0.027c0.008,0.01,0.018,0.016,0.027,0.023
				c1.145,1.156,1.854,2.748,1.854,4.504c0,1.729-0.688,3.295-1.799,4.449c-0.027,0.025-0.061,0.045-0.086,0.07
				c-0.031,0.029-0.053,0.066-0.084,0.1c-1.125,1.09-2.646,1.766-4.32,1.795c-0.041-0.002-0.074-0.014-0.113-0.014
				c-0.041,0-0.072,0.012-0.111,0.014c-1.703-0.031-3.244-0.723-4.377-1.836c-0.02-0.021-0.031-0.049-0.055-0.068
				c-0.014-0.012-0.027-0.02-0.041-0.031c-1.127-1.158-1.828-2.734-1.828-4.479C390.562,329.607,391.277,328.015,392.424,326.855z"
				/>
			<path d="M384.676,334.183h0.605c0.299,1.234,0.787,2.393,1.432,3.447l-0.439,0.443c-1.1,1.092-1.092,2.891,0.016,3.98
				c0.553,0.547,1.273,0.822,1.986,0.822c0.729,0,1.449-0.275,1.996-0.834l0.428-0.428c1.059,0.65,2.219,1.141,3.459,1.439v0.6
				c0,1.541,1.264,2.82,2.816,2.82c1.559,0,2.816-1.252,2.816-2.82v-0.6c1.236-0.299,2.395-0.785,3.449-1.434l0.428,0.434
				c0.555,0.547,1.275,0.822,2,0.822c0.721,0,1.441-0.275,1.988-0.822c1.1-1.094,1.1-2.893,0-3.984l-0.43-0.432
				c0.646-1.059,1.137-2.219,1.438-3.459h0.607c1.557,0,2.818-1.258,2.818-2.818c0-1.539-1.264-2.818-2.818-2.818h-0.6
				c-0.295-1.244-0.785-2.41-1.432-3.473l0.416-0.416c1.096-1.105,1.096-2.908-0.012-3.984c-0.551-0.551-1.271-0.826-1.99-0.826
				c-0.725,0-1.443,0.275-1.992,0.826l-0.402,0.402c-1.061-0.656-2.225-1.148-3.473-1.449v-0.562c0-1.549-1.26-2.814-2.816-2.814
				c-1.555,0-2.816,1.27-2.816,2.814v0.562c-1.248,0.301-2.412,0.793-3.475,1.447l-0.412-0.412c-0.549-0.547-1.271-0.82-1.99-0.82
				c-0.723,0-1.441,0.273-1.992,0.82c-1.104,1.088-1.104,2.885-0.006,3.982l0.422,0.426c-0.646,1.062-1.139,2.23-1.438,3.477h-0.592
				c-1.555,0-2.82,1.279-2.82,2.818C381.855,332.925,383.121,334.183,384.676,334.183z M384.676,329.927h0.592h1.092l0.256-1.061
				c0.258-1.086,0.684-2.121,1.268-3.078l0.566-0.926l-0.768-0.771l-0.426-0.428c-0.271-0.271-0.418-0.633-0.418-1.021
				c0.002-0.383,0.15-0.734,0.422-1.006c0.272-0.27,0.635-0.418,1.021-0.418c0.385,0,0.744,0.148,1.014,0.414l0.412,0.412
				l0.771,0.775l0.933-0.576c0.955-0.586,1.987-1.018,3.069-1.279l1.06-0.254v-1.09v-0.561c0-0.793,0.645-1.436,1.438-1.436
				c0.79,0,1.437,0.643,1.437,1.436v0.561v1.088l1.059,0.256c1.086,0.268,2.119,0.693,3.07,1.281l0.93,0.574l0.773-0.775
				l0.397-0.396c0.271-0.271,0.634-0.424,1.019-0.424s0.744,0.15,1.024,0.438c0.267,0.256,0.411,0.604,0.416,0.98
				c0.005,0.396-0.147,0.764-0.416,1.033l-0.413,0.416l-0.773,0.771l0.566,0.928c0.584,0.959,1.014,1.992,1.271,3.076l0.254,1.061
				h1.088h0.6c0.777,0,1.436,0.658,1.436,1.436c0,0.793-0.645,1.438-1.436,1.438h-0.607h-1.088l-0.256,1.061
				c-0.265,1.08-0.689,2.105-1.273,3.059l-0.568,0.928l0.77,0.771l0.435,0.438c0.269,0.268,0.418,0.627,0.418,1.014
				c0,0.385-0.149,0.742-0.423,1.016c-0.268,0.27-0.629,0.418-1.01,0.418c-0.385,0-0.748-0.15-1.018-0.418l-0.434-0.432l-0.77-0.773
				l-0.934,0.57c-0.945,0.582-1.975,1.008-3.049,1.268l-1.059,0.256v1.088v0.602c0,0.807-0.631,1.438-1.438,1.438
				c-0.777,0-1.438-0.656-1.438-1.438v-0.602v-1.088l-1.059-0.256c-1.078-0.262-2.109-0.688-3.059-1.271l-0.936-0.574l-0.771,0.779
				l-0.43,0.434c-0.27,0.27-0.625,0.42-1.012,0.42c-0.381,0-0.741-0.15-1.016-0.426c-0.271-0.27-0.422-0.629-0.422-1.016
				c0-0.385,0.143-0.74,0.418-1.014l0.439-0.439l0.762-0.771l-0.566-0.926c-0.58-0.945-1.006-1.975-1.266-3.051l-0.258-1.059h-1.086
				h-0.605c-0.793,0-1.438-0.645-1.438-1.438C383.238,330.585,383.896,329.927,384.676,329.927z"/>
		</g>
		<path d="M349.314,293.701c0,1.555-1.26,2.815-2.818,2.815s-2.818-1.263-2.818-2.815c0-1.56,1.26-2.82,2.818-2.82
			S349.314,292.142,349.314,293.701z"/>
		<path d="M360.588,293.701c0,1.555-1.26,2.815-2.816,2.815c-1.559,0-2.818-1.263-2.818-2.815c0-1.56,1.262-2.82,2.818-2.82
			S360.588,292.142,360.588,293.701z"/>
		<path d="M371.861,293.701c0,1.555-1.262,2.815-2.816,2.815c-1.561,0-2.82-1.263-2.82-2.815c0-1.56,1.26-2.82,2.82-2.82
			C370.6,290.88,371.861,292.142,371.861,293.701z"/>
		<path d="M464.475,281.63H335.527c-0.879,0-1.592,0.711-1.592,1.59v106.715c0,0.879,0.713,1.59,1.592,1.59h128.945
			c0.879,0,1.592-0.711,1.592-1.59V283.22C466.064,282.341,465.354,281.63,464.475,281.63z M462.885,284.81v19.053H337.117V284.81
			H462.885z M337.117,388.347v-81.305h125.768v81.305H337.117z"/>
	</g>
</g>
<g id="Gráfica_impresa" display="none">
	<g display="inline">
		<rect x="416.906" y="316.562" width="44.553" height="2.604"/>
		<rect x="416.906" y="323.285" width="44.553" height="2.602"/>
		<rect x="416.906" y="330.005" width="44.553" height="2.604"/>
		<rect x="416.906" y="336.726" width="44.553" height="2.602"/>
		<rect x="416.906" y="343.445" width="44.553" height="2.602"/>
		<rect x="416.906" y="350.166" width="44.553" height="2.604"/>
		<rect x="416.906" y="356.886" width="44.553" height="2.602"/>
		<rect x="415.932" y="363.607" width="38.971" height="2.604"/>
		<g>
			<path d="M417.02,311.544h44.439V276.24H417.02V311.544z M419.619,278.843h39.238v30.102h-39.238V278.843z"/>
			<path d="M444.705,241.24h-72.346c-1.354,0-2.656,0.229-3.873,0.645v-0.865h2.119v-4.996h-28.6v4.996h2.119v1.177
				c-2.581,1.484-12.961,8.068-16.37,19.623c-2.239,7.601-0.962,15.726,3.808,24.146c1.18,2.086-2.111,9.435-4.826,13.98
				l-0.15,0.251l0.002,82.718c-0.006,0.117-0.137,2.91,2.128,5.305c2.073,2.197,5.399,3.309,9.88,3.309h35.424
				c4.748,0,8.184-1.154,10.195-3.436c0.924-1.039,1.389-2.145,1.619-3.061h75.508c6.656,0,12.074-5.416,12.074-12.072V269.941
				L444.705,241.24z M446.992,246.893h0.002l20.838,20.767h-8.072h-1.252h-0.688c-0.191,0-0.373-0.047-0.564-0.057
				c-3.893-0.201-7.215-2.45-8.947-5.703c-0.219-0.406-0.428-0.814-0.586-1.248c-0.156-0.404-0.285-0.824-0.389-1.249
				c-0.203-0.827-0.34-1.676-0.34-2.563L446.992,246.893L446.992,246.893z M444.885,260.112c0.215,0.793,0.627,1.787,0.627,1.787
				c0.596,1.437,1.453,2.722,2.482,3.851h-62.122c-0.187-1.578-0.511-3.133-0.983-4.66c-0.104-0.332-0.216-0.654-0.328-0.978
				H444.885z M372.359,243.74c0,0,69.124,0,70.119,0c1,0,2.021,0.754,2.021,2.02c0,1.267,0,1.73,0,1.73v9.346
				c0,0.229,0.023,0.451,0.035,0.678h-61.056c-3.231-6.795-8.761-11.325-12.295-13.692
				C371.568,243.769,371.96,243.74,372.359,243.74z M328.703,300.779c1.465-2.492,6.828-12.098,4.701-15.857
				c-4.471-7.896-5.688-15.467-3.621-22.488c3.559-12.087,15.77-18.614,15.893-18.68l0.567-0.297v-4.558h-2.116v-0.761h24.361v0.761
				h-2.119v4.577l0.594,0.291c0.123,0.059,12.23,6.123,15.908,17.968c2.215,7.118,0.982,14.919-3.662,23.187
				c-2.338,4.162,2.758,13.619,4.691,16.199l0.002,7.133h-55.199V300.779z M328.703,310.373H383.9v3.311h-55.197V310.373z
				 M328.703,315.804h55.199l0.012,50.715h-55.211V315.804z M328.703,368.638h55.211l0.002,2.727h-55.213V368.638z M382.63,386.687
				c-1.573,1.779-4.553,2.719-8.61,2.719h-35.424c-3.851,0-6.646-0.877-8.311-2.611c-1.648-1.719-1.587-3.686-1.583-3.82v-9.49
				h55.213l0.004,9.619C383.919,383.121,384.105,385.023,382.63,386.687z M385.768,300.074c-2.082-2.459-6.291-11.308-4.716-14.113
				c1.353-2.405,2.421-4.778,3.226-7.117h23.304v85.719h-21.556l-0.008-64.191L385.768,300.074z M470.916,372.957
				c0,5.277-4.295,9.57-9.572,9.57h-75.316l-0.002-15.363h24.156V276.24h-25.106c0.696-2.685,1.021-5.316,0.977-7.89h65.19
				c1.793,1.021,3.83,1.659,6.02,1.755l2.5,0.055h7.406c0,0,1.781,0,2.357,0c0.67,0,1.393,0.447,1.393,1.549
				C470.916,272.23,470.916,372.957,470.916,372.957z"/>
			<g>
				<path d="M367.557,224.078v8.016h-22.502v-8.016H367.557 M368.037,222.078h-23.462c-0.841,0-1.521,0.877-1.521,1.967v8.082
					c0,1.092,0.676,1.967,1.521,1.967h23.462c0.84,0,1.52-0.877,1.52-1.967v-8.082C369.557,222.955,368.88,222.078,368.037,222.078
					L368.037,222.078z"/>
			</g>
		</g>
		<path d="M370.636,333.361c-1.985,0-3.788,0.688-5.209,1.48c-0.114-0.467-0.274-0.916-0.459-1.354
			c2.527-0.729,4.394-3.031,4.394-5.787h-2.118c0,1.984-1.488,3.619-3.41,3.877c-1.658-2.189-4.267-3.613-7.207-3.613
			c-2.929,0-5.533,1.441-7.199,3.633c-1.997-0.184-3.575-1.852-3.575-3.895h-2.119c0,2.811,1.937,5.158,4.539,5.834
			c-0.205,0.48-0.371,0.984-0.49,1.504c-1.5-0.9-3.415-1.68-5.559-1.68c-4.492,0-8.035,3.518-8.187,3.664l-0.74,0.748l0.74,0.75
			c0.147,0.145,3.69,3.666,8.187,3.666c2.274,0,4.301-0.883,5.853-1.861c0.887,3.793,3.112,13.252,3.643,15.498l0.193,0.814h9.021
			l0.207-0.783c0.356-1.352,2.991-11.34,3.979-15.135c1.252,0.68,3.2,1.461,5.522,1.461c4.489,0,8.034-3.52,8.182-3.668l0.742-0.746
			l-0.742-0.746C378.671,336.878,375.128,333.361,370.636,333.361z M342.221,340.072c-2.451,0-4.647-1.398-5.812-2.301
			c1.157-0.898,3.348-2.295,5.812-2.295c2.457,0,4.653,1.41,5.743,2.254l0.062,0.043
			C346.889,338.658,344.688,340.072,342.221,340.072z M363.414,338.83c-0.1,0.445-2.443,9.346-4.119,15.695h-5.713
			c-1.188-5.045-3.711-15.773-3.795-16.17l-0.131-0.717l0.012-0.729c0.076-3.768,3.197-6.828,6.961-6.828
			c3.691,0,6.744,2.889,6.943,6.58l0.062,1.178L363.414,338.83z M370.636,340.072c-2.815,0-4.969-1.43-5.561-1.863l-0.427-0.314
			l0.599-0.426c1.262-0.906,3.221-1.986,5.389-1.986c2.451,0,4.648,1.395,5.812,2.299
			C375.291,338.675,373.104,340.072,370.636,340.072z"/>
	</g>
</g>
<g id="ilustracion" display="none">
	<path display="inline" d="M452.213,367.56l-0.738-2.574c-0.059-0.211-0.17-0.402-0.318-0.557l-41.232-42.117l31.09-31.09
		c0.053-0.051,0.074-0.115,0.115-0.172c0.039-0.057,0.094-0.096,0.123-0.158l6.527-12.777c0.043-0.074,0.088-0.145,0.111-0.225
		l4.066-7.957l-20.961,10.703c-0.062,0.033-0.104,0.086-0.156,0.125c-0.057,0.039-0.123,0.064-0.174,0.117l-21.596,21.596
		c0.029-2.271,0.059-4.568,0.082-6.916l-0.914-15.484c2.742-5.203,1.844-8.443,1.812-8.549c-3.42-13.441,5.722-17.566,6.107-17.732
		l3.674-1.553l-3.881-0.918c-2.9-0.689-5.082-0.697-6.727-0.391l0.709-1.291l-3.051,0.916c-7.336,2.201-12.266,6.057-14.653,11.463
		c-3.113,7.045-1.012,14.658,0.223,18.002l-0.918,15.627c0.006,0.674,0.014,1.326,0.021,1.992
		c-5.17-4.775-12.992-11.967-13.869-12.568c-0.617-0.422-1.319-0.547-1.977-0.354c-0.693,0.205-1.173,0.717-1.475,1.15l-5.959-6.086
		c-0.342-0.451-1.905-2.365-4.859-4.021c-0.58-0.402-5.01-3.457-9.007-5.252c-0.462-0.207-0.999-0.129-1.386,0.199l-1.348,1.158
		l-1.717-1.715c-0.51-0.51-1.334-0.51-1.846,0c-0.51,0.51-0.51,1.336,0,1.846l1.742,1.742l-0.888,1.021
		c-0.329,0.385-0.411,0.926-0.202,1.391c1.795,3.996,4.848,8.43,5.252,9.008c1.65,2.955,3.566,4.52,4.02,4.859l32.074,31.402
		l-35.932,35.936l-5.385,5.381c-0.979,0.979-1.016,2.523-0.084,3.459l6.973,6.973c0.932,0.93,2.48,0.893,3.459-0.086l5.383-5.381
		l28.07-28.072c1.404,32.867,4.018,51.287,7.531,51.861l0.211,0.033l0.209-0.033c3.533-0.576,6.154-19.205,7.557-52.453
		l34.581,33.854c0.151,0.15,0.345,0.266,0.554,0.32l2.578,0.736c0.439,0.129,0.92,0.014,1.256-0.301l2.455-2.326
		c0.008-0.008,0.016-0.02,0.023-0.025c0.012-0.01,0.02-0.018,0.025-0.023l2.324-2.457
		C452.223,368.482,452.34,368.003,452.213,367.56z M408.74,319.802c0.041-1.637,0.08-3.301,0.115-4.99l26.949-26.949l2.438,2.436
		L408.74,319.802z M444.182,276.833l0.875,0.875l-5.312,10.396l-5.963-5.963L444.182,276.833z M431.59,283.644l2.373,2.373
		l-25.031,25.029c0.031-1.59,0.061-3.195,0.084-4.83L431.59,283.644z M394.617,263.074c1.727-3.908,5.066-6.904,9.958-8.935
		c-0.006,0.034,0.002,0.069-0.002,0.106c-0.002,0.049-0.002,0.094-0.002,0.144c0.004,0.123,0.023,0.243,0.062,0.36
		c0.006,0.019,0.008,0.037,0.018,0.056c0.104,0.28,0.297,0.532,0.582,0.69c0.637,0.348,1.426,0.114,1.771-0.519l0.047-0.084
		c0.082-0.144,1.133-1.783,5.121-1.533c-3.139,2.697-7.291,8.429-4.645,18.836c0.008,0.029,0.7,2.898-2.18,7.691h-10.147
		C394.253,277.539,391.623,269.851,394.617,263.074z M406.4,293.153h-12.11l0.629-10.651h10.848L406.4,293.153z M376.271,287.554
		c0.025-0.062,0.066-0.131,0.108-0.197c1.438,1.182,9.229,8.34,15.214,13.877c0.016,0.809,0.025,1.598,0.037,2.398l-15.521-15.852
		C376.167,287.707,376.234,287.642,376.271,287.554z M351.5,275.835l1.266-1.455l1.324-1.141c2.483,1.197,5.086,2.836,6.594,3.826
		l-5.354,5.355C354.334,280.919,352.701,278.319,351.5,275.835z M358.007,286.353c-0.391-0.459-0.812-1.025-1.233-1.686l6.154-6.152
		c0.66,0.422,1.227,0.842,1.684,1.232L358.007,286.353z M366.43,281.619l25.26,25.803c0.069,4.189,0.153,8.23,0.25,12.133
		l-32.061-31.385L366.43,281.619z M391.984,323.251l0.053,0.051c0.041,1.525,0.086,3.027,0.131,4.506l-28.697,28.699l-2.373-2.373
		L391.984,323.251z M357.376,371.166l-6.653-6.656l4.385-4.383l6.654,6.652L357.376,371.166z M363.607,364.935l-6.656-6.654
		l2.302-2.299l6.654,6.654L363.607,364.935z M367.752,360.791l-2.438-2.439l26.968-26.969c0.055,1.602,0.112,3.162,0.174,4.703
		L367.752,360.791z M400.365,387.701c-0.547-1.496-1.318-4.385-2.131-9.908c-1.602-10.865-3.607-33.93-4.094-82.028h12.403
		C405.84,365.378,402.039,383.203,400.365,387.701z M442.375,368.933l-34.123-33.41c0.133-3.455,0.25-7.072,0.355-10.82
		l38.586,39.412L442.375,368.933z M447.715,369.455l-1.891,1.785l-1.545-0.443l-0.041-0.037l4.779-4.781l0.039,0.041l0.441,1.543
		L447.715,369.455z"/>
</g>
<g id="Identidad" display="none">
	<g display="inline">
		<path d="M399.62,347.996c4.042,0,5.882-6.469,5.882-12.48c0-6.01-1.84-12.479-5.882-12.479c-4.068,0-5.92,6.469-5.92,12.479
			C393.7,341.527,395.551,347.996,399.62,347.996z M399.59,326.55c0.66,0.191,2.396,3.238,2.396,8.965
			c0,5.666-1.695,8.705-2.37,8.959c-0.686-0.229-2.401-3.24-2.401-8.959C397.215,329.742,398.971,326.722,399.59,326.55z"/>
		<path d="M403.578,263.96c10.938,0.832,21.625,5.312,31.768,13.322c0.322,0.256,0.707,0.379,1.088,0.379
			c0.521,0,1.037-0.229,1.385-0.668c0.602-0.764,0.471-1.867-0.289-2.472c-10.703-8.45-22.033-13.187-33.686-14.069
			c-0.984-0.08-1.812,0.651-1.885,1.619C401.883,263.041,402.609,263.886,403.578,263.96z"/>
		<path d="M365.691,275.714c0.438,0,0.843-0.16,1.149-0.426c0.285-0.242,12.274-10.203,29.648-11.361
			c0.971-0.064,1.704-0.902,1.639-1.871c-0.063-0.969-0.917-1.721-1.871-1.637c-17.409,1.16-32.323,11.375-32.323,13.537
			C363.934,274.927,364.721,275.714,365.691,275.714z"/>
		<path d="M427.725,282.065c-0.781-0.577-1.881-0.407-2.459,0.373c-0.572,0.783-0.406,1.883,0.375,2.459
			c6.07,4.47,16.719,14.517,19.812,31.595c0.154,0.85,0.895,1.445,1.729,1.445c0.104,0,0.211-0.012,0.316-0.029
			c0.955-0.172,1.59-1.086,1.418-2.043C445.6,297.589,434.217,286.843,427.725,282.065z"/>
		<path d="M383.415,279.684c10.687-4.948,22.955-4.403,36.47,1.616c0.893,0.393,1.93-0.004,2.32-0.893
			c0.398-0.888-0.002-1.928-0.889-2.32c-14.488-6.451-27.736-6.988-39.381-1.596c-22.136,10.256-30.463,38.021-30.808,39.203
			c-0.271,0.932,0.263,1.904,1.195,2.182c0.165,0.047,0.329,0.07,0.491,0.07c0.763,0,1.465-0.5,1.688-1.27
			C354.584,316.406,362.714,289.274,383.415,279.684z"/>
		<path d="M437.002,337.779c-0.947-0.021-1.783,0.727-1.818,1.695c-0.48,13.814-5.299,26.062-14.26,36.35
			c-0.09,0.096-9.146,9.406-22.505,9.812c-0.971,0.027-1.733,0.838-1.704,1.811c0.029,0.951,0.812,1.705,1.757,1.705
			c0.021,0,0.036,0,0.055-0.002c14.781-0.445,24.531-10.469,24.995-10.951c9.562-10.975,14.666-23.959,15.179-38.602
			C438.732,338.628,437.973,337.812,437.002,337.779z"/>
		<path d="M364.675,354.462c0.948-0.207,1.552-1.141,1.347-2.092c-4.631-21.48-0.565-39.982,11.758-53.516
			c4.572-5.059,16.355-12.332,28.48-10.337c10.1,1.664,18.107,9.188,23.781,22.298c2.857,7.438,4.34,13.686,4.957,20.881
			c0.08,0.967,0.949,1.682,1.9,1.604c0.969-0.084,1.684-0.936,1.602-1.904c-0.645-7.545-2.193-14.076-5.203-21.906
			c-7.729-17.869-18.658-23.152-26.465-24.439c-13.611-2.238-26.391,5.619-31.658,11.445
			c-13.117,14.398-17.471,33.979-12.591,56.617c0.179,0.824,0.907,1.389,1.718,1.389C364.424,354.5,364.548,354.488,364.675,354.462
			z"/>
		<path d="M367.716,359.638c-0.253-0.936-1.212-1.49-2.155-1.24c-0.938,0.256-1.494,1.221-1.24,2.156
			c1.646,6.098,3.568,11.189,4.893,14.391c2.385,5.768,2.854,6.574,3.795,6.574c0.158,0,0.33-0.021,0.524-0.049
			c0.567-0.072,1.062-0.422,1.325-0.932c0.267-0.508,0.267-1.113,0.002-1.621C374.82,378.839,370.773,370.966,367.716,359.638z"/>
		<path d="M428.084,339.324c1.266-17.828-6.918-38.072-22.805-41.09c-0.961-0.186-1.877,0.446-2.059,1.398
			c-0.18,0.955,0.445,1.875,1.4,2.057c13.777,2.616,21.084,21.441,19.953,37.385c-1.084,15.271-9.99,31.945-31.729,32.943
			c-0.969,0.047-1.721,0.867-1.677,1.84c0.044,0.941,0.823,1.678,1.755,1.678c0.027,0,0.057-0.002,0.082-0.002
			C417.053,374.425,426.893,356.103,428.084,339.324z"/>
		<path d="M381.904,368.904c-5.287-17.559-9.817-41.471-1.368-55.693c3.483-5.869,9.03-9.635,16.482-11.194
			c0.951-0.199,1.561-1.134,1.361-2.083c-0.2-0.95-1.127-1.557-2.082-1.359c-8.459,1.77-14.778,6.092-18.79,12.844
			c-9.099,15.322-4.463,40.273,1.028,58.504c1.368,4.545,3.918,13.559,5.815,20.32c0.217,0.773,0.924,1.285,1.69,1.285
			c0.156,0,0.317-0.021,0.478-0.066c0.935-0.262,1.479-1.232,1.219-2.168C385.838,382.513,383.283,373.474,381.904,368.904z"/>
		<path d="M384.584,335.292c0,14.025,7.898,23.797,14.987,23.797c7.069,0,14.954-9.771,14.954-23.797
			c0-14.027-7.885-23.797-14.954-23.797C392.482,311.496,384.584,321.269,384.584,335.292z M399.572,315.013
			c4.663,0,11.436,7.9,11.436,20.279s-6.771,20.281-11.436,20.281c-5.307,0-11.471-8.859-11.471-20.281
			C388.102,323.873,394.266,315.013,399.572,315.013z"/>
	</g>
</g>
<g id="Layer_6" display="none">
	<g display="inline">
		<g>
			<path fill="#231F20" d="M371.948,327.263c-3.244-2.672-6.263-5.146-8.394-7.668c1.491,0.195,2.981,0.311,4.456,0.311
				c1.019,0,1.951-0.066,2.806-0.164c1.375,3.41,4.966,4.703,8.146,4.703c6.654,0,13.537-5.57,13.537-14.896
				c0-4.129-1.574-7.883-4.442-10.604c-3.274-3.113-8.16-4.77-14.093-4.77c-0.034,0-0.196,0-0.478,0
				c-17.748,0.195-23.502,13.045-23.502,19.307c0,0.016,0,0.033,0,0.064c-0.457-0.146-0.918-0.295-1.377-0.441
				c-7.914-2.541-16.125-5.18-25.306-5.18c-8.422,0-15.271,2.262-19.829,6.557c-3.914,3.686-6.08,8.832-6.08,14.471
				c0,9.586,6.59,19.945,17.211,19.945c7.11,0,10.291-4.574,10.403-4.77c0.396-0.59,0.246-1.377-0.342-1.77
				c-0.574-0.396-1.379-0.246-1.771,0.322c-0.115,0.148-2.604,3.654-8.31,3.654c-7.047,0-14.651-6.652-14.651-17.387
				c0-4.934,1.868-9.408,5.276-12.604c4.082-3.834,10.324-5.85,18.076-5.85c8.784,0,16.782,2.572,24.519,5.047
				c0.786,0.262,1.557,0.49,2.327,0.754c1.082,9.178,7.406,15.617,13.521,21.863c6.228,6.354,12.109,12.354,12.109,20.797
				c0,5.637-1.375,9.914-3.572,13.078c0.345-2.213,0.56-4.523,0.56-6.867c0-8.883-5.246-18.16-13.045-23.092
				c-6.408-4.064-13.457-4.641-19.813-1.623c-8.132,3.836-12.16,12.719-10.062,22.092c2.029,8.998,10.373,19.537,27.221,19.537
				v0.082c0.051,0,0.184,0,0.377,0c1.23,0,5.133-0.082,9.852-1.084c-1.721,5.066-3.59,8.475-3.621,8.541
				c-0.346,0.623-0.115,1.393,0.49,1.736c0.195,0.109,0.41,0.164,0.607,0.164c0.457,0,0.881-0.23,1.127-0.656
				c0.166-0.295,2.443-4.457,4.328-10.488c4.652-1.295,9.701-3.523,13.604-7.344c4.392-4.293,6.621-9.934,6.621-16.732
				C390.466,342.472,380.634,334.394,371.948,327.263z M372.784,316.498c0-3.08,2.079-6.541,4.85-6.541
				c0.724,0,0.738,1.166,0.738,1.297c0,1.295-0.804,2.719-2.131,3.785c-0.738,0.59-1.834,1.246-3.441,1.705
				C372.784,316.66,372.784,316.578,372.784,316.498z M373.85,296.731c0.017,0,0.032,0,0.049,0c5.293,0,9.588,1.408,12.392,4.063
				c2.358,2.229,3.653,5.326,3.653,8.752c0,7.721-5.569,12.342-10.965,12.342c-3.229,0-4.802-1.277-5.522-2.654
				c2.049-0.572,3.459-1.428,4.407-2.182c1.935-1.557,3.099-3.721,3.099-5.783c0-2.229-1.377-3.869-3.295-3.869
				c-2.063,0-3.998,1.064-5.424,3.018c-1.261,1.703-1.982,3.932-1.982,6.08c0,0.262,0.017,0.49,0.033,0.738
				c-0.688,0.08-1.426,0.111-2.244,0.111c-2.131,0-4.295-0.246-6.508-0.672c-0.735-1.377-1.164-2.787-1.164-4.275
				c0-5.293,1.408-9.359,4.194-12.046c3.296-3.196,7.654-3.573,8.916-3.623C373.7,296.731,373.833,296.731,373.85,296.731z
				 M332.337,361.976c-1.869-8.309,1.522-15.85,8.652-19.225c2.327-1.098,4.768-1.639,7.229-1.639c3.39,0,6.851,1.047,10.128,3.109
				c7.077,4.49,11.848,12.898,11.848,20.934c0,3.621-0.539,7.191-1.312,10.438c-3.473,2.771-7.782,3.936-11.799,3.936
				C341.727,379.529,334.154,370.072,332.337,361.976z"/>
		</g>
		<g>
			<path stroke="#000000" stroke-width="0.3851" stroke-miterlimit="10" d="M459.726,353.927"/>
			<path fill="none" d="M444.864,316.853v1.369h-5.086v-2.082h-15.004v2.082h-2.078v15.373h2.078v2.141h15.004v-2.141h5.086v1.414
				c1.141-0.385,2.111-0.916,2.889-1.605c1.484-1.32,2.336-3.408,2.549-6.199h-1.971v-5.084h1.586
				c-0.422-1.561-1.137-2.803-2.16-3.695C446.981,317.751,446.009,317.228,444.864,316.853z"/>
			<path d="M459.911,344.666c1.244,1.082,2.271,2.379,3.057,3.852c0.793,1.48,1.377,3.143,1.744,4.93
				c0.365,1.805,0.623,3.637,0.752,5.443c0.072,1.16,0.141,2.518,0.207,4.08c0.064,1.564,0.188,3.191,0.359,4.826
				c0.17,1.646,0.451,3.232,0.828,4.711c0.094,0.371,0.207,0.723,0.322,1.068h0.988c-0.154-0.412-0.299-0.842-0.416-1.299
				c-0.367-1.436-0.639-2.975-0.807-4.576c-0.168-1.617-0.289-3.225-0.354-4.773c-0.066-1.564-0.137-2.93-0.207-4.096
				c-0.137-1.855-0.396-3.73-0.771-5.57c-0.381-1.877-1-3.619-1.834-5.18c-0.838-1.572-1.936-2.955-3.27-4.113
				c-0.766-0.664-1.662-1.227-2.664-1.701v1.021C458.62,343.685,459.308,344.142,459.911,344.666z"/>
			<path d="M454.169,305.235c1.895,0.765,3.6,1.749,5.096,2.933v-0.447h0.9c-1.646-1.357-3.533-2.487-5.652-3.344
				c-1.285-0.519-2.656-0.905-4.104-1.176v0.94C451.729,304.399,452.987,304.761,454.169,305.235z"/>
			<path d="M463.741,334.232c-1.316,2.287-3.291,4.18-5.893,5.65v1.053c2.969-1.588,5.219-3.678,6.689-6.24
				c1.271-2.201,2.096-4.719,2.494-7.49h-0.936C465.716,329.81,464.933,332.167,463.741,334.232z"/>
			<rect x="408.749" y="302.763" width="36.576" height="0.922"/>
			<rect x="405.745" y="305.765" width="0.924" height="67.811"/>
			<path d="M451.792,367.818c-0.205-3.182-0.516-6.283-0.92-9.227c-0.23-1.59-0.574-3.004-1.021-4.262h-0.98
				c0.479,1.266,0.844,2.725,1.084,4.391c0.406,2.916,0.711,5.996,0.914,9.154c0.131,2.074,0.412,3.979,0.832,5.699h0.961
				C452.226,371.849,451.927,369.931,451.792,367.818z"/>
			<rect x="421.772" y="350.175" width="0.924" height="23.4"/>
			<path d="M446.425,349.248c-1.875-1.375-4.613-2.078-8.16-2.078h-13.488v0.926h13.484c3.014,0,5.371,0.521,7.064,1.541v-0.389
				H446.425L446.425,349.248z"/>
			<rect x="408.749" y="375.656" width="10.941" height="0.924"/>
			<rect x="455.491" y="375.656" width="10.959" height="0.924"/>
			<path d="M447.757,318.425c1.023,0.893,1.738,2.135,2.16,3.695h0.965c-0.457-1.857-1.295-3.33-2.514-4.395
				c-0.938-0.811-2.115-1.432-3.504-1.852v0.977C446.009,317.228,446.981,317.751,447.757,318.425z"/>
			<rect x="424.774" y="335.736" width="15.004" height="0.924"/>
			<rect x="424.774" y="315.216" width="15.004" height="0.924"/>
			<rect x="421.772" y="318.222" width="0.924" height="15.373"/>
			<path d="M447.753,333.404c-0.771,0.688-1.748,1.221-2.889,1.604v0.98c1.395-0.432,2.564-1.061,3.508-1.895
				c1.68-1.498,2.641-3.811,2.861-6.891H450.3C450.089,329.996,449.237,332.083,447.753,333.404z"/>
			<rect x="404.587" y="301.606" width="3.234" height="3.233"/>
			<rect x="446.249" y="301.606" width="3.234" height="3.233"/>
			<rect x="420.614" y="314.062" width="3.234" height="3.236"/>
			<rect x="420.614" y="334.521" width="3.234" height="3.234"/>
			<rect x="420.614" y="346.017" width="3.234" height="3.23"/>
			<rect x="446.249" y="350.175" width="3.234" height="3.23"/>
			<rect x="420.614" y="374.5" width="3.234" height="3.236"/>
			<rect x="404.587" y="374.5" width="3.234" height="3.236"/>
			<rect x="451.333" y="374.5" width="3.234" height="3.236"/>
			<rect x="467.374" y="374.5" width="3.232" height="3.236"/>
			<rect x="453.694" y="340.199" width="3.23" height="3.23"/>
			<rect x="449.255" y="323.044" width="3.23" height="3.236"/>
			<rect x="440.706" y="314.062" width="3.23" height="3.236"/>
			<rect x="440.706" y="334.521" width="3.23" height="3.234"/>
			<rect x="460.188" y="308.646" width="3.236" height="3.232"/>
			<path d="M468.532,326.281v-3.236h-1.24v-18.537c0.67-0.196,1.164-0.813,1.164-1.553c0-0.896-0.729-1.625-1.629-1.625
				c-0.898,0-1.623,0.729-1.623,1.625c0,0.737,0.49,1.354,1.164,1.553v12.445c-0.168-0.543-0.361-1.076-0.574-1.604
				c-0.402-0.98-0.898-1.906-1.445-2.801v0.252h-0.924c0.584,0.92,1.102,1.881,1.516,2.9c0.812,2,1.283,4.154,1.406,6.418h0.021
				v0.926h-1.072v3.234h1.072v18.432c-0.674,0.201-1.164,0.816-1.164,1.555c0,0.896,0.727,1.623,1.623,1.623
				c0.898,0,1.629-0.727,1.629-1.623c0-0.736-0.494-1.354-1.164-1.555v-18.43H468.532L468.532,326.281z"/>
		</g>
	</g>
</g>
</svg>
